<?xml version="1.0" encoding="utf-8"?>
<!-- Generator: Adobe Illustrator 16.0.0, SVG Export Plug-In . SVG Version: 6.00 Build 0)  -->
<!DOCTYPE svg PUBLIC "-//W3C//DTD SVG 1.1//EN" "http://www.w3.org/Graphics/SVG/1.1/DTD/svg11.dtd">
<svg version="1.1" id="Layer_1" xmlns="http://www.w3.org/2000/svg" xmlns:xlink="http://www.w3.org/1999/xlink" x="0px" y="0px"
	 width="200px" height="200px" viewBox="0 0 200 200" enable-background="new 0 0 200 200" xml:space="preserve">
<g>
	<path fill="#FBA919" d="M139.73,38.652l-4.471-2.06l-2.148-1.811l-3.326,3.312l1.531,10.239c0.006,0.038-0.004,0.075-0.026,0.107
		l-1.712,2.342c-0.027,0.037-0.07,0.061-0.117,0.061c-0.045,0-0.09-0.022-0.117-0.061l-1.713-2.342
		c-0.02-0.032-0.031-0.069-0.023-0.107l1.531-10.239l-3.33-3.312l-2.146,1.811l-4.472,2.06c-0.659,0.27-1.44,0.82-1.641,1.398
		c0,0-4.859,11.569-2.225,11.569h28.27c2.637,0-2.224-11.569-2.224-11.569C141.085,39.363,140.393,38.922,139.73,38.652
		L139.73,38.652z"/>
	<path fill="#FBA919" d="M129.461,34.716c4.573,0,7.984-4.26,8.063-11.403c0.05-4.957-2.312-7.923-8.063-7.923
		c-5.75,0-8.111,2.966-8.061,7.923C121.479,30.456,124.889,34.716,129.461,34.716L129.461,34.716z"/>
</g>
<g>
	<path fill="#FBA919" d="M170.77,104.146l-4.47-2.061l-2.147-1.812l-3.327,3.313l1.53,10.238c0.006,0.038-0.004,0.075-0.025,0.106
		l-1.712,2.342c-0.027,0.037-0.07,0.062-0.117,0.062c-0.045,0-0.09-0.022-0.116-0.062l-1.713-2.342
		c-0.021-0.031-0.031-0.068-0.023-0.106l1.531-10.238l-3.33-3.313l-2.146,1.812l-4.471,2.061c-0.66,0.27-1.44,0.819-1.641,1.397
		c0,0-4.859,11.567-2.225,11.567h28.268c2.639,0-2.223-11.567-2.223-11.567C172.124,104.857,171.432,104.416,170.77,104.146
		L170.77,104.146z"/>
	<path fill="#FBA919" d="M160.5,100.211c4.573,0,7.984-4.26,8.063-11.403c0.049-4.957-2.312-7.923-8.063-7.923
		c-5.749,0-8.111,2.966-8.061,7.923C152.518,95.951,155.93,100.211,160.5,100.211L160.5,100.211z"/>
</g>
<g>
	<path fill="#FBA919" d="M139.73,172.904l-4.471-2.059l-2.148-1.813l-3.326,3.313l1.531,10.238c0.006,0.038-0.004,0.075-0.026,0.107
		l-1.712,2.342c-0.027,0.037-0.07,0.061-0.117,0.061c-0.045,0-0.09-0.021-0.117-0.061l-1.713-2.342
		c-0.02-0.032-0.031-0.069-0.023-0.107l1.531-10.238l-3.33-3.313l-2.146,1.813l-4.472,2.059c-0.659,0.271-1.44,0.82-1.641,1.398
		c0,0-4.859,11.568-2.225,11.568h28.27c2.637,0-2.224-11.568-2.224-11.568C141.085,173.616,140.393,173.175,139.73,172.904
		L139.73,172.904z"/>
	<path fill="#FBA919" d="M129.461,168.971c4.573,0,7.984-4.262,8.063-11.404c0.05-4.957-2.312-7.922-8.063-7.922
		c-5.75,0-8.111,2.965-8.061,7.922C121.479,164.709,124.889,168.971,129.461,168.971L129.461,168.971z"/>
</g>
<path fill="#FBA919" d="M30.264,94.446c0,3.447,2.375,6.318,5.576,7.143v24.326h-3.716c-1.025,0-1.859,0.827-1.859,1.851
	c0,1.024,0.835,1.854,1.859,1.854h55.755c1.032,0,1.857-0.829,1.857-1.854c0-1.022-0.825-1.851-1.857-1.851h-3.716v-24.326
	c3.201-0.825,5.573-3.696,5.573-7.143v-1.85H30.264V94.446z M67.436,101.852c4.107,0,7.43-3.315,7.43-7.406
	c0,3.447,2.376,6.318,5.579,7.143v24.326H52.566v-24.063c4.109,0,7.434-3.315,7.434-7.406C60,98.536,63.333,101.852,67.436,101.852
	L67.436,101.852z M50.707,101.589v24.326h-11.15v-24.326c3.202-0.825,5.576-3.696,5.576-7.143
	C45.132,97.893,47.506,100.764,50.707,101.589L50.707,101.589z M82.301,75.935H37.698l-7.434,14.809h59.473L82.301,75.935z
	 M45.966,80.049l-3.716,7.403c-0.168,0.326-0.494,0.513-0.834,0.513c-0.139,0-0.282-0.026-0.415-0.096
	c-0.458-0.228-0.646-0.786-0.413-1.242l3.716-7.404c0.232-0.456,0.787-0.639,1.244-0.416C46.011,79.037,46.193,79.594,45.966,80.049
	L45.966,80.049z M53.401,80.049l-3.717,7.403c-0.167,0.326-0.494,0.513-0.835,0.513c-0.138,0-0.279-0.026-0.414-0.096
	c-0.458-0.228-0.646-0.786-0.413-1.242l3.716-7.404c0.232-0.456,0.791-0.639,1.244-0.416C53.445,79.037,53.626,79.594,53.401,80.049
	L53.401,80.049z M60.93,87.042c0,0.514-0.413,0.925-0.93,0.925c-0.512,0-0.929-0.413-0.929-0.925v-7.405
	c0-0.513,0.417-0.924,0.929-0.924c0.517,0,0.93,0.412,0.93,0.924V87.042z M71.603,87.852c-0.147,0.08-0.299,0.116-0.453,0.116
	c-0.325,0-0.645-0.174-0.812-0.482l-4.063-7.404c-0.249-0.447-0.082-1.012,0.368-1.253c0.443-0.247,1.018-0.087,1.266,0.365
	l4.064,7.403C72.211,87.046,72.053,87.608,71.603,87.852L71.603,87.852z M78.999,87.87c-0.13,0.067-0.267,0.098-0.414,0.098
	c-0.339,0-0.664-0.188-0.827-0.514l-3.716-7.404c-0.233-0.456-0.046-1.012,0.414-1.241c0.447-0.227,1.016-0.043,1.248,0.417
	l3.716,7.404C79.646,87.084,79.465,87.642,78.999,87.87L78.999,87.87z M46.062,115.092v-4.268c-0.545-0.327-0.93-0.891-0.93-1.568
	c0-1.023,0.835-1.854,1.86-1.854c1.031,0,1.857,0.83,1.857,1.854c0,0.678-0.381,1.241-0.929,1.568v4.268
	c0.548,0.326,0.929,0.889,0.929,1.568c0,1.023-0.826,1.852-1.857,1.852c-1.024,0-1.86-0.828-1.86-1.852
	C45.132,115.979,45.517,115.418,46.062,115.092L46.062,115.092z M37.698,72.233c0-1.022,0.835-1.851,1.859-1.851h40.888
	c1.033,0,1.856,0.829,1.856,1.851c0,1.023-0.825,1.851-1.856,1.851H39.557C38.533,74.084,37.698,73.256,37.698,72.233L37.698,72.233
	z"/>
<g enable-background="new    ">
	<path fill="#58B7DF" d="M80.492,41.009l1.764,3.239l1.788-3.239h1.404l-2.436,4.176l2.436,4.044H83.96l-1.764-3.096l-1.8,3.096
		h-1.404l2.448-3.972l-2.448-4.248H80.492z"/>
	<path fill="#58B7DF" d="M85.845,42.881c0-1.136,0.462-1.704,1.386-1.704s1.386,0.568,1.386,1.704c0,0.575-0.12,1.008-0.36,1.296
		c-0.24,0.288-0.582,0.432-1.026,0.432s-0.786-0.144-1.026-0.432C85.964,43.889,85.845,43.457,85.845,42.881z M86.918,42.191
		c-0.06,0.141-0.09,0.37-0.09,0.69c0,0.319,0.03,0.552,0.09,0.695c0.06,0.145,0.166,0.217,0.318,0.217s0.258-0.072,0.318-0.217
		c0.06-0.144,0.09-0.376,0.09-0.695c0-0.32-0.03-0.55-0.09-0.69c-0.06-0.14-0.167-0.21-0.318-0.21S86.979,42.051,86.918,42.191z
		 M87.26,49.301l2.664-8.364l0.744,0.252l-2.664,8.352L87.26,49.301z M89.313,47.633c0-1.136,0.462-1.704,1.386-1.704
		c0.924,0,1.386,0.568,1.386,1.704c0,0.576-0.12,1.008-0.36,1.296c-0.24,0.288-0.582,0.432-1.026,0.432
		c-0.444,0-0.786-0.144-1.026-0.432C89.433,48.641,89.313,48.209,89.313,47.633z M90.699,46.745c-0.156,0-0.264,0.07-0.324,0.21
		c-0.06,0.141-0.09,0.368-0.09,0.685s0.03,0.548,0.09,0.696c0.06,0.147,0.166,0.222,0.318,0.222s0.258-0.072,0.318-0.216
		c0.06-0.145,0.09-0.378,0.09-0.702s-0.028-0.554-0.084-0.69C90.96,46.813,90.854,46.745,90.699,46.745z"/>
</g>
<g enable-background="new    ">
	<path fill="#58B7DF" d="M118.057,92.896h-1.344v-3.384l-2.58-4.836h1.5l1.74,3.527l1.752-3.527h1.487l-2.556,4.836V92.896z"/>
	<path fill="#58B7DF" d="M120.912,86.548c0-1.136,0.463-1.704,1.387-1.704s1.386,0.568,1.386,1.704c0,0.575-0.12,1.008-0.36,1.296
		s-0.582,0.432-1.025,0.432c-0.444,0-0.787-0.144-1.026-0.432C121.032,87.556,120.912,87.124,120.912,86.548z M121.986,85.858
		c-0.061,0.141-0.09,0.37-0.09,0.69c0,0.319,0.029,0.552,0.09,0.695c0.061,0.145,0.166,0.217,0.318,0.217
		c0.151,0,0.258-0.072,0.318-0.217c0.059-0.144,0.09-0.376,0.09-0.695c0-0.32-0.031-0.55-0.09-0.69
		c-0.061-0.14-0.167-0.21-0.318-0.21C122.152,85.648,122.047,85.718,121.986,85.858z M122.328,92.968l2.664-8.364l0.744,0.252
		l-2.664,8.352L122.328,92.968z M124.381,91.3c0-1.136,0.461-1.704,1.386-1.704c0.924,0,1.386,0.568,1.386,1.704
		c0,0.576-0.12,1.008-0.359,1.296c-0.24,0.288-0.582,0.432-1.026,0.432s-0.786-0.144-1.026-0.432S124.381,91.876,124.381,91.3z
		 M125.767,90.412c-0.156,0-0.265,0.07-0.324,0.21c-0.06,0.141-0.09,0.368-0.09,0.685s0.03,0.548,0.09,0.696
		c0.06,0.147,0.166,0.222,0.317,0.222c0.152,0,0.259-0.072,0.318-0.216c0.061-0.145,0.09-0.378,0.09-0.702s-0.027-0.554-0.084-0.69
		C126.028,90.48,125.922,90.412,125.767,90.412z"/>
</g>
<g enable-background="new    ">
	<path fill="#58B7DF" d="M107.59,136.508v-1.164h5.4v1.283l-3.816,5.545v0.227h3.816v1.164h-5.4v-1.271l3.805-5.545v-0.238H107.59z"
		/>
	<path fill="#58B7DF" d="M113.734,137.215c0-1.135,0.463-1.703,1.387-1.703s1.386,0.568,1.386,1.703c0,0.576-0.12,1.008-0.36,1.297
		c-0.24,0.287-0.582,0.432-1.025,0.432c-0.444,0-0.787-0.145-1.026-0.432C113.854,138.223,113.734,137.791,113.734,137.215z
		 M114.809,136.525c-0.061,0.141-0.09,0.369-0.09,0.689s0.029,0.553,0.09,0.695c0.061,0.145,0.166,0.217,0.318,0.217
		c0.151,0,0.258-0.072,0.318-0.217c0.059-0.143,0.09-0.375,0.09-0.695s-0.031-0.549-0.09-0.689
		c-0.061-0.141-0.167-0.211-0.318-0.211C114.975,136.314,114.869,136.385,114.809,136.525z M115.15,143.635l2.664-8.363l0.744,0.252
		l-2.664,8.352L115.15,143.635z M117.203,141.967c0-1.135,0.461-1.703,1.386-1.703c0.924,0,1.386,0.568,1.386,1.703
		c0,0.576-0.12,1.008-0.359,1.297c-0.24,0.287-0.582,0.432-1.026,0.432s-0.786-0.145-1.026-0.432
		C117.322,142.975,117.203,142.543,117.203,141.967z M118.589,141.078c-0.156,0-0.265,0.07-0.324,0.211s-0.09,0.367-0.09,0.684
		s0.03,0.549,0.09,0.697c0.06,0.146,0.166,0.221,0.317,0.221c0.152,0,0.259-0.072,0.318-0.215c0.061-0.145,0.09-0.379,0.09-0.703
		s-0.027-0.553-0.084-0.689C118.851,141.146,118.744,141.078,118.589,141.078z"/>
</g>
<polygon opacity="0.25" fill="#FFFFFF" enable-background="new    " points="140.499,98.198 137.379,96.396 137.379,99 96,99 
	96,101 137.379,101 137.379,103.604 140.499,101.802 143.62,100 "/>
<polygon opacity="0.25" fill="#FFFFFF" enable-background="new    " points="111.16,159.018 110.218,155.54 108.424,157.343 
	87.874,136.793 86.46,138.207 107.014,158.761 105.137,160.648 108.618,161.57 112.102,162.495 "/>
<polygon opacity="0.25" fill="#FFFFFF" enable-background="new    " points="107.662,39.237 104.217,40.29 106.154,42.099 
	86.46,61.793 87.874,63.207 107.617,43.463 109.486,45.206 110.297,41.696 111.105,38.184 "/>
</svg>
