<?xml version="1.0" encoding="utf-8"?>
<!-- Generator: Adobe Illustrator 16.0.0, SVG Export Plug-In . SVG Version: 6.00 Build 0)  -->
<!DOCTYPE svg PUBLIC "-//W3C//DTD SVG 1.1//EN" "http://www.w3.org/Graphics/SVG/1.1/DTD/svg11.dtd">
<svg version="1.1" id="Layer_1" xmlns="http://www.w3.org/2000/svg" xmlns:xlink="http://www.w3.org/1999/xlink" x="0px" y="0px"
	 width="1058.572px" height="204px" viewBox="0 24.357 1058.572 204" enable-background="new 0 24.357 1058.572 204"
	 xml:space="preserve">
<g>
	<polygon fill="#B7B7B8" points="778.764,153.416 778.924,171.979 791.371,159.312 778.592,146.751 	"/>
	<g>
		<g>
			<path id="SVGID_1_" fill="#FBA919" d="M39.914,168.505c0.761,0.763,1.157,1.687,1.202,2.756c0.041,1.082-0.313,2.02-1.027,2.814
				c-0.752,0.789-1.652,1.213-2.719,1.244c-1.078,0.039-2.008-0.324-2.814-1.091c-0.791-0.761-1.199-1.683-1.199-2.756
				c0-1.071,0.363-2.015,1.098-2.815c0.727-0.793,1.627-1.211,2.709-1.246c0.047,0,0.092,0,0.139,0
				C38.319,167.412,39.19,167.783,39.914,168.505"/>
		</g>
	</g>
	<g>
		<g>
			<path id="SVGID_3_" fill="#FBA919" d="M40.127,177.873l4.686,7.488l5.73,3.129c0.541,0.34,0.824,0.834,0.824,1.455
				c0,0.49-0.184,0.916-0.529,1.299c-0.348,0.383-0.752,0.574-1.246,0.574c-0.147,0-0.424-0.08-0.832-0.217l-6.141-3.426
				c-0.209-0.143-0.377-0.313-0.521-0.52l-1.779-2.813l-0.723,6.975l6.248,21.336c0,0.07,0.021,0.159,0.057,0.258
				c0.035,0.098,0.039,0.186,0.039,0.262c0,0.761-0.242,1.404-0.762,1.925c-0.533,0.515-1.141,0.784-1.832,0.784
				c-1.248,0.062-2.121-0.53-2.613-1.775l-4.455-15.404l-0.521,4.686c0,0.14-0.029,0.277-0.104,0.416
				c-0.078,0.137-0.139,0.302-0.205,0.471c-0.08,0.166-0.105,0.295-0.105,0.367l-4.369,9.775c-0.494,0.963-1.252,1.467-2.289,1.467
				c-0.758,0.061-1.42-0.168-1.936-0.69c-0.52-0.517-0.781-1.149-0.781-1.919c0-0.348,0.07-0.734,0.213-1.143l4.057-9.057
				l2.283-19.144l-2.496,2.497l-0.719,6.865c-0.074,0.412-0.264,0.799-0.576,1.149c-0.316,0.339-0.711,0.519-1.203,0.519
				c-0.486,0-0.896-0.18-1.238-0.519c-0.344-0.353-0.523-0.769-0.523-1.253v-0.21l0.936-8.011c0.064-0.35,0.205-0.668,0.42-0.943
				l7.072-7.178c0.836-0.764,1.705-1.137,2.6-1.137C38.114,176.212,39.223,176.761,40.127,177.873"/>
		</g>
	</g>
	<g>
		<g>
			<path id="SVGID_5_" fill="#FBA919" d="M83.879,199.152v-13.727h30.816v13.727c0,2.403-1.937,4.35-4.338,4.35H88.221
				C85.821,203.501,83.879,201.556,83.879,199.152 M163.927,199.152v-13.727h30.808v13.727c0,2.403-1.941,4.35-4.332,4.35H168.27
				C165.862,203.501,163.927,201.556,163.927,199.152 M83.879,173.757c0-2.395,1.941-4.34,4.342-4.34h22.137
				c2.401,0,4.338,1.945,4.338,4.34v2.688H83.879V173.757z M163.927,173.757c0-2.395,1.935-4.34,4.343-4.34h22.133
				c2.391,0,4.332,1.945,4.332,4.34v2.688h-30.808V173.757z M166.387,154.123c-4.743,0-9.504-1.494-13.51-4.484
				c-3.83,2.843-8.527,4.484-13.531,4.484c-4.76,0-9.514-1.494-13.535-4.484c-3.814,2.843-8.523,4.484-13.521,4.484
				c-4.777,0-9.529-1.498-13.537-4.484c-3.814,2.843-8.516,4.484-13.525,4.484c-3.965,0-7.691-1.016-10.938-2.82v63.089
				c0,1.683,1.365,3.034,3.043,3.034h47.793v-46.914c0-1.678,1.346-3.031,3.02-3.031h22.385c1.682,0,3.041,1.354,3.041,3.031v46.914
				h47.772c1.682,0,3.041-1.354,3.041-3.034v-63.089c-3.244,1.806-6.965,2.82-10.932,2.82c-4.752,0-9.502-1.494-13.529-4.484
				C176.106,152.48,171.405,154.123,166.387,154.123"/>
		</g>
		<g>
			<defs>
				<path id="SVGID_2_" d="M83.879,199.152v-13.727h30.816v13.727c0,2.403-1.937,4.35-4.338,4.35H88.221
					C85.821,203.501,83.879,201.556,83.879,199.152 M163.927,199.152v-13.727h30.808v13.727c0,2.403-1.941,4.35-4.332,4.35H168.27
					C165.862,203.501,163.927,201.556,163.927,199.152 M83.879,173.757c0-2.395,1.941-4.34,4.342-4.34h22.137
					c2.401,0,4.338,1.945,4.338,4.34v2.688H83.879V173.757z M163.927,173.757c0-2.395,1.935-4.34,4.343-4.34h22.133
					c2.391,0,4.332,1.945,4.332,4.34v2.688h-30.808V173.757z M166.387,154.123c-4.743,0-9.504-1.494-13.51-4.484
					c-3.83,2.843-8.527,4.484-13.531,4.484c-4.76,0-9.514-1.494-13.535-4.484c-3.814,2.843-8.523,4.484-13.521,4.484
					c-4.777,0-9.529-1.498-13.537-4.484c-3.814,2.843-8.516,4.484-13.525,4.484c-3.965,0-7.691-1.016-10.938-2.82v63.089
					c0,1.683,1.365,3.034,3.043,3.034h47.793v-46.914c0-1.678,1.346-3.031,3.02-3.031h22.385c1.682,0,3.041,1.354,3.041,3.031
					v46.914h47.772c1.682,0,3.041-1.354,3.041-3.034v-63.089c-3.244,1.806-6.965,2.82-10.932,2.82
					c-4.752,0-9.502-1.494-13.529-4.484C176.106,152.48,171.405,154.123,166.387,154.123"/>
			</defs>
			<clipPath id="SVGID_4_">
				<use xlink:href="#SVGID_2_"  overflow="visible"/>
			</clipPath>
			<rect x="74.29" y="149.638" clip-path="url(#SVGID_4_)" fill="#FBA919" width="130.096" height="67.787"/>
		</g>
	</g>
	<g>
		<g>
			<path id="SVGID_7_" fill="#FBA919" d="M90.604,82.328c-4.189,0-7.852,2.8-8.955,6.836c-0.488,1.785-11.6,39.485-11.6,42.306
				c0,8.377,6.795,15.168,15.178,15.168c5.908,0,11.025-3.383,13.525-8.303c2.514,4.92,7.627,8.303,13.537,8.303
				c5.895,0,11.02-3.383,13.521-8.303c2.5,4.92,7.619,8.303,13.535,8.303c5.91,0,11.021-3.383,13.531-8.303
				c2.502,4.92,7.621,8.303,13.51,8.303c5.918,0,11.031-3.383,13.537-8.303c2.51,4.92,7.619,8.303,13.529,8.303
				c8.385,0,15.18-6.791,15.18-15.168c0-2.754-11.29-42.238-11.29-42.238c-1.087-4.076-4.774-6.904-8.972-6.904H90.604z"/>
		</g>
		<g>
			<defs>
				<path id="SVGID_6_" d="M90.604,82.328c-4.189,0-7.852,2.8-8.955,6.836c-0.488,1.785-11.6,39.485-11.6,42.306
					c0,8.377,6.795,15.168,15.178,15.168c5.908,0,11.025-3.383,13.525-8.303c2.514,4.92,7.627,8.303,13.537,8.303
					c5.895,0,11.02-3.383,13.521-8.303c2.5,4.92,7.619,8.303,13.535,8.303c5.91,0,11.021-3.383,13.531-8.303
					c2.502,4.92,7.621,8.303,13.51,8.303c5.918,0,11.031-3.383,13.537-8.303c2.51,4.92,7.619,8.303,13.529,8.303
					c8.385,0,15.18-6.791,15.18-15.168c0-2.754-11.29-42.238-11.29-42.238c-1.087-4.076-4.774-6.904-8.972-6.904H90.604z"/>
			</defs>
			<clipPath id="SVGID_8_">
				<use xlink:href="#SVGID_6_"  overflow="visible"/>
			</clipPath>
			<rect x="70.049" y="82.328" clip-path="url(#SVGID_8_)" fill="#FBA919" width="138.584" height="64.311"/>
		</g>
	</g>
	
		<line fill="none" stroke="#B7B7B8" stroke-linecap="round" stroke-miterlimit="10" stroke-dasharray="1.389,2.778" x1="646.549" y1="159" x2="780.567" y2="159.365"/>
	<polygon fill="#B7B7B8" points="385.764,153.416 385.924,171.979 398.372,159.312 385.592,146.751 	"/>
	
		<line fill="none" stroke="#B7B7B8" stroke-linecap="round" stroke-miterlimit="10" stroke-dasharray="1.389,2.778" x1="253.549" y1="159" x2="387.567" y2="159.365"/>
	<g>
		<path fill="#FBA919" d="M458.346,143.979c0.756-0.53,0.942-1.576,0.4-2.343c-1.68-2.385-2.538-5.26-2.447-8.186
			c0.102-2.926,1.142-5.744,2.986-8.013c0.604-0.714,0.521-1.776-0.197-2.384c-0.713-0.599-1.772-0.512-2.378,0.197
			c-0.009,0.023-0.034,0.044-0.056,0.066c-2.291,2.843-3.603,6.358-3.733,10.017l0.001,0.008c-0.105,3.656,0.968,7.25,3.078,10.244
			c0.039,0.06,0.086,0.119,0.139,0.176C456.704,144.362,457.648,144.475,458.346,143.979 M450.538,150.401
			c0.746-0.558,0.899-1.61,0.35-2.36l-0.01-0.014c-3.219-4.295-4.866-9.547-4.69-14.902c0.184-5.355,2.18-10.493,5.668-14.563
			c0.615-0.696,0.557-1.766-0.145-2.377c-0.698-0.625-1.757-0.562-2.373,0.141l-0.046,0.042c-3.988,4.645-6.271,10.52-6.482,16.643
			c-0.192,6.121,1.696,12.141,5.365,17.039c0.043,0.054,0.08,0.104,0.127,0.152C448.881,150.82,449.84,150.916,450.538,150.401
			 M442.714,156.857c0.767-0.531,0.942-1.584,0.403-2.342c-0.025-0.033-0.047-0.07-0.074-0.1c-4.754-6.187-7.225-13.83-6.977-21.627
			c0.264-7.802,3.219-15.272,8.363-21.136c0.642-0.68,0.596-1.754-0.089-2.374c-0.686-0.637-1.75-0.592-2.389,0.086
			c-0.021,0.018-0.026,0.044-0.047,0.065c-5.666,6.453-8.919,14.667-9.213,23.241l0.002,0.002
			c-0.269,8.584,2.438,16.99,7.676,23.798c0.043,0.063,0.09,0.114,0.144,0.174C441.083,157.251,442.021,157.355,442.714,156.857"/>
		<path fill="none" d="M458.347,143.979c0.755-0.53,0.94-1.576,0.398-2.343c-1.683-2.389-2.534-5.262-2.443-8.188
			c0.1-2.925,1.141-5.744,2.983-8.013c0.604-0.712,0.521-1.776-0.197-2.382c-0.713-0.599-1.775-0.511-2.379,0.198
			c-0.008,0.024-0.031,0.043-0.053,0.063c-2.292,2.845-3.605,6.362-3.734,10.017l0.004,0.012c-0.109,3.654,0.967,7.252,3.074,10.242
			c0.043,0.063,0.085,0.119,0.139,0.176C456.704,144.363,457.649,144.475,458.347,143.979 M450.538,150.403
			c0.744-0.56,0.897-1.61,0.35-2.36l-0.012-0.014c-3.215-4.299-4.863-9.551-4.688-14.904c0.184-5.354,2.18-10.495,5.664-14.567
			c0.627-0.687,0.561-1.759-0.141-2.372c-0.695-0.627-1.757-0.562-2.374,0.143l-0.042,0.038c-3.993,4.646-6.273,10.52-6.489,16.641
			c-0.188,6.123,1.701,12.144,5.374,17.05c0.035,0.048,0.075,0.096,0.123,0.146C448.887,150.824,449.84,150.916,450.538,150.403
			 M442.713,156.859c0.769-0.533,0.943-1.586,0.403-2.344c-0.023-0.035-0.046-0.07-0.074-0.1c-4.755-6.187-7.224-13.83-6.978-21.629
			c0.265-7.797,3.221-15.271,8.366-21.134c0.642-0.679,0.595-1.754-0.091-2.374c-0.688-0.643-1.755-0.595-2.388,0.086
			c-0.021,0.018-0.025,0.043-0.051,0.067c-5.664,6.448-8.918,14.661-9.211,23.239l0.002,0.004
			c-0.266,8.58,2.442,16.984,7.678,23.796c0.043,0.063,0.088,0.114,0.143,0.174C441.082,157.251,442.023,157.354,442.713,156.859"/>
	</g>
	<g>
		<path fill="#FBA919" d="M571.362,143.979c0.698,0.495,1.644,0.383,2.207-0.218c0.053-0.057,0.099-0.116,0.139-0.176
			c2.11-2.994,3.185-6.588,3.078-10.244l0.001-0.008c-0.133-3.658-1.442-7.174-3.733-10.017c-0.021-0.021-0.046-0.042-0.056-0.066
			c-0.604-0.709-1.665-0.796-2.378-0.197c-0.72,0.607-0.802,1.67-0.196,2.384c1.844,2.269,2.885,5.087,2.985,8.013
			c0.091,2.926-0.769,5.801-2.448,8.186C570.419,142.403,570.605,143.449,571.362,143.979 M579.171,150.401
			c0.696,0.515,1.655,0.419,2.234-0.198c0.048-0.051,0.085-0.101,0.128-0.154c3.669-4.897,5.559-10.918,5.365-17.039
			c-0.213-6.123-2.495-11.998-6.484-16.642l-0.044-0.042c-0.615-0.702-1.676-0.766-2.373-0.141c-0.7,0.611-0.76,1.681-0.146,2.377
			c3.489,4.07,5.485,9.207,5.668,14.562c0.177,5.356-1.472,10.608-4.689,14.903l-0.011,0.013
			C578.27,148.791,578.424,149.843,579.171,150.401 M586.994,156.857c0.691,0.498,1.632,0.395,2.199-0.211
			c0.054-0.061,0.099-0.109,0.144-0.174c5.236-6.807,7.943-15.215,7.676-23.797l0.002-0.002c-0.294-8.575-3.547-16.79-9.214-23.242
			c-0.02-0.021-0.026-0.047-0.046-0.065c-0.639-0.679-1.703-0.723-2.389-0.086c-0.687,0.62-0.729,1.693-0.089,2.374
			c5.146,5.863,8.101,13.334,8.363,21.135c0.247,7.797-2.223,15.441-6.977,21.627c-0.027,0.029-0.049,0.066-0.074,0.101
			C586.05,155.273,586.227,156.326,586.994,156.857"/>
		<path fill="none" d="M571.361,143.979c0.697,0.495,1.643,0.384,2.208-0.218c0.054-0.057,0.096-0.111,0.139-0.176
			c2.106-2.99,3.185-6.588,3.074-10.242l0.003-0.012c-0.128-3.654-1.441-7.172-3.733-10.017c-0.021-0.02-0.044-0.04-0.053-0.063
			c-0.604-0.708-1.666-0.796-2.379-0.198c-0.72,0.605-0.804,1.67-0.197,2.382c1.844,2.269,2.885,5.088,2.983,8.013
			c0.091,2.926-0.763,5.799-2.443,8.188C570.419,142.403,570.605,143.449,571.361,143.979 M579.171,150.403
			c0.696,0.513,1.649,0.421,2.234-0.2c0.048-0.051,0.088-0.099,0.123-0.146c3.672-4.906,5.563-10.926,5.374-17.049
			c-0.215-6.121-2.497-11.997-6.489-16.642l-0.043-0.038c-0.615-0.705-1.678-0.77-2.373-0.143c-0.699,0.612-0.767,1.685-0.142,2.372
			c3.484,4.073,5.482,9.213,5.664,14.566c0.176,5.354-1.474,10.606-4.688,14.905l-0.012,0.015
			C578.271,148.792,578.424,149.843,579.171,150.403 M586.995,156.859c0.69,0.494,1.632,0.393,2.199-0.213
			c0.055-0.059,0.1-0.109,0.143-0.174c5.233-6.811,7.942-15.215,7.678-23.797l0.002-0.002c-0.293-8.578-3.547-16.792-9.212-23.24
			c-0.025-0.024-0.031-0.049-0.05-0.067c-0.634-0.681-1.7-0.729-2.388-0.086c-0.688,0.619-0.731,1.695-0.092,2.374
			c5.147,5.863,8.104,13.336,8.367,21.133c0.245,7.799-2.224,15.443-6.978,21.629c-0.028,0.029-0.052,0.064-0.074,0.101
			C586.051,155.273,586.227,156.326,586.995,156.859"/>
	</g>
	<path fill="#FBA919" d="M471.426,201.068v-7.5h86.744v7.5c0,6.734-5.476,12.211-12.213,12.211h-62.318
		C476.905,213.279,471.426,207.802,471.426,201.068 M471.426,81.527h86.75v108.771h-86.75V81.527z M471.426,69.504
		c0-6.734,5.479-12.218,12.213-12.218h62.318c6.737,0,12.213,5.484,12.213,12.218v8.744h-86.744V69.504z M483.639,54.017
		c-8.539,0-15.479,6.944-15.479,15.487v131.564c0,8.541,6.94,15.484,15.479,15.484h62.318c8.542,0,15.493-6.943,15.493-15.484
		V69.504c0-8.543-6.951-15.487-15.493-15.487H483.639z"/>
	<g>
		<g>
			<defs>
				<path id="SVGID_9_" d="M471.422,201.068v-7.5h86.748v7.5c0,6.734-5.476,12.211-12.207,12.211h-62.324
					C476.905,213.279,471.422,207.802,471.422,201.068 M471.422,81.527h86.748v108.771h-86.748V81.527z M471.422,69.503
					c0-6.734,5.482-12.219,12.217-12.219h62.324c6.731,0,12.207,5.485,12.207,12.219v8.745h-86.748V69.503z M483.639,54.017
					c-8.539,0-15.479,6.942-15.479,15.486v131.565c0,8.541,6.94,15.487,15.479,15.487h62.324c8.532,0,15.487-6.946,15.487-15.487
					V69.503c0-8.543-6.955-15.486-15.487-15.486H483.639z"/>
			</defs>
			<clipPath id="SVGID_10_">
				<use xlink:href="#SVGID_9_"  overflow="visible"/>
			</clipPath>
			<rect x="468.159" y="54.017" clip-path="url(#SVGID_10_)" fill="#FBA919" width="93.292" height="162.535"/>
		</g>
	</g>
	<g>
		<g>
			<defs>
				<path id="SVGID_11_" d="M496.313,201.396c-1.483,0-2.687,1.209-2.687,2.68c0,1.479,1.202,2.684,2.687,2.684h36.996
					c1.47,0,2.676-1.203,2.676-2.684c0-1.471-1.206-2.68-2.676-2.68H496.313z"/>
			</defs>
			<clipPath id="SVGID_12_">
				<use xlink:href="#SVGID_11_"  overflow="visible"/>
			</clipPath>
			<rect x="493.626" y="201.396" clip-path="url(#SVGID_12_)" fill="#FBA919" width="42.354" height="5.365"/>
		</g>
	</g>
	<path fill="#FBA919" d="M511.538,68.944c0,1.804,1.468,3.261,3.272,3.261c1.804,0,3.263-1.457,3.263-3.261
		c0-1.809-1.459-3.264-3.263-3.264C513.005,65.681,511.538,67.135,511.538,68.944"/>
	<g>
		<g>
			<defs>
				<path id="SVGID_13_" d="M511.538,68.943c0,1.804,1.463,3.26,3.272,3.26c1.804,0,3.263-1.457,3.263-3.26
					c0-1.809-1.459-3.262-3.263-3.262C513,65.682,511.538,67.134,511.538,68.943"/>
			</defs>
			<clipPath id="SVGID_14_">
				<use xlink:href="#SVGID_13_"  overflow="visible"/>
			</clipPath>
			<rect x="511.538" y="65.682" clip-path="url(#SVGID_14_)" fill="#FBA919" width="6.535" height="6.527"/>
		</g>
	</g>
	<path fill="none" stroke="#FBB040" stroke-width="3" stroke-miterlimit="10" d="M508.788,111.818v1.117
		c-6.468,2.446-10.928,8.692-10.928,15.828v5.795c-2.896,0.684-5.134,3.352-5.134,6.475c0,3.564,2.888,6.686,6.695,6.686h8.704
		c0,3.572,3.114,6.471,6.69,6.471c3.553,0,6.45-2.896,6.678-6.471h8.71c3.558,0,6.679-2.9,6.679-6.686
		c-0.447-3.123-2.682-5.791-5.565-6.475v-5.795c0-7.36-4.69-13.382-10.938-15.828v-1.117c0-3.125-2.668-5.795-5.789-5.795
		C511.456,106.023,508.788,108.693,508.788,111.818"/>
	<g>
		<g>
			<path fill="#FBA919" d="M918.289,137.41c18.031,0,32.65-17.112,32.65-38.219c0-29.27-14.619-38.218-32.65-38.218
				c-18.034,0-32.654,8.949-32.654,38.218C885.634,120.298,900.254,137.41,918.289,137.41L918.289,137.41z"/>
			<path fill="#FBA919" d="M990.388,193.662l-16.474-37.109c-0.752-1.7-2.075-3.107-3.723-3.965l-25.566-13.309
				c-0.564-0.294-1.246-0.236-1.753,0.146c-7.229,5.471-15.732,8.359-24.584,8.359c-8.854,0-17.357-2.89-24.587-8.359
				c-0.509-0.383-1.191-0.44-1.756-0.146l-25.563,13.309c-1.647,0.856-2.97,2.265-3.724,3.965l-16.475,37.109
				c-1.138,2.557-0.903,5.484,0.623,7.83c1.525,2.346,4.105,3.746,6.904,3.746h129.148c2.8,0,5.381-1.4,6.906-3.746
				C991.292,199.146,991.526,196.216,990.388,193.662L990.388,193.662z"/>
		</g>
	</g>
	<path fill="#FBA919" d="M977.117,63.067c-1.799,0-3.259,1.46-3.259,3.267c0,1.802,1.46,3.269,3.259,3.269h30.476
		c1.809,0,3.267-1.467,3.267-3.269c0-1.807-1.458-3.267-3.267-3.267H977.117z M977.117,49.183c-1.799,0-3.259,1.463-3.259,3.265
		c0,1.807,1.46,3.264,3.259,3.264h39.184c1.805,0,3.269-1.457,3.269-3.264c0-1.801-1.464-3.265-3.269-3.265H977.117z M965.151,38.86
		h63.12v39.181h-19.589c-0.993,0.006-1.933,0.47-2.544,1.255l-22.429,12l9.583-13c-0.617-0.785-7.557-0.25-8.553-0.255h-19.59
		L965.151,38.86L965.151,38.86z M961.89,32.328c-1.805,0-3.272,1.46-3.272,3.267v45.709c0,1.805,1.469,3.269,3.272,3.269h21.257
		l-8.985,14.011c0.557,0.691,1.354,1.13,2.245,1.221c1.101,0.104,2.168-0.361,2.861-1.221l31.015-14.011h21.259
		c1.802,0,3.266-1.464,3.266-3.269V35.595c0-1.807-1.464-3.267-3.266-3.267H961.89z"/>
</g>
</svg>
