<?xml version="1.0" encoding="utf-8"?>
<!-- Generator: Adobe Illustrator 16.0.0, SVG Export Plug-In . SVG Version: 6.00 Build 0)  -->
<!DOCTYPE svg PUBLIC "-//W3C//DTD SVG 1.1//EN" "http://www.w3.org/Graphics/SVG/1.1/DTD/svg11.dtd">
<svg version="1.1" id="Layer_1" xmlns="http://www.w3.org/2000/svg" xmlns:xlink="http://www.w3.org/1999/xlink" x="0px" y="0px"
	 width="200px" height="200px" viewBox="0 0 200 200" enable-background="new 0 0 200 200" xml:space="preserve">
<g>
	<path fill="#FBA919" d="M174.495,74.088L153.139,37c2.647-2.734,4.282-6.457,4.282-10.555c0-8.37-6.806-15.179-15.179-15.179
		c-8.367,0-15.178,6.809-15.178,15.183c0,8.369,6.811,15.182,15.178,15.182c1.013,0,1.997-0.11,2.954-0.295l21.458,37.271
		c0.838,1.456,2.36,2.266,3.93,2.266c0.765,0,1.539-0.193,2.253-0.603C174.999,79.021,175.745,76.258,174.495,74.088 M142.242,32.58
		c-3.38,0-6.132-2.751-6.132-6.134c0-3.381,2.752-6.133,6.132-6.133c3.381,0,6.131,2.751,6.131,6.133
		C148.373,29.828,145.623,32.58,142.242,32.58"/>
	<path fill="#FBA919" d="M49.235,48.413c-0.368-0.671-0.913-1.261-1.612-1.687c-2.134-1.295-4.917-0.618-6.216,1.521L19.181,84.824
		c-3.671-1.006-7.719-0.65-11.315,1.322c-7.333,4.029-10.022,13.279-5.993,20.611c4.029,7.338,13.274,10.03,20.611,6
		c7.338-4.03,10.022-13.274,6-20.612c-0.489-0.882-1.052-1.7-1.681-2.445l22.333-36.756C50.009,51.511,49.988,49.786,49.235,48.413
		 M15.176,105.585c-3.384,0-6.13-2.747-6.13-6.132c0-3.388,2.747-6.13,6.13-6.13c3.389,0,6.129,2.743,6.129,6.13
		C21.305,102.838,18.565,105.585,15.176,105.585"/>
	<path fill="#FBA919" d="M114.158,22.713L71.36,22.668c-1.042-3.658-3.45-6.934-6.999-8.982c-7.249-4.184-16.551-1.695-20.737,5.557
		c-4.179,7.251-1.689,16.554,5.568,20.735c7.243,4.184,16.546,1.688,20.731-5.558c0.505-0.877,0.907-1.779,1.219-2.707l43.008,0.05
		c1.681,0,3.144-0.915,3.927-2.27c0.383-0.66,0.604-1.432,0.604-2.254C118.686,24.744,116.659,22.716,114.158,22.713 M62.085,29.894
		c-1.687,2.928-5.448,3.938-8.376,2.248c-2.929-1.688-3.939-5.449-2.242-8.375c1.689-2.933,5.443-3.94,8.373-2.249
		C62.768,23.21,63.773,26.967,62.085,29.894"/>
	<path fill="#FBA919" d="M57.15,158.291c-1.01,0-1.994,0.105-2.949,0.294l-21.464-37.271c-0.837-1.451-2.36-2.262-3.927-2.262
		c-0.765,0-1.542,0.189-2.253,0.6c-2.164,1.248-2.909,4.01-1.659,6.179l21.357,37.091c-2.644,2.734-4.282,6.455-4.282,10.553
		c0,8.369,6.81,15.183,15.177,15.183c8.372,0,15.18-6.817,15.18-15.186C72.331,165.102,65.522,158.291,57.15,158.291 M57.15,179.606
		c-3.384,0-6.13-2.745-6.13-6.132c0-3.381,2.747-6.129,6.13-6.129c3.387,0,6.13,2.748,6.13,6.129
		C63.281,176.861,60.537,179.606,57.15,179.606"/>
	<path fill="#FBA919" d="M155.195,165.97c-4.187-7.252-13.488-9.739-20.734-5.558c-3.549,2.047-5.958,5.322-6.998,8.983
		l-42.803,0.044c-2.499,0.004-4.521,2.028-4.516,4.527c0,0.819,0.218,1.591,0.599,2.256c0.782,1.355,2.246,2.26,3.925,2.26
		l43.003-0.039c0.318,0.921,0.722,1.827,1.23,2.702c4.177,7.25,13.483,9.742,20.731,5.558
		C156.885,182.52,159.374,173.218,155.195,165.97 M142.046,179.687c-3.383,0-6.128-2.745-6.128-6.13s2.745-6.13,6.128-6.13
		c3.389,0,6.133,2.745,6.133,6.13S145.435,179.687,142.046,179.687"/>
	<path fill="#FBA919" d="M198.126,93.163c-4.024-7.337-13.275-10.025-20.608-5.993c-7.332,4.025-10.025,13.271-5.995,20.608
		c0.481,0.884,1.049,1.699,1.672,2.446l-22.327,36.754c-0.873,1.438-0.853,3.163-0.099,4.534c0.368,0.669,0.913,1.26,1.609,1.686
		c2.137,1.292,4.919,0.614,6.215-1.518L180.82,115.1c3.673,1.006,7.717,0.65,11.308-1.321
		C199.468,109.743,202.158,100.503,198.126,93.163 M187.777,105.846c-2.961,1.631-6.701,0.541-8.327-2.422s-0.542-6.698,2.421-8.329
		c2.966-1.625,6.693-0.54,8.324,2.424C191.826,100.486,190.738,104.218,187.777,105.846"/>
	<path fill="#FBA919" d="M145.307,99.97c0,25.383-20.651,46.038-46.032,46.038c-2.333,0-4.219-1.892-4.219-4.223
		c0-2.336,1.887-4.225,4.219-4.225c20.727,0,37.588-16.866,37.588-37.591c0-2.329,1.894-4.224,4.226-4.224
		C143.415,95.746,145.307,97.641,145.307,99.97"/>
	<path fill="#FBA919" d="M125.874,95.748c2.331,0,4.223,1.891,4.223,4.225c0,16.989-13.825,30.815-30.824,30.815
		c-2.328,0-4.223-1.889-4.223-4.223c0-2.326,1.89-4.218,4.223-4.218c12.342,0,22.376-10.039,22.376-22.375
		C121.648,97.639,123.538,95.748,125.874,95.748"/>
	<path fill="#FBA919" d="M103.5,58.158c0,2.333-1.892,4.224-4.225,4.224c-20.722,0-37.588,16.862-37.588,37.588
		c0,2.332-1.887,4.223-4.223,4.223c-2.329,0-4.224-1.891-4.224-4.223c0-25.382,20.654-46.035,46.035-46.035
		C101.608,53.935,103.5,55.829,103.5,58.158"/>
	<path fill="#FBA919" d="M72.676,104.192c-2.329,0-4.224-1.892-4.224-4.223c0-16.993,13.824-30.815,30.822-30.815
		c2.333,0,4.225,1.886,4.225,4.223c0,2.329-1.892,4.219-4.225,4.219c-12.341,0-22.379,10.039-22.379,22.374
		C76.9,102.301,75.005,104.192,72.676,104.192"/>
	<path fill="#FBA919" d="M99.275,85.11c-8.194,0-14.861,6.667-14.861,14.862c0,8.191,6.667,14.864,14.861,14.864
		c8.192,0,14.86-6.673,14.86-14.864C114.135,91.777,107.467,85.11,99.275,85.11 M99.275,106.389c-3.541,0-6.415-2.876-6.415-6.417
		c0-3.545,2.874-6.419,6.415-6.419c3.545,0,6.417,2.874,6.417,6.419C105.692,103.513,102.82,106.389,99.275,106.389"/>
</g>
</svg>
