<?xml version="1.0" encoding="utf-8"?>
<!-- Generator: Adobe Illustrator 16.0.0, SVG Export Plug-In . SVG Version: 6.00 Build 0)  -->
<!DOCTYPE svg PUBLIC "-//W3C//DTD SVG 1.1//EN" "http://www.w3.org/Graphics/SVG/1.1/DTD/svg11.dtd">
<svg version="1.1" id="Layer_1" xmlns="http://www.w3.org/2000/svg" xmlns:xlink="http://www.w3.org/1999/xlink" x="0px" y="0px"
	 width="200px" height="200px" viewBox="0 0 200 200" enable-background="new 0 0 200 200" xml:space="preserve">
<path fill="#FBA919" d="M50.182,86.561H62.62v-8.367h2.108c15.571,0,31.135-0.013,46.699,0.026c1.237,0,1.85-0.399,2.382-1.503
	c2.859-5.854,5.813-11.68,8.739-17.52c0.246-0.492,0.506-0.958,0.825-1.57c2.474,1.237,4.868,2.435,7.39,3.698
	c-2.794,5.6-5.521,11.068-8.374,16.801h27.43v45.721h-1.936c-15.518,0-31.021,0.014-46.532-0.026c-1.331,0-2.056,0.359-2.661,1.597
	c-3.066,6.305-6.245,12.57-9.465,19.009c-2.474-1.237-4.882-2.435-7.43-3.711c2.794-5.601,5.534-11.108,8.388-16.842h-27.51v-8.394
	H50.182V86.561z M110.868,82.423H66.89v37.248c0.612,0.026,1.157,0.066,1.689,0.066c7.316,0.014,14.633-0.026,21.949,0.04
	c1.284,0.014,1.956-0.359,2.527-1.53c5.667-11.453,11.4-22.88,17.107-34.307C110.39,83.488,110.575,83.049,110.868,82.423
	 M145.635,82.384c-0.599-0.04-1.084-0.093-1.576-0.093c-7.417,0-14.833,0.026-22.256-0.027c-1.197-0.013-1.735,0.426-2.234,1.437
	c-5.707,11.494-11.461,22.96-17.193,34.44c-0.233,0.466-0.42,0.958-0.666,1.504h43.926V82.384z M62.434,90.725h-7.948v20.605h7.948
	V90.725z"/>
<path fill="#FBA919" d="M100,200C44.86,200,0,155.14,0,100C0,44.859,44.86,0,100,0c55.141,0,100,44.859,100,100
	C200,155.14,155.141,200,100,200z M100,9.523C50.111,9.523,9.524,50.111,9.524,100S50.111,190.477,100,190.477
	s90.477-40.588,90.477-90.477S149.889,9.523,100,9.523z"/>
<path fill="#FBA919" d="M143.579,85.271v32.271H127.11c5.448-10.895,10.802-21.616,16.163-32.338
	C143.38,85.23,143.479,85.244,143.579,85.271"/>
<path opacity="0.25" fill="#FBA919" d="M58.714,142.366c-22.608-23.211-20.645-56.911-5.146-76.472
	c27.529,27.525,55.071,55.066,82.674,82.676c-9.817,7.604-22.332,11.713-35.144,11.713C86.088,160.283,70.67,154.639,58.714,142.366
	 M66.023,53.562c16.63-13.828,49.477-18.638,74.045,2.923c25.656,22.518,25.212,58.467,8.548,79.665L66.023,53.562z M101.049,24.972
	c-41.839,0.003-75.959,34.086-76.02,75.984c-0.054,41.869,34.005,76.026,75.911,76.126c41.923,0.095,76.137-34.021,76.194-75.985
	c0.061-41.871-34.002-76.024-75.911-76.125H101.049z"/>
</svg>
