<?xml version="1.0" encoding="utf-8"?>
<!-- Generator: Adobe Illustrator 16.0.0, SVG Export Plug-In . SVG Version: 6.00 Build 0)  -->
<!DOCTYPE svg PUBLIC "-//W3C//DTD SVG 1.1//EN" "http://www.w3.org/Graphics/SVG/1.1/DTD/svg11.dtd">
<svg version="1.1" id="Layer_1" xmlns="http://www.w3.org/2000/svg" xmlns:xlink="http://www.w3.org/1999/xlink" x="0px" y="0px"
	 width="200px" height="200px" viewBox="0 0 200 200" enable-background="new 0 0 200 200" xml:space="preserve">
<g>
	<path fill="#FBA919" d="M0.007,81.248c0,11.632,7.972,21.314,18.757,24.121V187.5H6.257c-3.45,0-6.25,2.792-6.25,6.25
		c0,3.443,2.8,6.25,6.25,6.25h187.5c3.457,0,6.234-2.807,6.234-6.25c0-3.458-2.777-6.25-6.234-6.25h-12.514v-82.131
		c10.777-2.807,18.748-12.489,18.748-24.121v-6.25H0.007V81.248z M125.01,106.252c13.801,0,24.984-11.202,24.984-25.004
		c0,11.632,7.986,21.314,18.764,24.121V187.5H74.999v-81.248c13.816,0,25-11.202,25-25.004
		C99.999,95.05,111.207,106.252,125.01,106.252L125.01,106.252z M68.756,105.369V187.5H31.25v-82.131
		C42.021,102.563,50,92.88,50,81.248C50,92.88,57.985,102.563,68.756,105.369L68.756,105.369z M174.994,18.75H25.007l-25,49.999
		h199.985L174.994,18.75z M52.813,32.638l-12.5,25c-0.571,1.1-1.664,1.736-2.807,1.736c-0.463,0-0.948-0.101-1.403-0.333
		c-1.526-0.767-2.163-2.647-1.389-4.181l12.507-25c0.767-1.548,2.633-2.17,4.188-1.418C52.951,29.224,53.565,31.104,52.813,32.638
		L52.813,32.638z M77.813,32.638l-12.515,25c-0.542,1.1-1.649,1.736-2.792,1.736c-0.478,0-0.948-0.101-1.396-0.333
		c-1.534-0.767-2.17-2.647-1.396-4.181l12.5-25c0.781-1.548,2.662-2.17,4.188-1.418C77.958,29.224,78.558,31.104,77.813,32.638
		L77.813,32.638z M103.131,56.249c0,1.722-1.396,3.125-3.132,3.125c-1.729,0-3.132-1.403-3.132-3.125v-25
		c0-1.736,1.403-3.125,3.132-3.125c1.736,0,3.132,1.389,3.132,3.125V56.249z M139.014,58.983c-0.479,0.261-0.998,0.391-1.506,0.391
		c-1.113,0-2.17-0.593-2.748-1.635l-13.656-25c-0.84-1.504-0.275-3.414,1.244-4.225c1.49-0.824,3.398-0.304,4.238,1.23l13.672,25
		C141.053,56.263,140.518,58.158,139.014,58.983L139.014,58.983z M163.896,59.041c-0.447,0.231-0.91,0.333-1.389,0.333
		c-1.156,0-2.256-0.636-2.791-1.736l-12.5-25c-0.781-1.534-0.145-3.415,1.389-4.196c1.52-0.752,3.428-0.145,4.209,1.418l12.486,25
		C166.053,56.394,165.459,58.274,163.896,59.041L163.896,59.041z M53.131,150.941v-14.396c-1.844-1.1-3.132-3.009-3.132-5.295
		c0-3.458,2.813-6.25,6.257-6.25c3.458,0,6.25,2.792,6.25,6.25c0,2.286-1.288,4.195-3.125,5.295v14.396
		c1.837,1.113,3.125,3.009,3.125,5.31c0,3.442-2.792,6.249-6.25,6.249c-3.45,0-6.257-2.807-6.257-6.249
		C50,153.95,51.287,152.055,53.131,150.941L53.131,150.941z M25.007,6.25c0-3.458,2.8-6.25,6.243-6.25h137.508
		c3.457,0,6.236,2.792,6.236,6.25c0,3.458-2.779,6.25-6.236,6.25H31.25C27.807,12.5,25.007,9.708,25.007,6.25L25.007,6.25z
		 M109.543,139.715l-4.426-4.428l17.678-17.679l4.428,4.427L109.543,139.715z M109.543,157.379l-4.426-4.412l35.357-35.358
		l4.428,4.427L109.543,157.379z M140.475,135.287l4.428,4.428l-17.68,17.664l-4.428-4.412L140.475,135.287z M140.475,135.287"/>
</g>
</svg>
