<?xml version="1.0" encoding="utf-8"?>
<!-- Generator: Adobe Illustrator 16.0.0, SVG Export Plug-In . SVG Version: 6.00 Build 0)  -->
<!DOCTYPE svg PUBLIC "-//W3C//DTD SVG 1.1//EN" "http://www.w3.org/Graphics/SVG/1.1/DTD/svg11.dtd">
<svg version="1.1" id="Layer_1" xmlns="http://www.w3.org/2000/svg" xmlns:xlink="http://www.w3.org/1999/xlink" x="0px" y="0px"
	 width="200px" height="200px" viewBox="0 0 200 200" enable-background="new 0 0 200 200" xml:space="preserve">
<g>
	<path fill="#FBA91A" d="M179.742,53.6c-1.15-3.703-4.521-6.182-8.402-6.182c-0.883,0-1.776,0.133-2.633,0.397l-12.121,3.792V23.112
		c0-7.017-4.358-11.112-10.987-11.112H93c-6.772,0-11.504,3.969-11.504,11.112v54.507c-6.141,2.661-10.428,4.558-11.343,5.024
		c-7.405,3.771-12.996,12.437-14.251,15.925C54.369,102.06,19.854,188,19.854,188h71.534c0,0,17.331-7.268,26.549-17.33
		c3.891-4.236,6.986-9.974,9.14-14.721h19.089c5.948,0,10.42-3.841,10.42-11.474v-6.499h7.682c4.854,0,8.798-3.952,8.798-8.798
		c0-4.861-3.954-8.808-8.798-8.808h-7.682v-2.941h7.892c4.845,0,8.8-3.941,8.8-8.8c0-4.857-3.955-8.799-8.8-8.799h-7.892V96.89
		h7.892c4.845,0,8.8-3.945,8.8-8.803c0-4.858-3.955-8.799-8.8-8.799h-7.892v-9.244l17.388-5.429c2.235-0.7,4.066-2.232,5.17-4.307
		C180.229,58.223,180.439,55.841,179.742,53.6z M118.983,148.46c-2.081,0-3.774-1.702-3.774-3.776c0-2.09,1.686-3.773,3.774-3.773
		c2.082,0,3.768,1.684,3.768,3.773C122.751,146.76,121.065,148.46,118.983,148.46z M148.679,135.563h-44.757
		c0.024,4.309-0.373,10.217-1.993,16.463c-3.265,12.542-14.025,19.624-14.486,19.924c-0.421,0.268-0.907,0.405-1.361,0.405
		c-0.81,0-1.628-0.405-2.107-1.151c-0.762-1.167-0.421-2.723,0.746-3.476c0.098-0.063,9.544-6.359,12.348-16.966
		c2.949-11.285,1.475-21.284,1.458-21.382c-0.025-0.218-0.025-0.413,0-0.623h28.648c5.866,0,11.724-3.532,11.724-10.483
		c0-6.937-5.161-11.311-11.724-11.311H78.546v-5.041h10.825V31.084h59.315v104.478H148.679L148.679,135.563z"/>
</g>
<rect x="99.274" y="62.6" fill="#FBA91A" width="38.713" height="0.88"/>
<rect x="99.274" y="71.4" fill="#FBA91A" width="38.713" height="0.88"/>
<g>
	<path fill="#FBA91A" d="M104.68,48.45h-1.426l-0.011-2.639c0-0.36-0.129-0.667-0.383-0.921c-0.253-0.253-0.563-0.38-0.922-0.38
		c-0.331,0-0.618,0.11-0.864,0.328c-0.246,0.219-0.384,0.495-0.414,0.825l-0.013,2.788h-1.452v-2.672
		c0.009-0.752,0.279-1.393,0.819-1.919c0.537-0.526,1.177-0.789,1.923-0.789c0.76,0,1.408,0.267,1.942,0.8
		c0.533,0.534,0.799,1.181,0.799,1.941V48.45L104.68,48.45z"/>
	<path fill="#FBA91A" d="M111.252,45.846c-0.01,0.737-0.276,1.369-0.803,1.889c-0.525,0.524-1.161,0.784-1.906,0.784
		c-0.747,0-1.383-0.263-1.914-0.789c-0.531-0.527-0.796-1.167-0.796-1.919v-2.673h1.418l0.012,2.673
		c0,0.361,0.126,0.667,0.375,0.917s0.552,0.375,0.905,0.375c0.331,0,0.616-0.109,0.858-0.328c0.241-0.219,0.383-0.491,0.422-0.813
		l0.012-2.823h1.418L111.252,45.846L111.252,45.846z"/>
	<path fill="#FBA91A" d="M116.91,43.887c-0.232,0.277-0.565,0.619-1.004,1.025c-0.261-0.261-0.564-0.391-0.91-0.391
		c-0.353,0-0.655,0.125-0.906,0.374c-0.249,0.25-0.373,0.556-0.373,0.916c0,0.354,0.124,0.656,0.373,0.905
		c0.251,0.25,0.554,0.375,0.906,0.375c0.368,0,0.681-0.123,0.935-0.369c0.651,0.646,0.976,0.984,0.967,1.014
		c-0.53,0.524-1.163,0.784-1.9,0.784c-0.745,0-1.383-0.266-1.913-0.795s-0.796-1.167-0.796-1.914c0-0.752,0.268-1.394,0.796-1.924
		c0.53-0.53,1.168-0.794,1.913-0.794S116.378,43.357,116.91,43.887z"/>
	<path fill="#FBA91A" d="M119.525,48.45h-1.465v-7.708h1.465V48.45z"/>
	<path fill="#FBA91A" d="M125.99,46.341l-3.885,0.012c0.077,0.246,0.236,0.454,0.479,0.623c0.242,0.169,0.505,0.253,0.79,0.253
		c0.368,0,0.701-0.139,1.002-0.416c0.359,0.37,0.663,0.673,0.909,0.911c-0.531,0.522-1.162,0.784-1.902,0.784
		c-0.744,0-1.381-0.266-1.913-0.795c-0.529-0.53-0.793-1.167-0.793-1.913c0-0.752,0.265-1.394,0.793-1.925
		c0.532-0.531,1.169-0.796,1.913-0.796c1.047,0,1.801,0.438,2.26,1.315c0.238,0.453,0.356,0.964,0.356,1.532
		C126.001,46.05,125.998,46.188,125.99,46.341z M124.642,45.201c-0.254-0.523-0.677-0.783-1.267-0.783
		c-0.584,0-1.007,0.26-1.269,0.783H124.642z"/>
	<path fill="#FBA91A" d="M132.455,45.846c-0.008,0.737-0.275,1.369-0.801,1.889c-0.527,0.524-1.162,0.784-1.909,0.784
		c-0.745,0-1.381-0.263-1.912-0.789c-0.53-0.527-0.794-1.167-0.794-1.919v-2.673h1.417l0.012,2.673c0,0.361,0.126,0.667,0.375,0.917
		c0.247,0.25,0.55,0.375,0.902,0.375c0.333,0,0.618-0.109,0.86-0.328c0.241-0.219,0.383-0.491,0.422-0.813l0.012-2.823h1.417
		L132.455,45.846L132.455,45.846z"/>
	<path fill="#FBA91A" d="M138.113,46.756c0,0.445-0.147,0.833-0.443,1.164c-0.296,0.33-0.663,0.511-1.101,0.542
		c-0.216,0-0.5,0-0.853,0c-0.386,0-0.643,0-0.772,0c-0.746-0.092-1.119-0.523-1.119-1.291c0-0.092,0-0.2,0-0.323l1.349,0.011
		c0.007,0.047,0.018,0.084,0.022,0.116c0.031,0.077,0.09,0.114,0.172,0.114l0.945,0.012c0.084,0,0.16-0.041,0.226-0.121
		c0.065-0.081,0.096-0.167,0.096-0.26c0-0.223-0.104-0.334-0.321-0.334c-0.26,0-0.649,0-1.163,0
		c-0.423-0.008-0.787-0.163-1.095-0.467c-0.308-0.304-0.463-0.679-0.463-1.124c0-0.445,0.148-0.832,0.439-1.158
		c0.291-0.327,0.656-0.506,1.094-0.537h1.741c0.275,0.023,0.525,0.175,0.742,0.456c0.221,0.281,0.334,0.575,0.341,0.882l0.012,0.288
		h-1.278c-0.018-0.208-0.108-0.312-0.277-0.312h-1.002c-0.207,0-0.311,0.107-0.311,0.323c0,0.092,0.029,0.177,0.093,0.253
		c0.062,0.078,0.134,0.116,0.218,0.116l1.072,0.022c0.422,0.008,0.802,0.169,1.135,0.484
		C137.946,45.932,138.113,46.312,138.113,46.756z"/>
</g>
<path fill="#FBA91A" d="M134.106,85.04h-30.351c-3.525,0-6.382,2.856-6.382,6.38s2.856,6.38,6.382,6.38h30.351
	c3.523,0,6.381-2.856,6.381-6.38S137.63,85.04,134.106,85.04z M110.465,93.541c-0.289,0.251-0.682,0.376-1.18,0.376
	c-0.399,0-0.839-0.047-1.323-0.141l-0.253-0.049l0.077-0.626c0.634,0.084,1.117,0.126,1.45,0.126c0.581,0,0.873-0.258,0.873-0.774
	c0-0.202-0.065-0.351-0.197-0.447c-0.132-0.096-0.427-0.202-0.887-0.317c-0.461-0.114-0.803-0.273-1.028-0.475
	c-0.225-0.201-0.338-0.521-0.338-0.958s0.143-0.766,0.426-0.989c0.283-0.222,0.677-0.334,1.179-0.334
	c0.362,0,0.789,0.042,1.282,0.127l0.246,0.042l-0.063,0.634c-0.656-0.075-1.122-0.113-1.394-0.113c-0.597,0-0.895,0.209-0.895,0.626
	c0,0.216,0.07,0.37,0.212,0.461c0.141,0.091,0.451,0.204,0.933,0.338c0.48,0.134,0.82,0.293,1.018,0.479
	c0.196,0.186,0.295,0.478,0.295,0.876C110.897,92.911,110.753,93.29,110.465,93.541z M112.523,93.84h-0.781v-4.823h0.781V93.84z
	 M114.477,92.844c0.158,0.261,0.477,0.391,0.954,0.391c0.343,0,0.6-0.021,0.769-0.063v-1.176h-0.599v-0.69h1.372v2.45
	c-0.126,0.033-0.384,0.068-0.771,0.105c-0.387,0.037-0.668,0.056-0.842,0.056c-0.732,0-1.235-0.202-1.513-0.605
	c-0.277-0.404-0.416-1.037-0.416-1.897c0-0.861,0.143-1.489,0.427-1.884c0.283-0.394,0.775-0.591,1.475-0.591
	c0.412,0,0.877,0.047,1.394,0.141l0.246,0.05l-0.027,0.619c-0.568-0.075-1.078-0.113-1.528-0.113s-0.759,0.127-0.926,0.381
	c-0.166,0.253-0.25,0.723-0.25,1.408C114.241,92.111,114.32,92.583,114.477,92.844z M121.668,93.84h-1.337l-1.5-4.14h-0.099v4.14
	h-0.781v-4.823h1.366l1.464,4.133h0.105v-4.133h0.781V93.84z M125.111,93.84h-0.782v-4.823h0.782V93.84z M129.94,93.84h-1.337
	l-1.501-4.14h-0.098v4.14h-0.782v-4.823h1.366l1.465,4.133h0.104v-4.133h0.782V93.84z"/>
</svg>
