<?xml version="1.0" encoding="utf-8"?>
<!-- Generator: Adobe Illustrator 16.0.0, SVG Export Plug-In . SVG Version: 6.00 Build 0)  -->
<!DOCTYPE svg PUBLIC "-//W3C//DTD SVG 1.1//EN" "http://www.w3.org/Graphics/SVG/1.1/DTD/svg11.dtd">
<svg version="1.1" id="Layer_1" xmlns="http://www.w3.org/2000/svg" xmlns:xlink="http://www.w3.org/1999/xlink" x="0px" y="0px"
	 width="50px" height="50px" viewBox="0 0 50 50" enable-background="new 0 0 50 50" xml:space="preserve">
<g>
	<path fill="#FBAA1B" d="M49.998,24.999C49.998,38.783,38.784,50,25.001,50c-1.267,0-2.292-1.027-2.292-2.294
		c0-1.269,1.025-2.294,2.292-2.294c11.256,0,20.411-9.159,20.411-20.414c0-1.265,1.029-2.294,2.295-2.294
		C48.971,22.705,49.998,23.734,49.998,24.999"/>
	<path fill="#FBAA1B" d="M39.445,22.706c1.266,0,2.294,1.027,2.294,2.294c0,9.226-7.509,16.735-16.74,16.735
		c-1.264,0-2.293-1.026-2.293-2.294c0-1.263,1.027-2.29,2.293-2.29c6.703,0,12.151-5.452,12.151-12.151
		C37.15,23.733,38.177,22.706,39.445,22.706"/>
	<path fill="#FBAA1B" d="M27.295,2.293c0,1.267-1.027,2.293-2.294,2.293c-11.253,0-20.412,9.157-20.412,20.412
		c0,1.267-1.025,2.294-2.293,2.294c-1.265,0-2.294-1.027-2.294-2.294C0.002,11.215,11.218,0,25.001,0
		C26.268,0,27.295,1.029,27.295,2.293"/>
	<path fill="#FBAA1B" d="M10.556,27.292c-1.264,0-2.293-1.027-2.293-2.293C8.263,15.771,15.77,8.265,25,8.265
		c1.267,0,2.294,1.024,2.294,2.293c0,1.265-1.027,2.292-2.294,2.292c-6.702,0-12.153,5.451-12.153,12.15
		C12.85,26.265,11.821,27.292,10.556,27.292"/>
	<path fill="#FBAA1B" d="M25.001,16.929c-4.45,0-8.07,3.621-8.07,8.071c0,4.448,3.621,8.071,8.07,8.071
		c4.448,0,8.069-3.623,8.069-8.071C33.07,20.55,29.449,16.929,25.001,16.929 M25.001,28.485c-1.923,0-3.483-1.562-3.483-3.485
		c0-1.925,1.56-3.485,3.483-3.485c1.925,0,3.484,1.56,3.484,3.485C28.485,26.924,26.926,28.485,25.001,28.485"/>
</g>
</svg>
