<?xml version="1.0" encoding="utf-8"?>
<!-- Generator: Adobe Illustrator 16.0.0, SVG Export Plug-In . SVG Version: 6.00 Build 0)  -->
<!DOCTYPE svg PUBLIC "-//W3C//DTD SVG 1.1//EN" "http://www.w3.org/Graphics/SVG/1.1/DTD/svg11.dtd">
<svg version="1.1" id="Layer_1" xmlns="http://www.w3.org/2000/svg" xmlns:xlink="http://www.w3.org/1999/xlink" x="0px" y="0px"
	 width="200px" height="200px" viewBox="0 0 200 200" enable-background="new 0 0 200 200" xml:space="preserve">
<path fill="#FBA919" d="M100,200C44.86,200,0,155.14,0,100C0,44.859,44.86,0,100,0c55.141,0,100,44.859,100,100
	C200,155.14,155.141,200,100,200z M100,9.523C50.111,9.523,9.524,50.111,9.524,100S50.111,190.477,100,190.477
	s90.477-40.588,90.477-90.477S149.889,9.523,100,9.523z"/>
<g>
	<path fill="#FBA919" d="M60.662,88.776c2.83-2.367,5.404-4.52,8.163-6.831c8.417,10.187,16.691,20.215,24.973,30.243
		c0.239-0.088,0.471-0.16,0.71-0.24V44.536h10.921v67.429l0.797,0.224c8.227-9.98,16.46-19.952,24.941-30.235
		c2.702,2.24,5.333,4.448,8.171,6.8c-5.708,6.902-11.319,13.702-16.938,20.493c-6.608,7.979-13.225,15.942-19.816,23.946
		c-1.475,1.785-2.91,2.654-4.743,0.446C85.54,118.772,73.225,103.93,60.662,88.776"/>
	<rect x="54.867" y="142.502" fill="#FBA919" width="90.266" height="12.962"/>
</g>
<path opacity="0.25" fill="#FBA919" d="M58.714,142.366c-22.608-23.211-20.645-56.911-5.146-76.472
	c27.529,27.525,55.071,55.066,82.674,82.676c-9.817,7.604-22.332,11.713-35.144,11.713C86.088,160.283,70.67,154.639,58.714,142.366
	 M66.023,53.562c16.63-13.828,49.477-18.638,74.045,2.923c25.656,22.518,25.212,58.467,8.548,79.665L66.023,53.562z M101.049,24.972
	c-41.839,0.003-75.959,34.086-76.02,75.984c-0.054,41.869,34.005,76.026,75.911,76.126c41.923,0.095,76.137-34.021,76.194-75.985
	c0.061-41.871-34.002-76.024-75.911-76.125H101.049z"/>
</svg>
