<?xml version="1.0" encoding="utf-8"?>
<!-- Generator: Adobe Illustrator 16.0.0, SVG Export Plug-In . SVG Version: 6.00 Build 0)  -->
<!DOCTYPE svg PUBLIC "-//W3C//DTD SVG 1.1//EN" "http://www.w3.org/Graphics/SVG/1.1/DTD/svg11.dtd">
<svg version="1.1" id="Layer_1" xmlns="http://www.w3.org/2000/svg" xmlns:xlink="http://www.w3.org/1999/xlink" x="0px" y="0px"
	 width="200px" height="200px" viewBox="0 0 200 200" enable-background="new 0 0 200 200" xml:space="preserve">
<path fill="#FBA919" d="M165.902,80.768h-3.895V62.529c0-33.735-26.749-61.915-60.183-62.517c-0.912-0.016-2.739-0.016-3.651,0
	C64.74,0.614,37.992,28.794,37.992,62.529v18.239h-3.895c-6.001,0-10.896,6.198-10.896,13.851v91.479
	c0,7.646,4.895,13.901,10.896,13.901h131.805c6.002,0,10.896-6.255,10.896-13.901V94.619
	C176.798,86.966,171.904,80.768,165.902,80.768z M112.349,140.267v27.642c0,3.166-2.648,5.844-5.814,5.844H93.465
	c-3.166,0-5.813-2.678-5.813-5.844v-27.642c-3.07-3.024-4.857-7.206-4.857-11.832c0-8.767,6.771-16.299,15.38-16.646
	c0.912-0.037,2.74-0.037,3.652,0c8.609,0.348,15.38,7.88,15.38,16.646C117.205,133.061,115.417,137.242,112.349,140.267z
	 M136.344,80.768h-34.519h-3.651H63.656V62.529c0-20.095,16.317-36.711,36.343-36.711c20.025,0,36.344,16.616,36.344,36.711V80.768z
	"/>
</svg>
