<?xml version="1.0" encoding="utf-8"?>
<!-- Generator: Adobe Illustrator 16.0.0, SVG Export Plug-In . SVG Version: 6.00 Build 0)  -->
<!DOCTYPE svg PUBLIC "-//W3C//DTD SVG 1.1//EN" "http://www.w3.org/Graphics/SVG/1.1/DTD/svg11.dtd">
<svg version="1.1" id="Layer_1" xmlns="http://www.w3.org/2000/svg" xmlns:xlink="http://www.w3.org/1999/xlink" x="0px" y="0px"
	 width="200px" height="200px" viewBox="0 0 200 200" enable-background="new 0 0 200 200" xml:space="preserve">
<g display="none">
	<path display="inline" fill="none" stroke="#2B486A" stroke-width="3" stroke-miterlimit="10" d="M154.727,92.057
		c-25.733,0-46.6,20.865-46.6,46.598s20.866,46.598,46.6,46.598c25.731,0,46.599-20.864,46.599-46.598
		S180.458,92.057,154.727,92.057z"/>
	<path display="inline" fill="none" stroke="#2B486A" stroke-width="3" stroke-miterlimit="10" d="M224.326,145.636
		c-5.146,0-9.313,4.175-9.313,9.314c0,5.141,4.167,9.315,9.313,9.315c5.142,0,9.313-4.175,9.313-9.315
		C233.64,149.811,229.468,145.636,224.326,145.636z"/>
	<path display="inline" fill="none" stroke="#2B486A" stroke-width="3" stroke-miterlimit="10" d="M191.415,191.114
		c-3.082,0-5.565,2.484-5.565,5.565c0,3.08,2.483,5.565,5.565,5.565c3.08,0,5.561-2.485,5.561-5.565
		C196.976,193.599,194.495,191.114,191.415,191.114z"/>
	<path display="inline" fill="none" stroke="#2B486A" stroke-width="3" stroke-miterlimit="10" d="M242.191,70.199
		c-4.174,0-7.552,3.38-7.552,7.551c0,4.173,3.378,7.553,7.552,7.553c4.175,0,7.549-3.38,7.549-7.553
		C249.74,73.579,246.366,70.199,242.191,70.199z"/>
	<path display="inline" fill="none" stroke="#2B486A" stroke-width="3" stroke-miterlimit="10" d="M162.078,60.462
		c-5.364,0-9.739,4.372-9.739,9.739c0,5.366,4.375,9.736,9.739,9.736c5.365,0,9.739-4.37,9.739-9.736
		C171.817,64.834,167.443,60.462,162.078,60.462z"/>
	<path display="inline" fill="none" stroke="#2B486A" stroke-width="3" stroke-miterlimit="10" d="M79.316,165.706
		c-3.627,0-6.557,2.932-6.557,6.556c0,3.629,2.93,6.558,6.557,6.558c3.625,0,6.557-2.929,6.557-6.558
		C85.874,168.638,82.941,165.706,79.316,165.706z"/>
	<path display="inline" fill="none" stroke="#2B486A" stroke-width="3" stroke-miterlimit="10" d="M137.488,201.152
		c-4.942,0-8.967,4.021-8.967,8.967c0,4.942,4.024,8.965,8.967,8.965c4.943,0,8.969-4.022,8.969-8.965
		C146.457,205.173,142.432,201.152,137.488,201.152z"/>
	<path display="inline" fill="none" stroke="#2B486A" stroke-width="3" stroke-miterlimit="10" d="M63.971,54.39
		c-5.888,0-10.678,4.792-10.678,10.681s4.79,10.678,10.678,10.678c5.889,0,10.682-4.79,10.682-10.678
		C74.653,59.158,69.86,54.39,63.971,54.39z"/>
	<path display="inline" fill="#2B486A" d="M153.574,164.1c-0.368-0.146-0.744-0.282-1.113-0.439
		c-2.633-1.101-4.089-4.016-3.463-6.91c0.602-2.77,3.067-4.782,5.756-4.688c2.861,0.104,5.149,2.216,5.6,5.196
		c0.429,2.77-1.25,5.583-3.889,6.522c-0.266,0.096-0.524,0.21-0.787,0.318H153.574z"/>
	<path display="inline" fill="#2B486A" d="M185.523,131.404c-0.408,0.766-0.68,1.549-1.177,2.146
		c-0.915,1.094-1.96,2.08-2.953,3.109c-1.434,1.493-2.41,1.411-3.567-0.285c-3.402-4.988-7.867-8.663-13.521-10.816
		c-11.93-4.564-25.39-0.184-32.771,10.641c-0.185,0.296-0.389,0.582-0.612,0.854c-0.701,0.786-1.729,0.902-2.479,0.176
		c-1.313-1.285-2.598-2.604-3.821-3.977c-0.875-1.014-0.926-2.508-0.12-3.578c6.015-8.139,13.885-13.535,23.934-15.11
		c14.921-2.34,26.861,3.038,36.081,14.813C184.941,129.924,185.15,130.641,185.523,131.404"/>
	<path display="inline" fill="#2B486A" d="M173.42,144.034c-0.387,0.714-0.656,1.499-1.158,2.089
		c-1.001,1.176-2.12,2.25-3.197,3.359c-1.112,1.14-2.188,1.081-3.148-0.201c-2.061-2.765-4.691-4.731-8.074-5.488
		c-5.55-1.249-10.168,0.463-13.893,4.707c-0.307,0.351-0.557,0.752-0.867,1.097c-0.81,0.887-1.832,0.937-2.682,0.09
		c-1.217-1.219-2.424-2.451-3.584-3.725c-1.056-1.159-1.044-2.688-0.014-3.891c5.105-5.932,11.551-8.903,19.386-8.421
		c6.697,0.418,12.137,3.461,16.405,8.604C172.966,142.7,173.102,143.332,173.42,144.034"/>
	
		<line display="inline" fill="none" stroke="#2B486A" stroke-width="3" stroke-miterlimit="10" x1="84.968" y1="168.885" x2="111.243" y2="155.489"/>
	
		<line display="inline" fill="none" stroke="#2B486A" stroke-width="3" stroke-miterlimit="10" x1="71.26" y1="72.868" x2="117.5" y2="110"/>
	
		<line display="inline" fill="none" stroke="#2B486A" stroke-width="3" stroke-miterlimit="10" x1="161.06" y1="79.464" x2="159.148" y2="92.283"/>
	
		<line display="inline" fill="none" stroke="#2B486A" stroke-width="3" stroke-miterlimit="10" x1="193.295" y1="111.021" x2="236.743" y2="81.445"/>
	
		<line display="inline" fill="none" stroke="#2B486A" stroke-width="3" stroke-miterlimit="10" x1="200.085" y1="149.37" x2="215.556" y2="152.964"/>
	
		<line display="inline" fill="none" stroke="#2B486A" stroke-width="3" stroke-miterlimit="10" x1="177.256" y1="178.826" x2="187.938" y2="192.326"/>
	
		<line display="inline" fill="none" stroke="#2B486A" stroke-width="3" stroke-miterlimit="10" x1="142.505" y1="183.639" x2="138.283" y2="201.397"/>
</g>
<g>
	<path fill="#FBA919" d="M148.791,0C121.653,0,99.51,22.144,99.51,49.278v10.096c0,27.027,22.144,49.171,49.281,49.171
		c27.134,0,49.276-22.144,49.276-49.279V49.174C198.067,22.144,175.925,0,148.791,0 M108.299,79.13
		c-0.868-1.846-1.734-3.69-2.387-5.755c0.759,1.305,1.519,2.496,2.387,3.691V79.13z M113.617,87.599
		c-0.759-0.868-1.407-1.846-2.06-2.714v-3.368c0.652,0.76,1.301,1.522,2.06,2.173V87.599z M121.108,94.867
		c-1.411-1.086-2.823-2.387-4.125-3.578v-4.454c1.302,1.087,2.714,2.175,4.125,3.15V94.867z M128.815,99.754
		c-1.521-0.764-2.928-1.625-4.341-2.5v-5.316c1.413,0.758,2.82,1.521,4.341,2.171V99.754z M137.5,103.012
		c-1.846-0.436-3.691-1.086-5.426-1.74v-5.641c1.734,0.65,3.58,1.191,5.426,1.623V103.012z M147.269,104.422
		c-2.173-0.109-4.341-0.328-6.402-0.652v-5.861c2.062,0.324,4.229,0.545,6.402,0.652V104.422z M157.04,103.658
		c-2.066,0.436-4.234,0.654-6.405,0.764v-5.969c2.171-0.113,4.339-0.324,6.405-0.654V103.658z M165.829,101.057
		c-1.736,0.756-3.582,1.301-5.424,1.842V97.04c1.842-0.432,3.688-0.978,5.424-1.629V101.057z M173.534,97.04
		c-1.409,0.978-2.816,1.735-4.337,2.495v-5.532c1.521-0.653,2.928-1.415,4.337-2.281V97.04z M180.918,90.958
		c-1.304,1.309-2.714,2.611-4.125,3.693v-4.993c1.411-0.978,2.821-2.06,4.125-3.146V90.958z M186.239,84.45
		c-0.652,0.976-1.307,1.842-1.959,2.712v-3.8c0.652-0.65,1.307-1.409,1.959-2.169V84.45z M189.603,78.589v-1.846
		c0.758-1.086,1.409-2.172,2.062-3.259C191.119,75.221,190.36,76.957,189.603,78.589 M148.791,94.326
		c-24.859,0-45.156-20.297-45.156-45.152c0-24.861,20.297-45.049,45.156-45.049c24.854,0,45.153,20.299,45.153,45.153
		C193.944,74.135,173.646,94.326,148.791,94.326"/>
	<path fill="#FBA919" d="M149.439,11.506c-20.842,0-37.772,16.931-37.772,37.776v0.864v0.872c0,0.323,0.104,0.974,0.104,1.408
		c0,0.22,0,0.438,0.111,0.651c1.957,18.995,18.02,33.976,37.557,33.976c19.539,0,35.709-14.98,37.555-34.084v-0.105
		c0-0.438,0.111-0.763,0.111-1.197c0-0.757,0.11-1.627,0.11-2.385C187.216,28.437,170.279,11.506,149.439,11.506 M183.525,51.342
		v0.65c0,0.327-0.111,0.654-0.111,0.872c-1.844,17.147-16.388,30.607-33.975,30.607c-17.365,0-31.8-13.024-33.973-29.848
		c0-0.221,0-0.437-0.109-0.76c-0.108-0.872-0.108-1.74-0.216-2.608c0.539-18.343,15.627-33.106,34.19-33.106
		C168.22,17.043,183.525,32.35,183.525,51.342C183.525,51.233,183.525,51.342,183.525,51.342"/>
	<path fill="#FBA919" d="M166.606,49.323l1.817-1.817c0.434-0.433,0.779-0.951,1.125-1.382c0.175,0,0.345,0.085,0.521,0.085
		c1.727,0,3.202-1.385,3.202-3.2c0-0.866-0.349-1.646-0.955-2.249c0.35-1.388,0.174-2.68-0.432-3.809
		c-1.386-2.595-5.189-3.632-10.64-2.856c-1.128,0.177-2.34,0.436-3.55,0.694c-1.644-6.663-4.585-11.508-8.649-11.508
		c-4.066,0-6.92,4.845-8.65,11.508c-1.212-0.348-2.423-0.518-3.548-0.694h-0.087c-0.347-1.382-1.559-2.422-3.026-2.422
		c-1.474,0-2.769,1.04-3.115,2.422c-2.078,0.436-3.635,1.385-4.414,2.856c-1.382,2.597-0.172,6.314,3.463,10.466
		c0.515,0.605,1.12,1.211,1.814,1.817c-4.583,4.413-7.095,8.999-5.277,12.373c1.124,1.991,3.632,3.114,7.265,3.114
		c1.042,0,2.167-0.087,3.378-0.259c1.125-0.174,2.336-0.435,3.548-0.69c1.642,6.661,4.584,11.505,8.65,11.505
		c1.298,0,2.508-0.521,3.63-1.474c0.35,0.176,0.784,0.263,1.212,0.263c1.734,0,3.204-1.386,3.204-3.203
		c0-0.864-0.347-1.64-0.953-2.245c0.606-1.474,1.125-3.117,1.557-4.846c1.21,0.343,2.422,0.517,3.55,0.69
		c1.212,0.172,2.335,0.259,3.374,0.259c3.633,0,6.141-1.034,7.266-3.114c1.387-2.597,0.176-6.313-3.461-10.468L166.606,49.323z
		 M161.506,36.604c1.123-0.172,2.163-0.257,3.113-0.257c2.593,0,4.41,0.604,5.014,1.815c0.261,0.434,0.348,1.038,0.261,1.732
		c-1.73,0.083-3.026,1.468-3.026,3.113c0,0.604,0.174,1.21,0.517,1.73c-0.255,0.348-0.605,0.69-0.86,1.034
		c-0.522,0.605-1.129,1.211-1.819,1.817c-1.73-1.471-3.632-2.94-5.71-4.325c-0.174-2.072-0.435-4.151-0.864-6.056
		C159.34,37.038,160.466,36.779,161.506,36.604 M152.765,56.16c-1.211,0.688-2.508,1.292-3.719,1.813
		c-1.21-0.602-2.51-1.207-3.722-1.813c-1.381-0.784-2.682-1.473-3.978-2.339c-0.089-1.472-0.172-2.939-0.172-4.587
		c0-1.555,0.083-3.11,0.172-4.584c1.209-0.779,2.508-1.555,3.978-2.334c1.212-0.694,2.512-1.301,3.722-1.815
		c1.211,0.604,2.508,1.21,3.719,1.815c1.384,0.779,2.682,1.47,3.98,2.334c0.089,1.474,0.173,2.94,0.173,4.584
		c0,1.559-0.084,3.115-0.173,4.587C155.446,54.688,154.065,55.465,152.765,56.16 M156.397,56.936
		c-0.17,1.298-0.346,2.51-0.604,3.719c-1.212-0.347-2.512-0.864-3.805-1.381c0.604-0.348,1.21-0.605,1.898-0.953
		C154.752,57.886,155.533,57.452,156.397,56.936 M146.019,59.358c-1.3,0.521-2.51,0.949-3.808,1.385
		c-0.259-1.211-0.431-2.423-0.604-3.719c0.779,0.517,1.642,0.948,2.506,1.381C144.808,58.668,145.413,59.011,146.019,59.358
		 M138.835,52.178c-1.297-0.949-2.508-1.901-3.633-2.854c1.125-0.953,2.336-1.906,3.633-2.855c0,0.949-0.081,1.902-0.081,2.855
		S138.754,51.229,138.835,52.178 M141.691,41.711c0.17-1.299,0.346-2.51,0.606-3.72c1.211,0.348,2.51,0.864,3.806,1.381
		c-0.604,0.348-1.213,0.606-1.899,0.953C143.338,40.76,142.467,41.193,141.691,41.711 M152.07,39.292
		c1.301-0.523,2.512-0.953,3.813-1.39c0.256,1.212,0.43,2.423,0.605,3.72c-0.781-0.518-1.646-0.949-2.512-1.386
		C153.282,39.979,152.676,39.631,152.07,39.292 M159.255,46.468c1.296,0.949,2.508,1.902,3.632,2.855
		c-1.124,0.953-2.336,1.905-3.632,2.854c0-0.949,0.085-1.901,0.085-2.854C159.255,48.37,159.255,47.417,159.255,46.468
		 M149.046,25.878c2.249,0,4.67,3.633,6.231,9.69c-1.995,0.605-4.158,1.383-6.231,2.334c-2.165-0.951-4.238-1.729-6.229-2.334
		C144.284,29.511,146.71,25.878,149.046,25.878 M131.572,45.862c-2.855-3.203-4.067-6.056-3.203-7.612
		c0.433-0.779,1.384-1.299,2.68-1.56c0.605,0.867,1.561,1.473,2.597,1.473c1.125,0,2.075-0.605,2.682-1.473h0.176
		c1.035,0.174,2.247,0.433,3.372,0.695c-0.346,1.906-0.691,3.978-0.862,6.054c-2.08,1.385-3.982,2.77-5.713,4.324
		C132.694,47.073,132.089,46.468,131.572,45.862 M136.503,62.042c-4.242,0.604-7.271,0-8.134-1.56
		c-1.04-1.903,0.777-5.534,4.931-9.516c1.73,1.47,3.633,2.939,5.713,4.327c0.171,2.077,0.428,4.151,0.862,6.055
		C138.754,61.607,137.538,61.866,136.503,62.042 M153.716,67.75c-1.727,0.087-3.026,1.474-3.026,3.113
		c0,0.433,0.089,0.779,0.258,1.123c-0.604,0.521-1.209,0.781-1.901,0.781c-2.25,0-4.673-3.633-6.229-9.69
		c1.991-0.605,4.153-1.383,6.229-2.334c2.162,0.951,4.236,1.729,6.231,2.334C154.843,64.895,154.322,66.449,153.716,67.75
		 M169.724,60.482c-0.866,1.56-3.895,2.163-8.135,1.56c-1.038-0.176-2.249-0.435-3.374-0.693c0.345-1.903,0.69-3.978,0.866-6.055
		c2.075-1.388,3.981-2.857,5.708-4.327l1.817,1.817C169.375,56.071,170.499,58.926,169.724,60.482 M152.159,49.323
		c0,1.728-1.381,3.198-3.198,3.198c-1.73,0-3.202-1.382-3.202-3.198c0-1.732,1.383-3.199,3.202-3.199
		C150.778,46.124,152.159,47.591,152.159,49.323"/>
	<path fill="#FBA919" d="M169.035,112.736h7.277c-1.231,21.635-10.835,41.047-25.605,55.076c-4.078-3.203-8.413-6.029-12.931-8.48
		c7.306-13.137,11.826-28.064,12.955-43.721c-0.135,0-0.267,0.004-0.401,0.004c-3.075,0-6.096-0.225-9.048-0.66
		c-1.044,14.465-5.26,28.23-12.071,40.289c-9.653-4.01-19.985-6.363-30.55-6.91v-35.598h32.961
		c-6.699-2.115-12.908-5.346-18.404-9.463H98.661V87.845c-5.716-8.628-9.332-18.772-10.112-29.7
		c-8.591-0.562-16.991-2.457-24.91-5.583c6.845-9.657,15.489-17.872,25.555-24.008v15.115c1.651-10.177,5.785-19.521,11.758-27.395
		c-2.318-0.176-4.658-0.266-7.024-0.266c-50.726,0-91.994,41.27-91.994,91.995C1.933,158.729,43.201,200,93.927,200
		c50.729,0,91.995-41.271,91.995-91.996c0-1.199-0.032-2.393-0.075-3.582C180.751,107.996,175.095,110.818,169.035,112.736
		 M73.658,28.005c-7.173,5.884-13.468,12.815-18.742,20.53c-3.603-1.93-7.063-4.151-10.367-6.616
		C53.123,35.495,62.979,30.71,73.658,28.005 M37.147,48.196c4.042,3.17,8.329,5.969,12.797,8.403
		c-7.745,13.965-12.361,29.947-13.084,46.67H11.546C12.778,81.642,22.377,62.226,37.147,48.196 M11.546,112.736h25.321
		c0.755,16.719,5.381,32.689,13.143,46.637c-4.495,2.443-8.8,5.256-12.863,8.439C22.377,153.783,12.778,134.371,11.546,112.736
		 M44.549,174.09c3.332-2.486,6.821-4.723,10.458-6.67c5.328,7.777,11.701,14.756,18.964,20.66
		C63.17,185.387,53.201,180.572,44.549,174.09 M89.197,187.271c-10.019-6.104-18.633-14.268-25.464-23.861
		c8.095-3.182,16.681-5.088,25.464-5.592V187.271z M89.197,148.33c-10.593,0.551-20.951,2.916-30.629,6.943
		c-7.162-12.682-11.471-27.252-12.224-42.537h42.853V148.33z M89.197,103.27H46.334c0.727-15.287,5.011-29.87,12.151-42.566
		c9.704,4.047,20.091,6.425,30.712,6.975V103.27z M98.661,157.818c8.755,0.504,17.318,2.396,25.39,5.563
		c-6.815,9.578-15.398,17.736-25.39,23.836V157.818z M113.763,188.111c7.287-5.924,13.678-12.92,19.021-20.727
		c3.661,1.957,7.174,4.203,10.521,6.707C134.621,180.598,124.609,185.42,113.763,188.111"/>
</g>
</svg>
