<?xml version="1.0" encoding="utf-8"?>
<!-- Generator: Adobe Illustrator 16.0.0, SVG Export Plug-In . SVG Version: 6.00 Build 0)  -->
<!DOCTYPE svg PUBLIC "-//W3C//DTD SVG 1.1//EN" "http://www.w3.org/Graphics/SVG/1.1/DTD/svg11.dtd">
<svg version="1.1" id="Layer_1" xmlns="http://www.w3.org/2000/svg" xmlns:xlink="http://www.w3.org/1999/xlink" x="0px" y="0px"
	 width="200px" height="200px" viewBox="0 0 200 200" enable-background="new 0 0 200 200" xml:space="preserve">
<g>
	<path fill="#FBA91A" d="M190.616,47.273c-1.307-4.208-5.138-7.025-9.548-7.025c-1.003,0-2.017,0.152-2.992,0.451l-13.773,4.309
		V12.627C164.303,4.654,159.35,0,151.817,0H92.046C84.35,0,78.973,4.511,78.973,12.627v61.94c-6.979,3.024-11.85,5.179-12.89,5.709
		c-8.415,4.285-14.768,14.132-16.195,18.096C48.147,102.341,8.925,200,8.925,200h81.289c0,0,19.694-8.259,30.17-19.694
		c4.42-4.815,7.938-11.333,10.386-16.729h21.691c6.759,0,11.841-4.364,11.841-13.038v-7.384h8.729c5.516,0,9.999-4.492,9.999-9.999
		c0-5.523-4.494-10.008-9.999-10.008h-8.729v-3.342h8.968c5.506,0,9.999-4.479,9.999-9.999s-4.493-9.999-9.999-9.999h-8.968v-3.342
		h8.968c5.506,0,9.999-4.483,9.999-10.003s-4.493-9.999-9.999-9.999h-8.968V65.959l19.759-6.169c2.54-0.796,4.621-2.537,5.874-4.894
		C191.169,52.526,191.408,49.819,190.616,47.273z M121.572,155.069c-2.365,0-4.289-1.934-4.289-4.291
		c0-2.375,1.915-4.289,4.289-4.289c2.366,0,4.282,1.914,4.282,4.289C125.854,153.136,123.938,155.069,121.572,155.069z
		 M155.317,140.412h-50.86c0.027,4.897-0.424,11.61-2.265,18.708c-3.71,14.252-15.937,22.3-16.462,22.641
		c-0.479,0.304-1.031,0.46-1.547,0.46c-0.92,0-1.85-0.46-2.394-1.308c-0.866-1.326-0.479-3.094,0.847-3.95
		c0.111-0.073,10.846-7.227,14.032-19.279c3.351-12.825,1.676-24.187,1.657-24.297c-0.028-0.248-0.028-0.47,0-0.709h32.556
		c6.666,0,13.322-4.014,13.322-11.913c0-7.882-5.865-12.854-13.322-12.854H75.621v-5.727h12.301V21.687h67.404v118.725H155.317
		L155.317,140.412z"/>
</g>
<rect x="97.008" y="22.246" transform="matrix(0.7625 0.647 -0.647 0.7625 45.7304 -55.9034)" fill="#FBA91A" width="4" height="24.177"/>
<rect x="101.893" y="24.677" transform="matrix(0.7624 0.6471 -0.6471 0.7624 51.5891 -57.3557)" fill="#FBA91A" width="4" height="33.783"/>
</svg>
