<?xml version="1.0" encoding="utf-8"?>
<!-- Generator: Adobe Illustrator 16.0.0, SVG Export Plug-In . SVG Version: 6.00 Build 0)  -->
<!DOCTYPE svg PUBLIC "-//W3C//DTD SVG 1.1//EN" "http://www.w3.org/Graphics/SVG/1.1/DTD/svg11.dtd">
<svg version="1.1" id="Layer_1" xmlns="http://www.w3.org/2000/svg" xmlns:xlink="http://www.w3.org/1999/xlink" x="0px" y="0px"
	 width="200px" height="200px" viewBox="0 0 200 200" enable-background="new 0 0 200 200" xml:space="preserve">
<g>
	<path fill="#FBA919" d="M103.21,150.016c-26.522,0-48.1-21.576-48.1-48.098c0-26.521,21.578-48.098,48.1-48.098
		c26.521,0,48.099,21.577,48.099,48.098C151.309,128.439,129.731,150.016,103.21,150.016z M103.21,56.82
		c-24.868,0-45.1,20.231-45.1,45.098c0,24.867,20.231,45.098,45.1,45.098c24.867,0,45.099-20.23,45.099-45.098
		C148.309,77.051,128.077,56.82,103.21,56.82z"/>
	<path fill="#FBA919" d="M172.81,129.029c-5.962,0-10.813-4.852-10.813-10.816c0-5.963,4.851-10.814,10.813-10.814
		c5.963,0,10.813,4.852,10.813,10.814C183.623,124.178,178.772,129.029,172.81,129.029z M172.81,110.398
		c-4.308,0-7.813,3.506-7.813,7.814c0,4.311,3.505,7.816,7.813,7.816c4.309,0,7.813-3.506,7.813-7.816
		C180.623,113.904,177.118,110.398,172.81,110.398z"/>
	<path fill="#FBA919" d="M139.898,167.008c-3.896,0-7.065-3.17-7.065-7.064c0-3.896,3.17-7.066,7.065-7.066
		c3.894,0,7.061,3.17,7.061,7.066C146.959,163.838,143.792,167.008,139.898,167.008z M139.898,155.877
		c-2.241,0-4.065,1.824-4.065,4.066c0,2.24,1.824,4.064,4.065,4.064c2.239,0,4.061-1.824,4.061-4.064
		C143.959,157.701,142.138,155.877,139.898,155.877z"/>
	<path fill="#FBA919" d="M190.675,50.066c-4.991,0-9.052-4.061-9.052-9.053c0-4.991,4.061-9.051,9.052-9.051
		c4.989,0,9.049,4.06,9.049,9.051C199.724,46.005,195.664,50.066,190.675,50.066z M190.675,34.962c-3.337,0-6.052,2.714-6.052,6.051
		c0,3.338,2.715,6.053,6.052,6.053c3.335,0,6.049-2.715,6.049-6.053C196.724,37.677,194.01,34.962,190.675,34.962z"/>
	<path fill="#FBA919" d="M110.562,44.7c-6.197,0-11.239-5.041-11.239-11.236c0-6.197,5.042-11.239,11.239-11.239
		s11.239,5.042,11.239,11.239C121.801,39.659,116.759,44.7,110.562,44.7z M110.562,25.225c-4.543,0-8.239,3.696-8.239,8.239
		c0,4.541,3.696,8.236,8.239,8.236s8.239-3.695,8.239-8.236C118.801,28.921,115.104,25.225,110.562,25.225z"/>
	<path fill="#FBA919" d="M27.8,143.582c-4.443,0-8.057-3.613-8.057-8.057s3.614-8.057,8.057-8.057s8.057,3.613,8.057,8.057
		S32.243,143.582,27.8,143.582z M27.8,130.469c-2.789,0-5.057,2.268-5.057,5.057s2.269,5.057,5.057,5.057s5.057-2.268,5.057-5.057
		S30.588,130.469,27.8,130.469z"/>
	<path fill="#FBA919" d="M85.972,183.848c-5.772,0-10.468-4.695-10.468-10.465c0-5.771,4.696-10.467,10.468-10.467
		c5.772,0,10.469,4.695,10.469,10.467C96.441,179.152,91.745,183.848,85.972,183.848z M85.972,165.916
		c-4.118,0-7.468,3.35-7.468,7.467c0,4.115,3.35,7.465,7.468,7.465c4.118,0,7.469-3.35,7.469-7.465
		C93.441,169.266,90.09,165.916,85.972,165.916z"/>
	<path fill="#FBA919" d="M12.455,40.512c-6.715,0-12.178-5.463-12.178-12.178c0-6.717,5.463-12.181,12.178-12.181
		c6.717,0,12.182,5.464,12.182,12.181C24.637,35.049,19.172,40.512,12.455,40.512z M12.455,19.153c-5.061,0-9.178,4.119-9.178,9.181
		c0,5.061,4.117,9.178,9.178,9.178c5.063,0,9.182-4.117,9.182-9.178C21.637,23.271,17.518,19.153,12.455,19.153z"/>
	<path fill="#FBA919" d="M102.058,127.363c-0.368-0.146-0.744-0.283-1.113-0.439c-2.633-1.102-4.089-4.016-3.463-6.91
		c0.602-2.77,3.067-4.783,5.756-4.688c2.861,0.104,5.149,2.215,5.6,5.195c0.429,2.77-1.25,5.584-3.889,6.523
		c-0.266,0.096-0.524,0.209-0.787,0.318H102.058z"/>
	<path fill="#FBA919" d="M134.007,94.667c-0.408,0.766-0.68,1.549-1.177,2.147c-0.915,1.094-1.96,2.08-2.953,3.109
		c-1.434,1.493-2.41,1.411-3.567-0.286c-3.402-4.988-7.867-8.663-13.521-10.816c-11.93-4.564-25.39-0.183-32.771,10.64
		c-0.184,0.296-0.389,0.582-0.612,0.854c-0.701,0.786-1.73,0.903-2.48,0.176c-1.313-1.286-2.598-2.604-3.821-3.977
		c-0.875-1.013-0.927-2.507-0.121-3.578C79,84.798,86.869,79.402,96.918,77.827c14.921-2.34,26.861,3.039,36.081,14.813
		C133.425,93.187,133.634,93.904,134.007,94.667"/>
	<path fill="#FBA919" d="M121.903,107.297c-0.387,0.715-0.656,1.5-1.158,2.09c-1.001,1.176-2.12,2.25-3.197,3.359
		c-1.112,1.139-2.188,1.08-3.148-0.201c-2.061-2.766-4.691-4.732-8.074-5.488c-5.55-1.25-10.168,0.463-13.893,4.707
		c-0.307,0.35-0.556,0.752-0.867,1.096c-0.81,0.887-1.833,0.938-2.682,0.09c-1.217-1.219-2.424-2.451-3.583-3.725
		c-1.056-1.158-1.044-2.688-0.015-3.891c5.105-5.931,11.552-8.902,19.386-8.421c6.697,0.419,12.137,3.461,16.405,8.604
		C121.449,105.963,121.585,106.596,121.903,107.297"/>
	
		<rect x="45.09" y="110.704" transform="matrix(0.4542 0.8909 -0.8909 0.4542 137.1882 26.9611)" fill="#FBA919" width="2.999" height="29.493"/>
	
		<rect x="13.211" y="53.197" transform="matrix(0.7797 0.6261 -0.6261 0.7797 43.6899 -14.7892)" fill="#FBA919" width="59.304" height="2.999"/>
	
		<rect x="107.088" y="42.656" transform="matrix(0.9891 0.1475 -0.1475 0.9891 8.4341 -15.4772)" fill="#FBA919" width="3" height="12.961"/>
	
		<rect x="162.003" y="33.216" transform="matrix(0.5626 0.8267 -0.8267 0.5626 120.6953 -109.1465)" fill="#FBA919" width="2.999" height="52.56"/>
	
		<rect x="148.362" y="112.93" transform="matrix(0.9741 0.2263 -0.2263 0.9741 29.9457 -32.399)" fill="#FBA919" width="15.883" height="3"/>
	
		<rect x="122.473" y="147.339" transform="matrix(0.6205 0.7842 -0.7842 0.6205 166.4669 -46.3092)" fill="#FBA919" width="17.215" height="3.001"/>
	
		<rect x="87.377" y="146.654" transform="matrix(0.9729 0.2311 -0.2311 0.9729 38.4082 -16.323)" fill="#FBA919" width="3" height="18.255"/>
</g>
<g display="none">
	<path display="inline" fill="none" stroke="#2B486A" stroke-width="3" stroke-miterlimit="10" d="M154.727,92.057
		c-25.733,0-46.6,20.865-46.6,46.598s20.866,46.598,46.6,46.598c25.731,0,46.599-20.864,46.599-46.598
		S180.458,92.057,154.727,92.057z"/>
	<path display="inline" fill="none" stroke="#2B486A" stroke-width="3" stroke-miterlimit="10" d="M224.326,145.636
		c-5.146,0-9.313,4.175-9.313,9.314c0,5.141,4.167,9.315,9.313,9.315c5.142,0,9.313-4.175,9.313-9.315
		C233.64,149.811,229.468,145.636,224.326,145.636z"/>
	<path display="inline" fill="none" stroke="#2B486A" stroke-width="3" stroke-miterlimit="10" d="M191.415,191.114
		c-3.082,0-5.565,2.484-5.565,5.565c0,3.08,2.483,5.565,5.565,5.565c3.08,0,5.561-2.485,5.561-5.565
		C196.976,193.599,194.495,191.114,191.415,191.114z"/>
	<path display="inline" fill="none" stroke="#2B486A" stroke-width="3" stroke-miterlimit="10" d="M242.191,70.199
		c-4.174,0-7.552,3.38-7.552,7.551c0,4.173,3.378,7.553,7.552,7.553c4.175,0,7.549-3.38,7.549-7.553
		C249.74,73.579,246.366,70.199,242.191,70.199z"/>
	<path display="inline" fill="none" stroke="#2B486A" stroke-width="3" stroke-miterlimit="10" d="M162.078,60.462
		c-5.364,0-9.739,4.372-9.739,9.739c0,5.366,4.375,9.736,9.739,9.736c5.365,0,9.739-4.37,9.739-9.736
		C171.817,64.834,167.443,60.462,162.078,60.462z"/>
	<path display="inline" fill="none" stroke="#2B486A" stroke-width="3" stroke-miterlimit="10" d="M79.316,165.706
		c-3.627,0-6.557,2.932-6.557,6.556c0,3.629,2.93,6.558,6.557,6.558c3.625,0,6.557-2.929,6.557-6.558
		C85.874,168.638,82.941,165.706,79.316,165.706z"/>
	<path display="inline" fill="none" stroke="#2B486A" stroke-width="3" stroke-miterlimit="10" d="M137.488,201.152
		c-4.942,0-8.967,4.021-8.967,8.967c0,4.942,4.024,8.965,8.967,8.965c4.943,0,8.969-4.022,8.969-8.965
		C146.457,205.173,142.432,201.152,137.488,201.152z"/>
	<path display="inline" fill="none" stroke="#2B486A" stroke-width="3" stroke-miterlimit="10" d="M63.971,54.39
		c-5.888,0-10.678,4.792-10.678,10.681s4.79,10.678,10.678,10.678c5.889,0,10.682-4.79,10.682-10.678
		C74.653,59.158,69.86,54.39,63.971,54.39z"/>
	<path display="inline" fill="#2B486A" d="M153.574,164.1c-0.368-0.146-0.744-0.282-1.113-0.439
		c-2.633-1.101-4.089-4.016-3.463-6.91c0.602-2.77,3.067-4.782,5.756-4.688c2.861,0.104,5.149,2.216,5.6,5.196
		c0.429,2.77-1.25,5.583-3.889,6.522c-0.266,0.096-0.524,0.21-0.787,0.318H153.574z"/>
	<path display="inline" fill="#2B486A" d="M185.523,131.404c-0.408,0.766-0.68,1.549-1.177,2.146
		c-0.915,1.094-1.96,2.08-2.953,3.109c-1.434,1.493-2.41,1.411-3.567-0.285c-3.402-4.988-7.867-8.663-13.521-10.816
		c-11.93-4.564-25.39-0.184-32.771,10.641c-0.185,0.296-0.389,0.582-0.612,0.854c-0.701,0.786-1.729,0.902-2.479,0.176
		c-1.313-1.285-2.598-2.604-3.821-3.977c-0.875-1.014-0.926-2.508-0.12-3.578c6.015-8.139,13.885-13.535,23.934-15.11
		c14.921-2.34,26.861,3.038,36.081,14.813C184.941,129.924,185.15,130.641,185.523,131.404"/>
	<path display="inline" fill="#2B486A" d="M173.42,144.034c-0.387,0.714-0.656,1.499-1.158,2.089
		c-1.001,1.176-2.12,2.25-3.197,3.359c-1.112,1.14-2.188,1.081-3.148-0.201c-2.061-2.765-4.691-4.731-8.074-5.488
		c-5.55-1.249-10.168,0.463-13.893,4.707c-0.307,0.351-0.557,0.752-0.867,1.097c-0.81,0.887-1.832,0.937-2.682,0.09
		c-1.217-1.219-2.424-2.451-3.584-3.725c-1.056-1.159-1.044-2.688-0.014-3.891c5.105-5.932,11.551-8.903,19.386-8.421
		c6.697,0.418,12.137,3.461,16.405,8.604C172.966,142.7,173.102,143.332,173.42,144.034"/>
	
		<line display="inline" fill="none" stroke="#2B486A" stroke-width="3" stroke-miterlimit="10" x1="84.968" y1="168.885" x2="111.243" y2="155.489"/>
	
		<line display="inline" fill="none" stroke="#2B486A" stroke-width="3" stroke-miterlimit="10" x1="71.26" y1="72.868" x2="117.5" y2="110"/>
	
		<line display="inline" fill="none" stroke="#2B486A" stroke-width="3" stroke-miterlimit="10" x1="161.06" y1="79.464" x2="159.148" y2="92.283"/>
	
		<line display="inline" fill="none" stroke="#2B486A" stroke-width="3" stroke-miterlimit="10" x1="193.295" y1="111.021" x2="236.743" y2="81.445"/>
	
		<line display="inline" fill="none" stroke="#2B486A" stroke-width="3" stroke-miterlimit="10" x1="200.085" y1="149.37" x2="215.556" y2="152.964"/>
	
		<line display="inline" fill="none" stroke="#2B486A" stroke-width="3" stroke-miterlimit="10" x1="177.256" y1="178.826" x2="187.938" y2="192.326"/>
	
		<line display="inline" fill="none" stroke="#2B486A" stroke-width="3" stroke-miterlimit="10" x1="142.505" y1="183.639" x2="138.283" y2="201.397"/>
</g>
</svg>
