<?xml version="1.0" encoding="utf-8"?>
<!-- Generator: Adobe Illustrator 16.0.0, SVG Export Plug-In . SVG Version: 6.00 Build 0)  -->
<!DOCTYPE svg PUBLIC "-//W3C//DTD SVG 1.1//EN" "http://www.w3.org/Graphics/SVG/1.1/DTD/svg11.dtd">
<svg version="1.1" id="Layer_1" xmlns="http://www.w3.org/2000/svg" xmlns:xlink="http://www.w3.org/1999/xlink" x="0px" y="0px"
	 width="200px" height="200px" viewBox="0 0 200 200" enable-background="new 0 0 200 200" xml:space="preserve">
<g>
	<path fill="#FBAA1B" d="M102.234,1.196C101.739,0.449,100.9,0.003,99.991,0c-0.889,0-1.737,0.449-2.241,1.196
		c-4.919,7.311-16.226,25.362-16.226,36.902c0,14.747,8.279,26.703,18.467,26.703c10.203,0,18.472-11.956,18.472-26.703
		C118.463,26.558,107.162,8.509,102.234,1.196L102.234,1.196z M102.234,1.196"/>
	<path fill="#FBAA1B" d="M150.364,94.522c8.155-8.159,12.927-28.916,14.611-37.566c0.175-0.886-0.104-1.792-0.731-2.432
		c-0.646-0.636-1.553-0.916-2.438-0.741c-8.647,1.688-29.397,6.462-37.566,14.621c-10.424,10.424-13.031,24.731-5.816,31.943
		C125.629,107.557,139.937,104.949,150.364,94.522L150.364,94.522z M150.364,94.522"/>
	<path fill="#FBAA1B" d="M176.614,115.979c-0.633-0.63-1.537-0.907-2.416-0.737c-10.077,1.915-37.13,7.882-47.57,18.321
		c-12.942,12.937-16.173,30.681-7.224,39.636c8.948,8.943,26.696,5.709,39.632-7.236c10.437-10.434,16.407-37.496,18.325-47.561
		C177.53,117.522,177.245,116.616,176.614,115.979L176.614,115.979z M176.614,115.979"/>
	<path fill="#FBAA1B" d="M38.184,53.783c-0.876-0.175-1.795,0.104-2.425,0.741c-0.64,0.64-0.919,1.546-0.744,2.432
		c1.688,8.65,6.462,29.407,14.624,37.566c10.427,10.427,24.722,13.035,31.938,5.825c7.218-7.212,4.602-21.519-5.822-31.943
		C67.592,60.242,46.844,55.471,38.184,53.783L38.184,53.783z M38.184,53.783"/>
	<path fill="#FBAA1B" d="M25.801,115.242c-0.879-0.17-1.783,0.107-2.422,0.737c-0.633,0.637-0.91,1.543-0.738,2.423
		c1.912,10.064,7.885,37.127,18.325,47.561c12.933,12.945,30.68,16.18,39.623,7.236c8.952-8.955,5.724-26.699-7.224-39.636
		C62.931,123.124,35.869,117.157,25.801,115.242L25.801,115.242z M25.801,115.242"/>
	<path fill="#FBAA1B" d="M99.991,72.037c-3.702,0-6.711,3.007-6.711,6.717v114.532c0,3.707,3.009,6.714,6.711,6.714
		c3.713,0,6.72-3.007,6.72-6.714V78.754C106.711,75.044,103.704,72.037,99.991,72.037L99.991,72.037z M99.991,72.037"/>
</g>
</svg>
