<?xml version="1.0" encoding="utf-8"?>
<!-- Generator: Adobe Illustrator 16.0.0, SVG Export Plug-In . SVG Version: 6.00 Build 0)  -->
<!DOCTYPE svg PUBLIC "-//W3C//DTD SVG 1.1//EN" "http://www.w3.org/Graphics/SVG/1.1/DTD/svg11.dtd">
<svg version="1.1" id="Layer_1" xmlns="http://www.w3.org/2000/svg" xmlns:xlink="http://www.w3.org/1999/xlink" x="0px" y="0px"
	 width="200px" height="200px" viewBox="0 0 200 200" enable-background="new 0 0 200 200" xml:space="preserve">
<path fill="#FBAA1B" d="M152.753,25.064l-23.438,23.671C105.288,43.915,9.07,20.727,7.81,22.322
	c-1.405,1.774-1.899,2.994-4.719,6.566c27.754,21.221,56.033,41.523,83.86,62.627l-35.402,35.749l-49.346,3.111l0,0l43.373,25.405
	l24.351,42.989l0,0l3.056-49.667c11.578-11.596,23.247-23.114,34.879-34.654c21.129,28.38,41.428,57.234,62.657,85.551
	c3.535-2.85,4.734-3.342,6.515-4.769c1.573-1.281-22.119-101.45-26.373-123.763c7.98-8.195,15.896-16.45,23.698-24.821
	C215.945,2.137,198.125-20.777,152.753,25.064z"/>
</svg>
