<?xml version="1.0" encoding="utf-8"?>
<!-- Generator: Adobe Illustrator 16.0.0, SVG Export Plug-In . SVG Version: 6.00 Build 0)  -->
<!DOCTYPE svg PUBLIC "-//W3C//DTD SVG 1.1//EN" "http://www.w3.org/Graphics/SVG/1.1/DTD/svg11.dtd">
<svg version="1.1" id="Layer_1" xmlns="http://www.w3.org/2000/svg" xmlns:xlink="http://www.w3.org/1999/xlink" x="0px" y="0px"
	 width="200px" height="200px" viewBox="0 0 200 200" enable-background="new 0 0 200 200" xml:space="preserve">
<path fill="#FBA919" d="M100,200C44.86,200,0,155.14,0,100C0,44.859,44.86,0,100,0c55.141,0,100,44.859,100,100
	C200,155.14,155.141,200,100,200z M100,9.523C50.111,9.523,9.524,50.111,9.524,100S50.111,190.477,100,190.477
	s90.477-40.588,90.477-90.477S149.889,9.523,100,9.523z"/>
<path fill="#FBA919" d="M129.344,38.738c-2.071,0-3.75,1.679-3.75,3.75v6.532c-0.064-0.001-0.128-0.01-0.193-0.01H74.6
	c-4.229,0-7.693,3.463-7.693,7.691v96.867c0,4.229,3.465,7.693,7.693,7.693H125.4c4.229,0,7.693-3.465,7.693-7.693V61.886v-5.185
	V42.488C133.094,40.417,131.415,38.738,129.344,38.738z M85.551,152.393h-8.297c-1.525,0-2.766-1.229-2.766-2.754
	c0-1.541,1.24-2.781,2.766-2.781h8.297c1.526,0,2.767,1.24,2.767,2.781C88.317,151.164,87.077,152.393,85.551,152.393z
	 M85.551,141.854h-8.297c-1.525,0-2.766-1.242-2.766-2.77c0-1.525,1.24-2.762,2.766-2.762h8.297c1.526,0,2.767,1.236,2.767,2.762
	C88.317,140.611,87.077,141.854,85.551,141.854z M85.551,131.295h-8.297c-1.525,0-2.766-1.223-2.766-2.762
	c0-1.525,1.24-2.766,2.766-2.766h8.297c1.526,0,2.767,1.24,2.767,2.766C88.317,130.072,87.077,131.295,85.551,131.295z
	 M85.551,120.758h-8.297c-1.525,0-2.766-1.236-2.766-2.762c0-1.527,1.24-2.766,2.766-2.766h8.297c1.526,0,2.767,1.238,2.767,2.766
	C88.317,119.521,87.077,120.758,85.551,120.758z M104.148,152.393h-8.297c-1.526,0-2.766-1.229-2.766-2.754
	c0-1.541,1.239-2.781,2.766-2.781h8.297c1.526,0,2.766,1.24,2.766,2.781C106.914,151.164,105.675,152.393,104.148,152.393z
	 M104.148,141.854h-8.297c-1.526,0-2.766-1.242-2.766-2.77c0-1.525,1.239-2.762,2.766-2.762h8.297c1.526,0,2.766,1.236,2.766,2.762
	C106.914,140.611,105.675,141.854,104.148,141.854z M104.148,131.295h-8.297c-1.526,0-2.766-1.223-2.766-2.762
	c0-1.525,1.239-2.766,2.766-2.766h8.297c1.526,0,2.766,1.24,2.766,2.766C106.914,130.072,105.675,131.295,104.148,131.295z
	 M104.148,120.758h-8.297c-1.526,0-2.766-1.236-2.766-2.762c0-1.527,1.239-2.766,2.766-2.766h8.297c1.526,0,2.766,1.238,2.766,2.766
	C106.914,119.521,105.675,120.758,104.148,120.758z M122.73,152.393h-8.298c-1.525,0-2.766-1.229-2.766-2.754
	c0-1.541,1.24-2.781,2.766-2.781h8.298c1.525,0,2.766,1.24,2.766,2.781C125.496,151.164,124.256,152.393,122.73,152.393z
	 M122.73,141.854h-8.298c-1.525,0-2.766-1.242-2.766-2.77c0-1.525,1.24-2.762,2.766-2.762h8.298c1.525,0,2.766,1.236,2.766,2.762
	C125.496,140.611,124.256,141.854,122.73,141.854z M122.73,131.295h-8.298c-1.525,0-2.766-1.223-2.766-2.762
	c0-1.525,1.24-2.766,2.766-2.766h8.298c1.525,0,2.766,1.24,2.766,2.766C125.496,130.072,124.256,131.295,122.73,131.295z
	 M122.73,120.758h-8.298c-1.525,0-2.766-1.236-2.766-2.762c0-1.527,1.24-2.766,2.766-2.766h8.298c1.525,0,2.766,1.238,2.766,2.766
	C125.496,119.521,124.256,120.758,122.73,120.758z M74.329,108.84V58.035h51.265v3.852c0,0.26,0.026,0.514,0.077,0.759v46.195
	H74.329z"/>
</svg>
