<?xml version="1.0" encoding="utf-8"?>
<!-- Generator: Adobe Illustrator 16.0.0, SVG Export Plug-In . SVG Version: 6.00 Build 0)  -->
<!DOCTYPE svg PUBLIC "-//W3C//DTD SVG 1.1//EN" "http://www.w3.org/Graphics/SVG/1.1/DTD/svg11.dtd">
<svg version="1.1" id="Layer_1" xmlns="http://www.w3.org/2000/svg" xmlns:xlink="http://www.w3.org/1999/xlink" x="0px" y="0px"
	 width="200px" height="200px" viewBox="0 0 200 200" enable-background="new 0 0 200 200" xml:space="preserve">
<g>
	<g>
		<path fill="#FBAA1B" d="M37.499,80.86h5.862c2.158,0,3.904-1.746,3.904-3.898v-5.856c0-2.158-1.746-3.914-3.904-3.914h-5.862
			c-2.155,0-3.904,1.755-3.904,3.914v5.856C33.595,79.114,35.344,80.86,37.499,80.86z"/>
		<path fill="#FBAA1B" d="M37.499,104.304h5.862c2.158,0,3.904-1.743,3.904-3.898v-5.869c0-2.155-1.746-3.901-3.904-3.901h-5.862
			c-2.155,0-3.904,1.746-3.904,3.901v5.869C33.595,102.561,35.344,104.304,37.499,104.304z"/>
		<path fill="#FBAA1B" d="M37.499,127.735h5.862c2.158,0,3.904-1.746,3.904-3.898v-5.859c0-2.154-1.746-3.91-3.904-3.91h-5.862
			c-2.155,0-3.904,1.756-3.904,3.91v5.859C33.595,125.989,35.344,127.735,37.499,127.735z"/>
		<path fill="#FBAA1B" d="M37.499,151.176h5.862c2.158,0,3.904-1.743,3.904-3.907v-5.862c0-2.155-1.746-3.91-3.904-3.91h-5.862
			c-2.155,0-3.904,1.755-3.904,3.91v5.862C33.595,149.433,35.344,151.176,37.499,151.176z"/>
		<path fill="#FBAA1B" d="M58.007,80.86h5.871c2.152,0,3.898-1.746,3.898-3.898v-5.856c0-2.158-1.746-3.914-3.898-3.914h-5.871
			c-2.152,0-3.901,1.755-3.901,3.914v5.856C54.105,79.114,55.854,80.86,58.007,80.86z"/>
		<path fill="#FBAA1B" d="M58.007,104.304h5.871c2.152,0,3.898-1.743,3.898-3.898v-5.869c0-2.155-1.746-3.901-3.898-3.901h-5.871
			c-2.152,0-3.901,1.746-3.901,3.901v5.869C54.105,102.561,55.854,104.304,58.007,104.304z"/>
		<path fill="#FBAA1B" d="M58.007,127.735h5.871c2.152,0,3.898-1.746,3.898-3.898v-5.859c0-2.154-1.746-3.91-3.898-3.91h-5.871
			c-2.152,0-3.901,1.756-3.901,3.91v5.859C54.105,125.989,55.854,127.735,58.007,127.735z"/>
		<path fill="#FBAA1B" d="M58.007,151.176h5.871c2.152,0,3.898-1.743,3.898-3.907v-5.862c0-2.155-1.746-3.91-3.898-3.91h-5.871
			c-2.152,0-3.901,1.755-3.901,3.91v5.862C54.105,149.433,55.854,151.176,58.007,151.176z"/>
		<path fill="#FBAA1B" d="M78.523,80.86h5.851c2.161,0,3.91-1.746,3.91-3.898v-5.856c0-2.158-1.749-3.914-3.91-3.914h-5.851
			c-2.158,0-3.91,1.755-3.91,3.914v5.856C74.613,79.114,76.365,80.86,78.523,80.86z"/>
		<path fill="#FBAA1B" d="M78.523,104.304h5.851c2.161,0,3.91-1.743,3.91-3.898v-5.869c0-2.155-1.749-3.901-3.91-3.901h-5.851
			c-2.158,0-3.91,1.746-3.91,3.901v5.869C74.613,102.561,76.365,104.304,78.523,104.304z"/>
		<path fill="#FBAA1B" d="M78.523,127.735h5.851c2.161,0,3.91-1.746,3.91-3.898v-5.859c0-2.154-1.749-3.91-3.91-3.91h-5.851
			c-2.158,0-3.91,1.756-3.91,3.91v5.859C74.613,125.989,76.365,127.735,78.523,127.735z"/>
		<path fill="#FBAA1B" d="M78.523,151.176h5.851c2.161,0,3.91-1.743,3.91-3.907v-5.862c0-2.155-1.749-3.91-3.91-3.91h-5.851
			c-2.158,0-3.91,1.755-3.91,3.91v5.862C74.613,149.433,76.365,151.176,78.523,151.176z"/>
		<path fill="#FBAA1B" d="M115.62,80.86h5.859c2.164,0,3.916-1.746,3.916-3.898v-5.856c0-2.158-1.752-3.914-3.916-3.914h-5.859
			c-2.155,0-3.901,1.755-3.901,3.914v5.856C111.719,79.114,113.465,80.86,115.62,80.86z"/>
		<path fill="#FBAA1B" d="M115.62,57.423h5.859c2.164,0,3.916-1.743,3.916-3.908v-5.847c0-2.158-1.752-3.911-3.916-3.911h-5.859
			c-2.155,0-3.901,1.752-3.901,3.911v5.847C111.719,55.68,113.465,57.423,115.62,57.423z"/>
		<path fill="#FBAA1B" d="M115.62,33.988h5.859c2.164,0,3.916-1.752,3.916-3.904v-5.856c0-2.161-1.752-3.914-3.916-3.914h-5.859
			c-2.155,0-3.901,1.752-3.901,3.914v5.856C111.719,32.236,113.465,33.988,115.62,33.988z"/>
		<path fill="#FBAA1B" d="M115.62,104.304h5.859c2.164,0,3.916-1.743,3.916-3.898v-5.869c0-2.155-1.752-3.901-3.916-3.901h-5.859
			c-2.155,0-3.901,1.746-3.901,3.901v5.869C111.719,102.561,113.465,104.304,115.62,104.304z"/>
		<path fill="#FBAA1B" d="M115.62,127.735h5.859c2.164,0,3.916-1.746,3.916-3.898v-5.859c0-2.154-1.752-3.91-3.916-3.91h-5.859
			c-2.155,0-3.901,1.756-3.901,3.91v5.859C111.719,125.989,113.465,127.735,115.62,127.735z"/>
		<path fill="#FBAA1B" d="M115.62,151.176h5.859c2.164,0,3.916-1.743,3.916-3.907v-5.862c0-2.155-1.752-3.91-3.916-3.91h-5.859
			c-2.155,0-3.901,1.755-3.901,3.91v5.862C111.719,149.433,113.465,151.176,115.62,151.176z"/>
		<path fill="#FBAA1B" d="M136.134,80.86h5.862c2.152,0,3.911-1.746,3.911-3.898v-5.856c0-2.158-1.759-3.914-3.911-3.914h-5.862
			c-2.161,0-3.91,1.755-3.91,3.914v5.856C132.224,79.114,133.973,80.86,136.134,80.86z"/>
		<path fill="#FBAA1B" d="M136.134,57.423h5.862c2.152,0,3.911-1.743,3.911-3.908v-5.847c0-2.158-1.759-3.911-3.911-3.911h-5.862
			c-2.161,0-3.91,1.752-3.91,3.911v5.847C132.224,55.68,133.973,57.423,136.134,57.423z"/>
		<path fill="#FBAA1B" d="M136.134,33.988h5.862c2.152,0,3.911-1.752,3.911-3.904v-5.856c0-2.161-1.759-3.914-3.911-3.914h-5.862
			c-2.161,0-3.91,1.752-3.91,3.914v5.856C132.224,32.236,133.973,33.988,136.134,33.988z"/>
		<path fill="#FBAA1B" d="M136.134,104.304h5.862c2.152,0,3.911-1.743,3.911-3.898v-5.869c0-2.155-1.759-3.901-3.911-3.901h-5.862
			c-2.161,0-3.91,1.746-3.91,3.901v5.869C132.224,102.561,133.973,104.304,136.134,104.304z"/>
		<path fill="#FBAA1B" d="M136.134,127.735h5.862c2.152,0,3.911-1.746,3.911-3.898v-5.859c0-2.154-1.759-3.91-3.911-3.91h-5.862
			c-2.161,0-3.91,1.756-3.91,3.91v5.859C132.224,125.989,133.973,127.735,136.134,127.735z"/>
		<path fill="#FBAA1B" d="M136.134,151.176h5.862c2.152,0,3.911-1.743,3.911-3.907v-5.862c0-2.155-1.759-3.91-3.911-3.91h-5.862
			c-2.161,0-3.91,1.755-3.91,3.91v5.862C132.224,149.433,133.973,151.176,136.134,151.176z"/>
		<path fill="#FBAA1B" d="M156.647,80.86h5.854c2.164,0,3.904-1.746,3.904-3.898v-5.856c0-2.158-1.74-3.914-3.904-3.914h-5.854
			c-2.164,0-3.913,1.755-3.913,3.914v5.856C152.734,79.114,154.483,80.86,156.647,80.86z"/>
		<path fill="#FBAA1B" d="M156.647,57.423h5.854c2.164,0,3.904-1.743,3.904-3.908v-5.847c0-2.158-1.74-3.911-3.904-3.911h-5.854
			c-2.164,0-3.913,1.752-3.913,3.911v5.847C152.734,55.68,154.483,57.423,156.647,57.423z"/>
		<path fill="#FBAA1B" d="M156.647,33.988h5.854c2.164,0,3.904-1.752,3.904-3.904v-5.856c0-2.161-1.74-3.914-3.904-3.914h-5.854
			c-2.164,0-3.913,1.752-3.913,3.914v5.856C152.734,32.236,154.483,33.988,156.647,33.988z"/>
		<path fill="#FBAA1B" d="M156.647,104.304h5.854c2.164,0,3.904-1.743,3.904-3.898v-5.869c0-2.155-1.74-3.901-3.904-3.901h-5.854
			c-2.164,0-3.913,1.746-3.913,3.901v5.869C152.734,102.561,154.483,104.304,156.647,104.304z"/>
		<path fill="#FBAA1B" d="M156.647,127.735h5.854c2.164,0,3.904-1.746,3.904-3.898v-5.859c0-2.154-1.74-3.91-3.904-3.91h-5.854
			c-2.164,0-3.913,1.756-3.913,3.91v5.859C152.734,125.989,154.483,127.735,156.647,127.735z"/>
		<path fill="#FBAA1B" d="M156.647,151.176h5.854c2.164,0,3.904-1.743,3.904-3.907v-5.862c0-2.155-1.74-3.91-3.904-3.91h-5.854
			c-2.164,0-3.913,1.755-3.913,3.91v5.862C152.734,149.433,154.483,151.176,156.647,151.176z"/>
		<path fill="#FBAA1B" d="M45.221,176.568c-2.154,0-3.897,1.746-3.897,3.914c0,2.151,1.743,3.897,3.897,3.897h0.093
			c2.161,0,3.913-1.746,3.913-3.897c0-2.168-1.752-3.914-3.913-3.914H45.221z"/>
		<path fill="#FBAA1B" d="M123.352,176.568c-2.161,0-3.91,1.746-3.91,3.914c0,2.151,1.749,3.897,3.91,3.897h0.089
			c2.152,0,3.904-1.746,3.904-3.897c0-2.168-1.752-3.914-3.904-3.914H123.352z"/>
		<path fill="#FBAA1B" d="M184.786,192.188h-2.755V3.91c0-2.155-1.749-3.91-3.91-3.91h-78.118c-2.155,0-3.904,1.755-3.904,3.91
			v47.656H21.882c-2.164,0-3.91,1.749-3.91,3.901v136.721h-2.745c-2.165,0-3.914,1.746-3.914,3.901c0,2.164,1.749,3.91,3.914,3.91
			h6.655h39.051h23.441h15.629h39.063h23.435h15.62l0,0l0,0h6.665c2.154,0,3.901-1.746,3.901-3.91
			C188.688,193.935,186.94,192.188,184.786,192.188z M80.476,192.188H64.847v-15.62h15.629V192.188z M96.099,192.188h-7.814v-19.53
			c0-2.152-1.749-3.91-3.91-3.91H60.933c-2.154,0-3.897,1.758-3.897,3.91v19.53H25.78v-7.809h8.214c2.151,0,3.91-1.746,3.91-3.897
			c0-2.168-1.759-3.914-3.91-3.914H25.78V59.378h70.318V192.188z M158.597,192.188h-15.632v-15.62h15.632V192.188z M174.217,192.188
			h-7.812v-19.53c0-2.152-1.74-3.91-3.904-3.91h-23.435c-2.164,0-3.904,1.758-3.904,3.91v19.53H103.91v-7.809h8.205
			c2.171,0,3.91-1.746,3.91-3.897c0-2.168-1.739-3.914-3.91-3.914h-8.205V55.467V7.818h70.307V192.188z"/>
	</g>
</g>
</svg>
