<?xml version="1.0" encoding="utf-8"?>
<!-- Generator: Adobe Illustrator 16.0.0, SVG Export Plug-In . SVG Version: 6.00 Build 0)  -->
<!DOCTYPE svg PUBLIC "-//W3C//DTD SVG 1.1//EN" "http://www.w3.org/Graphics/SVG/1.1/DTD/svg11.dtd">
<svg version="1.1" id="Layer_1" xmlns="http://www.w3.org/2000/svg" xmlns:xlink="http://www.w3.org/1999/xlink" x="0px" y="0px"
	 width="200px" height="200px" viewBox="0 0 200 200" enable-background="new 0 0 200 200" xml:space="preserve">
<path fill="#FBA919" d="M128.67,162.445c-1.932,0-3.816-0.12-5.7-0.287v12.851H25.582V21.419h97.388v13.399
	c1.89-0.167,3.769-0.287,5.706-0.287c1.24,0,2.469,0.12,3.691,0.176V13.5c0-7.43-6.076-13.5-13.512-13.5h-89.16
	c-7.43,0-13.512,6.07-13.512,13.5v172.994c0,7.424,6.083,13.506,13.512,13.506h89.16c7.436,0,13.512-6.082,13.512-13.506V162.26
	C131.145,162.332,129.91,162.445,128.67,162.445z M60.015,9.738h28.527c0.903,0,1.637,0.733,1.637,1.651
	c0,0.904-0.728,1.628-1.637,1.628H60.015c-0.906,0-1.637-0.718-1.637-1.628C58.378,10.471,59.108,9.738,60.015,9.738z
	 M74.278,193.25c-3.733,0-6.747-3.029-6.747-6.75c0-3.733,3.014-6.738,6.747-6.738c3.73,0,6.759,3.005,6.759,6.738
	C81.043,190.221,78.008,193.25,74.278,193.25z M168.253,74.946c0.315,0.391,0.703,0.647,1.115,0.787l-1.849,1.148l-3.208-4.138
	l0.513-0.722C165.784,73.238,168.253,74.946,168.253,74.946z M128.67,43.348c-30.456,0-55.155,24.699-55.155,55.143
	c0,30.465,24.699,55.146,55.155,55.146c30.459,0,55.146-24.682,55.146-55.146C183.822,68.047,159.136,43.348,128.67,43.348z
	 M96.327,60.415c1.929,2.901-2.674,3.363-2.674,3.363c-0.477,0.134-0.951,0.343-1.428,0.587
	C93.518,62.955,94.898,61.649,96.327,60.415z M101.303,108.664c-1.726,2.165-1.491,4.359-1.491,4.359
	c2.218,7.77-2.215,7.77-2.215,7.77c-3.205,0.471-1.965,4.348-1.965,4.348c0,2.182-1.24,3.899-1.24,3.899
	c1.24,1.693,0.263,3.649,0.263,3.649c-0.25,0.376-0.361,0.799-0.373,1.217c-9.457-9.017-15.375-21.729-15.375-35.817
	c0-2.907,0.262-5.739,0.739-8.524c0.287-0.483,0.462-0.793,0.462-0.793l1.979,1.213c1.729-0.724,2.692,1.929,2.692,1.929
	c1.479-0.248,1.98,2.433,1.98,2.433c3.694-1.461,4.427,5.319,4.427,5.319c1.977,0,4.201,2.421,4.201,2.421
	c3.688,0,4.424,2.427,4.424,2.427C103.021,104.037,101.303,108.664,101.303,108.664z M102.642,58.062
	c-0.313,2.683-5.009,2.353-6.145,2.224c1.968-1.655,4.067-3.181,6.285-4.514L102.642,58.062z M170.71,82.695
	c0,0-0.967,2.668-3.924,4.126c0,0-4.187-10.191-9.362-12.371c0,0,5.414,9.466,9.852,13.837c0,0,1.228,0.739,3.195-0.232
	c0,0,0.239,8.011-4.442,13.342c0,0-1.216,2.919-0.728,6.056c0,0,0.728,5.343-3.202,8.014c0,0-1.729,1.205-1.729,4.115
	c0,0,0,2.421-2.708,2.421c0,0-2.957,6.261-11.329,5.057c0,0,0-4.556-2.439-9.899c0,0-2.229-2.928,1.199-6.309
	c0,0,3.22-1.455-1.7-7.03c0,0-3.189-2.674-1.479-5.582c0,0,0.489-2.424-0.733-3.154c0,0-3.435,0.712-4.18-1.693
	c0,0-6.411,2.418-9.362,1.21c0,0-3.691,2.418-6.654-3.169c0,0-4.92-2.919-3.179-5.582c0,0,0.489-2.662,0.489-5.331
	c0,0,0.482-4.371,5.414-6.544c0,0,1.479-4.38,3.686-4.38c0,0,4.687-0.25,7.155-1.196c0,0,3.196-0.978,5.152-0.489
	c0,0,1.24,1.935,0.501,3.151c0,0,3.435-1.199,5.664,1.446c0,0,2.207-0.227,1.706-1.929c0,0,5.683,3.414,8.634,1.458
	c0,0,0.728-4.854-1.968-4.615c0,0-4.186,0.245-6.165-2.668c0,0-2.207-0.978-1.729,0.489c0,0,0.263,1.446,1.979,1.929
	c0,0-0.489,1.455-2.206,0.728c0,0-1.473-0.489-1.962-3.652c0,0-3.941-0.712-4.943-2.418c0,0-2.438,0.728,3.196,3.414
	c0,0,2.23,1.678-0.739,2.907c0,0-1.968-0.966,0.25-1.449c0,0-0.489-0.975-2.707-1.702c0,0-1.461-1.44-1.711-2.418
	c0,0-2.94,1.941-4.192,0.728c0,0-0.501,2.418-1.968,2.418c0,0-0.263,3.637-5.176,2.186h-1.491c0,0-1.229-3.396,0.501-4.371
	c0,0,3.196,0.725,3.93,0c0.751-0.715,1.234-1.938-0.728-2.421c0,0-2.939-0.749-1.729-2.197c0,0,1.479-1.685,2.958,0.501
	c0,0,2.463-1.708,5.653-1.935c0,0,5.683-2.442,4.191-4.147c0,0-3.679,2.186-5.408,0.99c0,0-4.854-1.607-0.9-5.465
	c17.114,1.648,31.664,12.024,39.189,26.592c-0.74,0.313-1.754,0.593-2.684,0.361C170.399,76.583,173.56,80.125,170.71,82.695z"/>
</svg>
