<?xml version="1.0" encoding="utf-8"?>
<!-- Generator: Adobe Illustrator 16.0.0, SVG Export Plug-In . SVG Version: 6.00 Build 0)  -->
<!DOCTYPE svg PUBLIC "-//W3C//DTD SVG 1.1//EN" "http://www.w3.org/Graphics/SVG/1.1/DTD/svg11.dtd">
<svg version="1.1" id="Layer_1" xmlns="http://www.w3.org/2000/svg" xmlns:xlink="http://www.w3.org/1999/xlink" x="0px" y="0px"
	 width="200px" height="200px" viewBox="0 0 200 200" enable-background="new 0 0 200 200" xml:space="preserve">
<g>
	<path fill="#FBAA1B" d="M156.69,128.415l-24.679-11.372l-11.857-9.994l-18.366,18.278l8.455,56.524
		c0.031,0.209-0.025,0.418-0.146,0.59l-9.453,12.932c-0.151,0.203-0.392,0.334-0.647,0.334c-0.25,0-0.496-0.126-0.642-0.334
		l-9.455-12.932c-0.117-0.172-0.174-0.381-0.138-0.59l8.451-56.524l-18.37-18.278l-11.859,9.994l-24.676,11.372
		c-3.649,1.492-7.955,4.527-9.061,7.72c0,0-26.825,63.865-12.279,63.865h156.057c14.56,0-12.269-63.865-12.269-63.865
		C164.171,132.338,160.348,129.907,156.69,128.415L156.69,128.415z"/>
	<path fill="#FBAA1B" d="M99.998,106.688c25.248,0,44.079-23.521,44.507-62.952C144.776,16.372,131.745,0,99.998,0
		C68.259,0,55.22,16.372,55.497,43.737C55.93,83.167,74.758,106.688,99.998,106.688L99.998,106.688z"/>
</g>
</svg>
