<?xml version="1.0" encoding="utf-8"?>
<!-- Generator: Adobe Illustrator 16.0.0, SVG Export Plug-In . SVG Version: 6.00 Build 0)  -->
<!DOCTYPE svg PUBLIC "-//W3C//DTD SVG 1.1//EN" "http://www.w3.org/Graphics/SVG/1.1/DTD/svg11.dtd">
<svg version="1.1" id="Layer_1" xmlns="http://www.w3.org/2000/svg" xmlns:xlink="http://www.w3.org/1999/xlink" x="0px" y="0px"
	 width="200px" height="200px" viewBox="0 0 200 200" enable-background="new 0 0 200 200" xml:space="preserve">
<g>
	<path fill="#FBA919" d="M82.087,107.813l-6.786-3.126l-3.26-2.749l-5.05,5.026l2.325,15.542c0.008,0.058-0.007,0.114-0.041,0.162
		l-2.599,3.556c-0.042,0.056-0.108,0.092-0.178,0.092c-0.069,0-0.137-0.034-0.177-0.092l-2.6-3.556
		c-0.032-0.048-0.047-0.104-0.038-0.162l2.324-15.542l-5.052-5.026l-3.26,2.749l-6.785,3.126c-1.003,0.41-2.188,1.245-2.491,2.123
		c0,0-7.376,17.561-3.376,17.561h42.909c4.003,0-3.374-17.561-3.374-17.561C84.144,108.892,83.093,108.223,82.087,107.813
		L82.087,107.813z"/>
	<path fill="#FBA919" d="M66.5,101.839c6.942,0,12.12-6.467,12.237-17.309c0.075-7.524-3.508-12.026-12.237-12.026
		c-8.727,0-12.312,4.502-12.236,12.026C54.382,95.372,59.56,101.839,66.5,101.839L66.5,101.839z"/>
</g>
<g>
	<g>
		<path fill="#FBA919" d="M153.791,36.079c-0.705-2.195-1.914-4.495-3.594-6.834c-1.176-1.635-2.406-3.053-3.453-4.158
			c1.133,0.431,1.9,0.766,2.656,2.214c0.129,0.246,0.432,0.342,0.678,0.213l0.893-0.465c0.246-0.128,0.342-0.432,0.213-0.678
			c-1.141-2.185-2.586-2.732-3.861-3.216c-0.1-0.038-0.203-0.077-0.305-0.117c0.418-0.073,0.852-0.121,1.277-0.121
			c0.873,0,1.588,0.202,2.191,0.619c0.109,0.075,0.246,0.104,0.377,0.081s0.248-0.1,0.322-0.209l0.572-0.827
			c0.156-0.229,0.1-0.542-0.129-0.699c-0.949-0.655-2.035-0.973-3.324-0.973c-0.539,0-1.074,0.059-1.57,0.142
			c1.447-1.752,2.623-3.596,2.33-5.073c-0.145-0.727-0.629-1.32-1.369-1.67c-0.521-0.244-1.064-0.364-1.658-0.364
			c-1.121,0-2.182,0.436-3.209,0.858c-0.91,0.374-1.854,0.761-2.709,0.761c-0.152,0-0.299-0.011-0.436-0.035
			c-0.428-0.074-1.127-0.405-1.803-0.726c-1.223-0.582-2.611-1.24-3.949-1.24c-0.75,0-1.412,0.208-1.969,0.62
			c-1.098,0.813-1.676,1.815-1.721,2.979c-0.092,2.417,2.254,4.741,3.678,6.012c-1.271,0.878-3.26,2.416-5.17,4.563
			c-4.014,4.517-5.625,9.527-4.658,14.492c0.654,3.363,2.402,5.997,5.191,7.829c2.498,1.641,5.799,2.552,9.549,2.635
			c0.164,0.003,0.336,0.005,0.518,0.005c2.043,0,5.07-0.248,7.889-1.432c3.447-1.447,5.73-3.896,6.783-7.28
			C154.775,41.56,154.697,38.9,153.791,36.079L153.791,36.079z M140.436,42.824v1.329c0,0.137-0.111,0.25-0.248,0.25h-1.914
			c-0.139,0-0.25-0.112-0.25-0.25v-1.378c-1.008-0.242-1.939-0.759-2.58-1.436l-0.373-0.393c-0.045-0.048-0.068-0.112-0.066-0.179
			c0.002-0.065,0.029-0.128,0.076-0.174l1.391-1.315c0.1-0.095,0.258-0.09,0.352,0.01l0.373,0.392
			c0.471,0.5,1.311,0.835,2.088,0.835c0.613,0,1.652-0.162,1.652-0.77c0.004-0.525-0.225-0.736-1.832-1.223
			c-1.375-0.417-3.674-1.114-3.674-3.704c0-1.451,0.988-2.605,2.594-3.049v-1.423c0-0.138,0.111-0.25,0.25-0.25h1.912
			c0.139,0,0.25,0.111,0.25,0.25v1.291c0.83,0.123,1.637,0.408,2.242,0.799l0.453,0.293c0.115,0.075,0.148,0.229,0.074,0.346
			l-1.039,1.607c-0.074,0.115-0.229,0.148-0.344,0.074l-0.455-0.293c-0.428-0.277-1.184-0.479-1.795-0.479
			c-0.643,0-1.732,0.176-1.732,0.835c0,0.62,0.258,0.879,1.963,1.396c1.42,0.43,3.564,1.08,3.543,3.541
			C143.348,41.318,142.238,42.48,140.436,42.824L140.436,42.824z M143.242,21.965c-0.127,0.037-0.252,0.073-0.375,0.107
			c-0.205,0.057-0.406,0.114-0.6,0.169l-0.086,0.024c-1.82,0.513-3.137,0.884-4.146,0.884c-0.721,0-1.275-0.193-1.799-0.625
			c-0.09-0.08-0.195-0.171-0.314-0.273c-1.021-0.887-3.738-3.241-3.67-5.015c0.02-0.539,0.309-0.997,0.908-1.44
			c0.207-0.153,0.453-0.225,0.771-0.225c0.885,0,2.055,0.555,3.09,1.046c0.832,0.395,1.619,0.769,2.324,0.892
			c0.252,0.042,0.512,0.063,0.773,0.063c1.252,0,2.381-0.463,3.475-0.912c0.883-0.363,1.719-0.706,2.443-0.706
			c0.293,0,0.555,0.056,0.803,0.172c0.227,0.107,0.242,0.195,0.252,0.242c0.221,1.118-2.479,4.089-3.496,5.208
			C143.471,21.711,143.354,21.842,143.242,21.965L143.242,21.965z M143.242,21.965"/>
	</g>
</g>
<g opacity="0.5">
	<g>
		<path fill="#FFFFFF" d="M197.126,101.959c-0.706-2.195-1.915-4.495-3.595-6.834c-1.175-1.635-2.405-3.053-3.453-4.158
			c1.134,0.431,1.901,0.766,2.657,2.214c0.129,0.246,0.432,0.342,0.678,0.213l0.892-0.465c0.246-0.128,0.342-0.432,0.214-0.678
			c-1.141-2.185-2.586-2.732-3.861-3.216c-0.101-0.038-0.203-0.077-0.306-0.117c0.418-0.073,0.853-0.121,1.278-0.121
			c0.872,0,1.588,0.202,2.191,0.619c0.109,0.075,0.245,0.104,0.377,0.081c0.131-0.024,0.247-0.1,0.322-0.209l0.571-0.827
			c0.157-0.229,0.1-0.542-0.128-0.699c-0.949-0.655-2.036-0.973-3.325-0.973c-0.538,0-1.074,0.059-1.57,0.142
			c1.447-1.752,2.623-3.596,2.331-5.073c-0.145-0.727-0.63-1.32-1.369-1.67c-0.522-0.244-1.065-0.364-1.659-0.364
			c-1.12,0-2.181,0.436-3.208,0.858c-0.911,0.374-1.854,0.761-2.71,0.761c-0.151,0-0.299-0.011-0.436-0.035
			c-0.428-0.074-1.126-0.405-1.802-0.726c-1.224-0.582-2.612-1.24-3.949-1.24c-0.751,0-1.413,0.208-1.969,0.62
			c-1.098,0.813-1.676,1.815-1.721,2.979c-0.093,2.417,2.254,4.741,3.677,6.012c-1.271,0.878-3.26,2.416-5.169,4.563
			c-4.014,4.517-5.625,9.528-4.658,14.492c0.654,3.363,2.401,5.998,5.19,7.83c2.499,1.641,5.8,2.553,9.549,2.635
			c0.164,0.002,0.337,0.004,0.518,0.004c2.044,0,5.071-0.248,7.89-1.432c3.447-1.445,5.729-3.895,6.782-7.279
			C198.109,107.44,198.032,104.781,197.126,101.959L197.126,101.959z M183.771,108.704v1.33c0,0.137-0.111,0.249-0.249,0.249h-1.914
			c-0.138,0-0.249-0.112-0.249-0.249v-1.379c-1.009-0.242-1.94-0.759-2.581-1.436l-0.372-0.393c-0.045-0.049-0.069-0.113-0.067-0.18
			c0.002-0.064,0.029-0.128,0.077-0.174l1.39-1.315c0.101-0.094,0.259-0.09,0.353,0.011l0.372,0.392
			c0.472,0.5,1.312,0.835,2.088,0.835c0.613,0,1.652-0.162,1.652-0.77c0.004-0.524-0.224-0.735-1.831-1.223
			c-1.375-0.417-3.675-1.114-3.675-3.704c0-1.451,0.988-2.605,2.595-3.049v-1.423c0-0.138,0.111-0.25,0.249-0.25h1.913
			c0.138,0,0.25,0.111,0.25,0.25v1.291c0.83,0.123,1.637,0.408,2.241,0.799l0.454,0.293c0.115,0.075,0.148,0.229,0.073,0.346
			l-1.038,1.607c-0.074,0.114-0.229,0.148-0.345,0.073l-0.454-0.294c-0.429-0.277-1.185-0.479-1.795-0.479
			c-0.644,0-1.732,0.177-1.732,0.836c0,0.62,0.258,0.879,1.963,1.396c1.419,0.43,3.563,1.079,3.543,3.541
			C186.682,107.199,185.572,108.36,183.771,108.704L183.771,108.704z M186.576,87.846c-0.126,0.037-0.251,0.073-0.374,0.107
			c-0.205,0.057-0.406,0.114-0.601,0.169l-0.086,0.024c-1.82,0.513-3.137,0.884-4.146,0.884c-0.72,0-1.275-0.193-1.799-0.625
			c-0.09-0.08-0.194-0.171-0.313-0.273c-1.022-0.887-3.738-3.241-3.671-5.015c0.021-0.539,0.31-0.997,0.908-1.44
			c0.207-0.153,0.453-0.225,0.772-0.225c0.884,0,2.055,0.555,3.089,1.046c0.832,0.395,1.62,0.769,2.324,0.892
			c0.252,0.042,0.512,0.063,0.773,0.063c1.253,0,2.382-0.463,3.475-0.912c0.884-0.363,1.72-0.706,2.443-0.706
			c0.293,0,0.556,0.056,0.803,0.172c0.227,0.107,0.243,0.195,0.253,0.242c0.221,1.118-2.479,4.089-3.496,5.208
			C186.806,87.592,186.688,87.723,186.576,87.846L186.576,87.846z M186.576,87.846"/>
	</g>
</g>
<g opacity="0.5">
	<g>
		<path fill="#FFFFFF" d="M157.125,167.84c-0.705-2.195-1.914-4.495-3.594-6.835c-1.176-1.635-2.406-3.053-3.453-4.158
			c1.133,0.432,1.9,0.766,2.656,2.215c0.129,0.246,0.432,0.342,0.678,0.213l0.893-0.465c0.246-0.128,0.342-0.432,0.213-0.678
			c-1.141-2.185-2.586-2.732-3.861-3.217c-0.1-0.037-0.203-0.076-0.305-0.116c0.418-0.073,0.852-0.12,1.277-0.12
			c0.873,0,1.588,0.201,2.191,0.618c0.109,0.075,0.246,0.104,0.377,0.081c0.131-0.024,0.248-0.1,0.322-0.209l0.572-0.828
			c0.156-0.229,0.1-0.541-0.129-0.699c-0.949-0.654-2.035-0.973-3.324-0.973c-0.539,0-1.074,0.059-1.57,0.142
			c1.447-1.752,2.623-3.596,2.33-5.073c-0.145-0.727-0.629-1.32-1.369-1.67c-0.521-0.244-1.064-0.364-1.658-0.364
			c-1.121,0-2.182,0.437-3.209,0.858c-0.91,0.373-1.854,0.76-2.709,0.76c-0.152,0-0.299-0.011-0.436-0.034
			c-0.428-0.073-1.127-0.405-1.803-0.726c-1.223-0.582-2.611-1.24-3.949-1.24c-0.75,0-1.412,0.208-1.969,0.619
			c-1.098,0.813-1.676,1.815-1.721,2.979c-0.092,2.418,2.254,4.742,3.678,6.013c-1.271,0.878-3.26,2.416-5.17,4.563
			c-4.014,4.517-5.625,9.527-4.658,14.492c0.654,3.362,2.402,5.997,5.191,7.829c2.498,1.641,5.799,2.553,9.549,2.635
			c0.164,0.003,0.336,0.005,0.518,0.005c2.043,0,5.07-0.248,7.889-1.432c3.447-1.446,5.73-3.896,6.783-7.28
			C158.109,173.321,158.031,170.661,157.125,167.84L157.125,167.84z M143.77,174.585v1.329c0,0.138-0.111,0.249-0.248,0.249h-1.914
			c-0.139,0-0.25-0.111-0.25-0.249v-1.378c-1.008-0.242-1.939-0.76-2.58-1.437l-0.373-0.393c-0.045-0.048-0.068-0.112-0.066-0.179
			c0.002-0.065,0.029-0.129,0.076-0.174l1.391-1.315c0.1-0.095,0.258-0.091,0.352,0.011l0.373,0.392
			c0.471,0.499,1.311,0.835,2.088,0.835c0.613,0,1.652-0.162,1.652-0.77c0.004-0.525-0.225-0.736-1.832-1.223
			c-1.375-0.418-3.674-1.114-3.674-3.705c0-1.45,0.988-2.605,2.594-3.049v-1.424c0-0.138,0.111-0.249,0.25-0.249h1.912
			c0.139,0,0.25,0.111,0.25,0.249v1.291c0.83,0.123,1.637,0.408,2.242,0.799l0.453,0.293c0.115,0.076,0.148,0.23,0.074,0.346
			l-1.039,1.607c-0.074,0.115-0.229,0.148-0.344,0.074l-0.455-0.294c-0.428-0.277-1.184-0.479-1.795-0.479
			c-0.643,0-1.732,0.177-1.732,0.835c0,0.621,0.258,0.88,1.963,1.396c1.42,0.43,3.564,1.079,3.543,3.541
			C146.682,173.079,145.572,174.241,143.77,174.585L143.77,174.585z M146.576,153.726c-0.127,0.037-0.252,0.074-0.375,0.107
			c-0.205,0.058-0.406,0.114-0.6,0.17l-0.086,0.023c-1.82,0.514-3.137,0.884-4.146,0.884c-0.721,0-1.275-0.193-1.799-0.624
			c-0.09-0.08-0.195-0.172-0.314-0.273c-1.021-0.887-3.738-3.241-3.67-5.016c0.02-0.539,0.309-0.996,0.908-1.44
			c0.207-0.153,0.453-0.226,0.771-0.226c0.885,0,2.055,0.556,3.09,1.047c0.832,0.395,1.619,0.77,2.324,0.892
			c0.252,0.042,0.512,0.063,0.773,0.063c1.252,0,2.381-0.464,3.475-0.912c0.883-0.363,1.719-0.706,2.443-0.706
			c0.293,0,0.555,0.057,0.803,0.172c0.227,0.107,0.242,0.195,0.252,0.242c0.221,1.117-2.479,4.089-3.496,5.207
			C146.805,153.472,146.688,153.603,146.576,153.726L146.576,153.726z M146.576,153.726"/>
	</g>
</g>
<g>
	<path fill-rule="evenodd" clip-rule="evenodd" fill="#FBA919" d="M105.425,74.766l2.042-0.222l10.498,1.541
		c-7.823-16.886-23.727-29.659-43.526-32.558c-27.69-4.079-53.644,12.441-62.34,38.032l-11.204-1.65L13.259,102.7l18.446-18.254
		l-9.126-1.361c7.692-19.892,28.349-32.532,50.331-29.298C86.802,55.832,98.385,63.802,105.425,74.766L105.425,74.766z
		 M105.425,74.766"/>
	<path fill-rule="evenodd" clip-rule="evenodd" fill="#FBA919" d="M132.104,114.953l-12.374-22.817l-18.431,18.279l9.976,1.488
		c-5.952,22.703-28.185,37.81-51.953,34.29c-15.953-2.347-28.838-12.504-35.342-26.011l-11.914-1.757
		c6.718,19.571,23.852,34.808,45.741,38.048c29.461,4.339,56.981-14.662,63.803-43.075L132.104,114.953z M132.104,114.953"/>
</g>
<line opacity="0.25" fill="none" stroke="#FFFFFF" stroke-width="2" stroke-miterlimit="10" x1="157.5" y1="52.695" x2="169.351" y2="79.079"/>
<line opacity="0.25" fill="none" stroke="#FFFFFF" stroke-width="2" stroke-miterlimit="10" x1="169.351" y1="122.838" x2="157.5" y2="149.222"/>
</svg>
