<?xml version="1.0" encoding="utf-8"?>
<!-- Generator: Adobe Illustrator 16.0.0, SVG Export Plug-In . SVG Version: 6.00 Build 0)  -->
<!DOCTYPE svg PUBLIC "-//W3C//DTD SVG 1.1//EN" "http://www.w3.org/Graphics/SVG/1.1/DTD/svg11.dtd">
<svg version="1.1" id="Layer_1" xmlns="http://www.w3.org/2000/svg" xmlns:xlink="http://www.w3.org/1999/xlink" x="0px" y="0px"
	 width="200px" height="200px" viewBox="0 0 200 200" enable-background="new 0 0 200 200" xml:space="preserve">
<g>
	<path fill="#FBA919" d="M150.27,23.262l-4.473-2.06l-2.146-1.811l-3.325,3.312l1.53,10.239c0.006,0.038-0.004,0.075-0.025,0.107
		l-1.712,2.342c-0.027,0.037-0.07,0.061-0.117,0.061c-0.045,0-0.09-0.022-0.117-0.061l-1.713-2.342
		c-0.021-0.032-0.03-0.069-0.022-0.107l1.531-10.239l-3.33-3.312l-2.146,1.811l-4.474,2.06c-0.658,0.27-1.438,0.82-1.643,1.398
		c0,0-4.857,11.569-2.225,11.569h28.271c2.638,0-2.226-11.569-2.226-11.569C151.624,23.973,150.932,23.532,150.27,23.262
		L150.27,23.262z"/>
	<path fill="#FBA919" d="M140,19.326c4.573,0,7.984-4.26,8.063-11.403C148.115,2.966,145.751,0,140,0
		c-5.75,0-8.111,2.966-8.061,7.923C132.018,15.066,135.428,19.326,140,19.326L140,19.326z"/>
</g>
<g>
	<path fill="#FBA919" d="M195.345,104.146l-4.47-2.063l-2.147-1.812l-3.324,3.313l1.527,10.238c0.006,0.035-0.004,0.072-0.022,0.104
		l-1.712,2.342c-0.027,0.037-0.07,0.063-0.117,0.063c-0.045,0-0.09-0.021-0.113-0.063l-1.716-2.342
		c-0.021-0.031-0.028-0.068-0.021-0.104l1.531-10.238l-3.33-3.313l-2.146,1.812l-4.471,2.063c-0.66,0.27-1.44,0.816-1.643,1.396
		c0,0-4.857,11.565-2.226,11.565h28.271c2.639,0-2.226-11.565-2.226-11.565C196.699,104.857,196.007,104.416,195.345,104.146
		L195.345,104.146z"/>
	<path fill="#FBA919" d="M185.075,100.211c4.573,0,7.984-4.26,8.063-11.403c0.049-4.957-2.312-7.923-8.063-7.923
		c-5.749,0-8.111,2.966-8.061,7.923C177.093,95.951,180.505,100.211,185.075,100.211L185.075,100.211z"/>
</g>
<g>
	<path fill="#FBA919" d="M150.27,187.036l-4.473-2.059l-2.146-1.813l-3.325,3.313l1.53,10.235c0.006,0.038-0.004,0.075-0.025,0.104
		l-1.712,2.344c-0.027,0.035-0.07,0.062-0.117,0.062c-0.045,0-0.09-0.021-0.117-0.062l-1.713-2.344
		c-0.021-0.029-0.03-0.066-0.022-0.104l1.531-10.235l-3.33-3.313l-2.146,1.813l-4.474,2.059c-0.658,0.271-1.438,0.82-1.643,1.396
		c0,0-4.857,11.568-2.225,11.568h28.271c2.638,0-2.226-11.568-2.226-11.568C151.624,187.748,150.932,187.307,150.27,187.036
		L150.27,187.036z"/>
	<path fill="#FBA919" d="M140,183.103c4.573,0,7.984-4.262,8.063-11.404c0.053-4.957-2.312-7.922-8.063-7.922
		c-5.75,0-8.111,2.965-8.061,7.922C132.018,178.841,135.428,183.103,140,183.103L140,183.103z"/>
</g>
<g>
	<path fill="#FBA919" d="M85.492,41.009l1.764,3.239l1.788-3.239h1.404l-2.436,4.176l2.436,4.044H88.96l-1.764-3.096l-1.8,3.096
		h-1.404l2.448-3.972l-2.448-4.248H85.492z"/>
	<path fill="#FBA919" d="M90.845,42.881c0-1.136,0.462-1.704,1.386-1.704s1.386,0.568,1.386,1.704c0,0.575-0.12,1.008-0.36,1.296
		c-0.24,0.288-0.582,0.432-1.026,0.432s-0.786-0.144-1.026-0.432C90.964,43.889,90.845,43.457,90.845,42.881z M91.918,42.191
		c-0.06,0.141-0.09,0.37-0.09,0.69c0,0.319,0.03,0.552,0.09,0.695c0.06,0.145,0.166,0.217,0.318,0.217
		c0.152,0,0.258-0.072,0.318-0.217c0.06-0.144,0.09-0.376,0.09-0.695c0-0.32-0.03-0.55-0.09-0.69c-0.06-0.14-0.167-0.21-0.318-0.21
		C92.085,41.981,91.979,42.051,91.918,42.191z M92.26,49.301l2.664-8.364l0.744,0.252l-2.664,8.352L92.26,49.301z M94.313,47.633
		c0-1.136,0.462-1.704,1.386-1.704c0.924,0,1.386,0.568,1.386,1.704c0,0.576-0.12,1.008-0.36,1.296
		c-0.24,0.288-0.582,0.432-1.026,0.432c-0.444,0-0.786-0.144-1.026-0.432C94.433,48.641,94.313,48.209,94.313,47.633z
		 M95.699,46.745c-0.156,0-0.264,0.07-0.324,0.21c-0.06,0.141-0.09,0.368-0.09,0.685s0.03,0.548,0.09,0.696
		c0.06,0.147,0.166,0.222,0.318,0.222c0.152,0,0.258-0.072,0.318-0.216c0.06-0.145,0.09-0.378,0.09-0.702
		c0-0.324-0.028-0.554-0.084-0.69C95.96,46.813,95.854,46.745,95.699,46.745z"/>
</g>
<g>
	<path fill="#FBA919" d="M132.057,92.896h-1.344v-3.384l-2.58-4.836h1.5l1.74,3.527l1.752-3.527h1.486l-2.555,4.836V92.896
		L132.057,92.896z"/>
	<path fill="#FBA919" d="M134.912,86.548c0-1.136,0.463-1.704,1.387-1.704s1.387,0.568,1.387,1.704c0,0.575-0.121,1.008-0.358,1.296
		c-0.24,0.288-0.582,0.432-1.024,0.432c-0.443,0-0.785-0.144-1.025-0.432C135.032,87.556,134.912,87.124,134.912,86.548z
		 M135.986,85.858c-0.063,0.141-0.09,0.37-0.09,0.69c0,0.319,0.026,0.552,0.09,0.695c0.061,0.145,0.166,0.217,0.318,0.217
		c0.148,0,0.258-0.072,0.315-0.217c0.062-0.144,0.09-0.376,0.09-0.695c0-0.32-0.028-0.55-0.09-0.69
		c-0.063-0.14-0.167-0.21-0.315-0.21C136.152,85.648,136.047,85.718,135.986,85.858z M136.328,92.968l2.664-8.364l0.744,0.252
		l-2.664,8.352L136.328,92.968z M138.381,91.3c0-1.136,0.461-1.704,1.387-1.704c0.924,0,1.385,0.568,1.385,1.704
		c0,0.576-0.117,1.008-0.356,1.296c-0.237,0.288-0.582,0.432-1.024,0.432c-0.443,0-0.785-0.144-1.025-0.432
		C138.502,92.308,138.381,91.876,138.381,91.3z M139.768,90.412c-0.156,0-0.266,0.07-0.324,0.21c-0.061,0.141-0.09,0.368-0.09,0.685
		s0.029,0.548,0.09,0.696c0.062,0.147,0.166,0.222,0.316,0.222c0.152,0,0.26-0.072,0.318-0.216c0.061-0.145,0.09-0.378,0.09-0.702
		c0-0.324-0.027-0.554-0.084-0.69C140.027,90.48,139.922,90.412,139.768,90.412z"/>
</g>
<g>
	<path fill="#FBA919" d="M106.798,144.811v-1.164h5.4v1.283l-3.816,5.545v0.227h3.816v1.164h-5.4v-1.271l3.805-5.545v-0.238
		L106.798,144.811L106.798,144.811z"/>
	<path fill="#FBA919" d="M112.942,145.518c0-1.135,0.463-1.703,1.387-1.703s1.386,0.568,1.386,1.703c0,0.576-0.12,1.008-0.36,1.297
		c-0.237,0.287-0.582,0.432-1.022,0.432c-0.442,0-0.787-0.145-1.024-0.432C113.062,146.525,112.942,146.094,112.942,145.518z
		 M114.017,144.828c-0.061,0.141-0.09,0.369-0.09,0.688c0,0.32,0.029,0.555,0.09,0.695c0.063,0.146,0.166,0.217,0.318,0.217
		c0.15,0,0.258-0.07,0.318-0.217c0.059-0.145,0.09-0.375,0.09-0.695c0-0.318-0.031-0.549-0.09-0.688
		c-0.063-0.144-0.168-0.211-0.318-0.211C114.183,144.617,114.077,144.688,114.017,144.828z M114.358,151.938l2.664-8.363
		l0.744,0.252l-2.664,8.354L114.358,151.938z M116.411,150.27c0-1.135,0.461-1.703,1.386-1.703s1.386,0.568,1.386,1.703
		c0,0.576-0.119,1.008-0.356,1.297c-0.24,0.287-0.582,0.432-1.026,0.432c-0.441,0-0.783-0.145-1.023-0.432
		C116.53,151.277,116.411,150.846,116.411,150.27z M117.797,149.381c-0.155,0-0.265,0.07-0.323,0.211
		c-0.06,0.141-0.091,0.367-0.091,0.684c0,0.317,0.03,0.549,0.091,0.697c0.062,0.146,0.166,0.221,0.316,0.221
		c0.152,0,0.259-0.072,0.318-0.215c0.061-0.145,0.09-0.379,0.09-0.703s-0.027-0.553-0.084-0.688
		C118.06,149.449,117.952,149.381,117.797,149.381z"/>
</g>
<polygon fill="#FBA919" points="169.499,98.198 166.379,96.396 166.379,99 99,99 99,101 166.379,101 166.379,103.604 
	169.499,101.802 172.62,100 "/>
<polygon fill="#FBA919" points="118.02,39.16 114.453,39.677 116.096,41.76 85.253,64.388 86.437,66 117.336,43.331 118.919,45.335 
	120.252,41.989 121.583,38.64 "/>
<polygon fill="#FBA919" points="125.755,177.456 124.424,174.107 123.091,170.761 121.508,172.766 77.092,141.951 75.908,143.563 
	120.268,174.335 118.625,176.419 122.191,176.937 "/>
<g>
	<path fill="#FBA919" d="M43.626,78.807c-0.453-0.223-1.012-0.04-1.244,0.416l-3.716,7.404c-0.233,0.456-0.045,1.014,0.413,1.242
		c0.135,0.07,0.276,0.096,0.414,0.096c0.341,0,0.668-0.187,0.835-0.513l3.717-7.403C44.27,79.594,44.089,79.037,43.626,78.807z"/>
	<path fill="#FBA919" d="M36.192,78.807c-0.457-0.223-1.012-0.04-1.244,0.416l-3.716,7.404c-0.233,0.456-0.045,1.014,0.413,1.242
		c0.133,0.07,0.276,0.096,0.415,0.096c0.34,0,0.666-0.187,0.834-0.513l3.716-7.403C36.837,79.594,36.656,79.037,36.192,78.807z"/>
	<path fill="#FBA919" d="M41.352,101.589c-3.201-0.825-5.575-3.696-5.574-7.143c0,3.447-2.374,6.318-5.576,7.143v24.326h11.15
		V101.589L41.352,101.589z M39.494,116.66c0,1.023-0.826,1.852-1.857,1.852c-1.024,0-1.86-0.828-1.86-1.852
		c0-0.682,0.385-1.242,0.93-1.568v-4.268c-0.545-0.327-0.93-0.891-0.93-1.568c0-1.023,0.835-1.854,1.86-1.854
		c1.031,0,1.857,0.83,1.857,1.854c0,0.678-0.381,1.241-0.929,1.568v4.268C39.112,115.418,39.494,115.98,39.494,116.66z"/>
	<path fill="#FBA919" d="M50.645,78.713c-0.512,0-0.929,0.411-0.929,0.924v7.405c0,0.512,0.417,0.925,0.929,0.925
		c0.517,0,0.93-0.411,0.93-0.925v-7.405C51.575,79.125,51.162,78.713,50.645,78.713z"/>
	<path fill="#FBA919" d="M50.645,49.355C22.675,49.355,0,72.029,0,100c0,27.971,22.674,50.645,50.645,50.645
		s50.644-22.674,50.644-50.645C101.289,72.029,78.616,49.355,50.645,49.355z M30.202,70.382H71.09c1.033,0,1.856,0.829,1.856,1.851
		c0,1.023-0.825,1.851-1.856,1.851H30.202c-1.024,0-1.859-0.828-1.859-1.851C28.343,71.211,29.178,70.382,30.202,70.382z
		 M80.38,94.446c0,3.447-2.372,6.318-5.573,7.143v24.326h3.717c1.031,0,1.856,0.829,1.856,1.851c0,1.025-0.825,1.854-1.856,1.854
		H22.769c-1.024,0-1.859-0.83-1.859-1.854c0-1.021,0.834-1.851,1.859-1.851h3.716v-24.326c-3.201-0.825-5.576-3.696-5.576-7.143
		v-1.85h59.472L80.38,94.446L80.38,94.446z M20.909,90.744l7.434-14.809h44.603l7.436,14.809H20.909z"/>
	<path fill="#FBA919" d="M71.089,101.589c-3.202-0.825-5.579-3.696-5.579-7.143c0,4.091-3.322,7.406-7.43,7.406
		c-4.104,0-7.436-3.313-7.436-7.406c0,4.091-3.325,7.406-7.434,7.406v24.063h27.879V101.589z"/>
	<path fill="#FBA919" d="M66.348,79.226c-0.231-0.46-0.801-0.644-1.248-0.417c-0.459,0.229-0.646,0.785-0.414,1.241l3.717,7.404
		c0.162,0.326,0.488,0.514,0.826,0.514c0.147,0,0.285-0.031,0.414-0.098c0.467-0.228,0.647-0.786,0.422-1.24L66.348,79.226z"/>
	<path fill="#FBA919" d="M58.553,79.194c-0.248-0.452-0.822-0.612-1.266-0.365c-0.45,0.241-0.617,0.806-0.368,1.253l4.063,7.404
		c0.166,0.308,0.486,0.482,0.812,0.482c0.154,0,0.306-0.036,0.453-0.116c0.45-0.244,0.608-0.806,0.37-1.255L58.553,79.194z"/>
</g>
</svg>
