<?xml version="1.0" encoding="utf-8"?>
<!-- Generator: Adobe Illustrator 16.0.0, SVG Export Plug-In . SVG Version: 6.00 Build 0)  -->
<!DOCTYPE svg PUBLIC "-//W3C//DTD SVG 1.1//EN" "http://www.w3.org/Graphics/SVG/1.1/DTD/svg11.dtd">
<svg version="1.1" id="Layer_1" xmlns="http://www.w3.org/2000/svg" xmlns:xlink="http://www.w3.org/1999/xlink" x="0px" y="0px"
	 width="200px" height="200px" viewBox="0 0 200 200" enable-background="new 0 0 200 200" xml:space="preserve">
<g>
	<path fill="#FBA919" d="M55.283,48.57c0,5.299,3.651,9.711,8.572,10.983v37.398h-5.713c-1.575,0-2.858,1.271-2.858,2.845
		c0,1.575,1.284,2.848,2.858,2.848h85.721c1.588,0,2.856-1.274,2.856-2.848s-1.269-2.845-2.856-2.845h-5.713V59.553
		c4.922-1.272,8.569-5.684,8.569-10.983v-2.846H55.283V48.57z M112.433,59.954c6.316,0,11.425-5.097,11.425-11.384
		c0,5.299,3.652,9.711,8.575,10.983v37.398H89.572V59.954c6.318,0,11.429-5.097,11.429-11.384
		C101.001,54.857,106.126,59.954,112.433,59.954L112.433,59.954z M86.713,59.553v37.398H69.571V59.553
		c4.922-1.272,8.572-5.684,8.572-10.983C78.143,53.869,81.792,58.281,86.713,59.553L86.713,59.553z M135.288,20.111H66.713
		l-11.43,22.768h91.436L135.288,20.111z M79.425,26.436l-5.713,11.383c-0.258,0.501-0.759,0.789-1.283,0.789
		c-0.213,0-0.432-0.042-0.636-0.148c-0.704-0.351-0.994-1.208-0.636-1.909l5.714-11.383c0.357-0.701,1.21-0.983,1.912-0.64
		C79.494,24.88,79.773,25.736,79.425,26.436L79.425,26.436z M90.856,26.436l-5.715,11.383c-0.256,0.501-0.759,0.789-1.284,0.789
		c-0.212,0-0.429-0.042-0.636-0.148c-0.703-0.351-0.992-1.208-0.634-1.909l5.713-11.383c0.357-0.701,1.215-0.983,1.913-0.64
		C90.923,24.88,91.201,25.736,90.856,26.436L90.856,26.436z M102.431,37.187c0,0.789-0.635,1.422-1.429,1.422
		c-0.787,0-1.429-0.634-1.429-1.422V25.802c0-0.789,0.642-1.421,1.429-1.421c0.794,0,1.429,0.632,1.429,1.421V37.187z
		 M118.84,38.431c-0.227,0.123-0.46,0.179-0.695,0.179c-0.5,0-0.99-0.268-1.248-0.741l-6.249-11.383
		c-0.382-0.688-0.125-1.557,0.567-1.928c0.682-0.379,1.565-0.134,1.945,0.562l6.248,11.382
		C119.775,37.193,119.531,38.059,118.84,38.431L118.84,38.431z M130.212,38.46c-0.201,0.103-0.412,0.149-0.637,0.149
		c-0.523,0-1.023-0.288-1.273-0.789l-5.712-11.383c-0.357-0.701-0.07-1.556,0.637-1.907c0.687-0.35,1.562-0.066,1.919,0.64
		l5.713,11.384C131.206,37.252,130.927,38.109,130.212,38.46L130.212,38.46z M79.572,80.311V73.75
		c-0.837-0.502-1.429-1.369-1.429-2.412c0-1.574,1.284-2.847,2.859-2.847c1.586,0,2.855,1.274,2.855,2.847
		c0,1.044-0.585,1.911-1.427,2.412v6.561c0.842,0.501,1.427,1.367,1.427,2.412c0,1.574-1.27,2.847-2.855,2.847
		c-1.575,0-2.859-1.273-2.859-2.847C78.143,81.677,78.734,80.812,79.572,80.311L79.572,80.311z M66.713,14.419
		c0-1.572,1.283-2.846,2.858-2.846h62.862c1.588,0,2.855,1.273,2.855,2.846c0,1.573-1.268,2.846-2.855,2.846H69.571
		C67.996,17.265,66.713,15.993,66.713,14.419L66.713,14.419z"/>
	<g>
		<g>
			<path fill="#71CBD0" d="M26.656,147.357c-9.881,0-17.915,8.041-17.915,17.912c0,9.872,8.032,17.918,17.915,17.918
				s17.915-8.039,17.915-17.918C44.571,155.389,36.538,147.357,26.656,147.357z M35.375,164.478l-3.177,3.104
				c-0.134,0.131-0.198,0.322-0.164,0.51l0.749,4.381c0.067,0.385-0.034,0.761-0.284,1.056c-0.25,0.298-0.613,0.469-0.998,0.469
				c-0.21,0-0.414-0.051-0.604-0.152l-3.927-2.068c-0.163-0.083-0.37-0.086-0.534,0l-3.928,2.068
				c-0.54,0.283-1.216,0.143-1.603-0.316c-0.25-0.295-0.35-0.671-0.284-1.056l0.75-4.381c0.032-0.188-0.029-0.379-0.166-0.51
				l-3.177-3.104c-0.357-0.348-0.482-0.859-0.329-1.336c0.154-0.474,0.557-0.814,1.051-0.886l4.391-0.64
				c0.186-0.026,0.348-0.144,0.433-0.314l1.963-3.984c0.221-0.448,0.668-0.728,1.167-0.728c0.498,0,0.944,0.279,1.167,0.728
				l1.963,3.984c0.083,0.169,0.245,0.288,0.431,0.314l4.393,0.64c0.493,0.071,0.896,0.412,1.049,0.886
				C35.859,163.618,35.732,164.13,35.375,164.478z M49.074,167.265c-0.721-1.23-0.721-2.752-0.009-3.982
				c0.729-1.267,0.93-2.745,0.546-4.156c-0.381-1.414-1.286-2.6-2.554-3.328c-1.23-0.711-1.996-2.032-1.996-3.453
				c0-3.019-2.462-5.48-5.479-5.48c-1.423,0-3-0.891-3.457-1.994c-0.592-1.431-3.92-4.047-7.484-2.006
				c-1.23,0.701-2.753,0.712-3.984,0c-2.617-1.512-5.971-0.609-7.484,2.006c-0.71,1.23-2.034,1.994-3.456,1.994
				c-3.017,0-5.479,2.463-5.479,5.48c0,1.421-0.766,2.742-1.996,3.453c-1.268,0.73-2.169,1.914-2.554,3.328
				c-0.383,1.411-0.182,2.89,0.547,4.156c0.71,1.23,0.71,2.752,0,3.982c-0.73,1.267-0.93,2.744-0.547,4.156
				c0.393,1.412,1.295,2.599,2.562,3.325c1.231,0.712,1.997,2.033,1.997,3.456c0,3.018,2.461,5.478,5.479,5.478
				c1.422,0,2.743,0.767,3.455,1.997c1.012,1.759,3.992,3.909,7.484,2.007c1.249-0.686,2.754-0.712,3.985,0
				c2.615,1.512,5.969,0.609,7.484-2.007c0.712-1.23,2.033-1.997,3.455-1.997c3.018,0,5.479-2.462,5.479-5.478
				c0-1.423,0.767-2.744,1.998-3.456c1.267-0.729,2.169-1.913,2.552-3.325S49.803,168.531,49.074,167.265z M47.77,168.012
				c0.529,0.92,0.674,1.997,0.4,3.025c-0.274,1.031-0.939,1.888-1.859,2.415c-1.687,0.975-2.745,2.798-2.745,4.748
				c0,2.198-1.785,3.984-3.983,3.984c-1.953,0-3.766,1.048-4.75,2.743c-0.529,0.92-2.697,2.98-5.442,1.458
				c-0.857-0.474-1.796-0.729-2.743-0.729c-0.949,0-1.896,0.245-2.743,0.729c-1.905,1.103-4.349,0.445-5.443-1.458
				c-0.975-1.687-2.79-2.734-4.75-2.734c-2.197,0-3.984-1.787-3.984-3.982c0-1.951-1.048-3.765-2.743-4.748
				c-0.903-0.538-1.569-1.404-1.841-2.426c-0.273-1.03-0.137-2.106,0.4-3.025c0.976-1.686,0.976-3.792,0-5.477
				c-0.528-0.922-0.673-1.998-0.4-3.026c0.274-1.03,0.939-1.887,1.86-2.414c1.687-0.977,2.745-2.8,2.745-4.741
				c0-2.196,1.786-3.984,3.984-3.984c1.951,0,3.765-1.048,4.741-2.742c1.103-1.906,3.546-2.554,5.442-1.459
				c1.687,0.976,3.793,0.976,5.48,0c1.905-1.094,4.348-0.447,5.441,1.459c0.977,1.686,2.79,2.742,4.75,2.742
				c2.198,0,3.983,1.788,3.983,3.984c0,1.951,1.049,3.765,2.745,4.749c0.921,0.528,1.587,1.396,1.86,2.414
				c0.273,1.03,0.137,2.106-0.4,3.027C46.793,164.22,46.793,166.326,47.77,168.012z"/>
		</g>
	</g>
	<g>
		<g>
			<path fill="#ED3A46" d="M101.001,147.357c-9.881,0-17.915,8.041-17.915,17.912c0,9.872,8.032,17.918,17.915,17.918
				c9.884,0,17.915-8.039,17.915-17.918C118.916,155.389,110.885,147.357,101.001,147.357z M109.721,164.478l-3.178,3.104
				c-0.134,0.131-0.198,0.322-0.165,0.51l0.75,4.381c0.067,0.385-0.033,0.761-0.283,1.056c-0.25,0.298-0.614,0.469-1,0.469
				c-0.209,0-0.411-0.051-0.604-0.152l-3.926-2.068c-0.164-0.083-0.371-0.086-0.534,0l-3.928,2.068
				c-0.54,0.283-1.216,0.143-1.603-0.316c-0.25-0.295-0.349-0.671-0.284-1.056l0.75-4.381c0.032-0.188-0.029-0.379-0.166-0.51
				l-3.177-3.104c-0.357-0.348-0.482-0.859-0.329-1.336c0.154-0.474,0.557-0.814,1.051-0.886l4.391-0.64
				c0.187-0.026,0.349-0.144,0.433-0.314l1.963-3.984c0.221-0.448,0.667-0.728,1.166-0.728c0.499,0,0.944,0.279,1.167,0.728
				l1.963,3.984c0.083,0.169,0.245,0.288,0.432,0.314l4.394,0.64c0.495,0.071,0.896,0.412,1.048,0.886
				C110.204,163.618,110.077,164.13,109.721,164.478z M123.419,167.265c-0.721-1.23-0.721-2.752-0.009-3.982
				c0.729-1.267,0.931-2.745,0.547-4.156c-0.383-1.414-1.285-2.6-2.554-3.328c-1.23-0.711-1.995-2.032-1.995-3.453
				c0-3.019-2.462-5.48-5.479-5.48c-1.423,0-2.999-0.891-3.456-1.994c-0.593-1.431-3.921-4.047-7.485-2.006
				c-1.23,0.701-2.752,0.712-3.984,0c-2.617-1.512-5.971-0.609-7.484,2.006c-0.71,1.23-2.033,1.994-3.456,1.994
				c-3.017,0-5.479,2.463-5.479,5.48c0,1.421-0.766,2.742-1.997,3.453c-1.268,0.73-2.169,1.914-2.554,3.328
				c-0.383,1.411-0.182,2.89,0.547,4.156c0.711,1.23,0.711,2.752,0,3.982c-0.73,1.267-0.93,2.744-0.547,4.156
				c0.393,1.412,1.295,2.599,2.562,3.325c1.231,0.712,1.997,2.033,1.997,3.456c0,3.018,2.462,5.478,5.479,5.478
				c1.422,0,2.743,0.767,3.455,1.997c1.012,1.759,3.993,3.909,7.484,2.007c1.249-0.686,2.753-0.712,3.984,0
				c2.616,1.512,5.97,0.609,7.483-2.007c0.712-1.23,2.033-1.997,3.457-1.997c3.017,0,5.477-2.462,5.477-5.478
				c0-1.423,0.767-2.744,1.998-3.456c1.267-0.729,2.17-1.913,2.552-3.325C124.348,170.009,124.147,168.531,123.419,167.265z
				 M122.115,168.012c0.528,0.92,0.674,1.997,0.402,3.025c-0.274,1.031-0.94,1.888-1.861,2.415
				c-1.686,0.975-2.745,2.798-2.745,4.748c0,2.198-1.785,3.984-3.982,3.984c-1.953,0-3.766,1.048-4.751,2.743
				c-0.528,0.92-2.697,2.98-5.441,1.458c-0.857-0.474-1.795-0.729-2.744-0.729c-0.948,0-1.896,0.245-2.743,0.729
				c-1.905,1.103-4.349,0.445-5.443-1.458c-0.975-1.687-2.79-2.734-4.75-2.734c-2.197,0-3.984-1.787-3.984-3.982
				c0-1.951-1.048-3.765-2.744-4.748c-0.903-0.538-1.568-1.404-1.841-2.426c-0.273-1.03-0.137-2.106,0.401-3.025
				c0.975-1.686,0.975-3.792,0-5.477c-0.529-0.922-0.674-1.998-0.401-3.026c0.274-1.03,0.94-1.887,1.86-2.414
				c1.687-0.977,2.745-2.8,2.745-4.741c0-2.196,1.786-3.984,3.984-3.984c1.952,0,3.765-1.048,4.741-2.742
				c1.103-1.906,3.546-2.554,5.443-1.459c1.687,0.976,3.793,0.976,5.478,0c1.907-1.094,4.35-0.447,5.441,1.459
				c0.977,1.686,2.79,2.742,4.752,2.742c2.196,0,3.982,1.788,3.982,3.984c0,1.951,1.049,3.765,2.744,4.749
				c0.921,0.528,1.588,1.396,1.861,2.414c0.271,1.03,0.136,2.106-0.402,3.027C121.139,164.22,121.139,166.326,122.115,168.012z"/>
		</g>
	</g>
	<g>
		<g>
			<path fill="#69BD45" d="M175.347,147.357c-9.883,0-17.914,8.041-17.914,17.912c0,9.872,8.031,17.918,17.914,17.918
				c9.882,0,17.914-8.039,17.914-17.918C193.261,155.389,185.229,147.357,175.347,147.357z M184.064,164.478l-3.177,3.104
				c-0.133,0.131-0.196,0.322-0.164,0.51l0.748,4.381c0.068,0.385-0.032,0.761-0.282,1.056c-0.25,0.298-0.614,0.469-0.998,0.469
				c-0.21,0-0.412-0.051-0.604-0.152l-3.928-2.068c-0.164-0.083-0.371-0.086-0.533,0l-3.928,2.068
				c-0.54,0.283-1.217,0.143-1.604-0.316c-0.25-0.295-0.35-0.671-0.283-1.056l0.75-4.381c0.029-0.188-0.029-0.379-0.168-0.51
				l-3.175-3.104c-0.357-0.348-0.483-0.859-0.331-1.336c0.154-0.474,0.557-0.814,1.052-0.886l4.391-0.64
				c0.187-0.026,0.349-0.144,0.433-0.314l1.963-3.984c0.222-0.448,0.668-0.728,1.167-0.728c0.497,0,0.942,0.279,1.165,0.728
				l1.963,3.984c0.083,0.169,0.245,0.288,0.432,0.314l4.393,0.64c0.495,0.071,0.896,0.412,1.049,0.886
				C184.549,163.618,184.422,164.13,184.064,164.478z M197.766,167.265c-0.722-1.23-0.722-2.752-0.01-3.982
				c0.729-1.267,0.931-2.745,0.546-4.156c-0.382-1.414-1.285-2.6-2.554-3.328c-1.231-0.711-1.996-2.032-1.996-3.453
				c0-3.019-2.461-5.48-5.479-5.48c-1.424,0-2.999-0.891-3.456-1.994c-0.592-1.431-3.921-4.047-7.484-2.006
				c-1.23,0.701-2.753,0.712-3.984,0c-2.615-1.512-5.97-0.609-7.483,2.006c-0.712,1.23-2.033,1.994-3.457,1.994
				c-3.017,0-5.477,2.463-5.477,5.48c0,1.421-0.767,2.742-1.998,3.453c-1.267,0.73-2.17,1.914-2.554,3.328
				c-0.382,1.411-0.181,2.89,0.548,4.156c0.712,1.23,0.712,2.752,0,3.982c-0.729,1.267-0.931,2.744-0.548,4.156
				c0.393,1.412,1.295,2.599,2.563,3.325c1.231,0.712,1.996,2.033,1.996,3.456c0,3.018,2.462,5.478,5.479,5.478
				c1.424,0,2.744,0.767,3.456,1.997c1.012,1.759,3.992,3.909,7.485,2.007c1.248-0.686,2.753-0.712,3.983,0
				c2.616,1.512,5.97,0.609,7.485-2.007c0.712-1.23,2.032-1.997,3.456-1.997c3.016,0,5.477-2.462,5.477-5.478
				c0-1.423,0.768-2.744,1.998-3.456c1.267-0.729,2.171-1.913,2.553-3.325S198.493,168.531,197.766,167.265z M196.46,168.012
				c0.528,0.92,0.674,1.997,0.401,3.025c-0.274,1.031-0.939,1.888-1.86,2.415c-1.686,0.975-2.745,2.798-2.745,4.748
				c0,2.198-1.785,3.984-3.983,3.984c-1.952,0-3.766,1.048-4.75,2.743c-0.529,0.92-2.697,2.98-5.441,1.458
				c-0.857-0.474-1.796-0.729-2.743-0.729c-0.949,0-1.897,0.245-2.745,0.729c-1.904,1.103-4.349,0.445-5.441-1.458
				c-0.976-1.687-2.79-2.734-4.751-2.734c-2.197,0-3.982-1.787-3.982-3.982c0-1.951-1.05-3.765-2.744-4.748
				c-0.902-0.538-1.569-1.404-1.843-2.426c-0.273-1.03-0.136-2.106,0.402-3.025c0.974-1.686,0.974-3.792,0-5.477
				c-0.529-0.922-0.676-1.998-0.402-3.026c0.273-1.03,0.939-1.887,1.859-2.414c1.687-0.977,2.744-2.8,2.744-4.741
				c0-2.196,1.786-3.984,3.984-3.984c1.951,0,3.767-1.048,4.741-2.742c1.103-1.906,3.545-2.554,5.442-1.459
				c1.687,0.976,3.792,0.976,5.479,0c1.905-1.094,4.348-0.447,5.441,1.459c0.978,1.686,2.79,2.742,4.75,2.742
				c2.198,0,3.983,1.788,3.983,3.984c0,1.951,1.049,3.765,2.745,4.749c0.921,0.528,1.589,1.396,1.86,2.414
				c0.272,1.03,0.136,2.106-0.401,3.027C195.482,164.22,195.482,166.326,196.46,168.012z"/>
		</g>
	</g>
	
		<line opacity="0.25" fill="none" stroke="#FFFFFF" stroke-miterlimit="10" enable-background="new    " x1="101.001" y1="106.558" x2="101.001" y2="135.494"/>
	
		<line opacity="0.25" fill="none" stroke="#FFFFFF" stroke-miterlimit="10" enable-background="new    " x1="175.392" y1="123.918" x2="175.392" y2="138.688"/>
	
		<line opacity="0.25" fill="none" stroke="#FFFFFF" stroke-miterlimit="10" enable-background="new    " x1="26.702" y1="123.918" x2="26.702" y2="138.688"/>
	
		<line opacity="0.25" fill="none" stroke="#FFFFFF" stroke-miterlimit="10" enable-background="new    " x1="26.702" y1="124.261" x2="175.346" y2="124.261"/>
</g>
</svg>
