<?xml version="1.0" encoding="utf-8"?>
<!-- Generator: Adobe Illustrator 16.0.0, SVG Export Plug-In . SVG Version: 6.00 Build 0)  -->
<!DOCTYPE svg PUBLIC "-//W3C//DTD SVG 1.1//EN" "http://www.w3.org/Graphics/SVG/1.1/DTD/svg11.dtd">
<svg version="1.1" id="Layer_1" xmlns="http://www.w3.org/2000/svg" xmlns:xlink="http://www.w3.org/1999/xlink" x="0px" y="0px"
	 width="140px" height="58px" viewBox="0 0 140 58" enable-background="new 0 0 140 58" xml:space="preserve">
<polygon fill="#FFFFFF" points="116.57,53.661 116.57,52.421 4.753,52.421 4.753,9.58 115.247,9.58 115.247,53.661 116.57,53.661 
	116.57,52.421 116.57,53.661 117.894,53.661 117.894,7.016 2.106,7.016 2.106,54.984 117.894,54.984 117.894,53.661 "/>
<g>
	<path fill="#FFFFFF" d="M16.083,32.654l3.061,7.774h0.083l2.895-7.774h3.473l0.579,1.406l-0.496,0.082
		c-0.331,0-0.579,0.248-0.497,0.579l0.579,8.85l0.992,0.082l0.579,1.489h-4.714v-1.405l0.579-0.084c0.414,0,0.414-0.165,0.414-0.661
		l-0.579-7.03l0,0l-3.06,7.196l-1.737,0.579l-2.895-7.775l0,0l-0.414,7.526l0.993,0.083v1.488h-4.714l0.579-1.406l0.579-0.082
		c0.331-0.083,0.497-0.166,0.497-0.661l0.579-8.768l-0.993-0.082l0.579-1.489h3.06V32.654z"/>
	<path fill="#FFFFFF" d="M28.076,45.06l0.579-1.406l0.414-0.082c0.414-0.083,0.497-0.248,0.662-0.579l2.978-8.767l-0.993-0.083
		l0.579-1.488h3.556l3.887,10.917l0.662,0.082l0.579,1.406h-4.714v-1.406l0.579-0.082c0.331,0,0.496-0.248,0.331-0.579l-0.496-1.488
		h-4.301l-0.662,1.984l0.993,0.083v1.488H28.076z M32.79,39.932h3.474l-1.736-5.292h-0.083L32.79,39.932z"/>
	<path fill="#FFFFFF" d="M48.917,43.074v-2.977l-0.91-0.082l-0.579-1.49h4.88l-0.249,1.406l-0.496,0.084
		c-0.331,0.082-0.496,0.164-0.496,0.578v3.557c-1.075,0.744-2.564,1.157-4.218,1.157c-3.639,0-5.624-2.067-5.624-6.45
		c0-4.797,2.812-6.451,6.038-6.451c1.488,0,2.895,0.33,3.722,0.744v1.653l-1.737,0.663v-0.579c0-0.332,0-0.497-0.331-0.579
		c-0.331-0.083-0.993-0.166-1.489-0.166c-2.646,0-3.804,1.737-3.804,4.467c0,2.977,0.992,4.714,3.308,4.714
		C47.594,43.488,48.421,43.323,48.917,43.074"/>
	<path fill="#FFFFFF" d="M64.631,44.48l-2.149,0.579l-5.459-9.015l0,0v7.526l0.993,0.082v1.406h-4.549l0.579-1.406l0.332-0.082
		c0.331-0.083,0.413-0.166,0.413-0.497v-8.932l-1.24-0.082l0.579-1.489h3.06l5.293,8.933l0,0v-7.361l-0.993-0.082v-1.406h4.467
		l-0.579,1.406l-0.331,0.082c-0.331,0.083-0.496,0.166-0.496,0.579v9.759H64.631z"/>
	<path fill="#FFFFFF" d="M66.037,45.06l0.579-1.406l0.166-0.082c0.413-0.083,0.496-0.248,0.661-0.579l3.061-8.767l-0.993-0.083
		l0.579-1.488h3.557l3.722,10.834l0.661,0.083l0.579,1.488h-4.714v-1.406l0.579-0.082c0.331,0,0.495-0.248,0.331-0.579l-0.497-1.488
		h-4.301l-0.661,1.984l0.992,0.083v1.488H66.037z M70.421,39.932h3.474l-1.736-5.292h-0.084L70.421,39.932z"/>
	<path fill="#FFFFFF" d="M81.917,34.309h-1.736c-0.414,0-0.497,0.165-0.497,0.495v0.663l-1.819-0.579v-2.233h10.255v2.233
		L86.3,35.467v-0.663c0-0.33-0.082-0.495-0.496-0.495H84.15v9.263l1.074,0.082l0.579,1.489h-5.541l0.579-1.405l0.579-0.084
		c0.413,0,0.496-0.165,0.496-0.579V34.309z"/>
	<path fill="#FFFFFF" d="M90.104,43.653l0.165-0.082c0.497-0.083,0.579-0.166,0.579-0.661v-8.768l-0.744-0.082l-0.579-1.489h8.767
		v2.232l-1.819,0.579v-0.909c0-0.331-0.083-0.248-0.496-0.248h-2.895v3.557h4.466v1.736h-4.466v3.887h3.143
		c0.413,0,0.413-0.165,0.413-0.495v-0.166l1.82-0.497v2.813h-9.016L90.104,43.653z"/>
	<path fill="#FFFFFF" d="M106.397,41.669c0-1.158-0.992-1.653-2.316-2.067c-1.736-0.497-3.556-1.24-3.474-3.64
		c0.083-2.315,1.82-3.639,4.467-3.556c1.158,0,2.563,0.248,3.474,0.744v1.819l-1.819,0.579V34.97c0-0.33,0-0.496-0.331-0.579
		c-0.248-0.082-0.91-0.165-1.323-0.165c-0.993,0-1.985,0.33-2.067,1.571c0,1.158,0.992,1.571,2.398,2.067
		c1.736,0.579,3.473,1.24,3.391,3.722s-1.736,3.805-4.715,3.722c-1.322,0-2.646-0.248-3.722-0.744v-1.819l1.82-0.579v0.579
		c0,0.33,0.082,0.496,0.331,0.579c0.33,0.082,0.909,0.165,1.488,0.165C105.322,43.488,106.397,43.074,106.397,41.669"/>
	<polygon fill="#FFFFFF" points="12.775,16.94 20.881,16.94 20.881,17.767 13.686,17.767 13.686,22.316 19.64,22.316 19.64,23.143 
		13.686,23.143 13.686,29.098 12.775,29.098 	"/>
	<rect x="26.918" y="16.94" fill="#FFFFFF" width="0.91" height="12.158"/>
	<polygon fill="#FFFFFF" points="34.692,16.94 35.52,16.94 43.707,27.609 43.707,16.94 44.534,16.94 44.534,29.098 43.79,29.098 
		35.602,18.429 35.602,29.098 34.692,29.098 	"/>
	<path fill="#FFFFFF" d="M55.699,16.857h0.827l5.459,12.241h-0.91l-1.571-3.557h-6.782l-1.572,3.557h-0.909L55.699,16.857z
		 M59.173,24.797l-3.06-6.782l-3.06,6.782H59.173z"/>
	<polygon fill="#FFFFFF" points="67.609,16.94 68.353,16.94 76.541,27.609 76.541,16.94 77.45,16.94 77.45,29.098 76.706,29.098 
		68.437,18.429 68.437,29.098 67.609,29.098 	"/>
	<path fill="#FFFFFF" d="M83.736,22.978c0-3.639,2.646-6.285,6.12-6.285c1.323,0,2.48,0.331,3.474,0.992v0.91
		c-0.993-0.662-2.15-1.075-3.474-1.075c-2.978,0-5.293,2.315-5.293,5.458c0,3.143,2.315,5.458,5.293,5.458
		c1.489,0,2.729-0.414,3.722-1.241v0.993c-0.992,0.745-2.232,1.158-3.722,1.158C86.466,29.263,83.736,26.699,83.736,22.978"/>
	<polygon fill="#FFFFFF" points="99.533,16.94 107.721,16.94 107.721,17.767 100.443,17.767 100.443,22.15 106.48,22.15 
		106.48,22.978 100.443,22.978 100.443,28.271 107.969,28.271 107.969,29.098 99.533,29.098 	"/>
</g>
</svg>
