<?xml version="1.0" encoding="utf-8"?>
<!-- Generator: Adobe Illustrator 16.0.0, SVG Export Plug-In . SVG Version: 6.00 Build 0)  -->
<!DOCTYPE svg PUBLIC "-//W3C//DTD SVG 1.1//EN" "http://www.w3.org/Graphics/SVG/1.1/DTD/svg11.dtd">
<svg version="1.1" id="Layer_1" xmlns="http://www.w3.org/2000/svg" xmlns:xlink="http://www.w3.org/1999/xlink" x="0px" y="0px"
	 width="200px" height="200px" viewBox="0 0 200 200" enable-background="new 0 0 200 200" xml:space="preserve">
<g>
	<g>
		<g>
			<path fill="#FBAA1B" d="M100,52.484l-71.328,58.885c0,0.084-0.022,0.204-0.064,0.373c-0.042,0.161-0.061,0.281-0.061,0.369
				v59.621c0,2.153,0.784,4.022,2.356,5.593c1.573,1.575,3.433,2.364,5.581,2.364h47.636v-47.705h31.759v47.705h47.636
				c2.148,0,4.013-0.789,5.581-2.364c1.572-1.57,2.361-3.435,2.361-5.59v-59.624c0-0.333-0.047-0.583-0.125-0.742L100,52.484z
				 M198.624,97.952l-27.171-22.607V24.662c0-1.161-0.37-2.109-1.119-2.859c-0.737-0.745-1.688-1.115-2.85-1.115h-23.816
				c-1.159,0-2.112,0.37-2.856,1.115c-0.742,0.75-1.115,1.698-1.115,2.859v24.221l-30.27-25.341
				c-2.641-2.153-5.786-3.231-9.427-3.231c-3.635,0-6.779,1.078-9.427,3.231L1.376,97.952c-0.825,0.659-1.281,1.551-1.362,2.667
				c-0.083,1.123,0.203,2.092,0.865,2.922l7.692,9.192c0.661,0.744,1.531,1.2,2.604,1.366c0.992,0.084,1.987-0.205,2.979-0.867
				L100,41.555l85.846,71.678c0.661,0.578,1.528,0.867,2.604,0.867h0.374c1.073-0.166,1.938-0.622,2.604-1.366l7.692-9.192
				c0.661-0.83,0.948-1.8,0.865-2.922C199.905,99.503,199.447,98.611,198.624,97.952z"/>
		</g>
	</g>
</g>
</svg>
