<?xml version="1.0" encoding="utf-8"?>
<!-- Generator: Adobe Illustrator 16.0.0, SVG Export Plug-In . SVG Version: 6.00 Build 0)  -->
<!DOCTYPE svg PUBLIC "-//W3C//DTD SVG 1.1//EN" "http://www.w3.org/Graphics/SVG/1.1/DTD/svg11.dtd">
<svg version="1.1" id="Layer_1" xmlns="http://www.w3.org/2000/svg" xmlns:xlink="http://www.w3.org/1999/xlink" x="0px" y="0px"
	 width="1058.572px" height="204px" viewBox="0 0 1058.572 204" enable-background="new 0 0 1058.572 204" xml:space="preserve">
<polygon fill="#B7B7B8" points="767.764,123.416 767.926,141.979 780.371,129.313 767.594,116.751 "/>
<line fill="none" stroke="#B7B7B8" stroke-linecap="round" stroke-miterlimit="10" stroke-dasharray="1.389,2.778" x1="635.551" y1="129" x2="769.567" y2="129.365"/>
<polygon fill="#B7B7B8" points="374.764,123.416 374.926,141.979 387.372,129.313 374.594,116.751 "/>
<line fill="none" stroke="#B7B7B8" stroke-linecap="round" stroke-miterlimit="10" stroke-dasharray="1.389,2.778" x1="242.549" y1="129" x2="376.567" y2="129.365"/>
<g>
	<path fill="none" stroke="#FBB040" stroke-width="3" stroke-miterlimit="10" d="M907.788,81.818v1.117
		c-6.468,2.445-10.928,8.691-10.928,15.829v5.794c-2.896,0.685-5.134,3.353-5.134,6.476c0,3.563,2.888,6.687,6.694,6.687h8.704
		c0,3.571,3.112,6.471,6.688,6.471c3.553,0,6.449-2.896,6.678-6.471h8.71c3.56,0,6.681-2.9,6.681-6.687
		c-0.446-3.123-2.684-5.791-5.564-6.476v-5.794c0-7.362-4.688-13.384-10.938-15.829v-1.117c0-3.125-2.668-5.795-5.789-5.795
		C910.456,76.023,907.788,78.693,907.788,81.818"/>
</g>
<path fill="#FBA919" d="M591.938,93.205c-6.391-0.012-12.778-0.002-19.17-0.002h-3.223c-2.768-10.23-8.213-18.498-16.53-24.848
	c-0.296-0.225-0.682-0.578-0.693-0.885c-0.071-1.564-0.035-3.134-0.035-4.757c9.225,0,18.184,0.006,27.136-0.003
	c2.541-0.002,3.42-0.863,3.438-3.354c0.02-3.082,0.05-6.166-0.011-9.245c-0.022-1.121,0.24-1.806,1.298-2.456
	c3.128-1.923,4.115-5.958,2.438-9.167c-1.405-2.686-4.168-4.132-7.252-3.798c-2.829,0.308-5.27,2.486-5.996,5.361
	c-0.734,2.892,0.455,5.882,2.969,7.638c0.505,0.354,1.23,0.888,1.249,1.367c0.123,2.719,0.062,5.447,0.062,8.352h-1.996
	c-8.271,0.002-16.544,0.002-24.813,0.01c-3.123,0.002-3.793,0.691-3.802,3.854c-0.002,1.001,0,2,0,3.137
	c-1.893-0.805-3.521-1.463-5.111-2.203c-0.338-0.156-0.76-0.612-0.765-0.934c-0.057-3.238-0.035-6.478-0.035-9.865
	c0.78-0.035,1.389-0.084,1.994-0.086c4.51-0.005,9.015,0.01,13.521-0.009c2.626-0.011,3.509-0.896,3.517-3.486
	c0.011-3.878,0.026-7.758-0.014-11.636c-0.008-0.936,0.213-1.505,1.089-2.038c2.666-1.612,3.912-4.651,3.252-7.484
	c-0.755-3.237-3.442-5.518-6.674-5.661c-3.14-0.139-6.103,1.915-7.079,4.903c-1.021,3.109,0.146,6.324,2.933,8.239
	c0.47,0.321,1.13,0.833,1.144,1.275c0.092,3.463,0.053,6.928,0.053,10.585c-0.721,0-1.274-0.002-1.83,0
	c-3.423,0-6.848,0.049-10.268-0.005c-7.118-0.108-6.976-0.042-6.875,6.792c0.037,2.501,0.005,5,0.005,7.492
	c-3.027-0.363-5.889-0.705-8.854-1.06c0-0.661,0-1.224,0-1.786c-0.003-5.933,0.004-11.866-0.009-17.799
	c-0.003-2.548-0.81-3.353-3.386-3.362c-4.395-0.018-8.785-0.033-13.182,0.019c-1.067,0.009-1.718-0.248-2.323-1.228
	c-1.808-2.913-5.212-4.014-8.354-2.879c-2.997,1.08-4.793,3.77-4.683,7.02c0.102,3.072,2.127,5.633,5.146,6.508
	c2.951,0.857,6.036-0.276,7.833-2.82c0.359-0.514,0.877-1.297,1.336-1.307c4.084-0.102,8.171-0.059,12.271-0.059v18.021
	c-12.248,1.997-20.732,6.07-27.785,13.933c-2.073,2.312-4.078,3.356-7.117,3.049c-2.515-0.256-5.078-0.055-7.711-0.055
	c0-2.533,0.03-4.809-0.008-7.084c-0.031-1.811-0.97-2.777-2.69-2.875c-0.511-0.031-1.026-0.009-1.541-0.009h-12.588v-2.032
	c0-6.617,0.029-13.232-0.027-19.852c-0.011-1.298,0.234-2.12,1.464-2.884c2.658-1.651,3.651-5.005,2.667-7.984
	c-0.946-2.879-3.739-4.896-6.752-4.886c-3.045,0.011-5.821,2.002-6.776,4.863c-0.987,2.962,0.005,6.349,2.644,7.997
	c1.218,0.759,1.499,1.574,1.49,2.879c-0.048,7.872-0.033,15.745-0.019,23.617c0.005,2.682,0.824,3.498,3.454,3.51
	c2.798,0.013,5.592,0.003,8.386,0.003h5.079c0,2.456-0.02,4.666,0.005,6.875c0.03,2.225,0.898,3.126,3.11,3.154
	c2.909,0.04,5.818,0.004,8.727,0.018c0.525,0,1.047,0.077,1.792,0.139c-3.458,6.188-5.295,12.583-5.804,19.46
	c-3.686,0-7.214,0.004-10.742,0c-2.973-0.001-3.793,0.794-3.793,3.696c0.002,9.415,0.007,18.825,0,28.237
	c0,0.608-0.047,1.215-0.075,1.762c-0.247,0.097-0.349,0.17-0.452,0.17c-2.797,0.017-5.591-0.014-8.386,0.054
	c-0.918,0.021-1.365-0.261-1.779-1.127c-1.521-3.188-4.493-4.646-7.882-4.013c-2.948,0.546-5.276,3.161-5.632,6.32
	c-0.342,2.999,1.498,6.038,4.387,7.245c2.93,1.227,6.111,0.322,8.336-2.2c0.476-0.537,1.371-0.963,2.083-0.984
	c3.649-0.1,7.303-0.048,10.952-0.053c3.01-0.004,3.763-0.739,3.766-3.717c0.005-9.353,0-18.711,0.005-28.065
	c0-0.66,0.054-1.32,0.084-1.968h9.093c0.064,0.256,0.109,0.362,0.121,0.474c1.469,15.727,9.082,27.555,22.618,35.602
	c0.924,0.551,1.218,1.142,1.211,2.162c-0.044,5.308-0.021,10.609-0.031,15.918c0,0.548-0.077,1.093-0.128,1.764
	c-6.587,0-13.023,0.021-19.456-0.049c-0.39-0.008-0.901-0.693-1.135-1.17c-1.482-3.044-4.454-4.688-7.698-4.189
	c-2.948,0.452-5.425,2.928-5.897,5.896c-0.497,3.132,1.152,6.256,4.034,7.619c2.836,1.343,6.155,0.563,8.433-1.811
	c0.543-0.564,1.498-1.021,2.268-1.029c7.129-0.08,14.26-0.045,21.39-0.055c2.642-0.006,3.487-0.846,3.493-3.469
	c0.014-5.533,0.002-11.066,0.007-16.6c0-0.59,0.053-1.178,0.081-1.867c12.385,4.24,24.269,3.419,35.98-2.373
	c0.044,0.742,0.097,1.293,0.097,1.843c0.005,2.967-0.01,5.933,0,8.899c0.011,2.703,0.887,3.549,3.614,3.553
	c2.844,0.003,5.688,0,8.758,0c0,5.058,0.029,9.842-0.048,14.624c-0.009,0.44-0.628,0.985-1.087,1.295
	c-2.765,1.86-4,4.976-3.127,8.039c0.861,3.022,3.739,5.183,6.891,5.172c3.168-0.009,5.922-2.119,6.828-5.229
	c0.884-3.047-0.313-6.244-3.181-7.951c-0.907-0.541-1.055-1.141-1.053-2.053c0.03-5.188,0.024-10.378,0.017-15.568
	c-0.005-2.83-0.824-3.629-3.695-3.635c-2.831-0.008-5.661-0.002-8.403-0.002c-0.129-0.322-0.205-0.423-0.205-0.523
	c-0.017-3.426,0.021-6.846-0.057-10.27c-0.029-1.146,0.355-1.824,1.248-2.545c12.275-9.898,18.007-22.753,17.229-38.503
	c-0.033-0.715-0.109-1.43-0.169-2.179h19.227v20.863c-0.242,0.062-0.351,0.113-0.461,0.115c-2.163,0.012-4.331,0.021-6.502,0.023
	c-2.859,0-3.655,0.783-3.655,3.639c-0.004,7.301-0.019,14.603,0.023,21.903c0.005,1.073-0.253,1.713-1.251,2.306
	c-2.804,1.672-3.965,4.928-3.053,8.006c0.882,2.977,3.642,5.061,6.759,5.106c3.061,0.045,5.955-2.056,6.868-4.979
	c0.957-3.066-0.155-6.334-2.904-8.072c-0.887-0.561-1.203-1.115-1.195-2.154c0.054-6.273,0.022-12.548,0.03-18.824
	c0-0.543,0.063-1.082,0.104-1.712c2.569,0,4.961,0.013,7.35-0.002c2.346-0.021,3.22-0.864,3.223-3.181
	c0.014-8.385,0.014-16.773,0.003-25.157C595.121,94.095,594.24,93.21,591.938,93.205z M580.395,39.783
	c1.086,0,1.969,0.882,1.969,1.969s-0.883,1.967-1.969,1.967c-1.088,0-1.968-0.881-1.968-1.967S579.307,39.783,580.395,39.783z
	 M557.378,25.658c1.085,0,1.968,0.879,1.968,1.966c0,1.085-0.883,1.969-1.968,1.969c-1.086,0-1.967-0.883-1.967-1.969
	C555.411,26.537,556.292,25.658,557.378,25.658z M502.182,40.694c-1.086,0-1.966-0.883-1.966-1.969c0-1.088,0.88-1.966,1.966-1.966
	c1.085,0,1.97,0.879,1.97,1.966C504.15,39.812,503.268,40.694,502.182,40.694z M459.382,37.647c-1.087,0-1.97-0.883-1.97-1.969
	c0-1.088,0.883-1.967,1.97-1.967c1.085,0,1.969,0.879,1.969,1.967C461.351,36.764,460.468,37.647,459.382,37.647z M449.871,139.131
	c-1.086,0-1.966-0.882-1.966-1.968c0-1.09,0.881-1.972,1.966-1.972c1.086,0,1.969,0.884,1.969,1.972
	C451.84,138.249,450.957,139.131,449.871,139.131z M478.265,166.104c-1.087,0-1.966-0.883-1.966-1.969
	c0-1.087,0.88-1.968,1.966-1.968c1.085,0,1.97,0.881,1.97,1.968C480.234,165.221,479.352,166.104,478.265,166.104z M562.219,178.298
	c1.082,0,1.965,0.882,1.965,1.968c0,1.088-0.883,1.967-1.965,1.967c-1.091,0-1.969-0.881-1.969-1.967
	S561.128,178.298,562.219,178.298z M526.222,143.348c-21.833-0.02-39.354-17.664-39.328-39.603
	c0.031-21.504,17.812-39.171,39.327-39.072c21.832,0.101,39.424,17.71,39.375,39.411
	C565.55,125.716,547.855,143.364,526.222,143.348z M581.899,155.396c-1.092,0-1.97-0.879-1.97-1.965c0-1.088,0.878-1.97,1.97-1.97
	c1.081,0,1.964,0.882,1.964,1.97C583.863,154.518,582.981,155.396,581.899,155.396z"/>
<path fill="#FBA919" d="M541.599,97.155h-0.98v-4.594c0-8.498-6.737-15.596-15.159-15.748c-0.229-0.004-0.69-0.004-0.919,0
	c-8.422,0.152-15.16,7.25-15.16,15.748v4.594h-0.98c-1.513,0-2.745,1.562-2.745,3.489v23.042c0,1.928,1.232,3.502,2.745,3.502
	h33.199c1.513,0,2.745-1.574,2.745-3.502v-23.042C544.344,98.717,543.111,97.155,541.599,97.155z M528.11,112.143v6.963
	c0,0.799-0.667,1.473-1.466,1.473h-3.292c-0.798,0-1.464-0.674-1.464-1.473v-6.963c-0.772-0.762-1.224-1.814-1.224-2.979
	c0-2.208,1.706-4.104,3.874-4.192c0.229-0.01,0.689-0.01,0.92,0c2.168,0.088,3.874,1.984,3.874,4.192
	C529.333,110.327,528.883,111.381,528.11,112.143z M534.154,97.155h-8.695h-0.919h-8.695v-4.594c0-5.062,4.11-9.247,9.154-9.247
	s9.155,4.186,9.155,9.247V97.155L534.154,97.155z"/>
<g>
	<g>
		<path fill="#FBA919" d="M101.317,131.248c-9.015-0.506-17.13,3.117-20.466,8.926l-0.799,1.39l0.643,1.471
			c2.735,6.26,10.338,10.624,19.368,11.128c0.565,0.033,1.121,0.045,1.674,0.045c8.287,0,15.668-3.522,18.798-8.971l0.799-1.392
			l-0.644-1.466C117.954,136.123,110.349,131.756,101.317,131.248z M100.412,147.845c-5.651-0.311-10.737-2.651-13.099-5.876
			c2.687-2.928,7.971-4.721,13.658-4.394c5.65,0.311,10.736,2.651,13.101,5.874C111.386,146.377,106.083,148.172,100.412,147.845z
			 M158.517,154.187l0.505-0.003c9.042-0.152,16.81-4.229,19.778-10.378l0.699-1.443l-0.744-1.424
			c-3.099-5.896-10.791-9.71-19.604-9.71l-0.511,0.005c-9.042,0.151-16.809,4.229-19.779,10.375l-0.698,1.446l0.745,1.419
			C142.001,150.373,149.698,154.187,158.517,154.187z M158.746,137.563h0.404c5.475,0,10.551,1.965,13.076,4.925
			c-2.486,3.133-7.653,5.267-13.31,5.366l-0.4,0.004c-5.482,0-10.561-1.968-13.083-4.927
			C147.917,139.801,153.087,137.662,158.746,137.563z M185.163,84.206c-0.245-2.009-0.488-3.997-0.733-5.977
			c-0.889-7.271-1.78-14.546-2.828-23.248l-0.252-2.077l-2-0.583c-31.333-9.086-63.518-9.091-95.653-0.005l-1.981,0.561
			l-0.282,2.054c-1.24,8.989-2.185,16.118-3.13,23.242c-0.26,1.956-0.52,3.916-0.784,5.91c-23.186,3.349-41.909,9.256-41.909,18.569
			c0,7.062,10.761,12.166,26.07,15.685v30.889c0,5.854,3.063,11.007,8.192,13.772c8.024,4.33,20.01,10.083,31.398,10.083
			c8.926,0,15.017-2.782,19.911-5.017c3.64-1.663,6.513-2.976,9.743-2.976c2.899,0,5.962,1.358,9.503,2.925
			c5.103,2.259,11.449,5.067,20.149,5.067c11.389,0,23.372-5.757,31.398-10.083c5.127-2.769,8.19-7.918,8.19-13.772v-30.889
			c15.31-3.519,26.074-8.623,26.074-15.685C226.24,93.455,207.958,87.577,185.163,84.206z M193.879,149.224
			c0,3.535-1.777,6.521-4.872,8.19c-7.429,4.012-18.459,9.338-28.43,9.338c-7.38,0-12.818-2.41-17.616-4.533
			c-4.019-1.78-7.817-3.462-12.036-3.462c-4.588,0-8.356,1.72-12.344,3.543c-4.792,2.188-9.745,4.452-17.313,4.452
			c-9.974,0-21.002-5.326-28.426-9.338c-3.101-1.67-4.876-4.655-4.876-8.19v-28.66c25.543,3.72,44.53,5.323,62.925,5.323
			c18.385,0,37.387-1.604,62.987-5.323V149.224z M130.925,118.477c-57.602,0-89.025-10.455-89.025-15.826
			c0-3.318,12.03-8.562,34.75-12.095c-0.461,3.434-0.951,7.059-1.505,11.068l6.228,0.868c1.253-9.096,2.207-16.284,3.162-23.484
			c0.871-6.554,1.742-13.124,2.841-21.145c29.266-7.923,58.544-8.021,87.109-0.317c-4.018,2.228-18.473,5.536-42.711,5.536
			c-13.625,0-26.421-1.12-35.113-3.069l-1.367,6.176c9.119,2.048,22.415,3.222,36.479,3.222c6.425,0,33.039-0.352,44.529-5.863
			c0.661,5.458,1.275,10.458,1.886,15.456c0.889,7.271,1.78,14.543,2.828,23.247l6.245-0.763c-0.464-3.846-0.895-7.405-1.311-10.818
			c22.24,3.536,34,8.703,34,11.982C219.951,108.021,188.527,118.477,130.925,118.477z"/>
	</g>
</g>
<g>
	<g>
		<path fill="#FBA919" d="M1003.848,144.956h-10.012v-91.97c0-3.892-3.137-7.062-7.036-7.062H840.396
			c-3.898,0-7.056,3.17-7.056,7.062v91.97h-9.579c-1.775,0-3.228,1.439-3.228,3.228c0,7.668,6.223,13.891,13.878,13.891h111.568
			v-6.003c0-2.144,1.729-3.866,3.866-3.866s3.866,1.723,3.866,3.866v6.003h6.326v-6.003c0-2.144,1.736-3.866,3.866-3.866
			c2.138,0,3.867,1.723,3.867,3.866v6.003h25.433c7.661,0,13.871-6.223,13.871-13.891
			C1007.075,146.396,1005.649,144.956,1003.848,144.956z M981.578,140.114H845.611V58.221h135.967V140.114z"/>
	</g>
</g>
</svg>
