<?xml version="1.0" encoding="utf-8"?>
<!-- Generator: Adobe Illustrator 16.0.0, SVG Export Plug-In . SVG Version: 6.00 Build 0)  -->
<!DOCTYPE svg PUBLIC "-//W3C//DTD SVG 1.1//EN" "http://www.w3.org/Graphics/SVG/1.1/DTD/svg11.dtd">
<svg version="1.1" id="Layer_1" xmlns="http://www.w3.org/2000/svg" xmlns:xlink="http://www.w3.org/1999/xlink" x="0px" y="0px"
	 width="1058.572px" height="204px" viewBox="0 0 1058.572 204" enable-background="new 0 0 1058.572 204" xml:space="preserve">
<circle fill="none" stroke="#FBAA1D" stroke-width="5" stroke-miterlimit="10" cx="971.536" cy="157.136" r="29.671"/>
<g>
	<polygon fill="#B7B7B8" points="778.764,128.416 778.925,146.979 791.371,134.313 778.593,121.751 	"/>
	<g>
		<g>
			<path id="SVGID_1_" fill="#FBA919" d="M39.914,143.505c0.761,0.763,1.157,1.687,1.202,2.756c0.041,1.082-0.313,2.021-1.027,2.814
				c-0.752,0.789-1.651,1.213-2.719,1.243c-1.078,0.039-2.008-0.323-2.813-1.09c-0.791-0.763-1.199-1.685-1.199-2.756
				c0-1.072,0.363-2.017,1.098-2.815c0.728-0.793,1.627-1.212,2.709-1.246c0.047,0,0.092,0,0.14,0
				C38.319,142.412,39.19,142.783,39.914,143.505"/>
		</g>
	</g>
	<g>
		<g>
			<path id="SVGID_3_" fill="#FBA919" d="M40.127,152.873l4.687,7.488l5.729,3.129c0.541,0.34,0.824,0.834,0.824,1.455
				c0,0.49-0.184,0.916-0.529,1.299c-0.348,0.383-0.752,0.574-1.246,0.574c-0.146,0-0.424-0.08-0.832-0.217l-6.141-3.428
				c-0.209-0.143-0.377-0.313-0.521-0.52l-1.779-2.813l-0.723,6.976l6.248,21.336c0,0.07,0.021,0.16,0.057,0.259
				c0.035,0.098,0.039,0.187,0.039,0.262c0,0.761-0.242,1.404-0.762,1.925c-0.533,0.517-1.142,0.784-1.832,0.784
				c-1.248,0.062-2.121-0.53-2.613-1.774l-4.455-15.403l-0.521,4.687c0,0.141-0.028,0.276-0.104,0.416
				c-0.078,0.137-0.139,0.303-0.205,0.471c-0.08,0.166-0.105,0.295-0.105,0.367l-4.368,9.774c-0.494,0.963-1.252,1.467-2.289,1.467
				c-0.758,0.062-1.42-0.168-1.937-0.688c-0.52-0.518-0.781-1.149-0.781-1.92c0-0.348,0.07-0.733,0.214-1.144l4.057-9.057
				l2.283-19.146l-2.496,2.497l-0.719,6.865c-0.074,0.412-0.265,0.799-0.576,1.149c-0.316,0.339-0.711,0.519-1.203,0.519
				c-0.486,0-0.896-0.18-1.238-0.519c-0.344-0.354-0.522-0.771-0.522-1.254v-0.209l0.936-8.013c0.064-0.35,0.205-0.668,0.42-0.942
				l7.072-7.178c0.836-0.765,1.705-1.138,2.6-1.138C38.114,151.212,39.223,151.761,40.127,152.873"/>
		</g>
	</g>
	<g>
		<g>
			<path id="SVGID_5_" fill="#FBA919" d="M83.879,174.152v-13.729h30.816v13.729c0,2.402-1.938,4.35-4.338,4.35H88.221
				C85.821,178.501,83.879,176.557,83.879,174.152 M163.927,174.152v-13.729h30.808v13.729c0,2.402-1.941,4.35-4.332,4.35H168.27
				C165.862,178.501,163.927,176.557,163.927,174.152 M83.879,148.757c0-2.396,1.941-4.34,4.343-4.34h22.137
				c2.4,0,4.338,1.944,4.338,4.34v2.688H83.879V148.757z M163.927,148.757c0-2.396,1.935-4.34,4.343-4.34h22.133
				c2.391,0,4.332,1.944,4.332,4.34v2.688h-30.808V148.757z M166.387,129.123c-4.743,0-9.505-1.494-13.511-4.484
				c-3.83,2.844-8.526,4.484-13.53,4.484c-4.761,0-9.515-1.494-13.535-4.484c-3.814,2.844-8.523,4.484-13.521,4.484
				c-4.776,0-9.528-1.498-13.537-4.484c-3.813,2.844-8.516,4.484-13.524,4.484c-3.965,0-7.691-1.016-10.938-2.82v63.09
				c0,1.684,1.365,3.033,3.043,3.033h47.793v-46.914c0-1.678,1.347-3.031,3.021-3.031h22.385c1.682,0,3.041,1.354,3.041,3.031
				v46.914h47.772c1.682,0,3.04-1.354,3.04-3.033v-63.09c-3.243,1.807-6.965,2.82-10.932,2.82c-4.752,0-9.502-1.494-13.529-4.484
				C176.106,127.48,171.405,129.123,166.387,129.123"/>
		</g>
		<g>
			<g>
				<g>
					<defs>
						<path id="SVGID_2_" d="M83.879,174.152v-13.729h30.816v13.729c0,2.402-1.938,4.35-4.338,4.35H88.221
							C85.821,178.501,83.879,176.557,83.879,174.152 M163.927,174.152v-13.729h30.808v13.729c0,2.402-1.941,4.35-4.332,4.35H168.27
							C165.862,178.501,163.927,176.557,163.927,174.152 M83.879,148.757c0-2.396,1.941-4.34,4.343-4.34h22.137
							c2.4,0,4.338,1.944,4.338,4.34v2.688H83.879V148.757z M163.927,148.757c0-2.396,1.935-4.34,4.343-4.34h22.133
							c2.391,0,4.332,1.944,4.332,4.34v2.688h-30.808V148.757z M166.387,129.123c-4.743,0-9.505-1.494-13.511-4.484
							c-3.83,2.844-8.526,4.484-13.53,4.484c-4.761,0-9.515-1.494-13.535-4.484c-3.814,2.844-8.523,4.484-13.521,4.484
							c-4.776,0-9.528-1.498-13.537-4.484c-3.813,2.844-8.516,4.484-13.524,4.484c-3.965,0-7.691-1.016-10.938-2.82v63.09
							c0,1.684,1.365,3.033,3.043,3.033h47.793v-46.914c0-1.678,1.347-3.031,3.021-3.031h22.385c1.682,0,3.041,1.354,3.041,3.031
							v46.914h47.772c1.682,0,3.04-1.354,3.04-3.033v-63.09c-3.243,1.807-6.965,2.82-10.932,2.82c-4.752,0-9.502-1.494-13.529-4.484
							C176.106,127.48,171.405,129.123,166.387,129.123"/>
					</defs>
					<clipPath id="SVGID_4_">
						<use xlink:href="#SVGID_2_"  overflow="visible"/>
					</clipPath>
					<rect x="74.29" y="124.639" clip-path="url(#SVGID_4_)" fill="#FBA919" width="130.097" height="67.786"/>
				</g>
			</g>
		</g>
	</g>
	<g>
		<g>
			<path id="SVGID_7_" fill="#FBA919" d="M90.604,57.328c-4.189,0-7.853,2.8-8.955,6.836c-0.488,1.785-11.601,39.484-11.601,42.307
				c0,8.377,6.796,15.168,15.179,15.168c5.907,0,11.024-3.384,13.524-8.304c2.515,4.92,7.627,8.304,13.537,8.304
				c5.896,0,11.021-3.384,13.521-8.304c2.5,4.92,7.619,8.304,13.535,8.304c5.909,0,11.021-3.384,13.53-8.304
				c2.502,4.92,7.621,8.304,13.511,8.304c5.918,0,11.03-3.384,13.536-8.304c2.511,4.92,7.619,8.304,13.529,8.304
				c8.385,0,15.18-6.791,15.18-15.168c0-2.755-11.29-42.239-11.29-42.239c-1.087-4.076-4.773-6.904-8.972-6.904H90.604z"/>
		</g>
		<g>
			<g>
				<g>
					<defs>
						<path id="SVGID_6_" d="M90.604,57.328c-4.189,0-7.853,2.8-8.955,6.836c-0.488,1.785-11.601,39.484-11.601,42.307
							c0,8.377,6.796,15.168,15.179,15.168c5.907,0,11.024-3.384,13.524-8.304c2.515,4.92,7.627,8.304,13.537,8.304
							c5.896,0,11.021-3.384,13.521-8.304c2.5,4.92,7.619,8.304,13.535,8.304c5.909,0,11.021-3.384,13.53-8.304
							c2.502,4.92,7.621,8.304,13.511,8.304c5.918,0,11.03-3.384,13.536-8.304c2.511,4.92,7.619,8.304,13.529,8.304
							c8.385,0,15.18-6.791,15.18-15.168c0-2.755-11.29-42.239-11.29-42.239c-1.087-4.076-4.773-6.904-8.972-6.904H90.604z"/>
					</defs>
					<clipPath id="SVGID_8_">
						<use xlink:href="#SVGID_6_"  overflow="visible"/>
					</clipPath>
					<rect x="70.049" y="57.328" clip-path="url(#SVGID_8_)" fill="#FBA919" width="138.584" height="64.311"/>
				</g>
			</g>
		</g>
	</g>
	
		<line fill="none" stroke="#B7B7B8" stroke-linecap="round" stroke-miterlimit="10" stroke-dasharray="1.389,2.778" x1="646.55" y1="134" x2="780.567" y2="134.365"/>
	<polygon fill="#B7B7B8" points="385.764,128.416 385.925,146.979 398.372,134.313 385.593,121.751 	"/>
	
		<line fill="none" stroke="#B7B7B8" stroke-linecap="round" stroke-miterlimit="10" stroke-dasharray="1.389,2.778" x1="253.549" y1="134" x2="387.567" y2="134.365"/>
	<g>
		<path fill="#FBA919" d="M458.346,118.979c0.756-0.528,0.941-1.576,0.399-2.343c-1.68-2.385-2.538-5.26-2.446-8.186
			c0.103-2.927,1.143-5.744,2.985-8.013c0.604-0.715,0.521-1.776-0.196-2.385c-0.713-0.599-1.771-0.512-2.378,0.197
			c-0.01,0.023-0.034,0.044-0.057,0.066c-2.291,2.843-3.604,6.357-3.732,10.017l0.001,0.008c-0.104,3.656,0.968,7.25,3.078,10.244
			c0.038,0.061,0.086,0.119,0.139,0.176C456.704,119.361,457.648,119.475,458.346,118.979 M450.538,125.4
			c0.746-0.559,0.898-1.609,0.351-2.359l-0.01-0.014c-3.22-4.295-4.866-9.547-4.689-14.902c0.184-5.355,2.18-10.493,5.668-14.563
			c0.614-0.696,0.557-1.767-0.146-2.377c-0.698-0.625-1.758-0.563-2.373,0.141l-0.046,0.042c-3.988,4.646-6.271,10.521-6.482,16.643
			c-0.191,6.121,1.696,12.142,5.365,17.039c0.043,0.054,0.08,0.104,0.127,0.152C448.882,125.82,449.841,125.916,450.538,125.4
			 M442.715,131.857c0.768-0.531,0.941-1.584,0.402-2.342c-0.024-0.033-0.047-0.07-0.073-0.102
			c-4.755-6.188-7.226-13.83-6.978-21.627c0.264-7.802,3.219-15.272,8.362-21.136c0.643-0.68,0.597-1.754-0.089-2.375
			c-0.687-0.637-1.75-0.592-2.39,0.087c-0.021,0.018-0.025,0.044-0.047,0.065c-5.666,6.452-8.919,14.666-9.213,23.24l0.002,0.002
			c-0.27,8.584,2.438,16.99,7.676,23.798c0.043,0.063,0.091,0.114,0.145,0.175C441.083,132.251,442.021,132.355,442.715,131.857"/>
		<path fill="none" d="M458.347,118.979c0.755-0.528,0.939-1.576,0.397-2.343c-1.684-2.389-2.533-5.262-2.442-8.188
			c0.101-2.925,1.142-5.744,2.982-8.013c0.604-0.713,0.521-1.776-0.196-2.383c-0.713-0.599-1.775-0.511-2.379,0.198
			c-0.009,0.024-0.031,0.043-0.054,0.063c-2.292,2.845-3.604,6.361-3.733,10.017l0.004,0.012c-0.108,3.654,0.967,7.252,3.074,10.242
			c0.043,0.063,0.085,0.119,0.139,0.176C456.704,119.363,457.649,119.475,458.347,118.979 M450.538,125.402
			c0.744-0.561,0.896-1.609,0.351-2.359l-0.012-0.014c-3.216-4.299-4.863-9.551-4.688-14.904c0.184-5.354,2.18-10.495,5.664-14.566
			c0.627-0.688,0.561-1.76-0.142-2.373c-0.695-0.627-1.758-0.562-2.374,0.144l-0.042,0.038c-3.993,4.646-6.272,10.52-6.489,16.641
			c-0.188,6.123,1.701,12.146,5.374,17.052c0.035,0.047,0.075,0.096,0.123,0.146C448.887,125.824,449.841,125.916,450.538,125.402
			 M442.714,131.859c0.77-0.533,0.942-1.586,0.402-2.344c-0.022-0.035-0.046-0.07-0.073-0.102
			c-4.756-6.188-7.225-13.83-6.979-21.629c0.265-7.797,3.221-15.271,8.365-21.134c0.643-0.68,0.596-1.754-0.091-2.375
			c-0.688-0.643-1.755-0.594-2.389,0.087c-0.021,0.018-0.024,0.043-0.051,0.067c-5.664,6.447-8.918,14.66-9.212,23.238l0.003,0.004
			c-0.267,8.58,2.441,16.984,7.678,23.796c0.043,0.063,0.089,0.114,0.144,0.175C441.082,132.251,442.023,132.354,442.714,131.859"/>
	</g>
	<g>
		<path fill="#FBA919" d="M571.362,118.979c0.697,0.496,1.645,0.383,2.207-0.218c0.053-0.057,0.1-0.116,0.139-0.176
			c2.11-2.994,3.186-6.588,3.078-10.244l0.001-0.008c-0.133-3.658-1.441-7.174-3.732-10.017c-0.021-0.021-0.046-0.043-0.057-0.066
			c-0.604-0.709-1.665-0.796-2.378-0.197c-0.72,0.607-0.802,1.67-0.195,2.385c1.844,2.269,2.885,5.085,2.984,8.013
			c0.091,2.926-0.77,5.801-2.447,8.186C570.42,117.402,570.605,118.449,571.362,118.979 M579.172,125.4
			c0.695,0.516,1.654,0.42,2.233-0.197c0.048-0.051,0.085-0.102,0.128-0.154c3.669-4.896,5.56-10.918,5.365-17.039
			c-0.214-6.123-2.495-11.998-6.484-16.642l-0.044-0.042c-0.614-0.702-1.676-0.766-2.373-0.141c-0.699,0.61-0.76,1.681-0.146,2.377
			c3.489,4.069,5.485,9.208,5.668,14.562c0.178,5.356-1.472,10.608-4.688,14.903l-0.011,0.013
			C578.27,123.791,578.425,124.843,579.172,125.4 M586.994,131.857c0.69,0.498,1.633,0.395,2.199-0.211
			c0.054-0.063,0.099-0.109,0.145-0.174c5.235-6.809,7.942-15.217,7.676-23.799l0.002-0.002c-0.294-8.575-3.547-16.79-9.214-23.241
			c-0.021-0.021-0.025-0.048-0.046-0.065c-0.64-0.679-1.703-0.724-2.39-0.086c-0.688,0.62-0.729,1.692-0.089,2.374
			c5.146,5.863,8.102,13.334,8.362,21.135c0.247,7.797-2.224,15.441-6.978,21.627c-0.026,0.029-0.049,0.066-0.073,0.102
			C586.051,130.273,586.227,131.326,586.994,131.857"/>
		<path fill="none" d="M571.361,118.979c0.696,0.496,1.644,0.386,2.208-0.218c0.055-0.057,0.096-0.11,0.139-0.176
			c2.106-2.989,3.186-6.588,3.074-10.242l0.003-0.012c-0.128-3.654-1.44-7.172-3.732-10.017c-0.021-0.021-0.044-0.041-0.054-0.063
			c-0.604-0.708-1.666-0.796-2.379-0.198c-0.72,0.605-0.804,1.67-0.196,2.383c1.844,2.269,2.885,5.087,2.982,8.013
			c0.091,2.926-0.764,5.799-2.442,8.188C570.42,117.402,570.605,118.449,571.361,118.979 M579.172,125.402
			c0.695,0.514,1.648,0.422,2.233-0.199c0.048-0.051,0.088-0.1,0.123-0.146c3.672-4.906,5.563-10.926,5.374-17.049
			c-0.216-6.121-2.497-11.997-6.489-16.642l-0.043-0.038c-0.614-0.705-1.678-0.77-2.373-0.143c-0.698,0.611-0.768,1.685-0.143,2.371
			c3.484,4.073,5.482,9.213,5.664,14.566c0.177,5.354-1.474,10.604-4.688,14.903l-0.012,0.017
			C578.271,123.792,578.425,124.843,579.172,125.402 M586.995,131.859c0.689,0.494,1.633,0.393,2.199-0.213
			c0.055-0.061,0.1-0.109,0.144-0.174c5.232-6.813,7.941-15.217,7.678-23.799l0.002-0.002c-0.293-8.578-3.547-16.792-9.212-23.239
			c-0.024-0.024-0.03-0.05-0.05-0.067c-0.635-0.681-1.7-0.729-2.389-0.086c-0.688,0.618-0.73,1.694-0.092,2.374
			c5.146,5.863,8.104,13.336,8.366,21.133c0.245,7.799-2.224,15.443-6.979,21.629c-0.027,0.029-0.052,0.064-0.073,0.102
			C586.052,130.273,586.227,131.326,586.995,131.859"/>
	</g>
	<path fill="#FBA919" d="M471.427,176.068v-7.5h86.744v7.5c0,6.732-5.477,12.211-12.214,12.211H483.64
		C476.905,188.279,471.427,182.802,471.427,176.068 M471.427,56.527h86.75v108.771h-86.75V56.527L471.427,56.527z M471.427,44.504
		c0-6.734,5.479-12.218,12.213-12.218h62.318c6.736,0,12.213,5.484,12.213,12.218v8.744h-86.744V44.504L471.427,44.504z
		 M483.639,29.017c-8.539,0-15.479,6.944-15.479,15.487v131.564c0,8.541,6.939,15.482,15.479,15.482h62.318
		c8.541,0,15.492-6.941,15.492-15.482V44.504c0-8.543-6.951-15.487-15.492-15.487H483.639z"/>
	<g>
		<g>
			<g>
				<g>
					<defs>
						<path id="SVGID_9_" d="M471.423,176.068v-7.5h86.748v7.5c0,6.732-5.477,12.211-12.207,12.211H483.64
							C476.905,188.279,471.423,182.802,471.423,176.068 M471.423,56.527h86.748v108.771h-86.748V56.527L471.423,56.527z
							 M471.423,44.503c0-6.734,5.481-12.219,12.217-12.219h62.324c6.73,0,12.207,5.485,12.207,12.219v8.745h-86.748V44.503
							L471.423,44.503z M483.639,29.017c-8.539,0-15.479,6.942-15.479,15.486v131.565c0,8.541,6.939,15.486,15.479,15.486h62.324
							c8.531,0,15.486-6.945,15.486-15.486V44.503c0-8.543-6.955-15.486-15.486-15.486H483.639z"/>
					</defs>
					<clipPath id="SVGID_10_">
						<use xlink:href="#SVGID_9_"  overflow="visible"/>
					</clipPath>
					<rect x="468.159" y="29.017" clip-path="url(#SVGID_10_)" fill="#FBA919" width="93.292" height="162.535"/>
				</g>
			</g>
		</g>
	</g>
	<g>
		<g>
			<g>
				<g>
					<defs>
						<path id="SVGID_11_" d="M496.313,176.396c-1.482,0-2.688,1.209-2.688,2.68c0,1.479,1.202,2.684,2.688,2.684h36.996
							c1.471,0,2.677-1.203,2.677-2.684c0-1.471-1.206-2.68-2.677-2.68H496.313z"/>
					</defs>
					<clipPath id="SVGID_12_">
						<use xlink:href="#SVGID_11_"  overflow="visible"/>
					</clipPath>
					<rect x="493.627" y="176.396" clip-path="url(#SVGID_12_)" fill="#FBA919" width="42.354" height="5.363"/>
				</g>
			</g>
		</g>
	</g>
	<path fill="#FBA919" d="M511.538,43.944c0,1.804,1.469,3.261,3.271,3.261c1.804,0,3.264-1.457,3.264-3.261
		c0-1.809-1.459-3.264-3.264-3.264C513.006,40.681,511.538,42.135,511.538,43.944"/>
	<g>
		<g>
			<g>
				<g>
					<defs>
						<path id="SVGID_13_" d="M511.538,43.943c0,1.804,1.463,3.26,3.271,3.26c1.805,0,3.264-1.457,3.264-3.26
							c0-1.809-1.459-3.262-3.264-3.262C513.001,40.682,511.538,42.134,511.538,43.943"/>
					</defs>
					<clipPath id="SVGID_14_">
						<use xlink:href="#SVGID_13_"  overflow="visible"/>
					</clipPath>
					<rect x="511.538" y="40.682" clip-path="url(#SVGID_14_)" fill="#FBA919" width="6.535" height="6.527"/>
				</g>
			</g>
		</g>
	</g>
	<path fill="none" stroke="#FBB040" stroke-width="3" stroke-miterlimit="10" d="M508.788,86.818v1.117
		c-6.468,2.445-10.928,8.691-10.928,15.829v5.795c-2.896,0.684-5.135,3.352-5.135,6.475c0,3.564,2.889,6.686,6.695,6.686h8.704
		c0,3.572,3.113,6.471,6.689,6.471c3.553,0,6.449-2.896,6.678-6.471h8.71c3.559,0,6.68-2.9,6.68-6.686
		c-0.447-3.123-2.683-5.791-5.564-6.475v-5.795c0-7.362-4.689-13.384-10.938-15.829v-1.117c0-3.125-2.668-5.795-5.789-5.795
		C511.456,81.023,508.788,83.693,508.788,86.818"/>
	<path fill="#FBA919" d="M918.289,112.41c18.031,0,32.65-17.112,32.65-38.219c0-29.27-14.619-38.218-32.65-38.218
		c-18.033,0-32.653,8.949-32.653,38.218C885.635,95.298,900.255,112.41,918.289,112.41L918.289,112.41z"/>
</g>
<g>
	<g>
		<path fill="#FBAA1D" d="M200.615,17c-5.52,0-10.023,4.505-10.023,10.023v2.053c0,5.498,4.504,10.002,10.023,10.002
			c5.519,0,10.024-4.504,10.024-10.023v-2.053C210.638,21.505,206.134,17,200.615,17 M192.38,33.095
			c-0.177-0.375-0.354-0.75-0.485-1.171c0.154,0.265,0.309,0.509,0.485,0.751V33.095z M193.462,34.818
			c-0.155-0.175-0.287-0.375-0.418-0.552v-0.684c0.131,0.154,0.264,0.308,0.418,0.439V34.818z M194.984,36.297
			c-0.287-0.222-0.575-0.486-0.839-0.729v-0.905c0.264,0.221,0.552,0.442,0.839,0.64V36.297z M196.552,37.291
			c-0.31-0.155-0.595-0.331-0.882-0.509V35.7c0.287,0.155,0.574,0.31,0.882,0.442V37.291z M198.319,37.953
			c-0.375-0.088-0.75-0.221-1.104-0.354v-1.148c0.354,0.132,0.729,0.243,1.104,0.33V37.953z M200.305,38.24
			c-0.442-0.023-0.883-0.067-1.302-0.133v-1.191c0.419,0.065,0.86,0.112,1.302,0.133V38.24z M202.294,38.084
			c-0.42,0.088-0.861,0.133-1.303,0.156v-1.215c0.441-0.023,0.883-0.066,1.303-0.134V38.084z M204.082,37.555
			c-0.354,0.154-0.729,0.264-1.104,0.375v-1.191c0.375-0.088,0.75-0.198,1.104-0.332V37.555z M205.649,36.739
			c-0.288,0.198-0.574,0.353-0.884,0.507V36.12c0.311-0.133,0.596-0.287,0.884-0.463V36.739z M207.15,35.501
			c-0.265,0.266-0.552,0.53-0.839,0.75v-1.016c0.287-0.199,0.574-0.418,0.839-0.64V35.501z M208.232,34.177
			c-0.134,0.2-0.267,0.375-0.398,0.552v-0.774c0.133-0.131,0.266-0.285,0.398-0.44V34.177z M208.918,32.985V32.61
			c0.154-0.222,0.287-0.441,0.418-0.663C209.225,32.299,209.07,32.653,208.918,32.985 M200.615,36.186
			c-5.056,0-9.184-4.128-9.184-9.184c0-5.058,4.128-9.163,9.184-9.163c5.056,0,9.185,4.13,9.185,9.185
			S205.671,36.186,200.615,36.186"/>
		<path fill="#FBAA1D" d="M200.747,19.34c-4.239,0-7.683,3.444-7.683,7.683V27.2v0.177c0,0.064,0.021,0.198,0.021,0.286
			c0,0.045,0,0.089,0.023,0.133c0.397,3.864,3.666,6.91,7.639,6.91c3.975,0,7.263-3.046,7.639-6.933v-0.021
			c0-0.089,0.022-0.156,0.022-0.245c0-0.154,0.023-0.331,0.023-0.484C208.43,22.785,204.986,19.34,200.747,19.34 M207.68,27.443
			v0.133c0,0.067-0.023,0.132-0.023,0.177c-0.374,3.488-3.333,6.226-6.91,6.226c-3.533,0-6.469-2.649-6.912-6.071
			c0-0.045,0-0.09-0.021-0.154c-0.021-0.177-0.021-0.355-0.043-0.53c0.11-3.731,3.178-6.733,6.956-6.733
			C204.567,20.467,207.68,23.581,207.68,27.443C207.68,27.42,207.68,27.443,207.68,27.443"/>
		<path fill="#FBAA1D" d="M204.239,27.032l0.37-0.37c0.088-0.088,0.159-0.193,0.23-0.282c0.034,0,0.069,0.018,0.104,0.018
			c0.353,0,0.652-0.281,0.652-0.651c0-0.174-0.07-0.334-0.194-0.458c0.071-0.281,0.035-0.544-0.088-0.773
			c-0.281-0.528-1.055-0.74-2.164-0.581c-0.229,0.036-0.476,0.087-0.721,0.141c-0.336-1.356-0.934-2.341-1.76-2.341
			c-0.827,0-1.408,0.985-1.76,2.341c-0.246-0.071-0.493-0.105-0.722-0.141h-0.017c-0.069-0.281-0.317-0.493-0.615-0.493
			c-0.299,0-0.563,0.211-0.634,0.493c-0.422,0.087-0.739,0.282-0.898,0.581c-0.282,0.528-0.036,1.285,0.704,2.128
			c0.104,0.123,0.229,0.247,0.369,0.369c-0.932,0.898-1.442,1.831-1.073,2.519c0.229,0.403,0.738,0.631,1.478,0.631
			c0.211,0,0.44-0.017,0.687-0.053c0.23-0.034,0.476-0.088,0.723-0.14c0.334,1.355,0.932,2.34,1.758,2.34
			c0.264,0,0.51-0.105,0.738-0.299c0.071,0.036,0.16,0.054,0.248,0.054c0.351,0,0.652-0.282,0.652-0.651
			c0-0.175-0.071-0.335-0.195-0.458c0.123-0.299,0.23-0.634,0.317-0.986c0.248,0.07,0.493,0.106,0.722,0.14
			c0.248,0.036,0.477,0.053,0.687,0.053c0.738,0,1.249-0.209,1.478-0.631c0.283-0.529,0.036-1.285-0.704-2.13L204.239,27.032z
			 M203.201,24.445c0.229-0.034,0.441-0.052,0.634-0.052c0.527,0,0.898,0.123,1.021,0.369c0.052,0.088,0.069,0.211,0.052,0.352
			c-0.352,0.019-0.616,0.3-0.616,0.634c0,0.123,0.036,0.246,0.106,0.353c-0.052,0.07-0.122,0.14-0.176,0.21
			c-0.106,0.124-0.229,0.248-0.369,0.369c-0.354-0.299-0.74-0.597-1.162-0.877c-0.035-0.423-0.09-0.845-0.177-1.233
			C202.76,24.534,202.99,24.479,203.201,24.445 M201.423,28.423c-0.247,0.14-0.51,0.263-0.758,0.369
			c-0.246-0.121-0.51-0.245-0.757-0.369c-0.28-0.159-0.545-0.298-0.81-0.476c-0.016-0.298-0.033-0.598-0.033-0.932
			c0-0.317,0.017-0.633,0.036-0.934c0.247-0.158,0.51-0.315,0.81-0.475c0.247-0.141,0.511-0.265,0.757-0.369
			c0.248,0.123,0.512,0.246,0.758,0.369c0.282,0.16,0.545,0.3,0.808,0.475c0.02,0.301,0.036,0.599,0.036,0.934
			c0,0.317-0.018,0.634-0.036,0.932C201.969,28.123,201.688,28.282,201.423,28.423 M202.163,28.582
			c-0.035,0.264-0.071,0.51-0.123,0.757c-0.248-0.07-0.511-0.176-0.774-0.282c0.123-0.071,0.248-0.123,0.386-0.193
			C201.828,28.774,201.986,28.686,202.163,28.582 M200.052,29.074c-0.265,0.105-0.512,0.192-0.775,0.282
			c-0.053-0.248-0.087-0.494-0.123-0.759c0.157,0.105,0.334,0.194,0.509,0.281C199.805,28.934,199.928,29.004,200.052,29.074
			 M198.59,27.613c-0.264-0.193-0.51-0.387-0.738-0.581c0.229-0.193,0.474-0.388,0.738-0.58c0,0.192-0.016,0.387-0.016,0.58
			C198.574,27.226,198.574,27.42,198.59,27.613 M199.171,25.484c0.035-0.266,0.07-0.511,0.123-0.757
			c0.246,0.071,0.511,0.176,0.774,0.281c-0.123,0.07-0.248,0.123-0.386,0.195C199.507,25.29,199.328,25.378,199.171,25.484
			 M201.281,24.993c0.265-0.108,0.511-0.194,0.776-0.285c0.052,0.248,0.088,0.494,0.123,0.758c-0.16-0.104-0.336-0.193-0.511-0.281
			C201.529,25.132,201.406,25.061,201.281,24.993 M202.743,26.452c0.265,0.192,0.511,0.387,0.739,0.58
			c-0.229,0.194-0.474,0.388-0.739,0.581c0-0.193,0.019-0.387,0.019-0.581C202.743,26.839,202.743,26.644,202.743,26.452
			 M200.666,22.265c0.458,0,0.951,0.737,1.268,1.971c-0.405,0.122-0.846,0.28-1.268,0.474c-0.438-0.194-0.861-0.351-1.267-0.474
			C199.698,23.002,200.192,22.265,200.666,22.265 M197.113,26.328c-0.581-0.652-0.828-1.231-0.652-1.548
			c0.088-0.159,0.282-0.264,0.545-0.318c0.123,0.177,0.319,0.301,0.528,0.301c0.229,0,0.422-0.124,0.545-0.301h0.034
			c0.211,0.035,0.458,0.088,0.688,0.142c-0.072,0.388-0.142,0.809-0.177,1.23c-0.423,0.283-0.81,0.564-1.162,0.88
			C197.341,26.575,197.218,26.452,197.113,26.328 M198.115,29.62c-0.861,0.123-1.479,0-1.653-0.317
			c-0.211-0.387,0.158-1.125,1.002-1.937c0.353,0.3,0.739,0.6,1.163,0.88c0.036,0.422,0.087,0.844,0.176,1.231
			C198.574,29.531,198.326,29.583,198.115,29.62 M201.617,30.779c-0.352,0.02-0.616,0.301-0.616,0.634
			c0,0.087,0.018,0.159,0.052,0.229c-0.123,0.105-0.247,0.159-0.387,0.159c-0.458,0-0.95-0.739-1.267-1.971
			c0.405-0.124,0.844-0.282,1.267-0.474c0.439,0.193,0.861,0.349,1.266,0.474C201.846,30.2,201.74,30.517,201.617,30.779
			 M204.873,29.303c-0.176,0.317-0.793,0.438-1.654,0.317c-0.211-0.035-0.459-0.088-0.688-0.14c0.07-0.388,0.14-0.809,0.177-1.231
			c0.422-0.282,0.809-0.581,1.161-0.879l0.37,0.369C204.802,28.405,205.031,28.986,204.873,29.303 M201.3,27.032
			c0,0.352-0.281,0.65-0.652,0.65c-0.351,0-0.651-0.281-0.651-0.65c0-0.354,0.283-0.651,0.651-0.651
			C201.019,26.381,201.3,26.681,201.3,27.032"/>
	</g>
	<g>
		<path fill="#FBAA1D" d="M231.775,17c-5.52,0-10.023,4.505-10.023,10.023v2.053c0,5.498,4.504,10.002,10.023,10.002
			s10.024-4.504,10.024-10.023v-2.053C241.799,21.505,237.294,17,231.775,17 M223.54,33.095c-0.177-0.375-0.354-0.75-0.485-1.171
			c0.154,0.265,0.309,0.509,0.485,0.751V33.095z M224.622,34.818c-0.155-0.175-0.287-0.375-0.418-0.552v-0.684
			c0.131,0.154,0.264,0.308,0.418,0.439V34.818z M226.144,36.297c-0.287-0.222-0.575-0.486-0.839-0.729v-0.905
			c0.264,0.221,0.552,0.442,0.839,0.64V36.297z M227.712,37.291c-0.31-0.155-0.595-0.331-0.882-0.509V35.7
			c0.287,0.155,0.574,0.31,0.882,0.442V37.291z M229.479,37.953c-0.375-0.088-0.75-0.221-1.104-0.354v-1.148
			c0.354,0.132,0.729,0.243,1.104,0.33V37.953z M231.466,38.24c-0.442-0.023-0.883-0.067-1.302-0.133v-1.191
			c0.419,0.065,0.86,0.112,1.302,0.133V38.24z M233.454,38.084c-0.42,0.088-0.861,0.133-1.303,0.156v-1.215
			c0.441-0.023,0.883-0.066,1.303-0.134V38.084z M235.242,37.555c-0.354,0.154-0.729,0.264-1.104,0.375v-1.191
			c0.375-0.088,0.75-0.198,1.104-0.332V37.555z M236.809,36.739c-0.288,0.198-0.574,0.353-0.884,0.507V36.12
			c0.311-0.133,0.596-0.287,0.884-0.463V36.739z M238.31,35.501c-0.265,0.266-0.552,0.53-0.839,0.75v-1.016
			c0.287-0.199,0.574-0.418,0.839-0.64V35.501z M239.392,34.177c-0.134,0.2-0.267,0.375-0.398,0.552v-0.774
			c0.133-0.131,0.266-0.285,0.398-0.44V34.177z M240.078,32.985V32.61c0.154-0.222,0.287-0.441,0.418-0.663
			C240.385,32.299,240.23,32.653,240.078,32.985 M231.775,36.186c-5.056,0-9.184-4.128-9.184-9.184c0-5.058,4.128-9.163,9.184-9.163
			s9.185,4.13,9.185,9.185S236.831,36.186,231.775,36.186"/>
		<path fill="#FBAA1D" d="M231.907,19.34c-4.239,0-7.683,3.444-7.683,7.683V27.2v0.177c0,0.064,0.021,0.198,0.021,0.286
			c0,0.045,0,0.089,0.023,0.133c0.397,3.864,3.666,6.91,7.639,6.91c3.975,0,7.263-3.046,7.639-6.933v-0.021
			c0-0.089,0.022-0.156,0.022-0.245c0-0.154,0.023-0.331,0.023-0.484C239.591,22.785,236.146,19.34,231.907,19.34 M238.84,27.443
			v0.133c0,0.067-0.023,0.132-0.023,0.177c-0.374,3.488-3.333,6.226-6.91,6.226c-3.533,0-6.469-2.649-6.912-6.071
			c0-0.045,0-0.09-0.021-0.154c-0.021-0.177-0.021-0.355-0.043-0.53c0.11-3.731,3.178-6.733,6.956-6.733
			C235.727,20.467,238.84,23.581,238.84,27.443C238.84,27.42,238.84,27.443,238.84,27.443"/>
		<path fill="#FBAA1D" d="M235.399,27.032l0.37-0.37c0.088-0.088,0.159-0.193,0.23-0.282c0.034,0,0.069,0.018,0.104,0.018
			c0.353,0,0.652-0.281,0.652-0.651c0-0.174-0.07-0.334-0.194-0.458c0.071-0.281,0.035-0.544-0.088-0.773
			c-0.281-0.528-1.055-0.74-2.164-0.581c-0.229,0.036-0.476,0.087-0.721,0.141c-0.336-1.356-0.934-2.341-1.76-2.341
			c-0.827,0-1.408,0.985-1.76,2.341c-0.246-0.071-0.493-0.105-0.722-0.141h-0.017c-0.069-0.281-0.317-0.493-0.615-0.493
			c-0.299,0-0.563,0.211-0.634,0.493c-0.422,0.087-0.739,0.282-0.898,0.581c-0.282,0.528-0.036,1.285,0.704,2.128
			c0.104,0.123,0.229,0.247,0.369,0.369c-0.932,0.898-1.442,1.831-1.073,2.519c0.229,0.403,0.738,0.631,1.478,0.631
			c0.211,0,0.44-0.017,0.687-0.053c0.23-0.034,0.476-0.088,0.723-0.14c0.334,1.355,0.932,2.34,1.758,2.34
			c0.264,0,0.51-0.105,0.738-0.299c0.071,0.036,0.16,0.054,0.248,0.054c0.351,0,0.652-0.282,0.652-0.651
			c0-0.175-0.071-0.335-0.195-0.458c0.123-0.299,0.23-0.634,0.317-0.986c0.248,0.07,0.493,0.106,0.722,0.14
			c0.248,0.036,0.477,0.053,0.687,0.053c0.738,0,1.249-0.209,1.478-0.631c0.283-0.529,0.036-1.285-0.704-2.13L235.399,27.032z
			 M234.361,24.445c0.229-0.034,0.441-0.052,0.634-0.052c0.527,0,0.898,0.123,1.021,0.369c0.052,0.088,0.069,0.211,0.052,0.352
			c-0.352,0.019-0.616,0.3-0.616,0.634c0,0.123,0.036,0.246,0.106,0.353c-0.052,0.07-0.122,0.14-0.176,0.21
			c-0.106,0.124-0.229,0.248-0.369,0.369c-0.354-0.299-0.74-0.597-1.162-0.877c-0.035-0.423-0.09-0.845-0.177-1.233
			C233.92,24.534,234.151,24.479,234.361,24.445 M232.583,28.423c-0.247,0.14-0.51,0.263-0.758,0.369
			c-0.246-0.121-0.51-0.245-0.757-0.369c-0.28-0.159-0.545-0.298-0.81-0.476c-0.016-0.298-0.033-0.598-0.033-0.932
			c0-0.317,0.017-0.633,0.036-0.934c0.247-0.158,0.51-0.315,0.81-0.475c0.247-0.141,0.511-0.265,0.757-0.369
			c0.248,0.123,0.512,0.246,0.758,0.369c0.282,0.16,0.545,0.3,0.808,0.475c0.02,0.301,0.036,0.599,0.036,0.934
			c0,0.317-0.018,0.634-0.036,0.932C233.129,28.123,232.848,28.282,232.583,28.423 M233.323,28.582
			c-0.035,0.264-0.071,0.51-0.123,0.757c-0.248-0.07-0.511-0.176-0.774-0.282c0.123-0.071,0.248-0.123,0.386-0.193
			C232.989,28.774,233.146,28.686,233.323,28.582 M231.212,29.074c-0.265,0.105-0.512,0.192-0.775,0.282
			c-0.053-0.248-0.087-0.494-0.123-0.759c0.157,0.105,0.334,0.194,0.509,0.281C230.965,28.934,231.088,29.004,231.212,29.074
			 M229.75,27.613c-0.264-0.193-0.51-0.387-0.738-0.581c0.229-0.193,0.474-0.388,0.738-0.58c0,0.192-0.016,0.387-0.016,0.58
			C229.734,27.226,229.734,27.42,229.75,27.613 M230.331,25.484c0.035-0.266,0.07-0.511,0.123-0.757
			c0.246,0.071,0.511,0.176,0.774,0.281c-0.123,0.07-0.248,0.123-0.386,0.195C230.667,25.29,230.489,25.378,230.331,25.484
			 M232.441,24.993c0.265-0.108,0.511-0.194,0.776-0.285c0.052,0.248,0.088,0.494,0.123,0.758c-0.16-0.104-0.336-0.193-0.511-0.281
			C232.689,25.132,232.566,25.061,232.441,24.993 M233.903,26.452c0.265,0.192,0.511,0.387,0.739,0.58
			c-0.229,0.194-0.474,0.388-0.739,0.581c0-0.193,0.019-0.387,0.019-0.581C233.903,26.839,233.903,26.644,233.903,26.452
			 M231.826,22.265c0.458,0,0.951,0.737,1.268,1.971c-0.405,0.122-0.846,0.28-1.268,0.474c-0.438-0.194-0.861-0.351-1.267-0.474
			C230.859,23.002,231.352,22.265,231.826,22.265 M228.273,26.328c-0.581-0.652-0.828-1.231-0.652-1.548
			c0.088-0.159,0.282-0.264,0.545-0.318c0.123,0.177,0.319,0.301,0.528,0.301c0.229,0,0.422-0.124,0.545-0.301h0.034
			c0.211,0.035,0.458,0.088,0.688,0.142c-0.072,0.388-0.142,0.809-0.177,1.23c-0.423,0.283-0.81,0.564-1.162,0.88
			C228.501,26.575,228.378,26.452,228.273,26.328 M229.275,29.62c-0.861,0.123-1.479,0-1.653-0.317
			c-0.211-0.387,0.158-1.125,1.002-1.937c0.353,0.3,0.739,0.6,1.163,0.88c0.036,0.422,0.087,0.844,0.176,1.231
			C229.734,29.531,229.486,29.583,229.275,29.62 M232.778,30.779c-0.352,0.02-0.616,0.301-0.616,0.634
			c0,0.087,0.018,0.159,0.052,0.229c-0.123,0.105-0.247,0.159-0.387,0.159c-0.458,0-0.95-0.739-1.267-1.971
			c0.405-0.124,0.844-0.282,1.267-0.474c0.439,0.193,0.861,0.349,1.266,0.474C233.006,30.2,232.9,30.517,232.778,30.779
			 M236.033,29.303c-0.176,0.317-0.793,0.438-1.654,0.317c-0.211-0.035-0.459-0.088-0.688-0.14c0.07-0.388,0.14-0.809,0.177-1.231
			c0.422-0.282,0.809-0.581,1.161-0.879l0.37,0.369C235.962,28.405,236.191,28.986,236.033,29.303 M232.46,27.032
			c0,0.352-0.281,0.65-0.652,0.65c-0.351,0-0.651-0.281-0.651-0.65c0-0.354,0.283-0.651,0.651-0.651
			C232.179,26.381,232.46,26.681,232.46,27.032"/>
	</g>
	<g>
		<path fill="#FBAA1D" d="M216.352,41.925c-5.52,0-10.023,4.505-10.023,10.023v2.053c0,5.498,4.504,10.002,10.023,10.002
			s10.024-4.504,10.024-10.023v-2.053C226.376,46.431,221.871,41.925,216.352,41.925 M208.117,58.021
			c-0.177-0.375-0.354-0.75-0.485-1.171c0.154,0.265,0.309,0.509,0.485,0.751V58.021z M209.199,59.743
			c-0.155-0.175-0.287-0.375-0.418-0.552v-0.684c0.131,0.154,0.264,0.308,0.418,0.439V59.743z M210.721,61.222
			c-0.287-0.222-0.575-0.486-0.839-0.729v-0.905c0.264,0.221,0.552,0.442,0.839,0.64V61.222z M212.289,62.216
			c-0.31-0.155-0.595-0.331-0.882-0.509v-1.082c0.287,0.155,0.574,0.31,0.882,0.442V62.216z M214.056,62.878
			c-0.375-0.088-0.75-0.221-1.104-0.354v-1.148c0.354,0.132,0.729,0.243,1.104,0.33V62.878z M216.043,63.165
			c-0.442-0.023-0.883-0.067-1.302-0.133v-1.191c0.419,0.065,0.86,0.112,1.302,0.133V63.165z M218.031,63.01
			c-0.42,0.088-0.861,0.133-1.303,0.156v-1.215c0.441-0.023,0.883-0.066,1.303-0.134V63.01z M219.819,62.48
			c-0.354,0.154-0.729,0.264-1.104,0.375v-1.191c0.375-0.088,0.75-0.198,1.104-0.332V62.48z M221.386,61.664
			c-0.288,0.198-0.574,0.353-0.884,0.507v-1.125c0.311-0.133,0.596-0.287,0.884-0.463V61.664z M222.887,60.427
			c-0.265,0.266-0.552,0.53-0.839,0.75v-1.016c0.287-0.199,0.574-0.418,0.839-0.64V60.427z M223.969,59.103
			c-0.134,0.2-0.267,0.375-0.398,0.552v-0.774c0.133-0.131,0.266-0.285,0.398-0.44V59.103z M224.655,57.911v-0.375
			c0.154-0.222,0.287-0.441,0.418-0.663C224.962,57.225,224.807,57.579,224.655,57.911 M216.352,61.111
			c-5.056,0-9.184-4.128-9.184-9.184c0-5.058,4.128-9.163,9.184-9.163s9.185,4.13,9.185,9.185
			C225.537,57.004,221.408,61.111,216.352,61.111"/>
		<path fill="#FBAA1D" d="M216.485,44.266c-4.239,0-7.683,3.444-7.683,7.683v0.177v0.177c0,0.064,0.021,0.198,0.021,0.286
			c0,0.045,0,0.089,0.023,0.133c0.397,3.864,3.666,6.91,7.639,6.91c3.975,0,7.263-3.046,7.639-6.933v-0.021
			c0-0.089,0.022-0.156,0.022-0.245c0-0.154,0.023-0.331,0.023-0.484C224.168,47.71,220.723,44.266,216.485,44.266 M223.417,52.368
			v0.133c0,0.067-0.023,0.132-0.023,0.177c-0.374,3.488-3.333,6.226-6.91,6.226c-3.533,0-6.469-2.649-6.912-6.071
			c0-0.045,0-0.09-0.021-0.154c-0.021-0.177-0.021-0.355-0.043-0.53c0.11-3.731,3.178-6.733,6.956-6.733
			C220.304,45.392,223.417,48.506,223.417,52.368C223.417,52.346,223.417,52.368,223.417,52.368"/>
		<path fill="#FBAA1D" d="M219.976,51.958l0.37-0.37c0.088-0.088,0.159-0.193,0.23-0.282c0.034,0,0.069,0.018,0.104,0.018
			c0.353,0,0.652-0.281,0.652-0.651c0-0.174-0.07-0.334-0.194-0.458c0.071-0.281,0.035-0.544-0.088-0.773
			c-0.281-0.528-1.055-0.74-2.164-0.581c-0.229,0.036-0.476,0.087-0.721,0.141c-0.336-1.356-0.934-2.341-1.76-2.341
			c-0.827,0-1.408,0.985-1.76,2.341c-0.246-0.071-0.493-0.105-0.722-0.141h-0.017c-0.069-0.281-0.317-0.493-0.615-0.493
			c-0.299,0-0.563,0.211-0.634,0.493c-0.422,0.087-0.739,0.282-0.898,0.581c-0.282,0.528-0.036,1.285,0.704,2.128
			c0.104,0.123,0.229,0.247,0.369,0.369c-0.932,0.898-1.442,1.831-1.073,2.519c0.229,0.403,0.738,0.631,1.478,0.631
			c0.211,0,0.44-0.017,0.687-0.053c0.23-0.034,0.476-0.088,0.723-0.14c0.334,1.355,0.932,2.34,1.758,2.34
			c0.264,0,0.51-0.105,0.738-0.299c0.071,0.036,0.16,0.054,0.248,0.054c0.351,0,0.652-0.282,0.652-0.651
			c0-0.175-0.071-0.335-0.195-0.458c0.123-0.299,0.23-0.634,0.317-0.986c0.248,0.07,0.493,0.106,0.722,0.14
			c0.248,0.036,0.477,0.053,0.687,0.053c0.738,0,1.249-0.209,1.478-0.631c0.283-0.529,0.036-1.285-0.704-2.13L219.976,51.958z
			 M218.938,49.37c0.229-0.034,0.441-0.052,0.634-0.052c0.527,0,0.898,0.123,1.021,0.369c0.052,0.088,0.069,0.211,0.052,0.352
			c-0.352,0.019-0.616,0.3-0.616,0.634c0,0.123,0.036,0.246,0.106,0.353c-0.052,0.07-0.122,0.14-0.176,0.21
			c-0.106,0.124-0.229,0.248-0.369,0.369c-0.354-0.299-0.74-0.597-1.162-0.877c-0.035-0.423-0.09-0.845-0.177-1.233
			C218.497,49.459,218.728,49.405,218.938,49.37 M217.16,53.348c-0.247,0.14-0.51,0.263-0.758,0.369
			c-0.246-0.121-0.51-0.245-0.757-0.369c-0.28-0.159-0.545-0.298-0.81-0.476c-0.016-0.298-0.033-0.598-0.033-0.932
			c0-0.317,0.017-0.633,0.036-0.934c0.247-0.158,0.51-0.315,0.81-0.475c0.247-0.141,0.511-0.265,0.757-0.369
			c0.248,0.123,0.512,0.246,0.758,0.369c0.282,0.16,0.545,0.3,0.808,0.475c0.02,0.301,0.036,0.599,0.036,0.934
			c0,0.317-0.018,0.634-0.036,0.932C217.706,53.048,217.426,53.207,217.16,53.348 M217.9,53.507
			c-0.035,0.264-0.071,0.51-0.123,0.757c-0.248-0.07-0.511-0.176-0.774-0.282c0.123-0.071,0.248-0.123,0.386-0.193
			C217.566,53.7,217.723,53.611,217.9,53.507 M215.789,54c-0.265,0.105-0.512,0.192-0.775,0.282
			c-0.053-0.248-0.087-0.494-0.123-0.759c0.157,0.105,0.334,0.194,0.509,0.281C215.542,53.859,215.665,53.929,215.789,54
			 M214.327,52.539c-0.264-0.193-0.51-0.387-0.738-0.581c0.229-0.193,0.474-0.388,0.738-0.58c0,0.192-0.016,0.387-0.016,0.58
			S214.311,52.346,214.327,52.539 M214.908,50.41c0.035-0.266,0.07-0.511,0.123-0.757c0.246,0.071,0.511,0.176,0.774,0.281
			c-0.123,0.07-0.248,0.123-0.386,0.195C215.244,50.215,215.066,50.304,214.908,50.41 M217.018,49.918
			c0.265-0.108,0.511-0.194,0.776-0.285c0.052,0.248,0.088,0.494,0.123,0.758c-0.16-0.104-0.336-0.193-0.511-0.281
			C217.266,50.057,217.143,49.986,217.018,49.918 M218.48,51.377c0.265,0.192,0.511,0.387,0.739,0.58
			c-0.229,0.194-0.474,0.388-0.739,0.581c0-0.193,0.019-0.387,0.019-0.581C218.48,51.765,218.48,51.569,218.48,51.377
			 M216.404,47.19c0.458,0,0.951,0.737,1.268,1.971c-0.405,0.122-0.846,0.28-1.268,0.474c-0.438-0.194-0.861-0.351-1.267-0.474
			C215.436,47.928,215.929,47.19,216.404,47.19 M212.85,51.253c-0.581-0.652-0.828-1.231-0.652-1.548
			c0.088-0.159,0.282-0.264,0.545-0.318c0.123,0.177,0.319,0.301,0.528,0.301c0.229,0,0.422-0.124,0.545-0.301h0.034
			c0.211,0.035,0.458,0.088,0.688,0.142c-0.072,0.388-0.142,0.809-0.177,1.23c-0.423,0.283-0.81,0.564-1.162,0.88
			C213.078,51.5,212.955,51.377,212.85,51.253 M213.852,54.545c-0.861,0.123-1.479,0-1.653-0.317
			c-0.211-0.387,0.158-1.125,1.002-1.937c0.353,0.3,0.739,0.6,1.163,0.88c0.036,0.422,0.087,0.844,0.176,1.231
			C214.311,54.457,214.063,54.508,213.852,54.545 M217.355,55.705c-0.352,0.02-0.616,0.301-0.616,0.634
			c0,0.087,0.018,0.159,0.052,0.229c-0.123,0.105-0.247,0.159-0.387,0.159c-0.458,0-0.95-0.739-1.267-1.971
			c0.405-0.124,0.844-0.282,1.267-0.474c0.439,0.193,0.861,0.349,1.266,0.474C217.583,55.125,217.477,55.442,217.355,55.705
			 M220.61,54.228c-0.176,0.317-0.793,0.438-1.654,0.317c-0.211-0.035-0.459-0.088-0.688-0.14c0.07-0.388,0.14-0.809,0.177-1.231
			c0.422-0.282,0.809-0.581,1.161-0.879l0.37,0.369C220.539,53.33,220.768,53.911,220.61,54.228 M217.037,51.958
			c0,0.352-0.281,0.65-0.652,0.65c-0.351,0-0.651-0.281-0.651-0.65c0-0.354,0.283-0.651,0.651-0.651
			C216.756,51.306,217.037,51.606,217.037,51.958"/>
	</g>
</g>
<g>
	<g>
		<path fill="#FBAA1D" d="M980.614,17c-5.521,0-10.023,4.505-10.023,10.023v2.053c0,5.498,4.504,10.002,10.023,10.002
			c5.519,0,10.023-4.504,10.023-10.023v-2.053C990.638,21.505,986.134,17,980.614,17 M972.38,33.095
			c-0.177-0.375-0.354-0.75-0.485-1.171c0.154,0.265,0.31,0.509,0.485,0.751V33.095z M973.462,34.818
			c-0.154-0.175-0.287-0.375-0.418-0.552v-0.684c0.131,0.154,0.264,0.308,0.418,0.439V34.818z M974.984,36.297
			c-0.286-0.222-0.575-0.486-0.84-0.729v-0.905c0.265,0.221,0.554,0.442,0.84,0.64V36.297z M976.552,37.291
			c-0.31-0.155-0.596-0.331-0.882-0.509V35.7c0.286,0.155,0.573,0.31,0.882,0.442V37.291z M978.319,37.953
			c-0.376-0.088-0.751-0.221-1.104-0.354v-1.148c0.354,0.132,0.729,0.243,1.104,0.33V37.953z M980.305,38.24
			c-0.441-0.023-0.883-0.067-1.303-0.133v-1.191c0.42,0.065,0.86,0.112,1.303,0.133V38.24z M982.294,38.084
			c-0.42,0.088-0.861,0.133-1.303,0.156v-1.215c0.44-0.023,0.883-0.066,1.303-0.134V38.084z M984.082,37.555
			c-0.354,0.154-0.729,0.264-1.104,0.375v-1.191c0.375-0.088,0.751-0.198,1.104-0.332V37.555z M985.649,36.739
			c-0.288,0.198-0.574,0.353-0.886,0.507V36.12c0.312-0.133,0.598-0.287,0.886-0.463V36.739z M987.149,35.501
			c-0.266,0.266-0.552,0.53-0.839,0.75v-1.016c0.287-0.199,0.573-0.418,0.839-0.64V35.501z M988.232,34.177
			c-0.135,0.2-0.268,0.375-0.397,0.552v-0.774c0.133-0.131,0.266-0.285,0.397-0.44V34.177z M988.918,32.985V32.61
			c0.154-0.222,0.286-0.441,0.419-0.663C989.225,32.299,989.069,32.653,988.918,32.985 M980.614,36.186
			c-5.056,0-9.185-4.128-9.185-9.184c0-5.058,4.129-9.163,9.185-9.163c5.057,0,9.186,4.13,9.186,9.185
			S985.671,36.186,980.614,36.186"/>
		<path fill="#FBAA1D" d="M980.747,19.34c-4.238,0-7.683,3.444-7.683,7.683V27.2v0.177c0,0.064,0.021,0.198,0.021,0.286
			c0,0.045,0,0.089,0.023,0.133c0.396,3.864,3.666,6.91,7.639,6.91c3.975,0,7.264-3.046,7.64-6.933v-0.021
			c0-0.089,0.022-0.156,0.022-0.245c0-0.154,0.022-0.331,0.022-0.484C988.43,22.785,984.986,19.34,980.747,19.34 M987.68,27.443
			v0.133c0,0.067-0.022,0.132-0.022,0.177c-0.375,3.488-3.334,6.226-6.91,6.226c-3.533,0-6.47-2.649-6.912-6.071
			c0-0.045,0-0.09-0.021-0.154c-0.021-0.177-0.021-0.355-0.043-0.53c0.108-3.731,3.178-6.733,6.954-6.733
			C984.567,20.467,987.68,23.581,987.68,27.443C987.68,27.42,987.68,27.443,987.68,27.443"/>
		<path fill="#FBAA1D" d="M984.239,27.032l0.369-0.37c0.089-0.088,0.158-0.193,0.229-0.282c0.034,0,0.068,0.018,0.104,0.018
			c0.353,0,0.65-0.281,0.65-0.651c0-0.174-0.068-0.334-0.192-0.458c0.07-0.281,0.034-0.544-0.088-0.773
			c-0.281-0.528-1.057-0.74-2.164-0.581c-0.229,0.036-0.477,0.087-0.722,0.141c-0.337-1.356-0.934-2.341-1.761-2.341
			s-1.408,0.985-1.76,2.341c-0.245-0.071-0.493-0.105-0.723-0.141h-0.018c-0.069-0.281-0.316-0.493-0.615-0.493
			s-0.563,0.211-0.633,0.493c-0.423,0.087-0.74,0.282-0.898,0.581c-0.281,0.528-0.034,1.285,0.704,2.128
			c0.104,0.123,0.229,0.247,0.368,0.369c-0.932,0.898-1.44,1.831-1.072,2.519c0.229,0.403,0.738,0.631,1.479,0.631
			c0.211,0,0.438-0.017,0.686-0.053c0.23-0.034,0.478-0.088,0.724-0.14c0.334,1.355,0.933,2.34,1.759,2.34
			c0.264,0,0.51-0.105,0.738-0.299c0.07,0.036,0.158,0.054,0.248,0.054c0.351,0,0.65-0.282,0.65-0.651
			c0-0.175-0.069-0.335-0.193-0.458c0.122-0.299,0.229-0.634,0.316-0.986c0.248,0.07,0.492,0.106,0.722,0.14
			c0.248,0.036,0.478,0.053,0.688,0.053c0.738,0,1.25-0.209,1.479-0.631c0.282-0.529,0.035-1.285-0.703-2.13L984.239,27.032z
			 M983.201,24.445c0.229-0.034,0.439-0.052,0.634-0.052c0.527,0,0.898,0.123,1.021,0.369c0.052,0.088,0.068,0.211,0.052,0.352
			c-0.353,0.019-0.615,0.3-0.615,0.634c0,0.123,0.035,0.246,0.104,0.353c-0.051,0.07-0.12,0.14-0.176,0.21
			c-0.104,0.124-0.229,0.248-0.368,0.369c-0.354-0.299-0.738-0.597-1.161-0.877c-0.034-0.423-0.091-0.845-0.178-1.233
			C982.76,24.534,982.991,24.479,983.201,24.445 M981.423,28.423c-0.246,0.14-0.51,0.263-0.758,0.369
			c-0.245-0.121-0.51-0.245-0.756-0.369c-0.281-0.159-0.546-0.298-0.812-0.476c-0.016-0.298-0.032-0.598-0.032-0.932
			c0-0.317,0.018-0.633,0.035-0.934c0.247-0.158,0.511-0.315,0.811-0.475c0.246-0.141,0.511-0.265,0.757-0.369
			c0.247,0.123,0.512,0.246,0.758,0.369c0.282,0.16,0.546,0.3,0.809,0.475c0.02,0.301,0.035,0.599,0.035,0.934
			c0,0.317-0.019,0.634-0.035,0.932C981.969,28.123,981.688,28.282,981.423,28.423 M982.163,28.582
			c-0.035,0.264-0.071,0.51-0.123,0.757c-0.248-0.07-0.511-0.176-0.773-0.282c0.123-0.071,0.248-0.123,0.386-0.193
			C981.829,28.774,981.986,28.686,982.163,28.582 M980.052,29.074c-0.265,0.105-0.512,0.192-0.774,0.282
			c-0.054-0.248-0.086-0.494-0.122-0.759c0.156,0.105,0.334,0.194,0.509,0.281C979.805,28.934,979.928,29.004,980.052,29.074
			 M978.591,27.613c-0.265-0.193-0.51-0.387-0.737-0.581c0.229-0.193,0.474-0.388,0.737-0.58c0,0.192-0.017,0.387-0.017,0.58
			C978.574,27.226,978.574,27.42,978.591,27.613 M979.171,25.484c0.035-0.266,0.07-0.511,0.123-0.757
			c0.246,0.071,0.512,0.176,0.774,0.281c-0.123,0.07-0.248,0.123-0.387,0.195C979.507,25.29,979.329,25.378,979.171,25.484
			 M981.281,24.993c0.265-0.108,0.511-0.194,0.775-0.285c0.052,0.248,0.088,0.494,0.123,0.758c-0.16-0.104-0.337-0.193-0.512-0.281
			C981.529,25.132,981.406,25.061,981.281,24.993 M982.743,26.452c0.266,0.192,0.511,0.387,0.739,0.58
			c-0.229,0.194-0.475,0.388-0.739,0.581c0-0.193,0.02-0.387,0.02-0.581C982.743,26.839,982.743,26.644,982.743,26.452
			 M980.667,22.265c0.458,0,0.951,0.737,1.268,1.971c-0.404,0.122-0.846,0.28-1.268,0.474c-0.439-0.194-0.861-0.351-1.268-0.474
			C979.698,23.002,980.192,22.265,980.667,22.265 M977.113,26.328c-0.581-0.652-0.827-1.231-0.651-1.548
			c0.088-0.159,0.281-0.264,0.545-0.318c0.123,0.177,0.318,0.301,0.528,0.301c0.229,0,0.423-0.124,0.546-0.301h0.033
			c0.212,0.035,0.458,0.088,0.688,0.142c-0.071,0.388-0.142,0.809-0.177,1.23c-0.423,0.283-0.81,0.564-1.162,0.88
			C977.341,26.575,977.218,26.452,977.113,26.328 M978.114,29.62c-0.861,0.123-1.479,0-1.652-0.317
			c-0.212-0.387,0.158-1.125,1.002-1.937c0.354,0.3,0.739,0.6,1.163,0.88c0.036,0.422,0.087,0.844,0.176,1.231
			C978.574,29.531,978.326,29.583,978.114,29.62 M981.618,30.779c-0.353,0.02-0.616,0.301-0.616,0.634
			c0,0.087,0.019,0.159,0.052,0.229c-0.123,0.105-0.247,0.159-0.387,0.159c-0.459,0-0.95-0.739-1.269-1.971
			c0.406-0.124,0.846-0.282,1.269-0.474c0.438,0.193,0.861,0.349,1.266,0.474C981.846,30.2,981.74,30.517,981.618,30.779
			 M984.873,29.303c-0.176,0.317-0.794,0.438-1.653,0.317c-0.211-0.035-0.459-0.088-0.688-0.14c0.068-0.388,0.14-0.809,0.176-1.231
			c0.423-0.282,0.809-0.581,1.162-0.879l0.369,0.369C984.802,28.405,985.03,28.986,984.873,29.303 M981.3,27.032
			c0,0.352-0.281,0.65-0.65,0.65c-0.352,0-0.651-0.281-0.651-0.65c0-0.354,0.283-0.651,0.651-0.651S981.3,26.681,981.3,27.032"/>
	</g>
	<g>
		<path fill="#FBAA1D" d="M1011.774,17c-5.521,0-10.023,4.505-10.023,10.023v2.053c0,5.498,4.504,10.002,10.023,10.002
			c5.519,0,10.023-4.504,10.023-10.023v-2.053C1021.799,21.505,1017.294,17,1011.774,17 M1003.54,33.095
			c-0.177-0.375-0.354-0.75-0.485-1.171c0.154,0.265,0.31,0.509,0.485,0.751V33.095z M1004.622,34.818
			c-0.154-0.175-0.287-0.375-0.418-0.552v-0.684c0.131,0.154,0.264,0.308,0.418,0.439V34.818z M1006.144,36.297
			c-0.285-0.222-0.574-0.486-0.839-0.729v-0.905c0.265,0.221,0.554,0.442,0.839,0.64V36.297z M1007.712,37.291
			c-0.31-0.155-0.596-0.331-0.882-0.509V35.7c0.286,0.155,0.573,0.31,0.882,0.442V37.291z M1009.479,37.953
			c-0.375-0.088-0.75-0.221-1.104-0.354v-1.148c0.354,0.132,0.729,0.243,1.104,0.33V37.953z M1011.466,38.24
			c-0.441-0.023-0.883-0.067-1.303-0.133v-1.191c0.42,0.065,0.86,0.112,1.303,0.133V38.24z M1013.454,38.084
			c-0.42,0.088-0.861,0.133-1.303,0.156v-1.215c0.44-0.023,0.883-0.066,1.303-0.134V38.084z M1015.242,37.555
			c-0.354,0.154-0.729,0.264-1.104,0.375v-1.191c0.375-0.088,0.751-0.198,1.104-0.332V37.555z M1016.809,36.739
			c-0.287,0.198-0.573,0.353-0.885,0.507V36.12c0.312-0.133,0.598-0.287,0.885-0.463V36.739z M1018.309,35.501
			c-0.265,0.266-0.551,0.53-0.838,0.75v-1.016c0.287-0.199,0.573-0.418,0.838-0.64V35.501z M1019.392,34.177
			c-0.134,0.2-0.267,0.375-0.396,0.552v-0.774c0.133-0.131,0.266-0.285,0.396-0.44V34.177z M1020.078,32.985V32.61
			c0.154-0.222,0.286-0.441,0.419-0.663C1020.385,32.299,1020.229,32.653,1020.078,32.985 M1011.774,36.186
			c-5.056,0-9.185-4.128-9.185-9.184c0-5.058,4.129-9.163,9.185-9.163c5.057,0,9.186,4.13,9.186,9.185
			S1016.831,36.186,1011.774,36.186"/>
		<path fill="#FBAA1D" d="M1011.907,19.34c-4.238,0-7.684,3.444-7.684,7.683V27.2v0.177c0,0.064,0.021,0.198,0.021,0.286
			c0,0.045,0,0.089,0.022,0.133c0.396,3.864,3.666,6.91,7.64,6.91c3.975,0,7.264-3.046,7.64-6.933v-0.021
			c0-0.089,0.022-0.156,0.022-0.245c0-0.154,0.022-0.331,0.022-0.484C1019.591,22.785,1016.146,19.34,1011.907,19.34
			 M1018.841,27.443v0.133c0,0.067-0.022,0.132-0.022,0.177c-0.375,3.488-3.334,6.226-6.91,6.226c-3.533,0-6.47-2.649-6.912-6.071
			c0-0.045,0-0.09-0.021-0.154c-0.021-0.177-0.021-0.355-0.043-0.53c0.109-3.731,3.179-6.733,6.955-6.733
			C1015.727,20.467,1018.841,23.581,1018.841,27.443C1018.841,27.42,1018.841,27.443,1018.841,27.443"/>
		<path fill="#FBAA1D" d="M1015.399,27.032l0.368-0.37c0.09-0.088,0.159-0.193,0.23-0.282c0.034,0,0.068,0.018,0.104,0.018
			c0.354,0,0.651-0.281,0.651-0.651c0-0.174-0.069-0.334-0.193-0.458c0.071-0.281,0.035-0.544-0.088-0.773
			c-0.28-0.528-1.056-0.74-2.164-0.581c-0.229,0.036-0.476,0.087-0.721,0.141c-0.337-1.356-0.934-2.341-1.761-2.341
			s-1.408,0.985-1.76,2.341c-0.245-0.071-0.493-0.105-0.723-0.141h-0.018c-0.069-0.281-0.316-0.493-0.615-0.493
			s-0.563,0.211-0.633,0.493c-0.423,0.087-0.74,0.282-0.898,0.581c-0.281,0.528-0.035,1.285,0.704,2.128
			c0.104,0.123,0.229,0.247,0.368,0.369c-0.932,0.898-1.441,1.831-1.072,2.519c0.229,0.403,0.738,0.631,1.479,0.631
			c0.211,0,0.438-0.017,0.686-0.053c0.23-0.034,0.478-0.088,0.724-0.14c0.334,1.355,0.933,2.34,1.759,2.34
			c0.264,0,0.51-0.105,0.737-0.299c0.071,0.036,0.159,0.054,0.248,0.054c0.352,0,0.651-0.282,0.651-0.651
			c0-0.175-0.07-0.335-0.194-0.458c0.122-0.299,0.23-0.634,0.317-0.986c0.248,0.07,0.492,0.106,0.722,0.14
			c0.248,0.036,0.478,0.053,0.688,0.053c0.738,0,1.25-0.209,1.479-0.631c0.282-0.529,0.035-1.285-0.704-2.13L1015.399,27.032z
			 M1014.361,24.445c0.229-0.034,0.439-0.052,0.634-0.052c0.526,0,0.897,0.123,1.021,0.369c0.052,0.088,0.068,0.211,0.052,0.352
			c-0.353,0.019-0.615,0.3-0.615,0.634c0,0.123,0.035,0.246,0.104,0.353c-0.051,0.07-0.121,0.14-0.176,0.21
			c-0.104,0.124-0.229,0.248-0.368,0.369c-0.354-0.299-0.738-0.597-1.162-0.877c-0.033-0.423-0.09-0.845-0.177-1.233
			C1013.921,24.534,1014.151,24.479,1014.361,24.445 M1012.583,28.423c-0.246,0.14-0.51,0.263-0.758,0.369
			c-0.245-0.121-0.51-0.245-0.756-0.369c-0.281-0.159-0.546-0.298-0.812-0.476c-0.016-0.298-0.033-0.598-0.033-0.932
			c0-0.317,0.019-0.633,0.036-0.934c0.247-0.158,0.511-0.315,0.811-0.475c0.246-0.141,0.511-0.265,0.757-0.369
			c0.247,0.123,0.512,0.246,0.758,0.369c0.282,0.16,0.546,0.3,0.809,0.475c0.02,0.301,0.035,0.599,0.035,0.934
			c0,0.317-0.019,0.634-0.035,0.932C1013.129,28.123,1012.848,28.282,1012.583,28.423 M1013.323,28.582
			c-0.035,0.264-0.071,0.51-0.123,0.757c-0.248-0.07-0.511-0.176-0.773-0.282c0.123-0.071,0.248-0.123,0.386-0.193
			C1012.989,28.774,1013.146,28.686,1013.323,28.582 M1011.212,29.074c-0.265,0.105-0.512,0.192-0.775,0.282
			c-0.053-0.248-0.086-0.494-0.122-0.759c0.157,0.105,0.334,0.194,0.51,0.281C1010.966,28.934,1011.089,29.004,1011.212,29.074
			 M1009.751,27.613c-0.265-0.193-0.51-0.387-0.738-0.581c0.229-0.193,0.475-0.388,0.738-0.58c0,0.192-0.017,0.387-0.017,0.58
			C1009.734,27.226,1009.734,27.42,1009.751,27.613 M1010.331,25.484c0.035-0.266,0.07-0.511,0.123-0.757
			c0.246,0.071,0.512,0.176,0.773,0.281c-0.122,0.07-0.247,0.123-0.386,0.195C1010.667,25.29,1010.489,25.378,1010.331,25.484
			 M1012.441,24.993c0.265-0.108,0.511-0.194,0.775-0.285c0.051,0.248,0.088,0.494,0.123,0.758c-0.16-0.104-0.337-0.193-0.512-0.281
			C1012.689,25.132,1012.566,25.061,1012.441,24.993 M1013.903,26.452c0.266,0.192,0.511,0.387,0.738,0.58
			c-0.229,0.194-0.474,0.388-0.738,0.581c0-0.193,0.02-0.387,0.02-0.581C1013.903,26.839,1013.903,26.644,1013.903,26.452
			 M1011.827,22.265c0.458,0,0.951,0.737,1.268,1.971c-0.404,0.122-0.846,0.28-1.268,0.474c-0.439-0.194-0.861-0.351-1.269-0.474
			C1010.858,23.002,1011.352,22.265,1011.827,22.265 M1008.273,26.328c-0.581-0.652-0.827-1.231-0.651-1.548
			c0.088-0.159,0.281-0.264,0.545-0.318c0.123,0.177,0.318,0.301,0.528,0.301c0.229,0,0.423-0.124,0.546-0.301h0.033
			c0.212,0.035,0.458,0.088,0.688,0.142c-0.072,0.388-0.142,0.809-0.177,1.23c-0.423,0.283-0.811,0.564-1.162,0.88
			C1008.501,26.575,1008.378,26.452,1008.273,26.328 M1009.274,29.62c-0.861,0.123-1.479,0-1.652-0.317
			c-0.212-0.387,0.158-1.125,1.002-1.937c0.353,0.3,0.739,0.6,1.163,0.88c0.036,0.422,0.087,0.844,0.176,1.231
			C1009.734,29.531,1009.486,29.583,1009.274,29.62 M1012.778,30.779c-0.353,0.02-0.616,0.301-0.616,0.634
			c0,0.087,0.019,0.159,0.052,0.229c-0.123,0.105-0.247,0.159-0.387,0.159c-0.459,0-0.95-0.739-1.269-1.971
			c0.406-0.124,0.846-0.282,1.269-0.474c0.438,0.193,0.86,0.349,1.266,0.474C1013.007,30.2,1012.9,30.517,1012.778,30.779
			 M1016.033,29.303c-0.176,0.317-0.794,0.438-1.653,0.317c-0.211-0.035-0.459-0.088-0.688-0.14c0.068-0.388,0.14-0.809,0.176-1.231
			c0.423-0.282,0.809-0.581,1.162-0.879l0.369,0.369C1015.962,28.405,1016.19,28.986,1016.033,29.303 M1012.46,27.032
			c0,0.352-0.281,0.65-0.651,0.65c-0.351,0-0.65-0.281-0.65-0.65c0-0.354,0.283-0.651,0.65-0.651
			C1012.178,26.381,1012.46,26.681,1012.46,27.032"/>
	</g>
	<g>
		<path fill="#FBAA1D" d="M996.352,41.925c-5.52,0-10.022,4.505-10.022,10.023v2.053c0,5.498,4.504,10.002,10.022,10.002
			c5.52,0,10.023-4.504,10.023-10.023v-2.053C1006.376,46.431,1001.872,41.925,996.352,41.925 M988.117,58.021
			c-0.177-0.375-0.354-0.75-0.485-1.171c0.154,0.265,0.31,0.509,0.485,0.751V58.021z M989.199,59.743
			c-0.155-0.175-0.286-0.375-0.418-0.552v-0.684c0.132,0.154,0.265,0.308,0.418,0.439V59.743z M990.721,61.222
			c-0.287-0.222-0.573-0.486-0.839-0.729v-0.905c0.266,0.221,0.552,0.442,0.839,0.64V61.222z M992.289,62.216
			c-0.311-0.155-0.595-0.331-0.882-0.509v-1.082c0.287,0.155,0.573,0.31,0.882,0.442V62.216z M994.055,62.878
			c-0.375-0.088-0.75-0.221-1.104-0.354v-1.148c0.354,0.132,0.729,0.243,1.104,0.33V62.878z M996.043,63.165
			c-0.442-0.023-0.884-0.067-1.302-0.133v-1.191c0.418,0.065,0.858,0.112,1.302,0.133V63.165z M998.032,63.01
			c-0.421,0.088-0.861,0.133-1.305,0.156v-1.215c0.44-0.023,0.884-0.066,1.305-0.134V63.01z M999.819,62.48
			c-0.354,0.154-0.729,0.264-1.104,0.375v-1.191c0.375-0.088,0.75-0.198,1.104-0.332V62.48z M1001.386,61.664
			c-0.288,0.198-0.573,0.353-0.884,0.507v-1.125c0.311-0.133,0.596-0.287,0.884-0.463V61.664z M1002.887,60.427
			c-0.266,0.266-0.553,0.53-0.84,0.75v-1.016c0.287-0.199,0.574-0.418,0.84-0.64V60.427z M1003.969,59.103
			c-0.134,0.2-0.267,0.375-0.397,0.552v-0.774c0.133-0.131,0.267-0.285,0.397-0.44V59.103z M1004.655,57.911v-0.375
			c0.153-0.222,0.287-0.441,0.418-0.663C1004.962,57.225,1004.807,57.579,1004.655,57.911 M996.352,61.111
			c-5.057,0-9.184-4.128-9.184-9.184c0-5.058,4.127-9.163,9.184-9.163s9.186,4.13,9.186,9.185
			C1005.537,57.004,1001.408,61.111,996.352,61.111"/>
		<path fill="#FBAA1D" d="M996.485,44.266c-4.239,0-7.685,3.444-7.685,7.683v0.177v0.177c0,0.064,0.021,0.198,0.021,0.286
			c0,0.045,0,0.089,0.022,0.133c0.397,3.864,3.665,6.91,7.641,6.91c3.975,0,7.262-3.046,7.639-6.933v-0.021
			c0-0.089,0.021-0.156,0.021-0.245c0-0.154,0.023-0.331,0.023-0.484C1004.168,47.71,1000.723,44.266,996.485,44.266
			 M1003.417,52.368v0.133c0,0.067-0.023,0.132-0.023,0.177c-0.372,3.488-3.333,6.226-6.909,6.226c-3.532,0-6.47-2.649-6.911-6.071
			c0-0.045,0-0.09-0.021-0.154c-0.021-0.177-0.021-0.355-0.043-0.53c0.11-3.731,3.179-6.733,6.956-6.733
			C1000.303,45.392,1003.417,48.506,1003.417,52.368C1003.417,52.346,1003.417,52.368,1003.417,52.368"/>
		<path fill="#FBAA1D" d="M999.976,51.958l0.37-0.37c0.088-0.088,0.158-0.193,0.229-0.282c0.034,0,0.068,0.018,0.104,0.018
			c0.354,0,0.652-0.281,0.652-0.651c0-0.174-0.07-0.334-0.194-0.458c0.071-0.281,0.034-0.544-0.089-0.773
			c-0.281-0.528-1.055-0.74-2.163-0.581c-0.229,0.036-0.476,0.087-0.722,0.141c-0.336-1.356-0.935-2.341-1.76-2.341
			c-0.827,0-1.408,0.985-1.761,2.341c-0.245-0.071-0.491-0.105-0.723-0.141h-0.017c-0.069-0.281-0.317-0.493-0.614-0.493
			c-0.3,0-0.564,0.211-0.635,0.493c-0.422,0.087-0.738,0.282-0.897,0.581c-0.282,0.528-0.036,1.285,0.704,2.128
			c0.104,0.123,0.229,0.247,0.369,0.369c-0.932,0.898-1.443,1.831-1.073,2.519c0.229,0.403,0.738,0.631,1.479,0.631
			c0.212,0,0.439-0.017,0.688-0.053c0.229-0.034,0.476-0.088,0.724-0.14c0.334,1.355,0.932,2.34,1.758,2.34
			c0.264,0,0.51-0.105,0.737-0.299c0.071,0.036,0.16,0.054,0.248,0.054c0.353,0,0.652-0.282,0.652-0.651
			c0-0.175-0.071-0.335-0.195-0.458c0.123-0.299,0.23-0.634,0.316-0.986c0.248,0.07,0.493,0.106,0.723,0.14
			c0.248,0.036,0.478,0.053,0.688,0.053c0.737,0,1.248-0.209,1.477-0.631c0.283-0.529,0.036-1.285-0.703-2.13L999.976,51.958z
			 M998.938,49.37c0.229-0.034,0.441-0.052,0.635-0.052c0.526,0,0.896,0.123,1.021,0.369c0.053,0.088,0.069,0.211,0.053,0.352
			c-0.352,0.019-0.615,0.3-0.615,0.634c0,0.123,0.036,0.246,0.105,0.353c-0.053,0.07-0.123,0.14-0.176,0.21
			c-0.106,0.124-0.229,0.248-0.369,0.369c-0.354-0.299-0.74-0.597-1.162-0.877c-0.035-0.423-0.09-0.845-0.177-1.233
			C998.497,49.459,998.727,49.405,998.938,49.37 M997.161,53.348c-0.247,0.14-0.51,0.263-0.758,0.369
			c-0.246-0.121-0.511-0.245-0.759-0.369c-0.278-0.159-0.545-0.298-0.809-0.476c-0.017-0.298-0.033-0.598-0.033-0.932
			c0-0.317,0.018-0.633,0.035-0.934c0.246-0.158,0.51-0.315,0.811-0.475c0.246-0.141,0.511-0.265,0.757-0.369
			c0.248,0.123,0.512,0.246,0.758,0.369c0.282,0.16,0.545,0.3,0.809,0.475c0.021,0.301,0.035,0.599,0.035,0.934
			c0,0.317-0.018,0.634-0.035,0.932C997.706,53.048,997.426,53.207,997.161,53.348 M997.9,53.507
			c-0.034,0.264-0.071,0.51-0.123,0.757c-0.248-0.07-0.512-0.176-0.774-0.282c0.123-0.071,0.248-0.123,0.387-0.193
			C997.565,53.7,997.723,53.611,997.9,53.507 M995.79,54c-0.266,0.105-0.513,0.192-0.775,0.282
			c-0.053-0.248-0.088-0.494-0.123-0.759c0.157,0.105,0.334,0.194,0.51,0.281C995.542,53.859,995.665,53.929,995.79,54
			 M994.327,52.539c-0.264-0.193-0.51-0.387-0.738-0.581c0.23-0.193,0.476-0.388,0.738-0.58c0,0.192-0.017,0.387-0.017,0.58
			S994.311,52.346,994.327,52.539 M994.909,50.41c0.034-0.266,0.069-0.511,0.123-0.757c0.245,0.071,0.51,0.176,0.772,0.281
			c-0.123,0.07-0.248,0.123-0.386,0.195C995.244,50.215,995.065,50.304,994.909,50.41 M997.018,49.918
			c0.267-0.108,0.512-0.194,0.775-0.285c0.053,0.248,0.089,0.494,0.123,0.758c-0.159-0.104-0.336-0.193-0.51-0.281
			C997.266,50.057,997.143,49.986,997.018,49.918 M998.48,51.377c0.265,0.192,0.511,0.387,0.738,0.58
			c-0.229,0.194-0.475,0.388-0.738,0.581c0-0.193,0.019-0.387,0.019-0.581C998.48,51.765,998.48,51.569,998.48,51.377
			 M996.403,47.19c0.459,0,0.95,0.737,1.269,1.971c-0.405,0.122-0.847,0.28-1.269,0.474c-0.438-0.194-0.861-0.351-1.267-0.474
			C995.436,47.928,995.929,47.19,996.403,47.19 M992.85,51.253c-0.581-0.652-0.828-1.231-0.651-1.548
			c0.089-0.159,0.283-0.264,0.546-0.318c0.122,0.177,0.318,0.301,0.528,0.301c0.229,0,0.422-0.124,0.545-0.301h0.034
			c0.211,0.035,0.457,0.088,0.688,0.142c-0.072,0.388-0.144,0.809-0.177,1.23c-0.423,0.283-0.811,0.564-1.162,0.88
			C993.078,51.5,992.955,51.377,992.85,51.253 M993.852,54.545c-0.86,0.123-1.479,0-1.653-0.317
			c-0.211-0.387,0.158-1.125,1.003-1.937c0.353,0.3,0.739,0.6,1.163,0.88c0.035,0.422,0.088,0.844,0.176,1.231
			C994.311,54.457,994.063,54.508,993.852,54.545 M997.354,55.705c-0.352,0.02-0.614,0.301-0.614,0.634
			c0,0.087,0.018,0.159,0.052,0.229c-0.123,0.105-0.247,0.159-0.388,0.159c-0.457,0-0.949-0.739-1.267-1.971
			c0.404-0.124,0.845-0.282,1.267-0.474c0.438,0.193,0.86,0.349,1.266,0.474C997.583,55.125,997.477,55.442,997.354,55.705
			 M1000.61,54.228c-0.177,0.317-0.793,0.438-1.654,0.317c-0.211-0.035-0.459-0.088-0.688-0.14c0.07-0.388,0.142-0.809,0.179-1.231
			c0.422-0.282,0.809-0.581,1.159-0.879l0.37,0.369C1000.54,53.33,1000.768,53.911,1000.61,54.228 M997.038,51.958
			c0,0.352-0.281,0.65-0.652,0.65c-0.351,0-0.65-0.281-0.65-0.65c0-0.354,0.281-0.651,0.65-0.651
			C996.757,51.306,997.038,51.606,997.038,51.958"/>
	</g>
</g>
<g>
	<g>
		<path fill="#FBA919" d="M984.683,146.673c-0.011-0.144-0.13-0.254-0.272-0.254h-4.939v-1.372c0-4.388-3.568-7.957-7.957-7.957
			c-4.387,0-7.957,3.569-7.957,7.957v1.372h-4.938c-0.144,0-0.263,0.11-0.273,0.254l-1.92,25.244
			c-0.007,0.075,0.021,0.151,0.072,0.207c0.052,0.058,0.124,0.088,0.201,0.088h29.634c0.076,0,0.148-0.03,0.201-0.088
			c0.052-0.056,0.078-0.131,0.072-0.207L984.683,146.673z M965.752,145.047c0-3.177,2.585-5.762,5.762-5.762
			c3.179,0,5.763,2.585,5.763,5.762v1.372h-11.523L965.752,145.047L965.752,145.047z M964.654,154.104
			c-1.515,0-2.744-1.231-2.744-2.744c0-1.096,0.549-2.082,1.646-2.516v2.516c0,0.604,0.492,1.098,1.099,1.098
			c0.604,0,1.098-0.492,1.098-1.098v-2.514c1.097,0.434,1.646,1.428,1.646,2.514C967.398,152.871,966.167,154.104,964.654,154.104z
			 M978.373,154.104c-1.513,0-2.743-1.231-2.743-2.744c0-1.096,0.549-2.082,1.646-2.516v2.516c0,0.604,0.492,1.098,1.098,1.098
			c0.604,0,1.098-0.492,1.098-1.098v-2.514c1.099,0.434,1.646,1.428,1.646,2.514C981.117,152.871,979.886,154.104,978.373,154.104z"
			/>
	</g>
</g>
<path fill="#FBA919" d="M941.865,157.136c0-12.239,7.414-22.747,17.995-27.28c1.898-1.666,3.954-3.157,6.145-4.446l-21.379-11.13
	c-0.564-0.295-1.246-0.235-1.754,0.146c-7.229,5.473-15.731,8.359-24.584,8.359c-8.854,0-17.356-2.891-24.587-8.359
	c-0.509-0.383-1.19-0.439-1.756-0.146l-25.563,13.31c-1.646,0.854-2.97,2.267-3.725,3.966l-16.476,37.108
	c-1.138,2.558-0.902,5.483,0.623,7.83c1.525,2.346,4.104,3.746,6.904,3.746h97.735c-0.492-0.855-0.943-1.735-1.373-2.63
	C944.991,172.284,941.865,165.077,941.865,157.136z"/>
<g>
	<path fill="#FBAA1D" d="M320.558,103.055c-5.52,0-10.023,4.504-10.023,10.022v2.054c0,5.498,4.504,10.002,10.023,10.002
		s10.024-4.504,10.024-10.023v-2.053C330.582,107.559,326.077,103.055,320.558,103.055 M312.323,119.15
		c-0.177-0.375-0.354-0.75-0.485-1.172c0.154,0.266,0.309,0.51,0.485,0.75V119.15z M313.405,120.873
		c-0.155-0.176-0.287-0.375-0.418-0.553v-0.684c0.131,0.154,0.264,0.309,0.418,0.439V120.873z M314.927,122.352
		c-0.287-0.223-0.575-0.486-0.839-0.729v-0.906c0.264,0.221,0.552,0.443,0.839,0.641V122.352z M316.495,123.346
		c-0.31-0.156-0.595-0.332-0.882-0.51v-1.082c0.287,0.156,0.574,0.311,0.882,0.443V123.346z M318.262,124.008
		c-0.375-0.088-0.75-0.221-1.104-0.354v-1.148c0.354,0.131,0.729,0.242,1.104,0.33V124.008z M320.249,124.295
		c-0.442-0.023-0.883-0.068-1.302-0.133v-1.191c0.419,0.064,0.86,0.111,1.302,0.133V124.295z M322.237,124.139
		c-0.42,0.088-0.861,0.133-1.303,0.156v-1.215c0.441-0.023,0.883-0.066,1.303-0.135V124.139z M324.025,123.609
		c-0.354,0.154-0.729,0.264-1.104,0.375v-1.191c0.375-0.088,0.75-0.197,1.104-0.332V123.609z M325.592,122.793
		c-0.289,0.199-0.574,0.354-0.885,0.508v-1.127c0.311-0.133,0.596-0.287,0.885-0.463V122.793z M327.092,121.555
		c-0.265,0.268-0.552,0.531-0.838,0.75v-1.016c0.286-0.199,0.573-0.418,0.838-0.639V121.555z M328.174,120.23
		c-0.134,0.201-0.267,0.375-0.397,0.553v-0.773c0.133-0.131,0.266-0.285,0.397-0.439V120.23z M328.861,119.039v-0.375
		c0.153-0.221,0.287-0.441,0.418-0.662C329.167,118.354,329.012,118.707,328.861,119.039 M320.558,122.24
		c-5.056,0-9.184-4.127-9.184-9.184c0-5.059,4.128-9.164,9.184-9.164s9.185,4.131,9.185,9.186S325.614,122.24,320.558,122.24"/>
	<path fill="#FBAA1D" d="M320.69,105.395c-4.239,0-7.683,3.443-7.683,7.683v0.177v0.178c0,0.063,0.021,0.197,0.021,0.285
		c0,0.045,0,0.09,0.023,0.133c0.397,3.865,3.666,6.91,7.639,6.91c3.975,0,7.263-3.045,7.639-6.933v-0.021
		c0-0.09,0.021-0.156,0.021-0.246c0-0.153,0.023-0.33,0.023-0.483C328.374,108.84,324.928,105.395,320.69,105.395 M327.623,113.497
		v0.134c0,0.066-0.022,0.131-0.022,0.176c-0.375,3.488-3.334,6.227-6.91,6.227c-3.533,0-6.469-2.648-6.912-6.07
		c0-0.046,0-0.091-0.021-0.154c-0.021-0.178-0.021-0.355-0.043-0.53c0.11-3.731,3.178-6.733,6.956-6.733
		C324.51,106.521,327.623,109.635,327.623,113.497C327.623,113.475,327.623,113.497,327.623,113.497"/>
	<path fill="#FBAA1D" d="M324.182,113.086l0.369-0.369c0.088-0.088,0.16-0.193,0.23-0.283c0.034,0,0.068,0.019,0.104,0.019
		c0.354,0,0.652-0.28,0.652-0.651c0-0.174-0.07-0.334-0.193-0.457c0.07-0.281,0.035-0.545-0.088-0.773
		c-0.281-0.528-1.056-0.74-2.164-0.581c-0.229,0.036-0.477,0.087-0.722,0.142c-0.336-1.356-0.934-2.342-1.76-2.342
		c-0.827,0-1.408,0.985-1.76,2.342c-0.246-0.072-0.493-0.105-0.722-0.142h-0.017c-0.069-0.281-0.317-0.493-0.615-0.493
		c-0.299,0-0.563,0.211-0.634,0.493c-0.422,0.087-0.739,0.282-0.898,0.581c-0.282,0.527-0.036,1.285,0.704,2.128
		c0.104,0.123,0.229,0.247,0.369,0.369c-0.932,0.897-1.442,1.831-1.073,2.519c0.229,0.404,0.738,0.631,1.478,0.631
		c0.211,0,0.44-0.016,0.687-0.053c0.23-0.033,0.476-0.088,0.723-0.139c0.334,1.354,0.932,2.34,1.758,2.34
		c0.264,0,0.51-0.105,0.738-0.301c0.071,0.037,0.16,0.055,0.248,0.055c0.352,0,0.652-0.281,0.652-0.65
		c0-0.176-0.07-0.336-0.195-0.459c0.123-0.299,0.23-0.633,0.317-0.984c0.248,0.068,0.493,0.105,0.722,0.139
		c0.248,0.037,0.478,0.053,0.688,0.053c0.738,0,1.249-0.209,1.479-0.631c0.282-0.529,0.035-1.285-0.705-2.13L324.182,113.086z
		 M323.143,110.499c0.229-0.034,0.441-0.052,0.635-0.052c0.527,0,0.898,0.123,1.021,0.369c0.051,0.088,0.068,0.211,0.051,0.352
		c-0.352,0.02-0.615,0.301-0.615,0.635c0,0.123,0.035,0.246,0.105,0.353c-0.052,0.069-0.121,0.14-0.176,0.21
		c-0.105,0.124-0.229,0.248-0.369,0.369c-0.354-0.299-0.74-0.598-1.162-0.877c-0.035-0.424-0.09-0.846-0.177-1.233
		C322.703,110.588,322.934,110.533,323.143,110.499 M321.366,114.477c-0.247,0.141-0.51,0.264-0.758,0.369
		c-0.246-0.121-0.51-0.244-0.757-0.369c-0.28-0.158-0.545-0.297-0.81-0.476c-0.016-0.298-0.033-0.598-0.033-0.932
		c0-0.317,0.017-0.634,0.036-0.935c0.247-0.158,0.51-0.314,0.81-0.475c0.247-0.141,0.511-0.266,0.757-0.369
		c0.248,0.123,0.512,0.246,0.758,0.369c0.282,0.16,0.545,0.301,0.808,0.475c0.021,0.301,0.037,0.6,0.037,0.935
		c0,0.317-0.019,0.634-0.037,0.932C321.912,114.178,321.631,114.336,321.366,114.477 M322.106,114.637
		c-0.035,0.264-0.071,0.51-0.123,0.756c-0.248-0.068-0.511-0.176-0.774-0.281c0.123-0.07,0.248-0.123,0.386-0.193
		C321.772,114.828,321.928,114.74,322.106,114.637 M319.995,115.129c-0.265,0.105-0.512,0.191-0.775,0.281
		c-0.053-0.248-0.087-0.494-0.123-0.758c0.157,0.104,0.334,0.193,0.509,0.279C319.748,114.988,319.871,115.059,319.995,115.129
		 M318.533,113.667c-0.264-0.192-0.51-0.387-0.738-0.581c0.229-0.193,0.474-0.388,0.738-0.58c0,0.192-0.016,0.387-0.016,0.58
		C318.517,113.28,318.517,113.475,318.533,113.667 M319.114,111.538c0.035-0.267,0.07-0.511,0.123-0.757
		c0.246,0.07,0.511,0.176,0.774,0.281c-0.123,0.07-0.248,0.123-0.386,0.195C319.45,111.344,319.271,111.432,319.114,111.538
		 M321.224,111.047c0.265-0.107,0.511-0.193,0.776-0.285c0.052,0.248,0.089,0.494,0.123,0.758c-0.159-0.104-0.336-0.192-0.511-0.28
		C321.472,111.186,321.349,111.115,321.224,111.047 M322.686,112.506c0.265,0.192,0.511,0.387,0.738,0.58
		c-0.229,0.194-0.474,0.389-0.738,0.581c0-0.192,0.019-0.387,0.019-0.581C322.686,112.893,322.686,112.698,322.686,112.506
		 M320.609,108.319c0.458,0,0.951,0.737,1.269,1.971c-0.406,0.122-0.847,0.28-1.269,0.474c-0.438-0.193-0.861-0.351-1.267-0.474
		C319.642,109.057,320.135,108.319,320.609,108.319 M317.056,112.383c-0.581-0.652-0.828-1.231-0.652-1.549
		c0.088-0.158,0.282-0.264,0.545-0.318c0.123,0.178,0.319,0.302,0.528,0.302c0.229,0,0.422-0.124,0.545-0.302h0.034
		c0.211,0.035,0.458,0.088,0.688,0.143c-0.072,0.389-0.142,0.809-0.177,1.23c-0.423,0.283-0.81,0.563-1.162,0.879
		C317.284,112.629,317.161,112.506,317.056,112.383 M318.058,115.674c-0.861,0.123-1.479,0-1.653-0.316
		c-0.211-0.387,0.158-1.125,1.002-1.938c0.353,0.301,0.739,0.6,1.163,0.881c0.036,0.422,0.087,0.844,0.176,1.23
		C318.517,115.586,318.269,115.637,318.058,115.674 M321.561,116.834c-0.352,0.02-0.616,0.301-0.616,0.633
		c0,0.088,0.018,0.16,0.052,0.23c-0.123,0.104-0.247,0.158-0.387,0.158c-0.458,0-0.95-0.738-1.267-1.971
		c0.405-0.125,0.844-0.283,1.267-0.475c0.439,0.193,0.861,0.35,1.266,0.475C321.789,116.254,321.682,116.572,321.561,116.834
		 M324.816,115.357c-0.177,0.316-0.793,0.438-1.654,0.316c-0.211-0.035-0.459-0.088-0.688-0.139c0.07-0.389,0.141-0.811,0.178-1.232
		c0.422-0.281,0.809-0.58,1.16-0.879l0.371,0.369C324.745,114.459,324.973,115.041,324.816,115.357 M321.243,113.086
		c0,0.352-0.281,0.65-0.652,0.65c-0.351,0-0.651-0.281-0.651-0.65c0-0.354,0.283-0.65,0.651-0.65
		C320.962,112.436,321.243,112.735,321.243,113.086"/>
</g>
<g>
	<path fill="#FBAA1D" d="M711.558,103.055c-5.52,0-10.023,4.504-10.023,10.022v2.054c0,5.498,4.504,10.002,10.023,10.002
		s10.023-4.504,10.023-10.023v-2.053C721.581,107.559,717.077,103.055,711.558,103.055 M703.323,119.15
		c-0.178-0.375-0.354-0.75-0.485-1.172c0.153,0.266,0.309,0.51,0.485,0.75V119.15z M704.405,120.873
		c-0.156-0.176-0.287-0.375-0.418-0.553v-0.684c0.131,0.154,0.264,0.309,0.418,0.439V120.873z M705.927,122.352
		c-0.287-0.223-0.575-0.486-0.839-0.729v-0.906c0.264,0.221,0.552,0.443,0.839,0.641V122.352z M707.495,123.346
		c-0.311-0.156-0.596-0.332-0.883-0.51v-1.082c0.287,0.156,0.574,0.311,0.883,0.443V123.346z M709.262,124.008
		c-0.375-0.088-0.75-0.221-1.104-0.354v-1.148c0.354,0.131,0.729,0.242,1.104,0.33V124.008z M711.249,124.295
		c-0.442-0.023-0.883-0.068-1.303-0.133v-1.191c0.42,0.064,0.86,0.111,1.303,0.133V124.295z M713.237,124.139
		c-0.42,0.088-0.861,0.133-1.304,0.156v-1.215c0.44-0.023,0.884-0.066,1.304-0.135V124.139z M715.024,123.609
		c-0.354,0.154-0.729,0.264-1.104,0.375v-1.191c0.375-0.088,0.75-0.197,1.104-0.332V123.609z M716.593,122.793
		c-0.289,0.199-0.574,0.354-0.885,0.508v-1.127c0.311-0.133,0.596-0.287,0.885-0.463V122.793z M718.093,121.555
		c-0.266,0.268-0.553,0.531-0.838,0.75v-1.016c0.285-0.199,0.572-0.418,0.838-0.639V121.555z M719.175,120.23
		c-0.135,0.201-0.268,0.375-0.398,0.553v-0.773c0.133-0.131,0.266-0.285,0.398-0.439V120.23z M719.86,119.039v-0.375
		c0.154-0.221,0.287-0.441,0.418-0.662C720.167,118.354,720.013,118.707,719.86,119.039 M711.558,122.24
		c-5.057,0-9.184-4.127-9.184-9.184c0-5.059,4.127-9.164,9.184-9.164s9.186,4.131,9.186,9.186S716.614,122.24,711.558,122.24"/>
	<path fill="#FBAA1D" d="M711.69,105.395c-4.24,0-7.684,3.443-7.684,7.683v0.177v0.178c0,0.063,0.021,0.197,0.021,0.285
		c0,0.045,0,0.09,0.022,0.133c0.397,3.865,3.666,6.91,7.64,6.91c3.975,0,7.262-3.045,7.639-6.933v-0.021
		c0-0.09,0.021-0.156,0.021-0.246c0-0.153,0.023-0.33,0.023-0.483C719.374,108.84,715.929,105.395,711.69,105.395 M718.622,113.497
		v0.134c0,0.066-0.021,0.131-0.021,0.176c-0.375,3.488-3.334,6.227-6.91,6.227c-3.533,0-6.47-2.648-6.912-6.07
		c0-0.046,0-0.091-0.021-0.154c-0.021-0.178-0.021-0.355-0.043-0.53c0.109-3.731,3.178-6.733,6.956-6.733
		C715.511,106.521,718.622,109.635,718.622,113.497C718.622,113.475,718.622,113.497,718.622,113.497"/>
	<path fill="#FBAA1D" d="M715.183,113.086l0.369-0.369c0.088-0.088,0.16-0.193,0.23-0.283c0.033,0,0.068,0.019,0.104,0.019
		c0.354,0,0.652-0.28,0.652-0.651c0-0.174-0.07-0.334-0.193-0.457c0.07-0.281,0.035-0.545-0.088-0.773
		c-0.281-0.528-1.057-0.74-2.164-0.581c-0.23,0.036-0.477,0.087-0.723,0.142c-0.336-1.356-0.934-2.342-1.76-2.342
		s-1.408,0.985-1.76,2.342c-0.246-0.072-0.492-0.105-0.722-0.142h-0.017c-0.07-0.281-0.317-0.493-0.615-0.493
		c-0.299,0-0.563,0.211-0.635,0.493c-0.422,0.087-0.738,0.282-0.897,0.581c-0.282,0.527-0.036,1.285,0.704,2.128
		c0.104,0.123,0.229,0.247,0.369,0.369c-0.932,0.897-1.442,1.831-1.073,2.519c0.229,0.404,0.737,0.631,1.478,0.631
		c0.211,0,0.44-0.016,0.688-0.053c0.23-0.033,0.477-0.088,0.723-0.139c0.334,1.354,0.932,2.34,1.758,2.34
		c0.264,0,0.51-0.105,0.738-0.301c0.071,0.037,0.16,0.055,0.248,0.055c0.352,0,0.652-0.281,0.652-0.65
		c0-0.176-0.07-0.336-0.195-0.459c0.123-0.299,0.23-0.633,0.316-0.984c0.248,0.068,0.494,0.105,0.723,0.139
		c0.248,0.037,0.477,0.053,0.688,0.053c0.738,0,1.248-0.209,1.479-0.631c0.281-0.529,0.035-1.285-0.705-2.13L715.183,113.086z
		 M714.144,110.499c0.229-0.034,0.441-0.052,0.635-0.052c0.527,0,0.898,0.123,1.021,0.369c0.051,0.088,0.068,0.211,0.051,0.352
		c-0.352,0.02-0.615,0.301-0.615,0.635c0,0.123,0.035,0.246,0.105,0.353c-0.053,0.069-0.121,0.14-0.176,0.21
		c-0.105,0.124-0.229,0.248-0.369,0.369c-0.354-0.299-0.74-0.598-1.162-0.877c-0.035-0.424-0.09-0.846-0.178-1.233
		C713.702,110.588,713.935,110.533,714.144,110.499 M712.366,114.477c-0.248,0.141-0.51,0.264-0.758,0.369
		c-0.246-0.121-0.511-0.244-0.758-0.369c-0.279-0.158-0.545-0.297-0.811-0.476c-0.016-0.298-0.032-0.598-0.032-0.932
		c0-0.317,0.017-0.634,0.036-0.935c0.246-0.158,0.51-0.314,0.81-0.475c0.247-0.141,0.511-0.266,0.757-0.369
		c0.248,0.123,0.512,0.246,0.758,0.369c0.283,0.16,0.545,0.301,0.809,0.475c0.02,0.301,0.037,0.6,0.037,0.935
		c0,0.317-0.02,0.634-0.037,0.932C712.911,114.178,712.632,114.336,712.366,114.477 M713.106,114.637
		c-0.035,0.264-0.072,0.51-0.123,0.756c-0.248-0.068-0.512-0.176-0.775-0.281c0.123-0.07,0.248-0.123,0.387-0.193
		C712.772,114.828,712.929,114.74,713.106,114.637 M710.995,115.129c-0.266,0.105-0.512,0.191-0.775,0.281
		c-0.053-0.248-0.087-0.494-0.123-0.758c0.157,0.104,0.334,0.193,0.51,0.279C710.747,114.988,710.87,115.059,710.995,115.129
		 M709.532,113.667c-0.264-0.192-0.51-0.387-0.737-0.581c0.229-0.193,0.474-0.388,0.737-0.58c0,0.192-0.016,0.387-0.016,0.58
		C709.517,113.28,709.517,113.475,709.532,113.667 M710.114,111.538c0.035-0.267,0.069-0.511,0.123-0.757
		c0.246,0.07,0.51,0.176,0.773,0.281c-0.123,0.07-0.248,0.123-0.387,0.195C710.45,111.344,710.271,111.432,710.114,111.538
		 M712.224,111.047c0.266-0.107,0.512-0.193,0.775-0.285c0.053,0.248,0.09,0.494,0.123,0.758c-0.158-0.104-0.336-0.192-0.51-0.28
		C712.472,111.186,712.349,111.115,712.224,111.047 M713.687,112.506c0.264,0.192,0.51,0.387,0.738,0.58
		c-0.229,0.194-0.475,0.389-0.738,0.581c0-0.192,0.018-0.387,0.018-0.581C713.687,112.893,713.687,112.698,713.687,112.506
		 M711.608,108.319c0.459,0,0.951,0.737,1.27,1.971c-0.406,0.122-0.848,0.28-1.27,0.474c-0.438-0.193-0.861-0.351-1.267-0.474
		C710.642,109.057,711.135,108.319,711.608,108.319 M708.056,112.383c-0.581-0.652-0.828-1.231-0.652-1.549
		c0.088-0.158,0.282-0.264,0.545-0.318c0.123,0.178,0.319,0.302,0.528,0.302c0.229,0,0.423-0.124,0.545-0.302h0.034
		c0.211,0.035,0.458,0.088,0.688,0.143c-0.071,0.389-0.142,0.809-0.176,1.23c-0.424,0.283-0.811,0.563-1.162,0.879
		C708.284,112.629,708.161,112.506,708.056,112.383 M709.058,115.674c-0.861,0.123-1.479,0-1.652-0.316
		c-0.211-0.387,0.157-1.125,1.002-1.938c0.353,0.301,0.738,0.6,1.162,0.881c0.036,0.422,0.088,0.844,0.176,1.23
		C709.517,115.586,709.269,115.637,709.058,115.674 M712.561,116.834c-0.353,0.02-0.616,0.301-0.616,0.633
		c0,0.088,0.019,0.16,0.053,0.23c-0.123,0.104-0.248,0.158-0.387,0.158c-0.459,0-0.951-0.738-1.268-1.971
		c0.404-0.125,0.844-0.283,1.268-0.475c0.438,0.193,0.86,0.35,1.266,0.475C712.788,116.254,712.683,116.572,712.561,116.834
		 M715.815,115.357c-0.176,0.316-0.793,0.438-1.654,0.316c-0.211-0.035-0.459-0.088-0.688-0.139c0.07-0.389,0.141-0.811,0.178-1.232
		c0.422-0.281,0.809-0.58,1.16-0.879l0.371,0.369C715.745,114.459,715.974,115.041,715.815,115.357 M712.243,113.086
		c0,0.352-0.281,0.65-0.652,0.65c-0.352,0-0.65-0.281-0.65-0.65c0-0.354,0.282-0.65,0.65-0.65
		C711.962,112.436,712.243,112.735,712.243,113.086"/>
</g>
</svg>
