<?xml version="1.0" encoding="utf-8"?>
<!-- Generator: Adobe Illustrator 16.0.0, SVG Export Plug-In . SVG Version: 6.00 Build 0)  -->
<!DOCTYPE svg PUBLIC "-//W3C//DTD SVG 1.1//EN" "http://www.w3.org/Graphics/SVG/1.1/DTD/svg11.dtd">
<svg version="1.1" id="Layer_1" xmlns="http://www.w3.org/2000/svg" xmlns:xlink="http://www.w3.org/1999/xlink" x="0px" y="0px"
	 width="200px" height="200px" viewBox="0 0 200 200" enable-background="new 0 0 200 200" xml:space="preserve">
<g>
	<g>
		<g>
			<path fill="#FBA919" d="M96.039,39.936c-1.33,0-2.399,1.078-2.399,2.402c0,1.316,1.069,2.394,2.399,2.394
				c1.312,0,2.382-1.078,2.382-2.394C98.42,41.014,97.351,39.936,96.039,39.936z M104.815,39.936c-1.321,0-2.387,1.078-2.387,2.402
				c0,1.316,1.065,2.394,2.387,2.394c1.317,0,2.393-1.078,2.393-2.394C107.208,41.014,106.133,39.936,104.815,39.936z
				 M84.597,21.143l1.689,1.049l5.829,15.13c0.175,0.461,0.617,0.767,1.114,0.767h14.388c0.495,0,0.945-0.306,1.11-0.767
				l4.788-12.46c0.146-0.372,0.089-0.789-0.133-1.109c-0.22-0.327-0.588-0.518-0.977-0.518H91.031l-1.231-3.15
				c-0.156-0.404-0.441-0.745-0.815-0.979l-2.262-1.397c-0.944-0.593-2.196-0.304-2.777,0.652
				C83.36,19.309,83.652,20.556,84.597,21.143z M144.756,53.815h-4.978V8.103c0-1.933-1.556-3.509-3.493-3.509H63.514
				c-1.939,0-3.509,1.576-3.509,3.509v45.712h-4.761c-0.881,0-1.604,0.718-1.604,1.61c0,3.809,3.093,6.901,6.898,6.901h55.458
				v-2.978c0-1.071,0.855-1.927,1.921-1.927c1.063,0,1.924,0.855,1.924,1.927v2.978h3.143v-2.978c0-1.071,0.866-1.927,1.923-1.927
				c1.065,0,1.925,0.855,1.925,1.927v2.978h12.642c3.809,0,6.895-3.092,6.895-6.901C146.36,54.534,145.654,53.815,144.756,53.815z
				 M133.687,51.413h-67.58v-40.71h67.583v40.71H133.687z"/>
		</g>
	</g>
	<g>
		<g>
			<g>
				<path fill="#FBA919" d="M108.277,160.366c-1.933,1.413-4.301,2.234-6.832,2.234c-2.404,0-4.804-0.746-6.826-2.234
					c-1.94,1.413-4.308,2.234-6.84,2.234c-2.395,0-4.801-0.746-6.832-2.234c-1.926,1.413-4.301,2.234-6.826,2.234
					c-2.414,0-4.81-0.746-6.834-2.234c-1.931,1.413-4.302,2.234-6.835,2.234c-1.994,0-3.879-0.514-5.515-1.406v31.365
					c0,0.842,0.678,1.514,1.527,1.514H80.6v-23.328c0-0.835,0.685-1.512,1.53-1.512h11.3c0.854,0,1.537,0.677,1.537,1.512v23.328
					h24.125c0.852,0,1.533-0.672,1.533-1.514v-31.365c-1.631,0.894-3.514,1.406-5.515,1.406
					C112.711,162.601,110.308,161.854,108.277,160.366z M75.336,184.987c0,1.188-0.98,2.163-2.193,2.163H61.966
					c-1.215,0-2.193-0.975-2.193-2.163v-6.825h15.563V184.987z M75.336,173.694H59.773v-1.335c0-1.189,0.978-2.159,2.193-2.159
					h11.177c1.213,0,2.193,0.97,2.193,2.159V173.694z M115.761,184.987c0,1.188-0.983,2.163-2.197,2.163h-11.179
					c-1.21,0-2.19-0.975-2.19-2.163v-6.825h15.566V184.987z M115.761,172.359v1.335h-15.566v-1.335c0-1.189,0.98-2.159,2.19-2.159
					h11.179C114.777,170.2,115.761,171.17,115.761,172.359z M60.452,158.876c2.987,0,5.569-1.684,6.835-4.13
					c1.267,2.446,3.855,4.13,6.834,4.13c2.98,0,5.562-1.684,6.826-4.13c1.262,2.446,3.854,4.13,6.832,4.13
					c2.99,0,5.571-1.684,6.84-4.13c1.26,2.446,3.848,4.13,6.826,4.13c2.981,0,5.563-1.684,6.832-4.13
					c1.264,2.446,3.846,4.13,6.832,4.13c4.239,0,7.662-3.378,7.662-7.541c0-1.37-5.696-21.002-5.696-21.002
					c-0.553-2.023-2.412-3.428-4.531-3.428H63.168c-2.119,0-3.962,1.391-4.523,3.396c-0.247,0.89-5.859,19.632-5.859,21.033
					C52.785,155.498,56.219,158.876,60.452,158.876z"/>
			</g>
		</g>
		<g>
			<g>
				<path fill="#FBA919" d="M139.177,166.373c0.745,0.029,1.386-0.233,1.952-0.771c0.547-0.533,0.821-1.189,0.821-1.948
					s-0.247-1.422-0.759-1.989c-0.504-0.558-1.13-0.855-1.873-0.878c-0.748-0.025-1.381,0.23-1.907,0.771
					c-0.535,0.537-0.8,1.189-0.834,1.941c-0.025,0.771,0.217,1.429,0.718,1.994C137.807,166.053,138.434,166.353,139.177,166.373z
					 M144.77,179.431c0.041,0.293,0.178,0.563,0.391,0.813c0.22,0.239,0.494,0.365,0.835,0.365s0.619-0.123,0.866-0.365
					c0.235-0.25,0.353-0.542,0.353-0.888v-0.144l-0.646-5.669c-0.041-0.246-0.144-0.469-0.295-0.66l-4.899-5.074
					c-0.574-0.543-1.185-0.806-1.8-0.806c-0.91,0-1.689,0.387-2.307,1.171l-3.254,5.297l-3.972,2.212
					c-0.382,0.244-0.574,0.59-0.574,1.026c0,0.346,0.131,0.651,0.366,0.918c0.24,0.268,0.523,0.403,0.864,0.403
					c0.099,0,0.293-0.053,0.581-0.144l4.246-2.431c0.146-0.096,0.269-0.215,0.366-0.367l1.23-1.982l0.5,4.926l-4.318,15.086
					c0,0.05-0.021,0.111-0.046,0.183c-0.015,0.068-0.023,0.128-0.023,0.181c0,0.542,0.17,0.995,0.534,1.358
					c0.361,0.367,0.78,0.56,1.259,0.56c0.867,0.042,1.466-0.375,1.807-1.257l3.103-10.889l0.357,3.313
					c0,0.101,0.015,0.194,0.067,0.292c0.055,0.104,0.101,0.211,0.146,0.337c0.051,0.114,0.073,0.203,0.073,0.256l3.03,6.905
					c0.343,0.69,0.864,1.042,1.584,1.042c0.535,0.042,0.983-0.116,1.338-0.491c0.366-0.363,0.546-0.807,0.546-1.347
					c0-0.259-0.055-0.521-0.144-0.814l-2.817-6.397l-1.589-13.538l1.735,1.766L144.77,179.431z"/>
			</g>
		</g>
	</g>
	<g>
		<path fill="#FBA919" d="M40.688,169.767c-18.974-16.918-29.855-41.178-29.855-66.561c0-25.381,10.881-49.641,29.855-66.56
			l3.896,4.368c-17.73,15.81-27.898,38.478-27.898,62.192c0,23.715,10.168,46.383,27.898,62.191L40.688,169.767z"/>
		<path fill="#FBA919" d="M159.312,169.769l-3.896-4.369c17.731-15.81,27.898-38.479,27.898-62.193
			c0-23.714-10.169-46.383-27.898-62.192l3.896-4.368c18.973,16.919,29.855,41.179,29.855,66.56
			C189.167,128.589,178.284,152.849,159.312,169.769z"/>
	</g>
	<polygon fill="#FBA919" points="150.774,172.076 153.263,166.627 155.75,161.176 159.226,166.055 162.702,170.935 156.736,171.505 
			"/>
	<polygon fill="#FBA919" points="37.101,35.705 43.008,34.704 48.914,33.703 46.828,39.317 44.738,44.935 40.921,40.316 	"/>
	<g>
		<path fill="#FBA919" d="M113.429,123.591c0.016-0.004,0.028-0.01,0.041-0.01c0.012-0.004,0.021-0.004,0.027-0.007
			c0.917-0.356,1.982-0.336,2.954,0.127V123.7c0.012,0.006,0.024,0.014,0.038,0.019c0.013,0.007,0.023,0.013,0.038,0.02l0,0
			c0.978,0.443,1.683,1.245,1.996,2.176c0.004,0.009,0.012,0.017,0.012,0.024c0.011,0.014,0.015,0.025,0.024,0.04
			c0.122,0.278,0.043,0.573-0.177,0.654l-0.68,0.25c-0.221,0.082-0.5-0.075-0.627-0.357c-0.003-0.007-0.005-0.014-0.009-0.021
			l-0.001,0.002c-0.002-0.009-0.005-0.02-0.007-0.026c-0.01-0.028-0.017-0.061-0.027-0.086c-0.172-0.543-0.579-1.015-1.15-1.267
			l-0.002,0.005c-0.012-0.005-0.02-0.015-0.029-0.02c0,0-0.004-0.002-0.007-0.004c-0.005-0.002-0.008-0.003-0.01-0.004
			c-0.012-0.006-0.024-0.006-0.033-0.012l0.002-0.005c-0.562-0.272-1.183-0.281-1.708-0.063c-0.028,0.012-0.057,0.023-0.086,0.034
			c-0.007,0.005-0.016,0.008-0.022,0.012l-0.005-0.003c-0.007,0.003-0.014,0.005-0.021,0.007c-0.292,0.086-0.596-0.026-0.677-0.249
			l-0.242-0.679C112.962,123.928,113.136,123.675,113.429,123.591z"/>
		<path fill="#FBA919" d="M111.479,116.354c0.018-0.009,0.041-0.018,0.063-0.024c0.028-0.008,0.055-0.013,0.085-0.019
			c2.533-0.777,5.396-0.602,7.991,0.689c2.659,1.153,4.635,3.229,5.673,5.67c0.015,0.024,0.027,0.049,0.041,0.075
			c0.009,0.021,0.016,0.043,0.021,0.065c0.084,0.261-0.03,0.528-0.274,0.618l-0.811,0.299c-0.235,0.09-0.515-0.022-0.658-0.244
			h-0.004c-0.002-0.005-0.006-0.012-0.008-0.017c-0.014-0.021-0.022-0.043-0.036-0.068c-0.013-0.029-0.025-0.066-0.032-0.099
			c-0.856-1.988-2.474-3.681-4.647-4.618l0,0c-0.014-0.007-0.026-0.013-0.038-0.019c-0.016-0.007-0.027-0.014-0.038-0.019l0,0
			c-2.12-1.059-4.455-1.207-6.528-0.58c-0.027,0.014-0.063,0.027-0.099,0.036c-0.024,0.007-0.05,0.012-0.073,0.017
			c-0.005,0.003-0.011,0.004-0.018,0.005v-0.002c-0.266,0.033-0.527-0.108-0.613-0.347l-0.292-0.813
			C111.094,116.718,111.225,116.457,111.479,116.354z"/>
		<path fill="#FBA919" d="M112.628,120.123c0.027-0.008,0.058-0.015,0.087-0.017c1.653-0.562,3.539-0.494,5.259,0.318l0.003-0.001
			c0.011,0.006,0.023,0.013,0.039,0.021c0.011,0.005,0.023,0.01,0.037,0.018h-0.001c1.729,0.793,2.995,2.191,3.633,3.818
			c0.014,0.023,0.028,0.05,0.044,0.076c0.005,0.014,0.007,0.024,0.012,0.034c0.103,0.271,0,0.549-0.238,0.636l-0.752,0.281
			c-0.229,0.085-0.509-0.041-0.646-0.285c-0.01-0.019-0.021-0.035-0.026-0.054c-0.023-0.052-0.037-0.104-0.048-0.155
			c-0.482-1.21-1.438-2.245-2.734-2.825c-1.284-0.62-2.691-0.686-3.927-0.274c-0.044,0.026-0.093,0.048-0.146,0.063
			c-0.021,0.007-0.039,0.011-0.062,0.015c-0.274,0.053-0.549-0.076-0.634-0.31l-0.271-0.758c-0.085-0.238,0.063-0.495,0.335-0.59
			C112.604,120.133,112.614,120.128,112.628,120.123z"/>
	</g>
</g>
</svg>
