<?xml version="1.0" encoding="utf-8"?>
<!-- Generator: Adobe Illustrator 16.0.0, SVG Export Plug-In . SVG Version: 6.00 Build 0)  -->
<!DOCTYPE svg PUBLIC "-//W3C//DTD SVG 1.1//EN" "http://www.w3.org/Graphics/SVG/1.1/DTD/svg11.dtd">
<svg version="1.1" id="Layer_1" xmlns="http://www.w3.org/2000/svg" xmlns:xlink="http://www.w3.org/1999/xlink" x="0px" y="0px"
	 width="200px" height="200px" viewBox="0 0 200 200" enable-background="new 0 0 200 200" xml:space="preserve">
<g>
	<path fill="#FBA919" d="M108.738,147.905h-0.036c-12.856-0.012-24.904-5.019-33.922-14.1c-9.018-9.08-13.976-21.194-13.96-34.111
		c0.037-26.232,21.415-47.574,47.655-47.574l0.228,0c26.492,0.119,47.997,21.643,47.939,47.98
		C156.583,126.46,135.094,147.905,108.738,147.905z M108.475,53.12c-25.689,0-46.619,20.894-46.655,46.575
		c-0.015,12.65,4.84,24.515,13.67,33.405c8.83,8.891,20.625,13.794,33.212,13.805l0.036,0.5v-0.5
		c25.806,0,46.847-20.997,46.903-46.807c0.057-25.787-21.002-46.861-46.943-46.978L108.475,53.12z M108.923,143.6
		c-24.09-0.001-43.756-19.521-43.84-43.511C64.999,76.096,84.458,56.5,108.46,56.406l0.164,0c23.959,0,43.536,19.564,43.641,43.611
		c0.051,11.518-4.451,22.424-12.677,30.708c-8.212,8.271-19.059,12.843-30.544,12.874H108.923z M108.624,57.406l-0.16,0
		C85.013,57.498,66,76.644,66.083,100.085s19.3,42.514,42.84,42.515h0.119c11.217-0.031,21.813-4.498,29.836-12.578
		c8.037-8.095,12.437-18.749,12.387-30C151.162,76.523,132.034,57.406,108.624,57.406z"/>
	<path fill="#FBA919" d="M108.925,143.6c-24.093,0-43.76-19.519-43.842-43.511C65,76.092,84.458,56.497,108.456,56.406l0.164,0
		c23.961,0,43.54,19.564,43.645,43.611c0.049,11.522-4.455,22.43-12.682,30.714c-8.209,8.267-19.054,12.837-30.537,12.868H108.925z
		 M108.62,57.406l-0.16,0c-23.447,0.088-42.458,19.234-42.377,42.679c0.08,23.442,19.299,42.514,42.842,42.514h0.119
		c11.215-0.031,21.809-4.496,29.83-12.573c8.038-8.095,12.438-18.751,12.391-30.005C151.162,76.523,132.032,57.406,108.62,57.406z
		 M108.859,137.277C108.857,137.277,108.859,137.277,108.859,137.277c-10.13-0.024-19.545-3.952-26.598-11.059
		c-6.999-7.052-10.826-16.394-10.775-26.306c0.104-20.507,16.797-37.191,37.211-37.191l0.252,0.001
		c20.535,0.135,37.134,17.129,37.002,37.883C145.83,120.483,128.843,137.277,108.859,137.277z M108.697,63.722
		c-19.865,0-36.109,16.238-36.211,36.196c-0.049,9.645,3.674,18.735,10.484,25.597c6.865,6.917,16.029,10.739,25.804,10.763
		c19.53,0.001,36.06-16.338,36.177-35.678c0.128-20.203-16.024-36.746-36.008-36.877L108.697,63.722z"/>
</g>
<path fill="#FBA919" d="M187.877,86.994c-7.7-0.014-15.396-0.003-23.096-0.003h-3.882c-3.334-12.325-9.895-22.287-19.917-29.937
	c-0.356-0.271-0.821-0.696-0.836-1.066c-0.086-1.884-0.043-3.776-0.043-5.731c11.115,0,21.908,0.007,32.695-0.004
	c3.062-0.003,4.12-1.04,4.14-4.042c0.023-3.713,0.06-7.429-0.012-11.138c-0.027-1.351,0.29-2.176,1.563-2.959
	c3.768-2.316,4.959-7.177,2.936-11.044c-1.693-3.236-5.02-4.978-8.738-4.576c-3.407,0.371-6.346,2.995-7.223,6.459
	c-0.885,3.484,0.547,7.087,3.577,9.202c0.608,0.426,1.483,1.07,1.505,1.647c0.147,3.275,0.072,6.562,0.072,10.062h-2.404
	c-9.964,0.003-19.933,0.003-29.896,0.013c-3.762,0.002-4.569,0.833-4.58,4.644c-0.002,1.206,0,2.41,0,3.779
	c-2.28-0.97-4.244-1.763-6.158-2.654c-0.407-0.188-0.915-0.737-0.921-1.125c-0.068-3.902-0.043-7.804-0.043-11.886
	c0.94-0.042,1.672-0.102,2.404-0.104c5.432-0.006,10.86,0.012,16.289-0.01c3.164-0.013,4.227-1.079,4.237-4.2
	c0.013-4.672,0.032-9.347-0.017-14.019c-0.009-1.127,0.257-1.814,1.312-2.455c3.212-1.942,4.713-5.604,3.918-9.017
	c-0.909-3.9-4.147-6.648-8.04-6.82c-3.782-0.168-7.352,2.307-8.53,5.907c-1.229,3.746,0.178,7.619,3.534,9.926
	c0.564,0.387,1.361,1.004,1.376,1.536c0.111,4.173,0.064,8.347,0.064,12.753c-0.868,0-1.536-0.003-2.205,0
	c-4.124,0-8.25,0.059-12.371-0.006c-8.575-0.13-8.404-0.051-8.282,8.183c0.045,3.013,0.005,6.024,0.005,9.027
	c-3.648-0.437-7.093-0.849-10.665-1.277c0-0.797,0-1.475,0-2.152c-0.004-7.147,0.004-14.296-0.011-21.444
	c-0.004-3.07-0.976-4.039-4.079-4.051c-5.295-0.021-10.585-0.04-15.881,0.022c-1.287,0.012-2.07-0.298-2.8-1.479
	c-2.177-3.509-6.28-4.836-10.065-3.469c-3.61,1.301-5.775,4.542-5.642,8.457c0.123,3.701,2.563,6.787,6.199,7.841
	c3.556,1.033,7.272-0.333,9.437-3.397c0.433-0.619,1.057-1.563,1.61-1.575c4.92-0.123,9.845-0.071,14.784-0.071v21.713
	c-14.755,2.406-24.978,7.314-33.475,16.787c-2.498,2.786-4.913,4.044-8.574,3.674c-3.03-0.308-6.118-0.066-9.291-0.066
	c0-3.051,0.036-5.794-0.01-8.535c-0.038-2.181-1.169-3.345-3.241-3.463c-0.616-0.037-1.237-0.011-1.856-0.011H31.583v-2.449
	c0-7.972,0.035-15.943-0.033-23.918c-0.013-1.564,0.283-2.554,1.764-3.475c3.204-1.989,4.4-6.03,3.213-9.62
	c-1.141-3.469-4.505-5.898-8.136-5.887c-3.669,0.013-7.013,2.413-8.164,5.859c-1.189,3.569,0.006,7.649,3.185,9.635
	c1.466,0.915,1.806,1.896,1.795,3.469c-0.057,9.484-0.039,18.97-0.022,28.454c0.006,3.231,0.992,4.214,4.161,4.229
	c3.371,0.016,6.737,0.004,10.103,0.004h6.119c0,2.958-0.022,5.621,0.006,8.284c0.036,2.68,1.082,3.766,3.747,3.8
	c3.506,0.048,7.011,0.005,10.514,0.021c0.633,0,1.261,0.093,2.158,0.167c-4.167,7.456-6.379,15.161-6.992,23.447
	c-4.44,0-8.692,0.004-12.943,0c-3.581-0.002-4.569,0.957-4.569,4.453c0.002,11.343,0.008,22.681,0,34.021
	c0,0.732-0.058,1.464-0.091,2.123c-0.297,0.116-0.42,0.204-0.544,0.204c-3.37,0.02-6.737-0.017-10.104,0.064
	c-1.107,0.027-1.645-0.313-2.144-1.358c-1.832-3.839-5.413-5.597-9.496-4.834c-3.552,0.658-6.357,3.809-6.786,7.615
	c-0.412,3.613,1.805,7.276,5.286,8.731c3.528,1.476,7.362,0.387,10.044-2.653c0.572-0.646,1.651-1.159,2.51-1.185
	c4.397-0.12,8.798-0.058,13.195-0.064c3.626-0.004,4.533-0.89,4.536-4.478c0.006-11.268,0-22.543,0.006-33.813
	c0-0.797,0.065-1.592,0.101-2.372h10.956c0.078,0.309,0.132,0.438,0.146,0.57c1.77,18.948,10.942,33.199,27.25,42.894
	c1.114,0.664,1.468,1.375,1.459,2.605c-0.053,6.394-0.024,12.783-0.037,19.178c0,0.66-0.093,1.316-0.155,2.125
	c-7.936,0-15.691,0.027-23.441-0.059c-0.47-0.009-1.086-0.836-1.368-1.41c-1.785-3.667-5.366-5.647-9.274-5.047
	c-3.552,0.544-6.536,3.525-7.105,7.103c-0.6,3.774,1.388,7.538,4.86,9.182c3.417,1.616,7.416,0.677,10.159-2.182
	c0.655-0.68,1.805-1.23,2.732-1.241c8.59-0.097,17.181-0.054,25.771-0.064c3.182-0.008,4.201-1.02,4.208-4.18
	c0.015-6.667,0.003-13.333,0.009-20c0-0.71,0.062-1.417,0.097-2.249c14.92,5.109,29.239,4.119,43.349-2.859
	c0.053,0.895,0.117,1.557,0.117,2.221c0.005,3.573-0.013,7.147,0,10.721c0.013,3.258,1.067,4.276,4.355,4.28
	c3.425,0.004,6.853,0,10.55,0c0,6.094,0.036,11.858-0.057,17.62c-0.011,0.531-0.756,1.187-1.31,1.56
	c-3.33,2.242-4.819,5.993-3.766,9.686c1.037,3.642,4.504,6.244,8.301,6.231c3.817-0.011,7.136-2.554,8.227-6.3
	c1.065-3.671-0.377-7.524-3.832-9.58c-1.094-0.652-1.27-1.374-1.267-2.472c0.036-6.25,0.029-12.504,0.019-18.758
	c-0.006-3.41-0.994-4.374-4.453-4.379c-3.41-0.009-6.82-0.002-10.125-0.002c-0.154-0.388-0.247-0.51-0.247-0.632
	c-0.019-4.126,0.026-8.248-0.068-12.371c-0.034-1.381,0.429-2.199,1.505-3.067c14.788-11.927,21.694-27.412,20.758-46.389
	c-0.041-0.862-0.131-1.722-0.204-2.625h23.165v25.136c-0.292,0.075-0.423,0.137-0.556,0.14c-2.606,0.015-5.219,0.027-7.833,0.029
	c-3.446,0-4.405,0.943-4.405,4.383c-0.004,8.797-0.021,17.593,0.03,26.391c0.005,1.292-0.305,2.063-1.509,2.777
	c-3.376,2.013-4.777,5.937-3.676,9.645c1.061,3.586,4.385,6.096,8.141,6.153c3.688,0.054,7.176-2.477,8.277-5.999
	c1.153-3.696-0.188-7.632-3.5-9.728c-1.067-0.674-1.451-1.342-1.44-2.594c0.064-7.56,0.027-15.119,0.036-22.68
	c0-0.654,0.075-1.306,0.125-2.064c3.097,0,5.978,0.016,8.855-0.002c2.825-0.023,3.879-1.042,3.882-3.832
	c0.017-10.1,0.017-20.208,0.004-30.309C191.712,88.066,190.65,87,187.877,86.994z M173.97,22.63c1.308,0,2.372,1.063,2.372,2.372
	c0,1.31-1.064,2.37-2.372,2.37c-1.31,0-2.37-1.061-2.37-2.37C171.6,23.693,172.66,22.63,173.97,22.63z M146.238,5.612
	c1.308,0,2.371,1.059,2.371,2.369c0,1.308-1.063,2.372-2.371,2.372c-1.309,0-2.369-1.064-2.369-2.372
	C143.869,6.671,144.93,5.612,146.238,5.612z M79.738,23.728c-1.309,0-2.369-1.064-2.369-2.372c0-1.311,1.06-2.369,2.369-2.369
	c1.308,0,2.372,1.059,2.372,2.369C82.109,22.664,81.046,23.728,79.738,23.728z M28.171,20.056c-1.309,0-2.373-1.064-2.373-2.372
	c0-1.311,1.064-2.369,2.373-2.369c1.308,0,2.372,1.059,2.372,2.369C30.543,18.992,29.479,20.056,28.171,20.056z M16.712,142.326
	c-1.309,0-2.369-1.063-2.369-2.371c0-1.312,1.061-2.374,2.369-2.374c1.308,0,2.372,1.063,2.372,2.374
	C19.084,141.263,18.02,142.326,16.712,142.326z M50.922,174.824c-1.309,0-2.369-1.064-2.369-2.372c0-1.31,1.061-2.371,2.369-2.371
	s2.372,1.062,2.372,2.371C53.294,173.76,52.231,174.824,50.922,174.824z M152.07,189.516c1.304,0,2.367,1.062,2.367,2.371
	s-1.063,2.368-2.367,2.368c-1.313,0-2.372-1.059-2.372-2.368S150.757,189.516,152.07,189.516z M108.702,147.405
	c-26.305-0.021-47.414-21.28-47.383-47.712c0.037-25.909,21.459-47.195,47.381-47.075c26.305,0.122,47.499,21.338,47.441,47.483
	C156.084,126.164,134.765,147.427,108.702,147.405z M175.782,161.922c-1.313,0-2.372-1.059-2.372-2.368s1.059-2.371,2.372-2.371
	c1.304,0,2.367,1.062,2.367,2.371S177.086,161.922,175.782,161.922z"/>
</svg>
