<?xml version="1.0" encoding="utf-8"?>
<!-- Generator: Adobe Illustrator 16.0.0, SVG Export Plug-In . SVG Version: 6.00 Build 0)  -->
<!DOCTYPE svg PUBLIC "-//W3C//DTD SVG 1.1//EN" "http://www.w3.org/Graphics/SVG/1.1/DTD/svg11.dtd">
<svg version="1.1" id="Layer_1" xmlns="http://www.w3.org/2000/svg" xmlns:xlink="http://www.w3.org/1999/xlink" x="0px" y="0px"
	 width="1058.572px" height="204px" viewBox="0 0 1058.572 204" enable-background="new 0 0 1058.572 204" xml:space="preserve">
<g>
	<polygon fill="#B7B7B8" points="884.542,104.727 884.648,116.936 892.834,108.604 884.429,100.343 	"/>
	
		<line fill="none" stroke="#B7B7B8" stroke-linecap="round" stroke-miterlimit="10" stroke-dasharray="1.389,2.778" x1="830.2" y1="108.274" x2="884.217" y2="108.64"/>
	<polygon fill="#B7B7B8" points="663.542,104.727 663.648,116.936 671.834,108.604 663.429,100.343 	"/>
	
		<line fill="none" stroke="#B7B7B8" stroke-linecap="round" stroke-miterlimit="10" stroke-dasharray="1.389,2.778" x1="609.2" y1="108.274" x2="663.217" y2="108.64"/>
	<polygon fill="#B7B7B8" points="442.542,104.727 442.648,116.936 450.834,108.604 442.429,100.343 	"/>
	
		<line fill="none" stroke="#B7B7B8" stroke-linecap="round" stroke-miterlimit="10" stroke-dasharray="1.389,2.778" x1="388.2" y1="108.274" x2="442.217" y2="108.64"/>
	<polygon fill="#B7B7B8" points="221.542,104.727 221.648,116.936 229.834,108.604 221.429,100.343 	"/>
	
		<line fill="none" stroke="#B7B7B8" stroke-linecap="round" stroke-miterlimit="10" stroke-dasharray="1.389,2.778" x1="167.2" y1="108.274" x2="221.217" y2="108.64"/>
	<g>
		<polygon fill="#FBA919" points="101.489,89.509 101.489,70.233 75.861,70.233 75.861,89.509 56.08,89.509 56.08,114.489 
			75.861,114.489 75.861,133.767 101.489,133.767 101.489,114.489 121.27,114.489 121.27,89.509 		"/>
		<circle fill="none" stroke="#FBA919" stroke-width="3" stroke-miterlimit="10" cx="88.675" cy="102" r="61.09"/>
	</g>
	<g>
		<g>
			<g>
				<path fill="#FBA919" d="M308.981,83.059l-28.434,23.474c0,0.033-0.009,0.081-0.025,0.148c-0.017,0.064-0.024,0.112-0.024,0.147
					v23.767c0,0.858,0.313,1.604,0.939,2.229c0.627,0.628,1.368,0.942,2.225,0.942h18.989V114.75h12.66v19.017h18.989
					c0.856,0,1.6-0.314,2.225-0.942c0.627-0.626,0.941-1.369,0.941-2.229v-23.768c0-0.133-0.019-0.232-0.05-0.296L308.981,83.059z
					 M348.296,101.184l-10.831-9.012V71.968c0-0.463-0.147-0.841-0.446-1.14c-0.294-0.297-0.673-0.444-1.136-0.444h-9.494
					c-0.462,0-0.842,0.147-1.139,0.444c-0.296,0.299-0.444,0.677-0.444,1.14v9.655l-12.066-10.102
					c-1.053-0.858-2.307-1.288-3.758-1.288c-1.449,0-2.702,0.43-3.758,1.288l-35.557,29.662c-0.329,0.263-0.511,0.618-0.543,1.063
					c-0.033,0.447,0.081,0.834,0.345,1.165l3.066,3.664c0.264,0.297,0.61,0.479,1.038,0.545c0.396,0.033,0.792-0.082,1.188-0.346
					l34.221-28.573l34.221,28.573c0.264,0.23,0.609,0.346,1.038,0.346h0.149c0.428-0.066,0.772-0.248,1.038-0.545l3.066-3.664
					c0.264-0.331,0.378-0.718,0.345-1.165C348.806,101.802,348.624,101.446,348.296,101.184z"/>
			</g>
		</g>
		<circle fill="none" stroke="#FBA919" stroke-width="3" stroke-miterlimit="10" cx="308.98" cy="102" r="61.09"/>
	</g>
	<g>
		<g>
			<path fill="#FBA919" d="M531.437,70.613c-0.157-0.237-0.424-0.379-0.713-0.38c-0.282,0-0.552,0.143-0.712,0.38
				c-1.563,2.322-5.154,8.057-5.154,11.723c0,4.685,2.63,8.482,5.866,8.482c3.241,0,5.868-3.798,5.868-8.482
				C536.593,78.67,533.003,72.937,531.437,70.613L531.437,70.613z M531.437,70.613"/>
			<path fill="#FBA919" d="M546.726,100.26c2.591-2.592,4.106-9.186,4.642-11.934c0.056-0.281-0.033-0.569-0.232-0.772
				c-0.205-0.202-0.493-0.291-0.774-0.235c-2.747,0.536-9.339,2.053-11.934,4.645c-3.312,3.312-4.14,7.856-1.848,10.147
				C538.869,104.4,543.414,103.572,546.726,100.26L546.726,100.26z M546.726,100.26"/>
			<path fill="#FBA919" d="M555.065,107.076c-0.201-0.2-0.488-0.288-0.768-0.234c-3.201,0.608-11.795,2.504-15.111,5.82
				c-4.111,4.109-5.138,9.746-2.295,12.591c2.843,2.841,8.48,1.813,12.59-2.299c3.315-3.314,5.212-11.911,5.821-15.108
				C555.356,107.566,555.265,107.278,555.065,107.076L555.065,107.076z M555.065,107.076"/>
			<path fill="#FBA919" d="M511.091,87.318c-0.278-0.056-0.57,0.033-0.771,0.235c-0.203,0.203-0.292,0.491-0.236,0.772
				c0.536,2.748,2.053,9.342,4.646,11.934c3.313,3.313,7.854,4.141,10.146,1.851c2.293-2.291,1.462-6.836-1.85-10.147
				C520.432,89.37,513.842,87.854,511.091,87.318L511.091,87.318z M511.091,87.318"/>
			<path fill="#FBA919" d="M507.157,106.842c-0.279-0.054-0.566,0.034-0.77,0.234c-0.201,0.202-0.289,0.49-0.234,0.77
				c0.607,3.197,2.505,11.794,5.821,15.108c4.108,4.112,9.746,5.14,12.587,2.299c2.844-2.845,1.818-8.481-2.295-12.591
				C518.952,109.346,510.355,107.45,507.157,106.842L507.157,106.842z M507.157,106.842"/>
			<path fill="#FBA919" d="M530.724,93.117c-1.176,0-2.132,0.955-2.132,2.134v36.383c0,1.178,0.956,2.133,2.132,2.133
				c1.18,0,2.135-0.955,2.135-2.133V95.251C532.859,94.072,531.904,93.117,530.724,93.117L530.724,93.117z M530.724,93.117"/>
		</g>
		<circle fill="none" stroke="#FBA919" stroke-width="3" stroke-miterlimit="10" cx="529.286" cy="102" r="61.09"/>
	</g>
	<g>
		<g>
			<g>
				<path fill="#FBA919" d="M726.623,95.92h1.862c0.686,0,1.24-0.555,1.24-1.238v-1.86c0-0.686-0.555-1.243-1.24-1.243h-1.862
					c-0.685,0-1.24,0.558-1.24,1.243v1.86C725.383,95.365,725.938,95.92,726.623,95.92z"/>
				<path fill="#FBA919" d="M726.623,103.367h1.862c0.686,0,1.24-0.554,1.24-1.238v-1.864c0-0.685-0.555-1.239-1.24-1.239h-1.862
					c-0.685,0-1.24,0.555-1.24,1.239v1.864C725.383,102.813,725.938,103.367,726.623,103.367z"/>
				<path fill="#FBA919" d="M726.623,110.811h1.862c0.686,0,1.24-0.555,1.24-1.238v-1.861c0-0.685-0.555-1.242-1.24-1.242h-1.862
					c-0.685,0-1.24,0.558-1.24,1.242v1.861C725.383,110.256,725.938,110.811,726.623,110.811z"/>
				<path fill="#FBA919" d="M726.623,118.257h1.862c0.686,0,1.24-0.554,1.24-1.241v-1.862c0-0.685-0.555-1.242-1.24-1.242h-1.862
					c-0.685,0-1.24,0.558-1.24,1.242v1.862C725.383,117.703,725.938,118.257,726.623,118.257z"/>
				<path fill="#FBA919" d="M733.137,95.92h1.865c0.684,0,1.238-0.555,1.238-1.238v-1.86c0-0.686-0.555-1.243-1.238-1.243h-1.865
					c-0.684,0-1.239,0.558-1.239,1.243v1.86C731.898,95.365,732.454,95.92,733.137,95.92z"/>
				<path fill="#FBA919" d="M733.137,103.367h1.865c0.684,0,1.238-0.554,1.238-1.238v-1.864c0-0.685-0.555-1.239-1.238-1.239h-1.865
					c-0.684,0-1.239,0.555-1.239,1.239v1.864C731.898,102.813,732.454,103.367,733.137,103.367z"/>
				<path fill="#FBA919" d="M733.137,110.811h1.865c0.684,0,1.238-0.555,1.238-1.238v-1.861c0-0.685-0.555-1.242-1.238-1.242h-1.865
					c-0.684,0-1.239,0.558-1.239,1.242v1.861C731.898,110.256,732.454,110.811,733.137,110.811z"/>
				<path fill="#FBA919" d="M733.137,118.257h1.865c0.684,0,1.238-0.554,1.238-1.241v-1.862c0-0.685-0.555-1.242-1.238-1.242h-1.865
					c-0.684,0-1.239,0.558-1.239,1.242v1.862C731.898,117.703,732.454,118.257,733.137,118.257z"/>
				<path fill="#FBA919" d="M739.655,95.92h1.858c0.687,0,1.242-0.555,1.242-1.238v-1.86c0-0.686-0.556-1.243-1.242-1.243h-1.858
					c-0.686,0-1.242,0.558-1.242,1.243v1.86C738.413,95.365,738.969,95.92,739.655,95.92z"/>
				<path fill="#FBA919" d="M739.655,103.367h1.858c0.687,0,1.242-0.554,1.242-1.238v-1.864c0-0.685-0.556-1.239-1.242-1.239h-1.858
					c-0.686,0-1.242,0.555-1.242,1.239v1.864C738.413,102.813,738.969,103.367,739.655,103.367z"/>
				<path fill="#FBA919" d="M739.655,110.811h1.858c0.687,0,1.242-0.555,1.242-1.238v-1.861c0-0.685-0.556-1.242-1.242-1.242h-1.858
					c-0.686,0-1.242,0.558-1.242,1.242v1.861C738.413,110.256,738.969,110.811,739.655,110.811z"/>
				<path fill="#FBA919" d="M739.655,118.257h1.858c0.687,0,1.242-0.554,1.242-1.241v-1.862c0-0.685-0.556-1.242-1.242-1.242h-1.858
					c-0.686,0-1.242,0.558-1.242,1.242v1.862C738.413,117.703,738.969,118.257,739.655,118.257z"/>
				<path fill="#FBA919" d="M751.439,95.92h1.861c0.688,0,1.244-0.555,1.244-1.238v-1.86c0-0.686-0.557-1.243-1.244-1.243h-1.861
					c-0.685,0-1.239,0.558-1.239,1.243v1.86C750.2,95.365,750.755,95.92,751.439,95.92z"/>
				<path fill="#FBA919" d="M751.439,88.475h1.861c0.688,0,1.244-0.554,1.244-1.241v-1.857c0-0.686-0.557-1.242-1.244-1.242h-1.861
					c-0.685,0-1.239,0.557-1.239,1.242v1.857C750.2,87.921,750.755,88.475,751.439,88.475z"/>
				<path fill="#FBA919" d="M751.439,81.03h1.861c0.688,0,1.244-0.557,1.244-1.24v-1.86c0-0.687-0.557-1.243-1.244-1.243h-1.861
					c-0.685,0-1.239,0.557-1.239,1.243v1.86C750.2,80.474,750.755,81.03,751.439,81.03z"/>
				<path fill="#FBA919" d="M751.439,103.367h1.861c0.688,0,1.244-0.554,1.244-1.238v-1.864c0-0.685-0.557-1.239-1.244-1.239h-1.861
					c-0.685,0-1.239,0.555-1.239,1.239v1.864C750.2,102.813,750.755,103.367,751.439,103.367z"/>
				<path fill="#FBA919" d="M751.439,110.811h1.861c0.688,0,1.244-0.555,1.244-1.238v-1.861c0-0.685-0.557-1.242-1.244-1.242h-1.861
					c-0.685,0-1.239,0.558-1.239,1.242v1.861C750.2,110.256,750.755,110.811,751.439,110.811z"/>
				<path fill="#FBA919" d="M751.439,118.257h1.861c0.688,0,1.244-0.554,1.244-1.241v-1.862c0-0.685-0.557-1.242-1.244-1.242h-1.861
					c-0.685,0-1.239,0.558-1.239,1.242v1.862C750.2,117.703,750.755,118.257,751.439,118.257z"/>
				<path fill="#FBA919" d="M757.956,95.92h1.862c0.684,0,1.242-0.555,1.242-1.238v-1.86c0-0.686-0.559-1.243-1.242-1.243h-1.862
					c-0.687,0-1.242,0.558-1.242,1.243v1.86C756.714,95.365,757.269,95.92,757.956,95.92z"/>
				<path fill="#FBA919" d="M757.956,88.475h1.862c0.684,0,1.242-0.554,1.242-1.241v-1.857c0-0.686-0.559-1.242-1.242-1.242h-1.862
					c-0.687,0-1.242,0.557-1.242,1.242v1.857C756.714,87.921,757.269,88.475,757.956,88.475z"/>
				<path fill="#FBA919" d="M757.956,81.03h1.862c0.684,0,1.242-0.557,1.242-1.24v-1.86c0-0.687-0.559-1.243-1.242-1.243h-1.862
					c-0.687,0-1.242,0.557-1.242,1.243v1.86C756.714,80.474,757.269,81.03,757.956,81.03z"/>
				<path fill="#FBA919" d="M757.956,103.367h1.862c0.684,0,1.242-0.554,1.242-1.238v-1.864c0-0.685-0.559-1.239-1.242-1.239h-1.862
					c-0.687,0-1.242,0.555-1.242,1.239v1.864C756.714,102.813,757.269,103.367,757.956,103.367z"/>
				<path fill="#FBA919" d="M757.956,110.811h1.862c0.684,0,1.242-0.555,1.242-1.238v-1.861c0-0.685-0.559-1.242-1.242-1.242h-1.862
					c-0.687,0-1.242,0.558-1.242,1.242v1.861C756.714,110.256,757.269,110.811,757.956,110.811z"/>
				<path fill="#FBA919" d="M757.956,118.257h1.862c0.684,0,1.242-0.554,1.242-1.241v-1.862c0-0.685-0.559-1.242-1.242-1.242h-1.862
					c-0.687,0-1.242,0.558-1.242,1.242v1.862C756.714,117.703,757.269,118.257,757.956,118.257z"/>
				<path fill="#FBA919" d="M764.472,95.92h1.859c0.688,0,1.24-0.555,1.24-1.238v-1.86c0-0.686-0.553-1.243-1.24-1.243h-1.859
					c-0.688,0-1.243,0.558-1.243,1.243v1.86C763.229,95.365,763.785,95.92,764.472,95.92z"/>
				<path fill="#FBA919" d="M764.472,88.475h1.859c0.688,0,1.24-0.554,1.24-1.241v-1.857c0-0.686-0.553-1.242-1.24-1.242h-1.859
					c-0.688,0-1.243,0.557-1.243,1.242v1.857C763.229,87.921,763.785,88.475,764.472,88.475z"/>
				<path fill="#FBA919" d="M764.472,81.03h1.859c0.688,0,1.24-0.557,1.24-1.24v-1.86c0-0.687-0.553-1.243-1.24-1.243h-1.859
					c-0.688,0-1.243,0.557-1.243,1.243v1.86C763.229,80.474,763.785,81.03,764.472,81.03z"/>
				<path fill="#FBA919" d="M764.472,103.367h1.859c0.688,0,1.24-0.554,1.24-1.238v-1.864c0-0.685-0.553-1.239-1.24-1.239h-1.859
					c-0.688,0-1.243,0.555-1.243,1.239v1.864C763.229,102.813,763.785,103.367,764.472,103.367z"/>
				<path fill="#FBA919" d="M764.472,110.811h1.859c0.688,0,1.24-0.555,1.24-1.238v-1.861c0-0.685-0.553-1.242-1.24-1.242h-1.859
					c-0.688,0-1.243,0.558-1.243,1.242v1.861C763.229,110.256,763.785,110.811,764.472,110.811z"/>
				<path fill="#FBA919" d="M764.472,118.257h1.859c0.688,0,1.24-0.554,1.24-1.241v-1.862c0-0.685-0.553-1.242-1.24-1.242h-1.859
					c-0.688,0-1.243,0.558-1.243,1.242v1.862C763.229,117.703,763.785,118.257,764.472,118.257z"/>
				<path fill="#FBA919" d="M729.076,126.323c-0.685,0-1.238,0.555-1.238,1.243c0,0.684,0.554,1.238,1.238,1.238h0.029
					c0.687,0,1.243-0.555,1.243-1.238c0-0.688-0.557-1.243-1.243-1.243H729.076z"/>
				<path fill="#FBA919" d="M753.895,126.323c-0.687,0-1.242,0.555-1.242,1.243c0,0.684,0.556,1.238,1.242,1.238h0.028
					c0.684,0,1.24-0.555,1.24-1.238c0-0.688-0.557-1.243-1.24-1.243H753.895z"/>
				<path fill="#FBA919" d="M773.411,131.285h-0.875v-59.81c0-0.685-0.556-1.242-1.242-1.242h-24.815
					c-0.685,0-1.24,0.558-1.24,1.242v15.139h-23.576c-0.688,0-1.242,0.556-1.242,1.239v43.432h-0.872
					c-0.688,0-1.243,0.555-1.243,1.239c0,0.688,0.556,1.242,1.243,1.242h2.114h12.405h7.446h4.965h12.409h7.444h4.962l0,0l0,0h2.117
					c0.685,0,1.239-0.555,1.239-1.242C774.65,131.84,774.095,131.285,773.411,131.285z M740.275,131.285h-4.965v-4.962h4.965
					V131.285z M745.238,131.285h-2.482v-6.204c0-0.684-0.556-1.242-1.242-1.242h-7.446c-0.685,0-1.238,0.559-1.238,1.242v6.204
					H722.9v-2.48h2.609c0.684,0,1.242-0.555,1.242-1.238c0-0.688-0.559-1.243-1.242-1.243H722.9V89.096h22.338V131.285z
					 M765.092,131.285h-4.966v-4.962h4.966V131.285z M770.053,131.285h-2.481v-6.204c0-0.684-0.553-1.242-1.24-1.242h-7.444
					c-0.688,0-1.24,0.559-1.24,1.242v6.204h-9.928v-2.48h2.606c0.689,0,1.242-0.555,1.242-1.238c0-0.688-0.553-1.243-1.242-1.243
					h-2.606v-38.47V72.717h22.334V131.285z"/>
			</g>
		</g>
		<circle fill="none" stroke="#FBA919" stroke-width="3" stroke-miterlimit="10" cx="749.592" cy="102" r="61.09"/>
	</g>
	<g>
		<path fill="#FBA919" d="M986.655,78.195l-7.445,7.52c-7.633-1.531-38.198-8.897-38.599-8.391
			c-0.446,0.563-0.604,0.951-1.499,2.086c8.816,6.741,17.8,13.19,26.64,19.895l-11.246,11.356l-15.676,0.988l0,0l13.778,8.07
			l7.735,13.656l0,0l0.971-15.777c3.678-3.684,7.385-7.343,11.08-11.009c6.712,9.016,13.16,18.182,19.904,27.177
			c1.123-0.905,1.504-1.062,2.069-1.515c0.5-0.407-7.026-32.228-8.378-39.315c2.535-2.604,5.05-5.226,7.528-7.885
			C1006.729,70.912,1001.068,63.633,986.655,78.195z"/>
		<circle fill="none" stroke="#FBA919" stroke-width="3" stroke-miterlimit="10" cx="969.897" cy="102" r="61.09"/>
	</g>
</g>
</svg>
