<?xml version="1.0" encoding="utf-8"?>
<!-- Generator: Adobe Illustrator 16.0.0, SVG Export Plug-In . SVG Version: 6.00 Build 0)  -->
<!DOCTYPE svg PUBLIC "-//W3C//DTD SVG 1.1//EN" "http://www.w3.org/Graphics/SVG/1.1/DTD/svg11.dtd">
<svg version="1.1" id="Layer_1" xmlns="http://www.w3.org/2000/svg" xmlns:xlink="http://www.w3.org/1999/xlink" x="0px" y="0px"
	 width="264px" height="245.333px" viewBox="383.786 -124.833 264 245.333" enable-background="new 383.786 -124.833 264 245.333"
	 xml:space="preserve">
<g>
	<polygon fill="#FBA919" points="459.607,-91.882 459.607,-98.508 450.797,-98.508 450.797,-91.882 443.998,-91.882 
		443.998,-83.295 450.797,-83.295 450.797,-76.668 459.607,-76.668 459.607,-83.295 466.407,-83.295 466.407,-91.882 	"/>
	<circle fill="none" stroke="#FBA919" stroke-width="3" stroke-miterlimit="10" cx="455.202" cy="-87.588" r="21"/>
</g>
<g>
	<g>
		<g>
			<path fill="#FBA919" d="M424.197,12.548l-9.775,8.069c0,0.012-0.003,0.027-0.008,0.051c-0.006,0.022-0.008,0.038-0.008,0.051
				v8.17c0,0.295,0.107,0.551,0.323,0.767c0.215,0.215,0.47,0.323,0.765,0.323h6.528v-6.537h4.352v6.537h6.528
				c0.294,0,0.55-0.107,0.765-0.323c0.215-0.216,0.323-0.471,0.323-0.767v-8.17c0-0.046-0.006-0.08-0.017-0.102L424.197,12.548z
				 M437.711,18.778l-3.723-3.098V8.735c0-0.159-0.05-0.289-0.153-0.393c-0.101-0.102-0.231-0.152-0.39-0.152h-3.264
				c-0.159,0-0.29,0.051-0.392,0.152c-0.102,0.104-0.153,0.233-0.153,0.393v3.319l-4.147-3.473
				c-0.362-0.295-0.793-0.443-1.292-0.443c-0.498,0-0.929,0.148-1.292,0.443l-12.223,10.196c-0.113,0.09-0.176,0.212-0.187,0.365
				s0.028,0.287,0.119,0.4l1.054,1.26c0.091,0.102,0.209,0.165,0.357,0.187c0.136,0.012,0.272-0.027,0.408-0.118l11.764-9.822
				l11.764,9.822c0.09,0.079,0.209,0.118,0.357,0.118h0.051c0.147-0.021,0.266-0.085,0.357-0.187l1.054-1.26
				c0.09-0.113,0.13-0.247,0.119-0.4C437.886,18.99,437.824,18.868,437.711,18.778z"/>
		</g>
	</g>
	<circle fill="none" stroke="#FBA919" stroke-width="3" stroke-miterlimit="10" cx="424.196" cy="19.059" r="21"/>
</g>
<g>
	<g>
		<path fill="#FBA919" d="M574.991-98.377c-0.054-0.082-0.146-0.131-0.245-0.131c-0.097,0-0.189,0.049-0.245,0.131
			c-0.536,0.798-1.771,2.77-1.771,4.029c0,1.61,0.903,2.917,2.016,2.917c1.114,0,2.017-1.307,2.017-2.917
			C576.764-95.607,575.529-97.578,574.991-98.377L574.991-98.377z"/>
		<path fill="#FBA919" d="M580.247-88.186c0.891-0.891,1.412-3.158,1.596-4.103c0.019-0.097-0.012-0.196-0.08-0.265
			c-0.07-0.07-0.17-0.101-0.266-0.081c-0.944,0.184-3.211,0.705-4.103,1.596c-1.14,1.139-1.424,2.701-0.636,3.488
			S579.109-87.047,580.247-88.186L580.247-88.186z"/>
		<path fill="#FBA919" d="M583.113-85.843c-0.068-0.069-0.167-0.099-0.265-0.08c-1.1,0.209-4.054,0.86-5.193,2.001
			c-1.413,1.412-1.767,3.35-0.789,4.327c0.977,0.977,2.915,0.624,4.328-0.79c1.14-1.139,1.792-4.095,2-5.193
			C583.214-85.674,583.183-85.773,583.113-85.843L583.113-85.843z"/>
		<path fill="#FBA919" d="M567.997-92.635c-0.096-0.02-0.196,0.011-0.265,0.081c-0.07,0.069-0.101,0.169-0.081,0.266
			c0.184,0.944,0.706,3.21,1.597,4.102c1.139,1.14,2.699,1.424,3.488,0.637c0.788-0.788,0.502-2.35-0.637-3.488
			C571.208-91.93,568.942-92.45,567.997-92.635L567.997-92.635z"/>
		<path fill="#FBA919" d="M566.646-85.923c-0.097-0.019-0.195,0.011-0.266,0.08c-0.069,0.069-0.1,0.169-0.079,0.265
			c0.207,1.099,0.86,4.055,2,5.193c1.412,1.414,3.35,1.767,4.327,0.79c0.978-0.978,0.624-2.915-0.789-4.327
			C570.699-85.063,567.744-85.714,566.646-85.923L566.646-85.923z"/>
		<path fill="#FBA919" d="M574.746-90.641c-0.403,0-0.733,0.327-0.733,0.732v12.507c0,0.405,0.33,0.734,0.733,0.734
			c0.405,0,0.734-0.329,0.734-0.734v-12.507C575.48-90.313,575.151-90.641,574.746-90.641L574.746-90.641z"/>
	</g>
	<circle fill="none" stroke="#FBA919" stroke-width="3" stroke-miterlimit="10" cx="574.252" cy="-87.588" r="21"/>
</g>
<g>
	<g>
		<g>
			<path fill="#FBA919" d="M601.769,16.969h0.64c0.235,0,0.426-0.19,0.426-0.426v-0.639c0-0.236-0.19-0.428-0.426-0.428h-0.64
				c-0.235,0-0.427,0.191-0.427,0.428v0.639C601.342,16.778,601.533,16.969,601.769,16.969z"/>
			<path fill="#FBA919" d="M601.769,19.528h0.64c0.235,0,0.426-0.19,0.426-0.425v-0.642c0-0.234-0.19-0.426-0.426-0.426h-0.64
				c-0.235,0-0.427,0.191-0.427,0.426v0.642C601.342,19.338,601.533,19.528,601.769,19.528z"/>
			<path fill="#FBA919" d="M601.769,22.088h0.64c0.235,0,0.426-0.19,0.426-0.426v-0.64c0-0.235-0.19-0.427-0.426-0.427h-0.64
				c-0.235,0-0.427,0.191-0.427,0.427v0.64C601.342,21.897,601.533,22.088,601.769,22.088z"/>
			<path fill="#FBA919" d="M601.769,24.647h0.64c0.235,0,0.426-0.19,0.426-0.427V23.58c0-0.235-0.19-0.426-0.426-0.426h-0.64
				c-0.235,0-0.427,0.191-0.427,0.426v0.641C601.342,24.457,601.533,24.647,601.769,24.647z"/>
			<path fill="#FBA919" d="M604.008,16.969h0.641c0.235,0,0.426-0.19,0.426-0.426v-0.639c0-0.236-0.19-0.428-0.426-0.428h-0.641
				c-0.235,0-0.426,0.191-0.426,0.428v0.639C603.582,16.778,603.773,16.969,604.008,16.969z"/>
			<path fill="#FBA919" d="M604.008,19.528h0.641c0.235,0,0.426-0.19,0.426-0.425v-0.642c0-0.234-0.19-0.426-0.426-0.426h-0.641
				c-0.235,0-0.426,0.191-0.426,0.426v0.642C603.582,19.338,603.773,19.528,604.008,19.528z"/>
			<path fill="#FBA919" d="M604.008,22.088h0.641c0.235,0,0.426-0.19,0.426-0.426v-0.64c0-0.235-0.19-0.427-0.426-0.427h-0.641
				c-0.235,0-0.426,0.191-0.426,0.427v0.64C603.582,21.897,603.773,22.088,604.008,22.088z"/>
			<path fill="#FBA919" d="M604.008,24.647h0.641c0.235,0,0.426-0.19,0.426-0.427V23.58c0-0.235-0.19-0.426-0.426-0.426h-0.641
				c-0.235,0-0.426,0.191-0.426,0.426v0.641C603.582,24.457,603.773,24.647,604.008,24.647z"/>
			<path fill="#FBA919" d="M606.248,16.969h0.639c0.236,0,0.427-0.19,0.427-0.426v-0.639c0-0.236-0.19-0.428-0.427-0.428h-0.639
				c-0.235,0-0.427,0.191-0.427,0.428v0.639C605.821,16.778,606.013,16.969,606.248,16.969z"/>
			<path fill="#FBA919" d="M606.248,19.528h0.639c0.236,0,0.427-0.19,0.427-0.425v-0.642c0-0.234-0.19-0.426-0.427-0.426h-0.639
				c-0.235,0-0.427,0.191-0.427,0.426v0.642C605.821,19.338,606.013,19.528,606.248,19.528z"/>
			<path fill="#FBA919" d="M606.248,22.088h0.639c0.236,0,0.427-0.19,0.427-0.426v-0.64c0-0.235-0.19-0.427-0.427-0.427h-0.639
				c-0.235,0-0.427,0.191-0.427,0.427v0.64C605.821,21.897,606.013,22.088,606.248,22.088z"/>
			<path fill="#FBA919" d="M606.248,24.647h0.639c0.236,0,0.427-0.19,0.427-0.427V23.58c0-0.235-0.19-0.426-0.427-0.426h-0.639
				c-0.235,0-0.427,0.191-0.427,0.426v0.641C605.821,24.457,606.013,24.647,606.248,24.647z"/>
			<path fill="#FBA919" d="M610.299,16.969h0.64c0.236,0,0.428-0.19,0.428-0.426v-0.639c0-0.236-0.191-0.428-0.428-0.428h-0.64
				c-0.235,0-0.426,0.191-0.426,0.428v0.639C609.873,16.778,610.063,16.969,610.299,16.969z"/>
			<path fill="#FBA919" d="M610.299,14.409h0.64c0.236,0,0.428-0.19,0.428-0.427v-0.638c0-0.236-0.191-0.427-0.428-0.427h-0.64
				c-0.235,0-0.426,0.191-0.426,0.427v0.638C609.873,14.219,610.063,14.409,610.299,14.409z"/>
			<path fill="#FBA919" d="M610.299,11.85h0.64c0.236,0,0.428-0.19,0.428-0.426v-0.639c0-0.236-0.191-0.428-0.428-0.428h-0.64
				c-0.235,0-0.426,0.191-0.426,0.428v0.639C609.873,11.659,610.063,11.85,610.299,11.85z"/>
			<path fill="#FBA919" d="M610.299,19.528h0.64c0.236,0,0.428-0.19,0.428-0.425v-0.642c0-0.234-0.191-0.426-0.428-0.426h-0.64
				c-0.235,0-0.426,0.191-0.426,0.426v0.642C609.873,19.338,610.063,19.528,610.299,19.528z"/>
			<path fill="#FBA919" d="M610.299,22.088h0.64c0.236,0,0.428-0.19,0.428-0.426v-0.64c0-0.235-0.191-0.427-0.428-0.427h-0.64
				c-0.235,0-0.426,0.191-0.426,0.427v0.64C609.873,21.897,610.063,22.088,610.299,22.088z"/>
			<path fill="#FBA919" d="M610.299,24.647h0.64c0.236,0,0.428-0.19,0.428-0.427V23.58c0-0.235-0.191-0.426-0.428-0.426h-0.64
				c-0.235,0-0.426,0.191-0.426,0.426v0.641C609.873,24.457,610.063,24.647,610.299,24.647z"/>
			<path fill="#FBA919" d="M612.539,16.969h0.641c0.235,0,0.427-0.19,0.427-0.426v-0.639c0-0.236-0.192-0.428-0.427-0.428h-0.641
				c-0.236,0-0.427,0.191-0.427,0.428v0.639C612.112,16.778,612.303,16.969,612.539,16.969z"/>
			<path fill="#FBA919" d="M612.539,14.409h0.641c0.235,0,0.427-0.19,0.427-0.427v-0.638c0-0.236-0.192-0.427-0.427-0.427h-0.641
				c-0.236,0-0.427,0.191-0.427,0.427v0.638C612.112,14.219,612.303,14.409,612.539,14.409z"/>
			<path fill="#FBA919" d="M612.539,11.85h0.641c0.235,0,0.427-0.19,0.427-0.426v-0.639c0-0.236-0.192-0.428-0.427-0.428h-0.641
				c-0.236,0-0.427,0.191-0.427,0.428v0.639C612.112,11.659,612.303,11.85,612.539,11.85z"/>
			<path fill="#FBA919" d="M612.539,19.528h0.641c0.235,0,0.427-0.19,0.427-0.425v-0.642c0-0.234-0.192-0.426-0.427-0.426h-0.641
				c-0.236,0-0.427,0.191-0.427,0.426v0.642C612.112,19.338,612.303,19.528,612.539,19.528z"/>
			<path fill="#FBA919" d="M612.539,22.088h0.641c0.235,0,0.427-0.19,0.427-0.426v-0.64c0-0.235-0.192-0.427-0.427-0.427h-0.641
				c-0.236,0-0.427,0.191-0.427,0.427v0.64C612.112,21.897,612.303,22.088,612.539,22.088z"/>
			<path fill="#FBA919" d="M612.539,24.647h0.641c0.235,0,0.427-0.19,0.427-0.427V23.58c0-0.235-0.192-0.426-0.427-0.426h-0.641
				c-0.236,0-0.427,0.191-0.427,0.426v0.641C612.112,24.457,612.303,24.647,612.539,24.647z"/>
			<path fill="#FBA919" d="M614.779,16.969h0.64c0.235,0,0.426-0.19,0.426-0.426v-0.639c0-0.236-0.19-0.428-0.426-0.428h-0.64
				c-0.236,0-0.428,0.191-0.428,0.428v0.639C614.352,16.778,614.543,16.969,614.779,16.969z"/>
			<path fill="#FBA919" d="M614.779,14.409h0.64c0.235,0,0.426-0.19,0.426-0.427v-0.638c0-0.236-0.19-0.427-0.426-0.427h-0.64
				c-0.236,0-0.428,0.191-0.428,0.427v0.638C614.352,14.219,614.543,14.409,614.779,14.409z"/>
			<path fill="#FBA919" d="M614.779,11.85h0.64c0.235,0,0.426-0.19,0.426-0.426v-0.639c0-0.236-0.19-0.428-0.426-0.428h-0.64
				c-0.236,0-0.428,0.191-0.428,0.428v0.639C614.352,11.659,614.543,11.85,614.779,11.85z"/>
			<path fill="#FBA919" d="M614.779,19.528h0.64c0.235,0,0.426-0.19,0.426-0.425v-0.642c0-0.234-0.19-0.426-0.426-0.426h-0.64
				c-0.236,0-0.428,0.191-0.428,0.426v0.642C614.352,19.338,614.543,19.528,614.779,19.528z"/>
			<path fill="#FBA919" d="M614.779,22.088h0.64c0.235,0,0.426-0.19,0.426-0.426v-0.64c0-0.235-0.19-0.427-0.426-0.427h-0.64
				c-0.236,0-0.428,0.191-0.428,0.427v0.64C614.352,21.897,614.543,22.088,614.779,22.088z"/>
			<path fill="#FBA919" d="M614.779,24.647h0.64c0.235,0,0.426-0.19,0.426-0.427V23.58c0-0.235-0.19-0.426-0.426-0.426h-0.64
				c-0.236,0-0.428,0.191-0.428,0.426v0.641C614.352,24.457,614.543,24.647,614.779,24.647z"/>
			<path fill="#FBA919" d="M602.611,27.42c-0.235,0-0.426,0.19-0.426,0.428c0,0.234,0.19,0.426,0.426,0.426h0.011
				c0.235,0,0.427-0.191,0.427-0.426c0-0.237-0.191-0.428-0.427-0.428H602.611z"/>
			<path fill="#FBA919" d="M611.143,27.42c-0.235,0-0.426,0.19-0.426,0.428c0,0.234,0.19,0.426,0.426,0.426h0.011
				c0.235,0,0.426-0.191,0.426-0.426c0-0.237-0.191-0.428-0.426-0.428H611.143z"/>
			<path fill="#FBA919" d="M617.852,29.126h-0.3V8.565c0-0.235-0.191-0.427-0.428-0.427h-8.53c-0.235,0-0.426,0.192-0.426,0.427
				v5.204h-8.104c-0.236,0-0.427,0.191-0.427,0.427v14.93h-0.3c-0.236,0-0.428,0.19-0.428,0.425c0,0.237,0.191,0.428,0.428,0.428
				h0.727h4.265h2.56h1.706h4.266h2.56h1.705l0,0l0,0h0.728c0.236,0,0.427-0.19,0.427-0.428
				C618.278,29.316,618.087,29.126,617.852,29.126z M606.461,29.126h-1.706V27.42h1.706V29.126z M608.168,29.126h-0.854v-2.133
				c0-0.235-0.19-0.428-0.426-0.428h-2.56c-0.235,0-0.426,0.193-0.426,0.428v2.133h-3.413v-0.853h0.896
				c0.235,0,0.427-0.191,0.427-0.426c0-0.236-0.192-0.428-0.427-0.428h-0.896V14.623h7.679V29.126L608.168,29.126z M614.992,29.126
				h-1.707V27.42h1.707V29.126z M616.697,29.126h-0.853v-2.133c0-0.235-0.19-0.428-0.426-0.428h-2.56
				c-0.236,0-0.426,0.193-0.426,0.428v2.133h-3.413v-0.853h0.896c0.236,0,0.427-0.191,0.427-0.426c0-0.236-0.19-0.428-0.427-0.428
				h-0.896V14.196V8.992h7.678L616.697,29.126L616.697,29.126z"/>
		</g>
	</g>
	<circle fill="none" stroke="#FBA919" stroke-width="3" stroke-miterlimit="10" cx="609.664" cy="19.059" r="21"/>
</g>
<path fill="#FBA919" d="M537.29-14.156c-1.815-0.003-3.629,0-5.444,0h-0.916c-0.785-2.905-2.332-5.254-4.694-7.057
	c-0.084-0.064-0.193-0.164-0.197-0.251c-0.02-0.444-0.01-0.89-0.01-1.351c2.621,0,5.165,0.002,7.707-0.001
	c0.722-0.001,0.972-0.245,0.978-0.952c0.005-0.876,0.014-1.751-0.004-2.626c-0.006-0.318,0.068-0.513,0.369-0.697
	c0.889-0.546,1.168-1.692,0.692-2.604c-0.4-0.763-1.185-1.173-2.061-1.079c-0.803,0.087-1.496,0.707-1.702,1.522
	c-0.208,0.822,0.129,1.671,0.843,2.169c0.144,0.101,0.35,0.252,0.354,0.388c0.035,0.772,0.018,1.547,0.018,2.373h-0.566
	c-2.35,0-4.698,0-7.047,0.002c-0.888,0-1.078,0.196-1.08,1.095c-0.001,0.284,0,0.568,0,0.891c-0.537-0.229-1-0.416-1.451-0.625
	c-0.097-0.045-0.217-0.174-0.219-0.266c-0.016-0.92-0.009-1.84-0.009-2.802c0.222-0.01,0.395-0.024,0.566-0.024
	c1.28-0.001,2.56,0.003,3.84-0.003c0.746-0.003,0.997-0.254,0.999-0.99c0.003-1.102,0.008-2.204-0.005-3.305
	c-0.002-0.266,0.062-0.428,0.31-0.579c0.758-0.458,1.111-1.321,0.924-2.126c-0.214-0.919-0.978-1.567-1.896-1.608
	c-0.892-0.039-1.733,0.544-2.011,1.393c-0.29,0.883,0.042,1.796,0.834,2.34c0.134,0.092,0.321,0.237,0.325,0.362
	c0.025,0.984,0.015,1.968,0.015,3.006c-0.204,0-0.362,0-0.521,0c-0.972,0-1.945,0.015-2.915-0.001
	c-2.022-0.03-1.982-0.012-1.953,1.929c0.011,0.71,0.001,1.42,0.001,2.127c-0.86-0.103-1.672-0.2-2.515-0.3c0-0.188,0-0.348,0-0.508
	c0-1.686,0.001-3.37-0.002-5.055c-0.001-0.724-0.23-0.952-0.962-0.955c-1.249-0.005-2.496-0.01-3.744,0.005
	c-0.303,0.003-0.488-0.07-0.66-0.349c-0.514-0.828-1.48-1.14-2.373-0.817c-0.852,0.307-1.361,1.07-1.33,1.994
	c0.029,0.873,0.604,1.6,1.461,1.848c0.838,0.243,1.715-0.078,2.225-0.801c0.102-0.146,0.25-0.368,0.379-0.371
	c1.161-0.029,2.321-0.017,3.485-0.017v5.118c-3.479,0.567-5.888,1.724-7.891,3.957c-0.589,0.657-1.159,0.954-2.022,0.866
	c-0.714-0.073-1.442-0.016-2.19-0.016c0-0.719,0.009-1.366-0.001-2.012c-0.01-0.514-0.276-0.789-0.765-0.816
	c-0.145-0.009-0.292-0.002-0.438-0.002h-3.575v-0.577c0-1.879,0.009-3.759-0.007-5.638c-0.003-0.369,0.067-0.602,0.416-0.819
	c0.755-0.469,1.037-1.422,0.757-2.268c-0.269-0.818-1.062-1.391-1.917-1.388c-0.865,0.003-1.653,0.568-1.925,1.381
	c-0.28,0.841,0.001,1.803,0.751,2.271c0.346,0.216,0.426,0.447,0.423,0.818c-0.014,2.236-0.009,4.472-0.005,6.707
	c0.001,0.762,0.234,0.994,0.981,0.998c0.795,0.004,1.588,0,2.381,0h1.443c0,0.698-0.006,1.326,0.001,1.953
	c0.009,0.632,0.255,0.888,0.883,0.896c0.826,0.012,1.652,0.001,2.479,0.005c0.149,0,0.297,0.022,0.508,0.04
	c-0.982,1.758-1.503,3.574-1.648,5.527c-1.047,0-2.049,0.001-3.05,0c-0.845,0-1.078,0.226-1.078,1.05
	c0.001,2.674,0.002,5.347,0,8.02c0,0.173-0.013,0.346-0.021,0.5c-0.07,0.028-0.099,0.048-0.128,0.048
	c-0.794,0.005-1.588-0.004-2.382,0.015c-0.261,0.006-0.387-0.073-0.505-0.32c-0.432-0.905-1.276-1.319-2.238-1.14
	c-0.837,0.155-1.498,0.898-1.6,1.795c-0.097,0.852,0.426,1.714,1.246,2.057c0.832,0.349,1.735,0.092,2.367-0.625
	c0.135-0.153,0.39-0.274,0.592-0.279c1.037-0.029,2.074-0.014,3.111-0.016c0.855,0,1.069-0.21,1.07-1.055
	c0.001-2.656,0-5.314,0.001-7.972c0-0.187,0.016-0.375,0.024-0.559h2.583c0.019,0.073,0.031,0.103,0.034,0.135
	c0.417,4.466,2.58,7.826,6.424,10.111c0.263,0.156,0.346,0.324,0.345,0.614c-0.013,1.508-0.006,3.013-0.009,4.521
	c0,0.156-0.022,0.311-0.037,0.501c-1.87,0-3.699,0.006-5.525-0.014c-0.111-0.002-0.256-0.197-0.322-0.333
	c-0.421-0.865-1.265-1.332-2.187-1.19c-0.838,0.128-1.541,0.832-1.675,1.674c-0.141,0.89,0.328,1.777,1.146,2.165
	c0.805,0.381,1.748,0.16,2.396-0.515c0.154-0.16,0.425-0.29,0.644-0.292c2.025-0.022,4.05-0.013,6.075-0.016
	c0.751-0.001,0.99-0.24,0.992-0.985c0.004-1.571,0-3.143,0.002-4.714c0-0.167,0.015-0.335,0.022-0.531
	c3.518,1.205,6.893,0.971,10.219-0.674c0.013,0.211,0.028,0.367,0.028,0.523c0.001,0.843-0.004,1.686,0,2.528
	c0.002,0.769,0.252,1.008,1.026,1.009c0.807,0.001,1.615,0,2.486,0c0,1.437,0.009,2.795-0.014,4.153
	c-0.003,0.125-0.178,0.28-0.309,0.368c-0.784,0.529-1.136,1.413-0.888,2.284c0.244,0.858,1.063,1.472,1.957,1.469
	c0.9-0.003,1.682-0.602,1.939-1.485c0.251-0.866-0.089-1.773-0.902-2.258c-0.259-0.154-0.3-0.324-0.3-0.583
	c0.008-1.474,0.007-2.947,0.004-4.421c-0.002-0.804-0.234-1.031-1.049-1.033c-0.804-0.002-1.608,0-2.387,0
	c-0.037-0.092-0.059-0.12-0.059-0.148c-0.005-0.974,0.007-1.945-0.016-2.917c-0.009-0.325,0.101-0.518,0.354-0.723
	c3.486-2.81,5.114-6.461,4.894-10.935c-0.01-0.203-0.032-0.406-0.049-0.619h5.461v5.925c-0.069,0.017-0.1,0.032-0.132,0.033
	c-0.613,0.003-1.229,0.005-1.846,0.006c-0.812,0-1.038,0.223-1.038,1.034c-0.002,2.074-0.005,4.148,0.006,6.221
	c0.002,0.305-0.07,0.487-0.354,0.655c-0.798,0.475-1.127,1.399-0.869,2.274c0.251,0.846,1.035,1.438,1.921,1.45
	c0.87,0.012,1.691-0.584,1.95-1.415c0.271-0.871-0.044-1.799-0.824-2.292c-0.252-0.16-0.342-0.317-0.34-0.612
	c0.016-1.781,0.006-3.563,0.008-5.347c0-0.154,0.018-0.307,0.031-0.486c0.729,0,1.408,0.003,2.087-0.001
	c0.666-0.005,0.914-0.245,0.915-0.903c0.004-2.381,0.004-4.764,0.001-7.145C538.195-13.902,537.944-14.154,537.29-14.156z
	 M534.013-29.328c0.308,0,0.559,0.25,0.559,0.559c0,0.309-0.251,0.559-0.559,0.559c-0.31,0-0.56-0.25-0.56-0.559
	C533.453-29.078,533.703-29.328,534.013-29.328z M527.475-33.34c0.309,0,0.559,0.249,0.559,0.558c0,0.309-0.25,0.559-0.559,0.559
	s-0.559-0.25-0.559-0.559C526.916-33.091,527.166-33.34,527.475-33.34z M511.798-29.069c-0.309,0-0.558-0.251-0.558-0.559
	c0-0.31,0.25-0.559,0.558-0.559c0.308,0,0.56,0.25,0.56,0.559C512.356-29.32,512.106-29.069,511.798-29.069z M499.642-29.935
	c-0.309,0-0.56-0.25-0.56-0.559c0-0.309,0.251-0.559,0.56-0.559s0.559,0.25,0.559,0.559
	C500.201-30.186,499.95-29.935,499.642-29.935z M496.941-1.112c-0.309,0-0.558-0.25-0.558-0.559c0-0.31,0.25-0.56,0.558-0.56
	c0.308,0,0.559,0.251,0.559,0.56S497.249-1.112,496.941-1.112z M505.005,6.549c-0.309,0-0.559-0.25-0.559-0.56
	c0-0.308,0.25-0.559,0.559-0.559c0.308,0,0.56,0.25,0.56,0.559C505.564,6.298,505.313,6.549,505.005,6.549z M528.85,10.012
	c0.307,0,0.559,0.25,0.559,0.559c0,0.309-0.252,0.559-0.559,0.559c-0.31,0-0.559-0.25-0.559-0.559
	C528.291,10.263,528.54,10.012,528.85,10.012z M518.626,0.086c-6.201-0.006-11.178-5.017-11.17-11.248
	c0.009-6.107,5.059-11.125,11.17-11.097c6.2,0.029,11.196,5.03,11.184,11.193C529.795-4.922,524.771,0.09,518.626,0.086z
	 M534.439,3.508c-0.311,0-0.561-0.25-0.561-0.558c0-0.309,0.25-0.56,0.561-0.56c0.308,0,0.557,0.25,0.557,0.56
	C534.996,3.258,534.747,3.508,534.439,3.508z"/>
<circle fill="none" stroke="#FBA919" stroke-width="3" stroke-miterlimit="10" cx="516.577" cy="-12.09" r="35"/>
<line fill="none" stroke="#B7B7B8" stroke-linecap="round" stroke-miterlimit="10" stroke-dasharray="1.389,2.778" x1="516.578" y1="67.055" x2="516.578" y2="24.633"/>
<g>
	<path fill="#FBA919" d="M522.339,79.871l-2.56,2.585c-2.625-0.526-13.132-3.059-13.27-2.885c-0.153,0.193-0.207,0.327-0.515,0.717
		c3.03,2.317,6.119,4.534,9.158,6.84l-3.866,3.903l-5.389,0.339l0,0l4.737,2.774l2.659,4.695l0,0l0.334-5.424
		c1.265-1.267,2.539-2.524,3.809-3.785c2.307,3.1,4.524,6.251,6.842,9.343c0.386-0.311,0.517-0.365,0.712-0.521
		c0.171-0.141-2.416-11.079-2.881-13.515c0.872-0.896,1.736-1.797,2.588-2.711C529.239,77.367,527.293,74.865,522.339,79.871z"/>
	<circle fill="none" stroke="#FBA919" stroke-width="3" stroke-miterlimit="10" cx="516.577" cy="88.055" r="21"/>
</g>
<line fill="none" stroke="#B7B7B8" stroke-linecap="round" stroke-miterlimit="10" stroke-dasharray="1.389,2.778" x1="538.201" y1="-39.602" x2="560.598" y2="-69.114"/>
<line fill="none" stroke="#B7B7B8" stroke-linecap="round" stroke-miterlimit="10" stroke-dasharray="1.389,2.778" x1="495.16" y1="-39.602" x2="468.828" y2="-74.141"/>
<line fill="none" stroke="#B7B7B8" stroke-linecap="round" stroke-miterlimit="10" stroke-dasharray="1.389,2.778" x1="590.722" y1="12.483" x2="550.695" y2="-4.29"/>
<line fill="none" stroke="#B7B7B8" stroke-linecap="round" stroke-miterlimit="10" stroke-dasharray="1.389,2.778" x1="445.196" y1="12.067" x2="483.721" y2="-4.29"/>
</svg>
