<?xml version="1.0" encoding="utf-8"?>
<!-- Generator: Adobe Illustrator 16.0.0, SVG Export Plug-In . SVG Version: 6.00 Build 0)  -->
<!DOCTYPE svg PUBLIC "-//W3C//DTD SVG 1.1//EN" "http://www.w3.org/Graphics/SVG/1.1/DTD/svg11.dtd">
<svg version="1.1" id="Layer_1" xmlns="http://www.w3.org/2000/svg" xmlns:xlink="http://www.w3.org/1999/xlink" x="0px" y="0px"
	 width="20px" height="20px" viewBox="0 0 20 20" enable-background="new 0 0 20 20" xml:space="preserve">
<g>
	<path fill="#FBAA1D" d="M10,0C5,0,0.92,4.081,0.92,9.08v1.86C0.92,15.92,5,20,10,20c5,0,9.08-4.08,9.08-9.08V9.061
		C19.08,4.081,15,0,10,0 M2.54,14.58C2.38,14.24,2.22,13.9,2.1,13.52c0.14,0.24,0.28,0.46,0.44,0.68V14.58z M3.52,16.141
		c-0.14-0.159-0.259-0.34-0.379-0.5v-0.62c0.12,0.14,0.24,0.28,0.379,0.399V16.141z M4.899,17.48c-0.259-0.201-0.52-0.44-0.76-0.66
		V16c0.24,0.2,0.5,0.4,0.76,0.58V17.48z M6.319,18.381c-0.28-0.141-0.539-0.3-0.799-0.461V16.94c0.26,0.14,0.52,0.28,0.799,0.4
		V18.381z M7.92,18.98c-0.34-0.08-0.68-0.2-1-0.32v-1.04c0.32,0.12,0.66,0.22,1,0.299V18.98z M9.72,19.24
		c-0.401-0.02-0.8-0.06-1.18-0.12v-1.079c0.38,0.059,0.779,0.101,1.18,0.12V19.24z M11.521,19.1c-0.38,0.08-0.78,0.121-1.18,0.141
		v-1.1c0.399-0.021,0.8-0.06,1.18-0.121V19.1z M13.14,18.62c-0.319,0.14-0.659,0.24-0.999,0.34v-1.079
		c0.34-0.08,0.68-0.18,0.999-0.301V18.62z M14.56,17.881c-0.26,0.18-0.519,0.319-0.8,0.459v-1.02c0.281-0.12,0.54-0.26,0.8-0.42
		V17.881z M15.92,16.76c-0.24,0.241-0.5,0.48-0.76,0.68v-0.92c0.26-0.181,0.52-0.379,0.76-0.58V16.76z M16.9,15.561
		c-0.12,0.18-0.241,0.339-0.36,0.5v-0.701c0.12-0.119,0.241-0.259,0.36-0.399V15.561z M17.521,14.48V14.14
		c0.14-0.2,0.26-0.399,0.38-0.6C17.8,13.859,17.659,14.18,17.521,14.48 M10,17.38c-4.58,0-8.32-3.739-8.32-8.319
		C1.68,4.479,5.42,0.76,10,0.76s8.32,3.741,8.32,8.32C18.32,13.659,14.58,17.38,10,17.38"/>
	<path fill="#FBAA1D" d="M10.12,2.12c-3.84,0-6.96,3.12-6.96,6.96v0.16V9.4c0,0.059,0.019,0.18,0.019,0.259
		c0,0.041,0,0.081,0.021,0.121c0.36,3.5,3.32,6.26,6.92,6.26c3.601,0,6.579-2.76,6.92-6.28V9.741c0-0.081,0.021-0.141,0.021-0.221
		c0-0.14,0.021-0.3,0.021-0.439C17.08,5.24,13.96,2.12,10.12,2.12 M16.4,9.46v0.12c0,0.06-0.021,0.12-0.021,0.16
		c-0.339,3.16-3.02,5.64-6.26,5.64c-3.2,0-5.86-2.399-6.26-5.5c0-0.041,0-0.081-0.02-0.14C3.82,9.58,3.82,9.419,3.8,9.26
		c0.1-3.38,2.879-6.1,6.3-6.1C13.58,3.141,16.4,5.961,16.4,9.46C16.4,9.44,16.4,9.46,16.4,9.46"/>
	<path fill="#FBAA1D" d="M13.283,9.088l0.335-0.335c0.08-0.08,0.143-0.175,0.208-0.255c0.031,0,0.063,0.016,0.095,0.016
		c0.319,0,0.591-0.255,0.591-0.59c0-0.159-0.064-0.303-0.176-0.415c0.064-0.255,0.031-0.493-0.08-0.701
		c-0.255-0.478-0.956-0.67-1.96-0.526c-0.208,0.033-0.431,0.08-0.654,0.128c-0.304-1.228-0.845-2.121-1.594-2.121
		S8.773,5.182,8.454,6.41C8.231,6.346,8.008,6.314,7.8,6.282H7.784C7.721,6.027,7.497,5.836,7.227,5.836
		c-0.271,0-0.51,0.191-0.574,0.446C6.27,6.362,5.983,6.538,5.84,6.809C5.584,7.287,5.808,7.972,6.478,8.737
		C6.572,8.848,6.684,8.96,6.812,9.071c-0.844,0.813-1.307,1.658-0.972,2.28c0.207,0.366,0.669,0.573,1.338,0.573
		c0.192,0,0.399-0.016,0.623-0.048c0.208-0.031,0.431-0.08,0.654-0.127c0.303,1.228,0.845,2.12,1.593,2.12
		c0.239,0,0.462-0.096,0.669-0.271c0.064,0.032,0.145,0.049,0.224,0.049c0.319,0,0.591-0.256,0.591-0.591
		c0-0.158-0.064-0.303-0.176-0.414c0.111-0.271,0.208-0.574,0.287-0.893c0.224,0.063,0.446,0.096,0.654,0.127
		c0.224,0.032,0.431,0.048,0.622,0.048c0.669,0,1.132-0.19,1.339-0.573c0.256-0.479,0.032-1.164-0.638-1.929L13.283,9.088z
		 M12.343,6.744c0.208-0.031,0.399-0.047,0.574-0.047c0.478,0,0.813,0.111,0.925,0.334c0.047,0.08,0.063,0.191,0.047,0.319
		c-0.318,0.016-0.558,0.271-0.558,0.574c0,0.111,0.032,0.223,0.096,0.319c-0.047,0.064-0.111,0.127-0.159,0.191
		c-0.096,0.112-0.208,0.224-0.335,0.334c-0.319-0.271-0.669-0.542-1.052-0.796c-0.032-0.382-0.081-0.765-0.16-1.116
		C11.944,6.825,12.152,6.776,12.343,6.744 M10.732,10.348c-0.223,0.126-0.462,0.238-0.686,0.334
		c-0.223-0.11-0.462-0.222-0.686-0.334c-0.254-0.144-0.494-0.271-0.733-0.431C8.612,9.646,8.597,9.375,8.597,9.072
		c0-0.287,0.015-0.573,0.032-0.845c0.223-0.143,0.462-0.286,0.733-0.43c0.224-0.128,0.463-0.24,0.686-0.334
		c0.224,0.111,0.463,0.223,0.686,0.334c0.256,0.144,0.495,0.271,0.733,0.43c0.017,0.272,0.032,0.542,0.032,0.845
		c0,0.288-0.016,0.574-0.032,0.845C11.227,10.076,10.973,10.22,10.732,10.348 M11.402,10.491c-0.031,0.24-0.064,0.462-0.111,0.686
		c-0.224-0.064-0.463-0.159-0.701-0.255c0.111-0.064,0.224-0.112,0.35-0.175C11.099,10.666,11.242,10.586,11.402,10.491
		 M9.49,10.937c-0.24,0.096-0.463,0.174-0.702,0.256c-0.048-0.224-0.079-0.447-0.111-0.687c0.143,0.096,0.302,0.175,0.461,0.255
		C9.267,10.81,9.378,10.874,9.49,10.937 M8.166,9.614C7.927,9.439,7.704,9.264,7.497,9.088c0.208-0.175,0.43-0.351,0.669-0.526
		c0,0.175-0.015,0.351-0.015,0.526S8.151,9.439,8.166,9.614 M8.692,7.686C8.723,7.446,8.756,7.223,8.804,7
		c0.223,0.064,0.462,0.159,0.701,0.255c-0.111,0.064-0.224,0.111-0.35,0.176C8.996,7.51,8.835,7.59,8.692,7.686 M10.604,7.24
		c0.24-0.097,0.463-0.175,0.702-0.257c0.048,0.224,0.08,0.447,0.112,0.686c-0.144-0.095-0.304-0.175-0.463-0.255
		C10.828,7.366,10.717,7.302,10.604,7.24 M11.928,8.562c0.24,0.175,0.463,0.351,0.67,0.526c-0.207,0.175-0.43,0.351-0.67,0.526
		c0-0.175,0.017-0.351,0.017-0.526C11.928,8.913,11.928,8.737,11.928,8.562 M10.047,4.769c0.415,0,0.861,0.669,1.148,1.785
		c-0.367,0.111-0.766,0.255-1.148,0.43c-0.398-0.175-0.78-0.318-1.147-0.43C9.17,5.438,9.617,4.769,10.047,4.769 M6.828,8.45
		c-0.526-0.59-0.75-1.115-0.59-1.402c0.08-0.144,0.255-0.239,0.494-0.288c0.111,0.16,0.288,0.272,0.478,0.272
		c0.208,0,0.383-0.112,0.494-0.272h0.032c0.191,0.032,0.414,0.08,0.622,0.128C8.293,7.24,8.23,7.621,8.198,8.003
		C7.815,8.259,7.465,8.514,7.146,8.8C7.034,8.674,6.923,8.562,6.828,8.45 M7.736,11.432c-0.781,0.111-1.34,0-1.499-0.288
		c-0.191-0.35,0.144-1.019,0.909-1.753c0.319,0.271,0.669,0.542,1.053,0.797c0.032,0.382,0.079,0.764,0.159,1.115
		C8.151,11.352,7.927,11.399,7.736,11.432 M10.908,12.483c-0.318,0.017-0.558,0.272-0.558,0.573c0,0.08,0.017,0.145,0.048,0.208
		c-0.112,0.096-0.224,0.144-0.351,0.144c-0.415,0-0.861-0.67-1.148-1.785c0.367-0.112,0.765-0.256,1.148-0.43
		c0.398,0.175,0.78,0.317,1.147,0.43C11.115,11.957,11.02,12.244,10.908,12.483 M13.857,11.144
		c-0.159,0.288-0.718,0.398-1.498,0.288c-0.191-0.032-0.415-0.08-0.622-0.128c0.063-0.351,0.127-0.732,0.159-1.115
		c0.383-0.256,0.733-0.526,1.052-0.797l0.335,0.335C13.793,10.331,14,10.858,13.857,11.144 M10.621,9.088
		c0,0.318-0.255,0.589-0.59,0.589c-0.318,0-0.59-0.255-0.59-0.589c0-0.32,0.255-0.59,0.59-0.59S10.621,8.769,10.621,9.088"/>
</g>
</svg>
