<?xml version="1.0" encoding="utf-8"?>
<!-- Generator: Adobe Illustrator 16.0.0, SVG Export Plug-In . SVG Version: 6.00 Build 0)  -->
<!DOCTYPE svg PUBLIC "-//W3C//DTD SVG 1.1//EN" "http://www.w3.org/Graphics/SVG/1.1/DTD/svg11.dtd">
<svg version="1.1" id="Layer_1" xmlns="http://www.w3.org/2000/svg" xmlns:xlink="http://www.w3.org/1999/xlink" x="0px" y="0px"
	 width="200px" height="200px" viewBox="0 0 200 200" enable-background="new 0 0 200 200" xml:space="preserve">
<g>
	<path fill="#FBAA1B" d="M118.186,108.82H81.813c-1.455,0-2.634,1.181-2.634,2.635c0,1.455,1.18,2.635,2.634,2.635h36.373
		c1.455,0,2.635-1.18,2.635-2.635C120.82,110.001,119.641,108.82,118.186,108.82L118.186,108.82z"/>
	<path fill="#FBAA1B" d="M118.186,118.701H81.813c-1.455,0-2.634,1.18-2.634,2.633c0,1.455,1.18,2.635,2.634,2.635h36.373
		c1.455,0,2.635-1.18,2.635-2.635C120.82,119.881,119.641,118.701,118.186,118.701L118.186,118.701z"/>
	<path fill="#FBAA1B" d="M118.186,128.578H81.813c-1.455,0-2.634,1.18-2.634,2.635s1.18,2.635,2.634,2.635h36.373
		c1.455,0,2.635-1.18,2.635-2.635S119.641,128.578,118.186,128.578L118.186,128.578z"/>
	<path fill="#FBAA1B" d="M110.613,83.846l-4.62-2.128l-2.22-1.872l-3.438,3.422l1.583,10.583c0.006,0.038-0.005,0.078-0.027,0.11
		l-1.77,2.42c-0.028,0.039-0.073,0.063-0.121,0.063c-0.047,0-0.093-0.023-0.12-0.063l-1.771-2.42
		c-0.021-0.032-0.032-0.072-0.025-0.11l1.582-10.583l-3.439-3.422l-2.22,1.872l-4.62,2.128c-0.683,0.28-1.489,0.848-1.696,1.446
		c0,0-5.021,11.956-2.299,11.956h29.215c2.727,0-2.297-11.956-2.297-11.956C112.014,84.581,111.298,84.126,110.613,83.846
		L110.613,83.846z"/>
	<path fill="#FBAA1B" d="M100,79.779c4.727,0,8.252-4.403,8.332-11.785c0.051-5.123-2.389-8.188-8.332-8.188
		c-5.942,0-8.383,3.065-8.331,8.188C91.75,75.376,95.274,79.779,100,79.779L100,79.779z"/>
</g>
<g>
	<defs>
		<path id="SVGID_1_" d="M131.329,29.693c-1.96,0-3.492,1.575-3.492,3.521c0,1.954,1.617,3.525,3.562,3.525
			c1.951,0,3.523-1.572,3.523-3.525c0-1.946-1.572-3.521-3.523-3.521H131.329z"/>
	</defs>
	<clipPath id="SVGID_2_">
		<use xlink:href="#SVGID_1_"  overflow="visible"/>
	</clipPath>
	<rect x="127.837" y="29.693" clip-path="url(#SVGID_2_)" fill="#FAA819" width="7.085" height="7.049"/>
</g>
<path fill="#FAA819" d="M55.858,167.168v-7.63h88.273v7.63c0,6.855-5.578,12.427-12.437,12.427H68.279
	C61.436,179.595,55.858,174.023,55.858,167.168 M55.858,45.527h88.273v110.67H55.858V45.527z M55.858,33.292
	c0-6.855,5.578-12.429,12.421-12.429h63.416c6.858,0,12.437,5.573,12.437,12.429v8.903H55.858V33.292z M68.279,17.532
	c-8.68,0-15.747,7.077-15.747,15.76v133.876c0,8.695,7.066,15.759,15.747,15.759h63.416c8.692,0,15.756-7.063,15.756-15.759V33.292
	c0-8.683-7.063-15.76-15.756-15.76H68.279z"/>
<g>
	<defs>
		<path id="SVGID_3_" d="M55.858,167.168v-7.636h88.276v7.636c0,6.855-5.581,12.424-12.439,12.424H68.282
			C61.439,179.592,55.858,174.023,55.858,167.168 M55.858,45.527h88.276v110.67H55.858V45.527z M55.858,33.292
			c0-6.857,5.581-12.43,12.424-12.43h63.413c6.858,0,12.439,5.573,12.439,12.43v8.903H55.858V33.292z M68.282,17.532
			c-8.683,0-15.75,7.077-15.75,15.76v133.876c0,8.692,7.066,15.765,15.75,15.765h63.413c8.692,0,15.753-7.072,15.753-15.765V33.292
			c0-8.683-7.061-15.76-15.753-15.76H68.282z"/>
	</defs>
	<clipPath id="SVGID_4_">
		<use xlink:href="#SVGID_3_"  overflow="visible"/>
	</clipPath>
	<rect x="52.532" y="17.532" clip-path="url(#SVGID_4_)" fill="#FAA819" width="94.918" height="165.395"/>
</g>
<g>
	<defs>
		<path id="SVGID_5_" d="M92.806,166.991c-1.951,0-3.533,1.57-3.533,3.512c0,1.953,1.583,3.539,3.533,3.539h14.106
			c1.951,0,3.527-1.586,3.527-3.539c0-1.948-1.576-3.512-3.527-3.512H92.806z"/>
	</defs>
	<use xlink:href="#SVGID_5_"  overflow="visible" fill="#FAA819"/>
	<clipPath id="SVGID_6_">
		<use xlink:href="#SVGID_5_"  overflow="visible"/>
	</clipPath>
</g>
</svg>
