<?xml version="1.0" encoding="utf-8"?>
<!-- Generator: Adobe Illustrator 16.0.0, SVG Export Plug-In . SVG Version: 6.00 Build 0)  -->
<!DOCTYPE svg PUBLIC "-//W3C//DTD SVG 1.1//EN" "http://www.w3.org/Graphics/SVG/1.1/DTD/svg11.dtd">
<svg version="1.1" id="Layer_1" xmlns="http://www.w3.org/2000/svg" xmlns:xlink="http://www.w3.org/1999/xlink" x="0px" y="0px"
	 width="200px" height="200px" viewBox="0 0 200 200" enable-background="new 0 0 200 200" xml:space="preserve">
<path fill="#FBAA1B" d="M134.479,77.349v-9.7c0-2.046-0.899-4.01-2.496-5.321c-8.759-7.202-18.252-11.989-20.177-12.931
	c-0.203-0.124-0.367-0.328-0.367-0.574V35.195c1.718-1.145,2.865-3.109,2.865-5.319v-14.16c0-7.04-5.73-12.769-12.769-12.769h-3.029
	c-7.039,0-12.768,5.729-12.768,12.769v14.16c0,2.21,1.145,4.174,2.863,5.319v13.67c0,0.244-0.122,0.45-0.368,0.572
	c-1.924,0.941-11.378,5.729-20.177,12.933c-1.594,1.309-2.496,3.232-2.496,5.319v9.7h68.917V77.349z M134.479,77.349"/>
<path fill="#FBAA1B" d="M197.502,181.666c-8.756-7.203-18.252-11.99-20.174-12.934c-0.207-0.121-0.368-0.326-0.368-0.57V154.49
	c1.719-1.145,2.863-3.107,2.863-5.318v-14.16c0-7.041-5.729-12.77-12.77-12.77h-3.027c-7.039,0-12.768,5.729-12.768,12.77v14.16
	c0,2.211,1.146,4.174,2.864,5.318v13.672c0,0.244-0.123,0.449-0.369,0.57c-1.922,0.943-11.376,5.73-20.175,12.934
	c-1.597,1.311-2.498,3.232-2.498,5.32v9.699H200v-9.699C200,184.941,199.099,182.977,197.502,181.666L197.502,181.666z
	 M197.502,181.666"/>
<rect y="2.824" fill="none" width="200" height="194.352"/>
<path fill="#FBAA1B" d="M66.42,181.666c-8.758-7.203-18.252-11.99-20.177-12.934c-0.203-0.121-0.367-0.326-0.367-0.57V154.49
	c1.718-1.145,2.865-3.107,2.865-5.318v-14.16c0-7.041-5.73-12.77-12.769-12.77h-3.029c-7.038,0-12.768,5.729-12.768,12.77v14.16
	c0,2.211,1.146,4.174,2.864,5.318v13.672c0,0.244-0.122,0.449-0.368,0.57c-1.924,0.943-11.378,5.73-20.177,12.934
	C0.901,182.977,0,184.898,0,186.986v9.699h68.917v-9.699C68.917,184.941,68.018,182.977,66.42,181.666L66.42,181.666z
	 M66.42,181.666"/>
<path fill="#FBAA1B" d="M100.021,101.615c-2.538,0-4.584,2.047-4.584,4.586c0,2.537,2.046,4.623,4.584,4.623
	c2.537,0,4.584-2.047,4.584-4.623C104.604,103.662,102.558,101.615,100.021,101.615L100.021,101.615z M100.021,101.615"/>
<path fill="#FBAA1B" d="M104.604,119.666c0,2.531-2.053,4.584-4.584,4.584c-2.533,0-4.584-2.053-4.584-4.584
	c0-2.533,2.052-4.586,4.584-4.586C102.552,115.08,104.604,117.133,104.604,119.666L104.604,119.666z M104.604,119.666"/>
<path fill="#FBAA1B" d="M104.604,133.086c0,2.533-2.053,4.586-4.584,4.586c-2.533,0-4.584-2.053-4.584-4.586
	c0-2.529,2.052-4.58,4.584-4.58C102.552,128.506,104.604,130.557,104.604,133.086L104.604,133.086z M104.604,133.086"/>
<path fill="#FBAA1B" d="M100.021,88.152c-1.228,0-2.415,0.492-3.273,1.351c-0.86,0.859-1.351,2.046-1.351,3.275
	c0,1.227,0.491,2.413,1.351,3.273c0.859,0.859,2.046,1.351,3.273,1.351c1.229,0,2.413-0.492,3.274-1.351
	c0.86-0.86,1.349-2.046,1.349-3.273c0-1.229-0.488-2.417-1.349-3.275C102.434,88.644,101.249,88.152,100.021,88.152L100.021,88.152z
	 M100.021,88.152"/>
<path fill="#FBAA1B" d="M113.813,136.527c-2.129-1.395-4.993-0.779-6.345,1.391c-1.391,2.127-0.777,4.992,1.352,6.342
	c2.127,1.393,4.993,0.779,6.384-1.35C116.554,140.742,115.94,137.918,113.813,136.527L113.813,136.527z M113.813,136.527"/>
<path fill="#FBAA1B" d="M127.194,147.699c0,2.531-2.052,4.584-4.583,4.584c-2.532,0-4.585-2.053-4.585-4.584
	s2.053-4.584,4.585-4.584C125.143,143.115,127.194,145.168,127.194,147.699L127.194,147.699z M127.194,147.699"/>
<path fill="#FBAA1B" d="M138.489,154.982c0,2.531-2.053,4.584-4.582,4.584c-2.532,0-4.585-2.053-4.585-4.584
	s2.053-4.584,4.585-4.584C136.437,150.398,138.489,152.451,138.489,154.982L138.489,154.982z M138.489,154.982"/>
<path fill="#FBAA1B" d="M86.229,136.527c-2.129,1.391-2.743,4.215-1.392,6.383c1.392,2.129,4.214,2.742,6.384,1.35
	c2.128-1.391,2.742-4.215,1.351-6.342C91.221,135.748,88.356,135.133,86.229,136.527L86.229,136.527z M86.229,136.527"/>
<path fill="#FBAA1B" d="M82.013,147.699c0,2.531-2.052,4.584-4.584,4.584c-2.532,0-4.584-2.053-4.584-4.584s2.053-4.584,4.584-4.584
	C79.961,143.115,82.013,145.168,82.013,147.699L82.013,147.699z M82.013,147.699"/>
<path fill="#FBAA1B" d="M70.717,154.982c0,2.531-2.052,4.584-4.582,4.584c-2.532,0-4.584-2.053-4.584-4.584s2.052-4.584,4.584-4.584
	C68.665,150.398,70.717,152.451,70.717,154.982L70.717,154.982z M70.717,154.982"/>
</svg>
